G04 #@! TF.FileFunction,Legend,Top*
%FSLAX46Y46*%
G04 Gerber Fmt 4.6, Leading zero omitted, Abs format (unit mm)*
G04 Created by KiCad (PCBNEW 4.0.2-stable) date Friday, April 15, 2016 'PMt' 05:49:26 PM*
%MOMM*%
G01*
G04 APERTURE LIST*
%ADD10C,0.100000*%
%ADD11C,0.150000*%
G04 APERTURE END LIST*
D10*
D11*
X142590000Y-85944000D02*
X141890000Y-85944000D01*
X141890000Y-84744000D02*
X142590000Y-84744000D01*
X136998000Y-90074000D02*
X136998000Y-90774000D01*
X135798000Y-90774000D02*
X135798000Y-90074000D01*
X138338000Y-93822000D02*
X138338000Y-93122000D01*
X139538000Y-93122000D02*
X139538000Y-93822000D01*
X148498000Y-99664000D02*
X148498000Y-98964000D01*
X149698000Y-98964000D02*
X149698000Y-99664000D01*
X141890000Y-111414000D02*
X142590000Y-111414000D01*
X142590000Y-112614000D02*
X141890000Y-112614000D01*
X137064000Y-107350000D02*
X137764000Y-107350000D01*
X137764000Y-108550000D02*
X137064000Y-108550000D01*
X133696000Y-99472000D02*
X133696000Y-100172000D01*
X132496000Y-100172000D02*
X132496000Y-99472000D01*
X142240000Y-98970300D02*
X142240000Y-98068600D01*
X142240000Y-100120920D02*
X142240000Y-101119140D01*
X138838940Y-96418540D02*
X140040360Y-96418540D01*
X145641060Y-96418540D02*
X144439640Y-96418540D01*
X138838940Y-103167180D02*
X140040360Y-103167180D01*
X145641060Y-103167180D02*
X144439640Y-103167180D01*
X138838940Y-95968820D02*
X140091160Y-95968820D01*
X145641060Y-95968820D02*
X144388840Y-95968820D01*
X143040100Y-98970300D02*
X141439900Y-98970300D01*
X141490700Y-100120920D02*
X143040100Y-100120920D01*
X142240000Y-98970300D02*
X141490700Y-100120920D01*
X142240000Y-98970300D02*
X143040100Y-100120920D01*
X138838940Y-95968820D02*
X138838940Y-103167180D01*
X145641060Y-95968820D02*
X145641060Y-103167180D01*
X146954240Y-94771160D02*
X146954240Y-94722900D01*
X146253200Y-91972180D02*
X146954240Y-91972180D01*
X146954240Y-91972180D02*
X146954240Y-92221100D01*
X146954240Y-94771160D02*
X146954240Y-94971820D01*
X146954240Y-94971820D02*
X146253200Y-94971820D01*
X141740000Y-86701000D02*
X142740000Y-86701000D01*
X142740000Y-88051000D02*
X141740000Y-88051000D01*
X133009000Y-90178000D02*
X133009000Y-91178000D01*
X131659000Y-91178000D02*
X131659000Y-90178000D01*
X133691000Y-91178000D02*
X133691000Y-90178000D01*
X135041000Y-90178000D02*
X135041000Y-91178000D01*
X136152000Y-98131000D02*
X137152000Y-98131000D01*
X137152000Y-99481000D02*
X136152000Y-99481000D01*
X146725000Y-88908000D02*
X146725000Y-89908000D01*
X145375000Y-89908000D02*
X145375000Y-88908000D01*
X149614000Y-103465000D02*
X150614000Y-103465000D01*
X150614000Y-104815000D02*
X149614000Y-104815000D01*
X134533000Y-104148000D02*
X134533000Y-105148000D01*
X133183000Y-105148000D02*
X133183000Y-104148000D01*
X139359000Y-110498000D02*
X139359000Y-111498000D01*
X138009000Y-111498000D02*
X138009000Y-110498000D01*
X137073000Y-110498000D02*
X137073000Y-111498000D01*
X135723000Y-111498000D02*
X135723000Y-110498000D01*
X150614000Y-108625000D02*
X149614000Y-108625000D01*
X149614000Y-107275000D02*
X150614000Y-107275000D01*
X144040000Y-90124000D02*
G75*
G03X144040000Y-90124000I-100000J0D01*
G01*
X143690000Y-90674000D02*
X143690000Y-90174000D01*
X140790000Y-90674000D02*
X143690000Y-90674000D01*
X140790000Y-90174000D02*
X140790000Y-90674000D01*
X143690000Y-90174000D02*
X140790000Y-90174000D01*
X144040000Y-108666000D02*
G75*
G03X144040000Y-108666000I-100000J0D01*
G01*
X143690000Y-109216000D02*
X143690000Y-108716000D01*
X140790000Y-109216000D02*
X143690000Y-109216000D01*
X140790000Y-108716000D02*
X140790000Y-109216000D01*
X143690000Y-108716000D02*
X140790000Y-108716000D01*
X131318000Y-99822000D02*
X131318000Y-102362000D01*
X131598000Y-97002000D02*
X131598000Y-98552000D01*
X131318000Y-99822000D02*
X128778000Y-99822000D01*
X128498000Y-98552000D02*
X128498000Y-97002000D01*
X128498000Y-97002000D02*
X131598000Y-97002000D01*
X128778000Y-99822000D02*
X128778000Y-102362000D01*
X128778000Y-102362000D02*
X131318000Y-102362000D01*
X155702000Y-99822000D02*
X155702000Y-102362000D01*
X155982000Y-97002000D02*
X155982000Y-98552000D01*
X155702000Y-99822000D02*
X153162000Y-99822000D01*
X152882000Y-98552000D02*
X152882000Y-97002000D01*
X152882000Y-97002000D02*
X155982000Y-97002000D01*
X153162000Y-99822000D02*
X153162000Y-102362000D01*
X153162000Y-102362000D02*
X155702000Y-102362000D01*
X139025334Y-85955143D02*
X138977715Y-86002762D01*
X138834858Y-86050381D01*
X138739620Y-86050381D01*
X138596762Y-86002762D01*
X138501524Y-85907524D01*
X138453905Y-85812286D01*
X138406286Y-85621810D01*
X138406286Y-85478952D01*
X138453905Y-85288476D01*
X138501524Y-85193238D01*
X138596762Y-85098000D01*
X138739620Y-85050381D01*
X138834858Y-85050381D01*
X138977715Y-85098000D01*
X139025334Y-85145619D01*
X139977715Y-86050381D02*
X139406286Y-86050381D01*
X139692000Y-86050381D02*
X139692000Y-85050381D01*
X139596762Y-85193238D01*
X139501524Y-85288476D01*
X139406286Y-85336095D01*
X135977334Y-87987143D02*
X135929715Y-88034762D01*
X135786858Y-88082381D01*
X135691620Y-88082381D01*
X135548762Y-88034762D01*
X135453524Y-87939524D01*
X135405905Y-87844286D01*
X135358286Y-87653810D01*
X135358286Y-87510952D01*
X135405905Y-87320476D01*
X135453524Y-87225238D01*
X135548762Y-87130000D01*
X135691620Y-87082381D01*
X135786858Y-87082381D01*
X135929715Y-87130000D01*
X135977334Y-87177619D01*
X136358286Y-87177619D02*
X136405905Y-87130000D01*
X136501143Y-87082381D01*
X136739239Y-87082381D01*
X136834477Y-87130000D01*
X136882096Y-87177619D01*
X136929715Y-87272857D01*
X136929715Y-87368095D01*
X136882096Y-87510952D01*
X136310667Y-88082381D01*
X136929715Y-88082381D01*
X136231334Y-95353143D02*
X136183715Y-95400762D01*
X136040858Y-95448381D01*
X135945620Y-95448381D01*
X135802762Y-95400762D01*
X135707524Y-95305524D01*
X135659905Y-95210286D01*
X135612286Y-95019810D01*
X135612286Y-94876952D01*
X135659905Y-94686476D01*
X135707524Y-94591238D01*
X135802762Y-94496000D01*
X135945620Y-94448381D01*
X136040858Y-94448381D01*
X136183715Y-94496000D01*
X136231334Y-94543619D01*
X136564667Y-94448381D02*
X137183715Y-94448381D01*
X136850381Y-94829333D01*
X136993239Y-94829333D01*
X137088477Y-94876952D01*
X137136096Y-94924571D01*
X137183715Y-95019810D01*
X137183715Y-95257905D01*
X137136096Y-95353143D01*
X137088477Y-95400762D01*
X136993239Y-95448381D01*
X136707524Y-95448381D01*
X136612286Y-95400762D01*
X136564667Y-95353143D01*
X150963334Y-99925143D02*
X150915715Y-99972762D01*
X150772858Y-100020381D01*
X150677620Y-100020381D01*
X150534762Y-99972762D01*
X150439524Y-99877524D01*
X150391905Y-99782286D01*
X150344286Y-99591810D01*
X150344286Y-99448952D01*
X150391905Y-99258476D01*
X150439524Y-99163238D01*
X150534762Y-99068000D01*
X150677620Y-99020381D01*
X150772858Y-99020381D01*
X150915715Y-99068000D01*
X150963334Y-99115619D01*
X151820477Y-99353714D02*
X151820477Y-100020381D01*
X151582381Y-98972762D02*
X151344286Y-99687048D01*
X151963334Y-99687048D01*
X145121334Y-112371143D02*
X145073715Y-112418762D01*
X144930858Y-112466381D01*
X144835620Y-112466381D01*
X144692762Y-112418762D01*
X144597524Y-112323524D01*
X144549905Y-112228286D01*
X144502286Y-112037810D01*
X144502286Y-111894952D01*
X144549905Y-111704476D01*
X144597524Y-111609238D01*
X144692762Y-111514000D01*
X144835620Y-111466381D01*
X144930858Y-111466381D01*
X145073715Y-111514000D01*
X145121334Y-111561619D01*
X146026096Y-111466381D02*
X145549905Y-111466381D01*
X145502286Y-111942571D01*
X145549905Y-111894952D01*
X145645143Y-111847333D01*
X145883239Y-111847333D01*
X145978477Y-111894952D01*
X146026096Y-111942571D01*
X146073715Y-112037810D01*
X146073715Y-112275905D01*
X146026096Y-112371143D01*
X145978477Y-112418762D01*
X145883239Y-112466381D01*
X145645143Y-112466381D01*
X145549905Y-112418762D01*
X145502286Y-112371143D01*
X138263334Y-106529143D02*
X138215715Y-106576762D01*
X138072858Y-106624381D01*
X137977620Y-106624381D01*
X137834762Y-106576762D01*
X137739524Y-106481524D01*
X137691905Y-106386286D01*
X137644286Y-106195810D01*
X137644286Y-106052952D01*
X137691905Y-105862476D01*
X137739524Y-105767238D01*
X137834762Y-105672000D01*
X137977620Y-105624381D01*
X138072858Y-105624381D01*
X138215715Y-105672000D01*
X138263334Y-105719619D01*
X139120477Y-105624381D02*
X138930000Y-105624381D01*
X138834762Y-105672000D01*
X138787143Y-105719619D01*
X138691905Y-105862476D01*
X138644286Y-106052952D01*
X138644286Y-106433905D01*
X138691905Y-106529143D01*
X138739524Y-106576762D01*
X138834762Y-106624381D01*
X139025239Y-106624381D01*
X139120477Y-106576762D01*
X139168096Y-106529143D01*
X139215715Y-106433905D01*
X139215715Y-106195810D01*
X139168096Y-106100571D01*
X139120477Y-106052952D01*
X139025239Y-106005333D01*
X138834762Y-106005333D01*
X138739524Y-106052952D01*
X138691905Y-106100571D01*
X138644286Y-106195810D01*
X133183334Y-97131143D02*
X133135715Y-97178762D01*
X132992858Y-97226381D01*
X132897620Y-97226381D01*
X132754762Y-97178762D01*
X132659524Y-97083524D01*
X132611905Y-96988286D01*
X132564286Y-96797810D01*
X132564286Y-96654952D01*
X132611905Y-96464476D01*
X132659524Y-96369238D01*
X132754762Y-96274000D01*
X132897620Y-96226381D01*
X132992858Y-96226381D01*
X133135715Y-96274000D01*
X133183334Y-96321619D01*
X133516667Y-96226381D02*
X134183334Y-96226381D01*
X133754762Y-97226381D01*
X143787905Y-100782381D02*
X143787905Y-99782381D01*
X144026000Y-99782381D01*
X144168858Y-99830000D01*
X144264096Y-99925238D01*
X144311715Y-100020476D01*
X144359334Y-100210952D01*
X144359334Y-100353810D01*
X144311715Y-100544286D01*
X144264096Y-100639524D01*
X144168858Y-100734762D01*
X144026000Y-100782381D01*
X143787905Y-100782381D01*
X145311715Y-100782381D02*
X144740286Y-100782381D01*
X145026000Y-100782381D02*
X145026000Y-99782381D01*
X144930762Y-99925238D01*
X144835524Y-100020476D01*
X144740286Y-100068095D01*
X147224762Y-96559619D02*
X147129524Y-96512000D01*
X147034286Y-96416762D01*
X146891429Y-96273905D01*
X146796190Y-96226286D01*
X146700952Y-96226286D01*
X146748571Y-96464381D02*
X146653333Y-96416762D01*
X146558095Y-96321524D01*
X146510476Y-96131048D01*
X146510476Y-95797714D01*
X146558095Y-95607238D01*
X146653333Y-95512000D01*
X146748571Y-95464381D01*
X146939048Y-95464381D01*
X147034286Y-95512000D01*
X147129524Y-95607238D01*
X147177143Y-95797714D01*
X147177143Y-96131048D01*
X147129524Y-96321524D01*
X147034286Y-96416762D01*
X146939048Y-96464381D01*
X146748571Y-96464381D01*
X148129524Y-96464381D02*
X147558095Y-96464381D01*
X147843809Y-96464381D02*
X147843809Y-95464381D01*
X147748571Y-95607238D01*
X147653333Y-95702476D01*
X147558095Y-95750095D01*
X139025334Y-87574381D02*
X138692000Y-87098190D01*
X138453905Y-87574381D02*
X138453905Y-86574381D01*
X138834858Y-86574381D01*
X138930096Y-86622000D01*
X138977715Y-86669619D01*
X139025334Y-86764857D01*
X139025334Y-86907714D01*
X138977715Y-87002952D01*
X138930096Y-87050571D01*
X138834858Y-87098190D01*
X138453905Y-87098190D01*
X139977715Y-87574381D02*
X139406286Y-87574381D01*
X139692000Y-87574381D02*
X139692000Y-86574381D01*
X139596762Y-86717238D01*
X139501524Y-86812476D01*
X139406286Y-86860095D01*
X131913334Y-94178381D02*
X131580000Y-93702190D01*
X131341905Y-94178381D02*
X131341905Y-93178381D01*
X131722858Y-93178381D01*
X131818096Y-93226000D01*
X131865715Y-93273619D01*
X131913334Y-93368857D01*
X131913334Y-93511714D01*
X131865715Y-93606952D01*
X131818096Y-93654571D01*
X131722858Y-93702190D01*
X131341905Y-93702190D01*
X132294286Y-93273619D02*
X132341905Y-93226000D01*
X132437143Y-93178381D01*
X132675239Y-93178381D01*
X132770477Y-93226000D01*
X132818096Y-93273619D01*
X132865715Y-93368857D01*
X132865715Y-93464095D01*
X132818096Y-93606952D01*
X132246667Y-94178381D01*
X132865715Y-94178381D01*
X134199334Y-94178381D02*
X133866000Y-93702190D01*
X133627905Y-94178381D02*
X133627905Y-93178381D01*
X134008858Y-93178381D01*
X134104096Y-93226000D01*
X134151715Y-93273619D01*
X134199334Y-93368857D01*
X134199334Y-93511714D01*
X134151715Y-93606952D01*
X134104096Y-93654571D01*
X134008858Y-93702190D01*
X133627905Y-93702190D01*
X134532667Y-93178381D02*
X135151715Y-93178381D01*
X134818381Y-93559333D01*
X134961239Y-93559333D01*
X135056477Y-93606952D01*
X135104096Y-93654571D01*
X135151715Y-93749810D01*
X135151715Y-93987905D01*
X135104096Y-94083143D01*
X135056477Y-94130762D01*
X134961239Y-94178381D01*
X134675524Y-94178381D01*
X134580286Y-94130762D01*
X134532667Y-94083143D01*
X136485334Y-101036381D02*
X136152000Y-100560190D01*
X135913905Y-101036381D02*
X135913905Y-100036381D01*
X136294858Y-100036381D01*
X136390096Y-100084000D01*
X136437715Y-100131619D01*
X136485334Y-100226857D01*
X136485334Y-100369714D01*
X136437715Y-100464952D01*
X136390096Y-100512571D01*
X136294858Y-100560190D01*
X135913905Y-100560190D01*
X137342477Y-100369714D02*
X137342477Y-101036381D01*
X137104381Y-99988762D02*
X136866286Y-100703048D01*
X137485334Y-100703048D01*
X147915334Y-87574381D02*
X147582000Y-87098190D01*
X147343905Y-87574381D02*
X147343905Y-86574381D01*
X147724858Y-86574381D01*
X147820096Y-86622000D01*
X147867715Y-86669619D01*
X147915334Y-86764857D01*
X147915334Y-86907714D01*
X147867715Y-87002952D01*
X147820096Y-87050571D01*
X147724858Y-87098190D01*
X147343905Y-87098190D01*
X148820096Y-86574381D02*
X148343905Y-86574381D01*
X148296286Y-87050571D01*
X148343905Y-87002952D01*
X148439143Y-86955333D01*
X148677239Y-86955333D01*
X148772477Y-87002952D01*
X148820096Y-87050571D01*
X148867715Y-87145810D01*
X148867715Y-87383905D01*
X148820096Y-87479143D01*
X148772477Y-87526762D01*
X148677239Y-87574381D01*
X148439143Y-87574381D01*
X148343905Y-87526762D01*
X148296286Y-87479143D01*
X152995334Y-104592381D02*
X152662000Y-104116190D01*
X152423905Y-104592381D02*
X152423905Y-103592381D01*
X152804858Y-103592381D01*
X152900096Y-103640000D01*
X152947715Y-103687619D01*
X152995334Y-103782857D01*
X152995334Y-103925714D01*
X152947715Y-104020952D01*
X152900096Y-104068571D01*
X152804858Y-104116190D01*
X152423905Y-104116190D01*
X153852477Y-103592381D02*
X153662000Y-103592381D01*
X153566762Y-103640000D01*
X153519143Y-103687619D01*
X153423905Y-103830476D01*
X153376286Y-104020952D01*
X153376286Y-104401905D01*
X153423905Y-104497143D01*
X153471524Y-104544762D01*
X153566762Y-104592381D01*
X153757239Y-104592381D01*
X153852477Y-104544762D01*
X153900096Y-104497143D01*
X153947715Y-104401905D01*
X153947715Y-104163810D01*
X153900096Y-104068571D01*
X153852477Y-104020952D01*
X153757239Y-103973333D01*
X153566762Y-103973333D01*
X153471524Y-104020952D01*
X153423905Y-104068571D01*
X153376286Y-104163810D01*
X135977334Y-103830381D02*
X135644000Y-103354190D01*
X135405905Y-103830381D02*
X135405905Y-102830381D01*
X135786858Y-102830381D01*
X135882096Y-102878000D01*
X135929715Y-102925619D01*
X135977334Y-103020857D01*
X135977334Y-103163714D01*
X135929715Y-103258952D01*
X135882096Y-103306571D01*
X135786858Y-103354190D01*
X135405905Y-103354190D01*
X136310667Y-102830381D02*
X136977334Y-102830381D01*
X136548762Y-103830381D01*
X134310381Y-110402666D02*
X133834190Y-110736000D01*
X134310381Y-110974095D02*
X133310381Y-110974095D01*
X133310381Y-110593142D01*
X133358000Y-110497904D01*
X133405619Y-110450285D01*
X133500857Y-110402666D01*
X133643714Y-110402666D01*
X133738952Y-110450285D01*
X133786571Y-110497904D01*
X133834190Y-110593142D01*
X133834190Y-110974095D01*
X133738952Y-109831238D02*
X133691333Y-109926476D01*
X133643714Y-109974095D01*
X133548476Y-110021714D01*
X133500857Y-110021714D01*
X133405619Y-109974095D01*
X133358000Y-109926476D01*
X133310381Y-109831238D01*
X133310381Y-109640761D01*
X133358000Y-109545523D01*
X133405619Y-109497904D01*
X133500857Y-109450285D01*
X133548476Y-109450285D01*
X133643714Y-109497904D01*
X133691333Y-109545523D01*
X133738952Y-109640761D01*
X133738952Y-109831238D01*
X133786571Y-109926476D01*
X133834190Y-109974095D01*
X133929429Y-110021714D01*
X134119905Y-110021714D01*
X134215143Y-109974095D01*
X134262762Y-109926476D01*
X134310381Y-109831238D01*
X134310381Y-109640761D01*
X134262762Y-109545523D01*
X134215143Y-109497904D01*
X134119905Y-109450285D01*
X133929429Y-109450285D01*
X133834190Y-109497904D01*
X133786571Y-109545523D01*
X133738952Y-109640761D01*
X132278381Y-109132666D02*
X131802190Y-109466000D01*
X132278381Y-109704095D02*
X131278381Y-109704095D01*
X131278381Y-109323142D01*
X131326000Y-109227904D01*
X131373619Y-109180285D01*
X131468857Y-109132666D01*
X131611714Y-109132666D01*
X131706952Y-109180285D01*
X131754571Y-109227904D01*
X131802190Y-109323142D01*
X131802190Y-109704095D01*
X132278381Y-108656476D02*
X132278381Y-108466000D01*
X132230762Y-108370761D01*
X132183143Y-108323142D01*
X132040286Y-108227904D01*
X131849810Y-108180285D01*
X131468857Y-108180285D01*
X131373619Y-108227904D01*
X131326000Y-108275523D01*
X131278381Y-108370761D01*
X131278381Y-108561238D01*
X131326000Y-108656476D01*
X131373619Y-108704095D01*
X131468857Y-108751714D01*
X131706952Y-108751714D01*
X131802190Y-108704095D01*
X131849810Y-108656476D01*
X131897429Y-108561238D01*
X131897429Y-108370761D01*
X131849810Y-108275523D01*
X131802190Y-108227904D01*
X131706952Y-108180285D01*
X149471143Y-110180381D02*
X149137809Y-109704190D01*
X148899714Y-110180381D02*
X148899714Y-109180381D01*
X149280667Y-109180381D01*
X149375905Y-109228000D01*
X149423524Y-109275619D01*
X149471143Y-109370857D01*
X149471143Y-109513714D01*
X149423524Y-109608952D01*
X149375905Y-109656571D01*
X149280667Y-109704190D01*
X148899714Y-109704190D01*
X150423524Y-110180381D02*
X149852095Y-110180381D01*
X150137809Y-110180381D02*
X150137809Y-109180381D01*
X150042571Y-109323238D01*
X149947333Y-109418476D01*
X149852095Y-109466095D01*
X151042571Y-109180381D02*
X151137810Y-109180381D01*
X151233048Y-109228000D01*
X151280667Y-109275619D01*
X151328286Y-109370857D01*
X151375905Y-109561333D01*
X151375905Y-109799429D01*
X151328286Y-109989905D01*
X151280667Y-110085143D01*
X151233048Y-110132762D01*
X151137810Y-110180381D01*
X151042571Y-110180381D01*
X150947333Y-110132762D01*
X150899714Y-110085143D01*
X150852095Y-109989905D01*
X150804476Y-109799429D01*
X150804476Y-109561333D01*
X150852095Y-109370857D01*
X150899714Y-109275619D01*
X150947333Y-109228000D01*
X151042571Y-109180381D01*
X138684095Y-89622381D02*
X138684095Y-90431905D01*
X138731714Y-90527143D01*
X138779333Y-90574762D01*
X138874571Y-90622381D01*
X139065048Y-90622381D01*
X139160286Y-90574762D01*
X139207905Y-90527143D01*
X139255524Y-90431905D01*
X139255524Y-89622381D01*
X140255524Y-90622381D02*
X139684095Y-90622381D01*
X139969809Y-90622381D02*
X139969809Y-89622381D01*
X139874571Y-89765238D01*
X139779333Y-89860476D01*
X139684095Y-89908095D01*
X144272095Y-107402381D02*
X144272095Y-108211905D01*
X144319714Y-108307143D01*
X144367333Y-108354762D01*
X144462571Y-108402381D01*
X144653048Y-108402381D01*
X144748286Y-108354762D01*
X144795905Y-108307143D01*
X144843524Y-108211905D01*
X144843524Y-107402381D01*
X145272095Y-107497619D02*
X145319714Y-107450000D01*
X145414952Y-107402381D01*
X145653048Y-107402381D01*
X145748286Y-107450000D01*
X145795905Y-107497619D01*
X145843524Y-107592857D01*
X145843524Y-107688095D01*
X145795905Y-107830952D01*
X145224476Y-108402381D01*
X145843524Y-108402381D01*
X129309905Y-104592381D02*
X129309905Y-103592381D01*
X129690858Y-103592381D01*
X129786096Y-103640000D01*
X129833715Y-103687619D01*
X129881334Y-103782857D01*
X129881334Y-103925714D01*
X129833715Y-104020952D01*
X129786096Y-104068571D01*
X129690858Y-104116190D01*
X129309905Y-104116190D01*
X130833715Y-104592381D02*
X130262286Y-104592381D01*
X130548000Y-104592381D02*
X130548000Y-103592381D01*
X130452762Y-103735238D01*
X130357524Y-103830476D01*
X130262286Y-103878095D01*
X153439905Y-95956381D02*
X153439905Y-94956381D01*
X153820858Y-94956381D01*
X153916096Y-95004000D01*
X153963715Y-95051619D01*
X154011334Y-95146857D01*
X154011334Y-95289714D01*
X153963715Y-95384952D01*
X153916096Y-95432571D01*
X153820858Y-95480190D01*
X153439905Y-95480190D01*
X154392286Y-95051619D02*
X154439905Y-95004000D01*
X154535143Y-94956381D01*
X154773239Y-94956381D01*
X154868477Y-95004000D01*
X154916096Y-95051619D01*
X154963715Y-95146857D01*
X154963715Y-95242095D01*
X154916096Y-95384952D01*
X154344667Y-95956381D01*
X154963715Y-95956381D01*
M02*
