G04 #@! TF.FileFunction,Soldermask,Top*
%FSLAX46Y46*%
G04 Gerber Fmt 4.6, Leading zero omitted, Abs format (unit mm)*
G04 Created by KiCad (PCBNEW 4.0.2-stable) date Friday, April 15, 2016 'PMt' 05:49:26 PM*
%MOMM*%
G01*
G04 APERTURE LIST*
%ADD10C,0.100000*%
%ADD11R,1.600000X1.150000*%
%ADD12R,1.150000X1.600000*%
%ADD13R,3.699460X4.900880*%
%ADD14R,1.200100X1.200100*%
%ADD15R,1.600000X1.300000*%
%ADD16R,1.300000X1.600000*%
%ADD17R,1.050000X1.460000*%
%ADD18R,2.432000X2.432000*%
%ADD19O,2.432000X2.432000*%
G04 APERTURE END LIST*
D10*
D11*
X143190000Y-85344000D03*
X141290000Y-85344000D03*
D12*
X136398000Y-89474000D03*
X136398000Y-91374000D03*
X138938000Y-94422000D03*
X138938000Y-92522000D03*
X149098000Y-100264000D03*
X149098000Y-98364000D03*
D11*
X141290000Y-112014000D03*
X143190000Y-112014000D03*
X136464000Y-107950000D03*
X138364000Y-107950000D03*
D12*
X133096000Y-98872000D03*
X133096000Y-100772000D03*
D13*
X142240000Y-95166180D03*
X142240000Y-103969820D03*
D14*
X145303240Y-92522000D03*
X145303240Y-94422000D03*
X147302220Y-93472000D03*
D15*
X143340000Y-87376000D03*
X141140000Y-87376000D03*
D16*
X132334000Y-91778000D03*
X132334000Y-89578000D03*
X134366000Y-89578000D03*
X134366000Y-91778000D03*
D15*
X137752000Y-98806000D03*
X135552000Y-98806000D03*
D16*
X146050000Y-90508000D03*
X146050000Y-88308000D03*
D15*
X151214000Y-104140000D03*
X149014000Y-104140000D03*
D16*
X133858000Y-105748000D03*
X133858000Y-103548000D03*
X138684000Y-112098000D03*
X138684000Y-109898000D03*
X136398000Y-112098000D03*
X136398000Y-109898000D03*
D15*
X149014000Y-107950000D03*
X151214000Y-107950000D03*
D17*
X143190000Y-89324000D03*
X142240000Y-89324000D03*
X141290000Y-89324000D03*
X141290000Y-91524000D03*
X143190000Y-91524000D03*
X143190000Y-107866000D03*
X142240000Y-107866000D03*
X141290000Y-107866000D03*
X141290000Y-110066000D03*
X143190000Y-110066000D03*
D18*
X130048000Y-98552000D03*
D19*
X130048000Y-101092000D03*
D18*
X154432000Y-98552000D03*
D19*
X154432000Y-101092000D03*
M02*
