G04 #@! TF.FileFunction,Legend,Top*
%FSLAX46Y46*%
G04 Gerber Fmt 4.6, Leading zero omitted, Abs format (unit mm)*
G04 Created by KiCad (PCBNEW 4.0.2-stable) date Thursday, May 05, 2016 'AMt' 11:28:06 AM*
%MOMM*%
G01*
G04 APERTURE LIST*
%ADD10C,0.100000*%
%ADD11C,0.150000*%
G04 APERTURE END LIST*
D10*
D11*
X137760000Y-92868000D02*
X137760000Y-93568000D01*
X136560000Y-93568000D02*
X136560000Y-92868000D01*
X143668000Y-85252000D02*
X144368000Y-85252000D01*
X144368000Y-86452000D02*
X143668000Y-86452000D01*
X145634000Y-90074000D02*
X145634000Y-90774000D01*
X144434000Y-90774000D02*
X144434000Y-90074000D01*
X134782000Y-100934000D02*
X134782000Y-100234000D01*
X135982000Y-100234000D02*
X135982000Y-100934000D01*
X141890000Y-111414000D02*
X142590000Y-111414000D01*
X142590000Y-112614000D02*
X141890000Y-112614000D01*
X137064000Y-107350000D02*
X137764000Y-107350000D01*
X137764000Y-108550000D02*
X137064000Y-108550000D01*
X133442000Y-100234000D02*
X133442000Y-100934000D01*
X132242000Y-100934000D02*
X132242000Y-100234000D01*
X142240000Y-98970300D02*
X142240000Y-98068600D01*
X142240000Y-100120920D02*
X142240000Y-101119140D01*
X138838940Y-96418540D02*
X140040360Y-96418540D01*
X145641060Y-96418540D02*
X144439640Y-96418540D01*
X138838940Y-103167180D02*
X140040360Y-103167180D01*
X145641060Y-103167180D02*
X144439640Y-103167180D01*
X138838940Y-95968820D02*
X140091160Y-95968820D01*
X145641060Y-95968820D02*
X144388840Y-95968820D01*
X143040100Y-98970300D02*
X141439900Y-98970300D01*
X141490700Y-100120920D02*
X143040100Y-100120920D01*
X142240000Y-98970300D02*
X141490700Y-100120920D01*
X142240000Y-98970300D02*
X143040100Y-100120920D01*
X138838940Y-95968820D02*
X138838940Y-103167180D01*
X145641060Y-95968820D02*
X145641060Y-103167180D01*
X148478240Y-96549160D02*
X148478240Y-96500900D01*
X147777200Y-93750180D02*
X148478240Y-93750180D01*
X148478240Y-93750180D02*
X148478240Y-93999100D01*
X148478240Y-96549160D02*
X148478240Y-96749820D01*
X148478240Y-96749820D02*
X147777200Y-96749820D01*
X138517000Y-93718000D02*
X138517000Y-92718000D01*
X139867000Y-92718000D02*
X139867000Y-93718000D01*
X140454000Y-88305000D02*
X139454000Y-88305000D01*
X139454000Y-86955000D02*
X140454000Y-86955000D01*
X139454000Y-85177000D02*
X140454000Y-85177000D01*
X140454000Y-86527000D02*
X139454000Y-86527000D01*
X147487000Y-89924000D02*
X147487000Y-90924000D01*
X146137000Y-90924000D02*
X146137000Y-89924000D01*
X149265000Y-90940000D02*
X149265000Y-91940000D01*
X147915000Y-91940000D02*
X147915000Y-90940000D01*
X134612000Y-105323000D02*
X133612000Y-105323000D01*
X133612000Y-103973000D02*
X134612000Y-103973000D01*
X146550000Y-110657000D02*
X145550000Y-110657000D01*
X145550000Y-109307000D02*
X146550000Y-109307000D01*
X139359000Y-110498000D02*
X139359000Y-111498000D01*
X138009000Y-111498000D02*
X138009000Y-110498000D01*
X137073000Y-110498000D02*
X137073000Y-111498000D01*
X135723000Y-111498000D02*
X135723000Y-110498000D01*
X146550000Y-108625000D02*
X145550000Y-108625000D01*
X145550000Y-107275000D02*
X146550000Y-107275000D01*
X144040000Y-90124000D02*
G75*
G03X144040000Y-90124000I-100000J0D01*
G01*
X143690000Y-90674000D02*
X143690000Y-90174000D01*
X140790000Y-90674000D02*
X143690000Y-90674000D01*
X140790000Y-90174000D02*
X140790000Y-90674000D01*
X143690000Y-90174000D02*
X140790000Y-90174000D01*
X144040000Y-108666000D02*
G75*
G03X144040000Y-108666000I-100000J0D01*
G01*
X143690000Y-109216000D02*
X143690000Y-108716000D01*
X140790000Y-109216000D02*
X143690000Y-109216000D01*
X140790000Y-108716000D02*
X140790000Y-109216000D01*
X143690000Y-108716000D02*
X140790000Y-108716000D01*
X154432000Y-99568000D02*
X154432000Y-97028000D01*
X154152000Y-102388000D02*
X154152000Y-100838000D01*
X154432000Y-99568000D02*
X156972000Y-99568000D01*
X157252000Y-100838000D02*
X157252000Y-102388000D01*
X157252000Y-102388000D02*
X154152000Y-102388000D01*
X156972000Y-99568000D02*
X156972000Y-97028000D01*
X156972000Y-97028000D02*
X154432000Y-97028000D01*
X151780240Y-97565160D02*
X151780240Y-97516900D01*
X151079200Y-94766180D02*
X151780240Y-94766180D01*
X151780240Y-94766180D02*
X151780240Y-95015100D01*
X151780240Y-97565160D02*
X151780240Y-97765820D01*
X151780240Y-97765820D02*
X151079200Y-97765820D01*
X150479760Y-91664840D02*
X150479760Y-91713100D01*
X151180800Y-94463820D02*
X150479760Y-94463820D01*
X150479760Y-94463820D02*
X150479760Y-94214900D01*
X150479760Y-91664840D02*
X150479760Y-91464180D01*
X150479760Y-91464180D02*
X151180800Y-91464180D01*
X133453143Y-93384666D02*
X133500762Y-93432285D01*
X133548381Y-93575142D01*
X133548381Y-93670380D01*
X133500762Y-93813238D01*
X133405524Y-93908476D01*
X133310286Y-93956095D01*
X133119810Y-94003714D01*
X132976952Y-94003714D01*
X132786476Y-93956095D01*
X132691238Y-93908476D01*
X132596000Y-93813238D01*
X132548381Y-93670380D01*
X132548381Y-93575142D01*
X132596000Y-93432285D01*
X132643619Y-93384666D01*
X133548381Y-92432285D02*
X133548381Y-93003714D01*
X133548381Y-92718000D02*
X132548381Y-92718000D01*
X132691238Y-92813238D01*
X132786476Y-92908476D01*
X132834095Y-93003714D01*
X146645334Y-86209143D02*
X146597715Y-86256762D01*
X146454858Y-86304381D01*
X146359620Y-86304381D01*
X146216762Y-86256762D01*
X146121524Y-86161524D01*
X146073905Y-86066286D01*
X146026286Y-85875810D01*
X146026286Y-85732952D01*
X146073905Y-85542476D01*
X146121524Y-85447238D01*
X146216762Y-85352000D01*
X146359620Y-85304381D01*
X146454858Y-85304381D01*
X146597715Y-85352000D01*
X146645334Y-85399619D01*
X147026286Y-85399619D02*
X147073905Y-85352000D01*
X147169143Y-85304381D01*
X147407239Y-85304381D01*
X147502477Y-85352000D01*
X147550096Y-85399619D01*
X147597715Y-85494857D01*
X147597715Y-85590095D01*
X147550096Y-85732952D01*
X146978667Y-86304381D01*
X147597715Y-86304381D01*
X145391143Y-87796666D02*
X145438762Y-87844285D01*
X145486381Y-87987142D01*
X145486381Y-88082380D01*
X145438762Y-88225238D01*
X145343524Y-88320476D01*
X145248286Y-88368095D01*
X145057810Y-88415714D01*
X144914952Y-88415714D01*
X144724476Y-88368095D01*
X144629238Y-88320476D01*
X144534000Y-88225238D01*
X144486381Y-88082380D01*
X144486381Y-87987142D01*
X144534000Y-87844285D01*
X144581619Y-87796666D01*
X144486381Y-87463333D02*
X144486381Y-86844285D01*
X144867333Y-87177619D01*
X144867333Y-87034761D01*
X144914952Y-86939523D01*
X144962571Y-86891904D01*
X145057810Y-86844285D01*
X145295905Y-86844285D01*
X145391143Y-86891904D01*
X145438762Y-86939523D01*
X145486381Y-87034761D01*
X145486381Y-87320476D01*
X145438762Y-87415714D01*
X145391143Y-87463333D01*
X137247334Y-100941143D02*
X137199715Y-100988762D01*
X137056858Y-101036381D01*
X136961620Y-101036381D01*
X136818762Y-100988762D01*
X136723524Y-100893524D01*
X136675905Y-100798286D01*
X136628286Y-100607810D01*
X136628286Y-100464952D01*
X136675905Y-100274476D01*
X136723524Y-100179238D01*
X136818762Y-100084000D01*
X136961620Y-100036381D01*
X137056858Y-100036381D01*
X137199715Y-100084000D01*
X137247334Y-100131619D01*
X138104477Y-100369714D02*
X138104477Y-101036381D01*
X137866381Y-99988762D02*
X137628286Y-100703048D01*
X138247334Y-100703048D01*
X142073334Y-113895143D02*
X142025715Y-113942762D01*
X141882858Y-113990381D01*
X141787620Y-113990381D01*
X141644762Y-113942762D01*
X141549524Y-113847524D01*
X141501905Y-113752286D01*
X141454286Y-113561810D01*
X141454286Y-113418952D01*
X141501905Y-113228476D01*
X141549524Y-113133238D01*
X141644762Y-113038000D01*
X141787620Y-112990381D01*
X141882858Y-112990381D01*
X142025715Y-113038000D01*
X142073334Y-113085619D01*
X142978096Y-112990381D02*
X142501905Y-112990381D01*
X142454286Y-113466571D01*
X142501905Y-113418952D01*
X142597143Y-113371333D01*
X142835239Y-113371333D01*
X142930477Y-113418952D01*
X142978096Y-113466571D01*
X143025715Y-113561810D01*
X143025715Y-113799905D01*
X142978096Y-113895143D01*
X142930477Y-113942762D01*
X142835239Y-113990381D01*
X142597143Y-113990381D01*
X142501905Y-113942762D01*
X142454286Y-113895143D01*
X137247334Y-106275143D02*
X137199715Y-106322762D01*
X137056858Y-106370381D01*
X136961620Y-106370381D01*
X136818762Y-106322762D01*
X136723524Y-106227524D01*
X136675905Y-106132286D01*
X136628286Y-105941810D01*
X136628286Y-105798952D01*
X136675905Y-105608476D01*
X136723524Y-105513238D01*
X136818762Y-105418000D01*
X136961620Y-105370381D01*
X137056858Y-105370381D01*
X137199715Y-105418000D01*
X137247334Y-105465619D01*
X138104477Y-105370381D02*
X137914000Y-105370381D01*
X137818762Y-105418000D01*
X137771143Y-105465619D01*
X137675905Y-105608476D01*
X137628286Y-105798952D01*
X137628286Y-106179905D01*
X137675905Y-106275143D01*
X137723524Y-106322762D01*
X137818762Y-106370381D01*
X138009239Y-106370381D01*
X138104477Y-106322762D01*
X138152096Y-106275143D01*
X138199715Y-106179905D01*
X138199715Y-105941810D01*
X138152096Y-105846571D01*
X138104477Y-105798952D01*
X138009239Y-105751333D01*
X137818762Y-105751333D01*
X137723524Y-105798952D01*
X137675905Y-105846571D01*
X137628286Y-105941810D01*
X130389334Y-102211143D02*
X130341715Y-102258762D01*
X130198858Y-102306381D01*
X130103620Y-102306381D01*
X129960762Y-102258762D01*
X129865524Y-102163524D01*
X129817905Y-102068286D01*
X129770286Y-101877810D01*
X129770286Y-101734952D01*
X129817905Y-101544476D01*
X129865524Y-101449238D01*
X129960762Y-101354000D01*
X130103620Y-101306381D01*
X130198858Y-101306381D01*
X130341715Y-101354000D01*
X130389334Y-101401619D01*
X130722667Y-101306381D02*
X131389334Y-101306381D01*
X130960762Y-102306381D01*
X143787905Y-100782381D02*
X143787905Y-99782381D01*
X144026000Y-99782381D01*
X144168858Y-99830000D01*
X144264096Y-99925238D01*
X144311715Y-100020476D01*
X144359334Y-100210952D01*
X144359334Y-100353810D01*
X144311715Y-100544286D01*
X144264096Y-100639524D01*
X144168858Y-100734762D01*
X144026000Y-100782381D01*
X143787905Y-100782381D01*
X145311715Y-100782381D02*
X144740286Y-100782381D01*
X145026000Y-100782381D02*
X145026000Y-99782381D01*
X144930762Y-99925238D01*
X144835524Y-100020476D01*
X144740286Y-100068095D01*
X147732762Y-98337619D02*
X147637524Y-98290000D01*
X147542286Y-98194762D01*
X147399429Y-98051905D01*
X147304190Y-98004286D01*
X147208952Y-98004286D01*
X147256571Y-98242381D02*
X147161333Y-98194762D01*
X147066095Y-98099524D01*
X147018476Y-97909048D01*
X147018476Y-97575714D01*
X147066095Y-97385238D01*
X147161333Y-97290000D01*
X147256571Y-97242381D01*
X147447048Y-97242381D01*
X147542286Y-97290000D01*
X147637524Y-97385238D01*
X147685143Y-97575714D01*
X147685143Y-97909048D01*
X147637524Y-98099524D01*
X147542286Y-98194762D01*
X147447048Y-98242381D01*
X147256571Y-98242381D01*
X148637524Y-98242381D02*
X148066095Y-98242381D01*
X148351809Y-98242381D02*
X148351809Y-97242381D01*
X148256571Y-97385238D01*
X148161333Y-97480476D01*
X148066095Y-97528095D01*
X135072381Y-93384666D02*
X134596190Y-93718000D01*
X135072381Y-93956095D02*
X134072381Y-93956095D01*
X134072381Y-93575142D01*
X134120000Y-93479904D01*
X134167619Y-93432285D01*
X134262857Y-93384666D01*
X134405714Y-93384666D01*
X134500952Y-93432285D01*
X134548571Y-93479904D01*
X134596190Y-93575142D01*
X134596190Y-93956095D01*
X135072381Y-92432285D02*
X135072381Y-93003714D01*
X135072381Y-92718000D02*
X134072381Y-92718000D01*
X134215238Y-92813238D01*
X134310476Y-92908476D01*
X134358095Y-93003714D01*
X135723334Y-88844381D02*
X135390000Y-88368190D01*
X135151905Y-88844381D02*
X135151905Y-87844381D01*
X135532858Y-87844381D01*
X135628096Y-87892000D01*
X135675715Y-87939619D01*
X135723334Y-88034857D01*
X135723334Y-88177714D01*
X135675715Y-88272952D01*
X135628096Y-88320571D01*
X135532858Y-88368190D01*
X135151905Y-88368190D01*
X136104286Y-87939619D02*
X136151905Y-87892000D01*
X136247143Y-87844381D01*
X136485239Y-87844381D01*
X136580477Y-87892000D01*
X136628096Y-87939619D01*
X136675715Y-88034857D01*
X136675715Y-88130095D01*
X136628096Y-88272952D01*
X136056667Y-88844381D01*
X136675715Y-88844381D01*
X135723334Y-87066381D02*
X135390000Y-86590190D01*
X135151905Y-87066381D02*
X135151905Y-86066381D01*
X135532858Y-86066381D01*
X135628096Y-86114000D01*
X135675715Y-86161619D01*
X135723334Y-86256857D01*
X135723334Y-86399714D01*
X135675715Y-86494952D01*
X135628096Y-86542571D01*
X135532858Y-86590190D01*
X135151905Y-86590190D01*
X136056667Y-86066381D02*
X136675715Y-86066381D01*
X136342381Y-86447333D01*
X136485239Y-86447333D01*
X136580477Y-86494952D01*
X136628096Y-86542571D01*
X136675715Y-86637810D01*
X136675715Y-86875905D01*
X136628096Y-86971143D01*
X136580477Y-87018762D01*
X136485239Y-87066381D01*
X136199524Y-87066381D01*
X136104286Y-87018762D01*
X136056667Y-86971143D01*
X148788381Y-87796666D02*
X148312190Y-88130000D01*
X148788381Y-88368095D02*
X147788381Y-88368095D01*
X147788381Y-87987142D01*
X147836000Y-87891904D01*
X147883619Y-87844285D01*
X147978857Y-87796666D01*
X148121714Y-87796666D01*
X148216952Y-87844285D01*
X148264571Y-87891904D01*
X148312190Y-87987142D01*
X148312190Y-88368095D01*
X148121714Y-86939523D02*
X148788381Y-86939523D01*
X147740762Y-87177619D02*
X148455048Y-87415714D01*
X148455048Y-86796666D01*
X150820381Y-90336666D02*
X150344190Y-90670000D01*
X150820381Y-90908095D02*
X149820381Y-90908095D01*
X149820381Y-90527142D01*
X149868000Y-90431904D01*
X149915619Y-90384285D01*
X150010857Y-90336666D01*
X150153714Y-90336666D01*
X150248952Y-90384285D01*
X150296571Y-90431904D01*
X150344190Y-90527142D01*
X150344190Y-90908095D01*
X149820381Y-89431904D02*
X149820381Y-89908095D01*
X150296571Y-89955714D01*
X150248952Y-89908095D01*
X150201333Y-89812857D01*
X150201333Y-89574761D01*
X150248952Y-89479523D01*
X150296571Y-89431904D01*
X150391810Y-89384285D01*
X150629905Y-89384285D01*
X150725143Y-89431904D01*
X150772762Y-89479523D01*
X150820381Y-89574761D01*
X150820381Y-89812857D01*
X150772762Y-89908095D01*
X150725143Y-89955714D01*
X130389334Y-105100381D02*
X130056000Y-104624190D01*
X129817905Y-105100381D02*
X129817905Y-104100381D01*
X130198858Y-104100381D01*
X130294096Y-104148000D01*
X130341715Y-104195619D01*
X130389334Y-104290857D01*
X130389334Y-104433714D01*
X130341715Y-104528952D01*
X130294096Y-104576571D01*
X130198858Y-104624190D01*
X129817905Y-104624190D01*
X131246477Y-104100381D02*
X131056000Y-104100381D01*
X130960762Y-104148000D01*
X130913143Y-104195619D01*
X130817905Y-104338476D01*
X130770286Y-104528952D01*
X130770286Y-104909905D01*
X130817905Y-105005143D01*
X130865524Y-105052762D01*
X130960762Y-105100381D01*
X131151239Y-105100381D01*
X131246477Y-105052762D01*
X131294096Y-105005143D01*
X131341715Y-104909905D01*
X131341715Y-104671810D01*
X131294096Y-104576571D01*
X131246477Y-104528952D01*
X131151239Y-104481333D01*
X130960762Y-104481333D01*
X130865524Y-104528952D01*
X130817905Y-104576571D01*
X130770286Y-104671810D01*
X145883334Y-112212381D02*
X145550000Y-111736190D01*
X145311905Y-112212381D02*
X145311905Y-111212381D01*
X145692858Y-111212381D01*
X145788096Y-111260000D01*
X145835715Y-111307619D01*
X145883334Y-111402857D01*
X145883334Y-111545714D01*
X145835715Y-111640952D01*
X145788096Y-111688571D01*
X145692858Y-111736190D01*
X145311905Y-111736190D01*
X146216667Y-111212381D02*
X146883334Y-111212381D01*
X146454762Y-112212381D01*
X134310381Y-110402666D02*
X133834190Y-110736000D01*
X134310381Y-110974095D02*
X133310381Y-110974095D01*
X133310381Y-110593142D01*
X133358000Y-110497904D01*
X133405619Y-110450285D01*
X133500857Y-110402666D01*
X133643714Y-110402666D01*
X133738952Y-110450285D01*
X133786571Y-110497904D01*
X133834190Y-110593142D01*
X133834190Y-110974095D01*
X133738952Y-109831238D02*
X133691333Y-109926476D01*
X133643714Y-109974095D01*
X133548476Y-110021714D01*
X133500857Y-110021714D01*
X133405619Y-109974095D01*
X133358000Y-109926476D01*
X133310381Y-109831238D01*
X133310381Y-109640761D01*
X133358000Y-109545523D01*
X133405619Y-109497904D01*
X133500857Y-109450285D01*
X133548476Y-109450285D01*
X133643714Y-109497904D01*
X133691333Y-109545523D01*
X133738952Y-109640761D01*
X133738952Y-109831238D01*
X133786571Y-109926476D01*
X133834190Y-109974095D01*
X133929429Y-110021714D01*
X134119905Y-110021714D01*
X134215143Y-109974095D01*
X134262762Y-109926476D01*
X134310381Y-109831238D01*
X134310381Y-109640761D01*
X134262762Y-109545523D01*
X134215143Y-109497904D01*
X134119905Y-109450285D01*
X133929429Y-109450285D01*
X133834190Y-109497904D01*
X133786571Y-109545523D01*
X133738952Y-109640761D01*
X132278381Y-109132666D02*
X131802190Y-109466000D01*
X132278381Y-109704095D02*
X131278381Y-109704095D01*
X131278381Y-109323142D01*
X131326000Y-109227904D01*
X131373619Y-109180285D01*
X131468857Y-109132666D01*
X131611714Y-109132666D01*
X131706952Y-109180285D01*
X131754571Y-109227904D01*
X131802190Y-109323142D01*
X131802190Y-109704095D01*
X132278381Y-108656476D02*
X132278381Y-108466000D01*
X132230762Y-108370761D01*
X132183143Y-108323142D01*
X132040286Y-108227904D01*
X131849810Y-108180285D01*
X131468857Y-108180285D01*
X131373619Y-108227904D01*
X131326000Y-108275523D01*
X131278381Y-108370761D01*
X131278381Y-108561238D01*
X131326000Y-108656476D01*
X131373619Y-108704095D01*
X131468857Y-108751714D01*
X131706952Y-108751714D01*
X131802190Y-108704095D01*
X131849810Y-108656476D01*
X131897429Y-108561238D01*
X131897429Y-108370761D01*
X131849810Y-108275523D01*
X131802190Y-108227904D01*
X131706952Y-108180285D01*
X145407143Y-106878381D02*
X145073809Y-106402190D01*
X144835714Y-106878381D02*
X144835714Y-105878381D01*
X145216667Y-105878381D01*
X145311905Y-105926000D01*
X145359524Y-105973619D01*
X145407143Y-106068857D01*
X145407143Y-106211714D01*
X145359524Y-106306952D01*
X145311905Y-106354571D01*
X145216667Y-106402190D01*
X144835714Y-106402190D01*
X146359524Y-106878381D02*
X145788095Y-106878381D01*
X146073809Y-106878381D02*
X146073809Y-105878381D01*
X145978571Y-106021238D01*
X145883333Y-106116476D01*
X145788095Y-106164095D01*
X146978571Y-105878381D02*
X147073810Y-105878381D01*
X147169048Y-105926000D01*
X147216667Y-105973619D01*
X147264286Y-106068857D01*
X147311905Y-106259333D01*
X147311905Y-106497429D01*
X147264286Y-106687905D01*
X147216667Y-106783143D01*
X147169048Y-106830762D01*
X147073810Y-106878381D01*
X146978571Y-106878381D01*
X146883333Y-106830762D01*
X146835714Y-106783143D01*
X146788095Y-106687905D01*
X146740476Y-106497429D01*
X146740476Y-106259333D01*
X146788095Y-106068857D01*
X146835714Y-105973619D01*
X146883333Y-105926000D01*
X146978571Y-105878381D01*
X138430095Y-88860381D02*
X138430095Y-89669905D01*
X138477714Y-89765143D01*
X138525333Y-89812762D01*
X138620571Y-89860381D01*
X138811048Y-89860381D01*
X138906286Y-89812762D01*
X138953905Y-89765143D01*
X139001524Y-89669905D01*
X139001524Y-88860381D01*
X140001524Y-89860381D02*
X139430095Y-89860381D01*
X139715809Y-89860381D02*
X139715809Y-88860381D01*
X139620571Y-89003238D01*
X139525333Y-89098476D01*
X139430095Y-89146095D01*
X141478095Y-108418381D02*
X141478095Y-109227905D01*
X141525714Y-109323143D01*
X141573333Y-109370762D01*
X141668571Y-109418381D01*
X141859048Y-109418381D01*
X141954286Y-109370762D01*
X142001905Y-109323143D01*
X142049524Y-109227905D01*
X142049524Y-108418381D01*
X142478095Y-108513619D02*
X142525714Y-108466000D01*
X142620952Y-108418381D01*
X142859048Y-108418381D01*
X142954286Y-108466000D01*
X143001905Y-108513619D01*
X143049524Y-108608857D01*
X143049524Y-108704095D01*
X143001905Y-108846952D01*
X142430476Y-109418381D01*
X143049524Y-109418381D01*
X152423905Y-100020381D02*
X152423905Y-99020381D01*
X152804858Y-99020381D01*
X152900096Y-99068000D01*
X152947715Y-99115619D01*
X152995334Y-99210857D01*
X152995334Y-99353714D01*
X152947715Y-99448952D01*
X152900096Y-99496571D01*
X152804858Y-99544190D01*
X152423905Y-99544190D01*
X153947715Y-100020381D02*
X153376286Y-100020381D01*
X153662000Y-100020381D02*
X153662000Y-99020381D01*
X153566762Y-99163238D01*
X153471524Y-99258476D01*
X153376286Y-99306095D01*
X153828762Y-96305619D02*
X153733524Y-96258000D01*
X153638286Y-96162762D01*
X153495429Y-96019905D01*
X153400190Y-95972286D01*
X153304952Y-95972286D01*
X153352571Y-96210381D02*
X153257333Y-96162762D01*
X153162095Y-96067524D01*
X153114476Y-95877048D01*
X153114476Y-95543714D01*
X153162095Y-95353238D01*
X153257333Y-95258000D01*
X153352571Y-95210381D01*
X153543048Y-95210381D01*
X153638286Y-95258000D01*
X153733524Y-95353238D01*
X153781143Y-95543714D01*
X153781143Y-95877048D01*
X153733524Y-96067524D01*
X153638286Y-96162762D01*
X153543048Y-96210381D01*
X153352571Y-96210381D01*
X154162095Y-95305619D02*
X154209714Y-95258000D01*
X154304952Y-95210381D01*
X154543048Y-95210381D01*
X154638286Y-95258000D01*
X154685905Y-95305619D01*
X154733524Y-95400857D01*
X154733524Y-95496095D01*
X154685905Y-95638952D01*
X154114476Y-96210381D01*
X154733524Y-96210381D01*
X153828762Y-93511619D02*
X153733524Y-93464000D01*
X153638286Y-93368762D01*
X153495429Y-93225905D01*
X153400190Y-93178286D01*
X153304952Y-93178286D01*
X153352571Y-93416381D02*
X153257333Y-93368762D01*
X153162095Y-93273524D01*
X153114476Y-93083048D01*
X153114476Y-92749714D01*
X153162095Y-92559238D01*
X153257333Y-92464000D01*
X153352571Y-92416381D01*
X153543048Y-92416381D01*
X153638286Y-92464000D01*
X153733524Y-92559238D01*
X153781143Y-92749714D01*
X153781143Y-93083048D01*
X153733524Y-93273524D01*
X153638286Y-93368762D01*
X153543048Y-93416381D01*
X153352571Y-93416381D01*
X154114476Y-92416381D02*
X154733524Y-92416381D01*
X154400190Y-92797333D01*
X154543048Y-92797333D01*
X154638286Y-92844952D01*
X154685905Y-92892571D01*
X154733524Y-92987810D01*
X154733524Y-93225905D01*
X154685905Y-93321143D01*
X154638286Y-93368762D01*
X154543048Y-93416381D01*
X154257333Y-93416381D01*
X154162095Y-93368762D01*
X154114476Y-93321143D01*
M02*
