G04 #@! TF.FileFunction,Copper,L1,Top,Signal*
%FSLAX46Y46*%
G04 Gerber Fmt 4.6, Leading zero omitted, Abs format (unit mm)*
G04 Created by KiCad (PCBNEW 4.0.2-stable) date Thursday, May 05, 2016 'AMt' 11:28:06 AM*
%MOMM*%
G01*
G04 APERTURE LIST*
%ADD10C,0.100000*%
%ADD11R,0.750000X1.200000*%
%ADD12R,1.200000X0.750000*%
%ADD13R,3.299460X4.500880*%
%ADD14R,0.800100X0.800100*%
%ADD15R,0.900000X1.200000*%
%ADD16R,1.200000X0.900000*%
%ADD17R,0.650000X1.060000*%
%ADD18C,1.524000*%
%ADD19R,2.032000X2.032000*%
%ADD20O,2.032000X2.032000*%
%ADD21C,0.600000*%
%ADD22C,0.250000*%
%ADD23C,0.500000*%
%ADD24C,0.254000*%
G04 APERTURE END LIST*
D10*
D11*
X137160000Y-92268000D03*
X137160000Y-94168000D03*
D12*
X143068000Y-85852000D03*
X144968000Y-85852000D03*
D11*
X145034000Y-89474000D03*
X145034000Y-91374000D03*
X135382000Y-101534000D03*
X135382000Y-99634000D03*
D12*
X141290000Y-112014000D03*
X143190000Y-112014000D03*
X136464000Y-107950000D03*
X138364000Y-107950000D03*
D11*
X132842000Y-99634000D03*
X132842000Y-101534000D03*
D13*
X142240000Y-95166180D03*
X142240000Y-103969820D03*
D14*
X146827240Y-94300000D03*
X146827240Y-96200000D03*
X148826220Y-95250000D03*
D15*
X139192000Y-92118000D03*
X139192000Y-94318000D03*
D16*
X138854000Y-87630000D03*
X141054000Y-87630000D03*
X141054000Y-85852000D03*
X138854000Y-85852000D03*
D15*
X146812000Y-91524000D03*
X146812000Y-89324000D03*
X148590000Y-92540000D03*
X148590000Y-90340000D03*
D16*
X133012000Y-104648000D03*
X135212000Y-104648000D03*
X144950000Y-109982000D03*
X147150000Y-109982000D03*
D15*
X138684000Y-112098000D03*
X138684000Y-109898000D03*
X136398000Y-112098000D03*
X136398000Y-109898000D03*
D16*
X144950000Y-107950000D03*
X147150000Y-107950000D03*
D17*
X143190000Y-89324000D03*
X142240000Y-89324000D03*
X141290000Y-89324000D03*
X141290000Y-91524000D03*
X143190000Y-91524000D03*
X143190000Y-107866000D03*
X142240000Y-107866000D03*
X141290000Y-107866000D03*
X141290000Y-110066000D03*
X143190000Y-110066000D03*
D18*
X150490000Y-99568000D03*
X130490000Y-99568000D03*
D19*
X155702000Y-100838000D03*
D20*
X155702000Y-98298000D03*
D14*
X150129240Y-95316000D03*
X150129240Y-97216000D03*
X152128220Y-96266000D03*
X152130760Y-93914000D03*
X152130760Y-92014000D03*
X150131780Y-92964000D03*
D21*
X148590000Y-109982000D03*
X138684000Y-113538000D03*
X146812000Y-87884000D03*
X137160000Y-85852000D03*
D22*
X137160000Y-92268000D02*
X135824000Y-92268000D01*
X135382000Y-92710000D02*
X135382000Y-99634000D01*
X135824000Y-92268000D02*
X135382000Y-92710000D01*
X143002000Y-90424000D02*
X148506000Y-90424000D01*
X148506000Y-90424000D02*
X148590000Y-90340000D01*
X143190000Y-89324000D02*
X143190000Y-89220000D01*
X137160000Y-92268000D02*
X139042000Y-92268000D01*
X139042000Y-92268000D02*
X139192000Y-92118000D01*
X139192000Y-92118000D02*
X139192000Y-90678000D01*
X139192000Y-90678000D02*
X139446000Y-90424000D01*
X139446000Y-90424000D02*
X143002000Y-90424000D01*
X143002000Y-90424000D02*
X143190000Y-90236000D01*
X143190000Y-90236000D02*
X143190000Y-89324000D01*
X143340000Y-89174000D02*
X143190000Y-89324000D01*
X146827240Y-94300000D02*
X142506740Y-94300000D01*
X142506740Y-94300000D02*
X142240000Y-94566740D01*
X146827240Y-96200000D02*
X146827240Y-94300000D01*
X137160000Y-94168000D02*
X139042000Y-94168000D01*
X139042000Y-94168000D02*
X139440740Y-94566740D01*
X139440740Y-94566740D02*
X142240000Y-94566740D01*
X142603260Y-94930000D02*
X142240000Y-94566740D01*
X141290000Y-91524000D02*
X141290000Y-93616740D01*
X141290000Y-93616740D02*
X142240000Y-94566740D01*
X141054000Y-85852000D02*
X143068000Y-85852000D01*
X141054000Y-87630000D02*
X141054000Y-89088000D01*
X141054000Y-89088000D02*
X141290000Y-89324000D01*
X141054000Y-87630000D02*
X141054000Y-85852000D01*
X141140000Y-89474000D02*
X141290000Y-89324000D01*
D23*
X145034000Y-91374000D02*
X146662000Y-91374000D01*
X146662000Y-91374000D02*
X146812000Y-91524000D01*
X143190000Y-91524000D02*
X144884000Y-91524000D01*
X144884000Y-91524000D02*
X145034000Y-91374000D01*
D22*
X143340000Y-91374000D02*
X143190000Y-91524000D01*
X135212000Y-104648000D02*
X135212000Y-106256000D01*
X141290000Y-107000000D02*
X141290000Y-107866000D01*
X140970000Y-106680000D02*
X141290000Y-107000000D01*
X135636000Y-106680000D02*
X140970000Y-106680000D01*
X135212000Y-106256000D02*
X135636000Y-106680000D01*
X135382000Y-101534000D02*
X135382000Y-104478000D01*
X135382000Y-104478000D02*
X135212000Y-104648000D01*
D23*
X143190000Y-110066000D02*
X143190000Y-112014000D01*
X144950000Y-109982000D02*
X143274000Y-109982000D01*
X143274000Y-109982000D02*
X143190000Y-110066000D01*
D22*
X138684000Y-109898000D02*
X141122000Y-109898000D01*
X141122000Y-109898000D02*
X141290000Y-110066000D01*
X136398000Y-109898000D02*
X138684000Y-109898000D01*
X136464000Y-107950000D02*
X136464000Y-109832000D01*
X136464000Y-109832000D02*
X136398000Y-109898000D01*
D23*
X130490000Y-99568000D02*
X132776000Y-99568000D01*
X132776000Y-99568000D02*
X132842000Y-99634000D01*
X147150000Y-109982000D02*
X148590000Y-109982000D01*
X138684000Y-112098000D02*
X138684000Y-113538000D01*
X146812000Y-89324000D02*
X146812000Y-87884000D01*
X138854000Y-85852000D02*
X137160000Y-85852000D01*
D22*
X130556000Y-99634000D02*
X130490000Y-99568000D01*
X132908000Y-99568000D02*
X132842000Y-99634000D01*
X150129240Y-95316000D02*
X148892220Y-95316000D01*
X148892220Y-95316000D02*
X148826220Y-95250000D01*
X150129240Y-97216000D02*
X150129240Y-95316000D01*
X143190000Y-107866000D02*
X144866000Y-107866000D01*
X144866000Y-107866000D02*
X144950000Y-107950000D01*
X143274000Y-107950000D02*
X143190000Y-107866000D01*
X147150000Y-107950000D02*
X152654000Y-107950000D01*
X155702000Y-104902000D02*
X155702000Y-100838000D01*
X152654000Y-107950000D02*
X155702000Y-104902000D01*
X152130760Y-93914000D02*
X152130760Y-96263460D01*
X152130760Y-96263460D02*
X152128220Y-96266000D01*
X152130760Y-92014000D02*
X152130760Y-93914000D01*
X150131780Y-92964000D02*
X149014000Y-92964000D01*
X149014000Y-92964000D02*
X148590000Y-92540000D01*
D24*
G36*
X148143799Y-85314970D02*
X153148797Y-88659203D01*
X156493030Y-93664201D01*
X157667369Y-99568000D01*
X156493030Y-105471799D01*
X153148797Y-110476797D01*
X148143799Y-113821030D01*
X142240000Y-114995369D01*
X136336201Y-113821030D01*
X134185160Y-112383750D01*
X135313000Y-112383750D01*
X135313000Y-112824309D01*
X135409673Y-113057698D01*
X135588301Y-113236327D01*
X135821690Y-113333000D01*
X136112250Y-113333000D01*
X136271000Y-113174250D01*
X136271000Y-112225000D01*
X136525000Y-112225000D01*
X136525000Y-113174250D01*
X136683750Y-113333000D01*
X136974310Y-113333000D01*
X137207699Y-113236327D01*
X137386327Y-113057698D01*
X137483000Y-112824309D01*
X137483000Y-112383750D01*
X137324250Y-112225000D01*
X136525000Y-112225000D01*
X136271000Y-112225000D01*
X135471750Y-112225000D01*
X135313000Y-112383750D01*
X134185160Y-112383750D01*
X132670507Y-111371691D01*
X135313000Y-111371691D01*
X135313000Y-111812250D01*
X135471750Y-111971000D01*
X136271000Y-111971000D01*
X136271000Y-111021750D01*
X136525000Y-111021750D01*
X136525000Y-111971000D01*
X137324250Y-111971000D01*
X137483000Y-111812250D01*
X137483000Y-111498000D01*
X137900594Y-111498000D01*
X137900594Y-112698000D01*
X137923395Y-112819179D01*
X137995012Y-112930474D01*
X138104286Y-113005138D01*
X138107000Y-113005688D01*
X138107000Y-113292584D01*
X138057109Y-113412735D01*
X138056891Y-113662171D01*
X138152145Y-113892703D01*
X138328369Y-114069235D01*
X138558735Y-114164891D01*
X138808171Y-114165109D01*
X139038703Y-114069855D01*
X139215235Y-113893631D01*
X139310891Y-113663265D01*
X139311109Y-113413829D01*
X139261000Y-113292556D01*
X139261000Y-113004859D01*
X139366474Y-112936988D01*
X139441138Y-112827714D01*
X139467406Y-112698000D01*
X139467406Y-112299750D01*
X140055000Y-112299750D01*
X140055000Y-112515310D01*
X140151673Y-112748699D01*
X140330302Y-112927327D01*
X140563691Y-113024000D01*
X141004250Y-113024000D01*
X141163000Y-112865250D01*
X141163000Y-112141000D01*
X140213750Y-112141000D01*
X140055000Y-112299750D01*
X139467406Y-112299750D01*
X139467406Y-111512690D01*
X140055000Y-111512690D01*
X140055000Y-111728250D01*
X140213750Y-111887000D01*
X141163000Y-111887000D01*
X141163000Y-111162750D01*
X141417000Y-111162750D01*
X141417000Y-111887000D01*
X141437000Y-111887000D01*
X141437000Y-112141000D01*
X141417000Y-112141000D01*
X141417000Y-112865250D01*
X141575750Y-113024000D01*
X142016309Y-113024000D01*
X142249698Y-112927327D01*
X142428327Y-112748699D01*
X142452346Y-112690713D01*
X142460286Y-112696138D01*
X142590000Y-112722406D01*
X143790000Y-112722406D01*
X143911179Y-112699605D01*
X144022474Y-112627988D01*
X144097138Y-112518714D01*
X144123406Y-112389000D01*
X144123406Y-111639000D01*
X144100605Y-111517821D01*
X144028988Y-111406526D01*
X143919714Y-111331862D01*
X143790000Y-111305594D01*
X143767000Y-111305594D01*
X143767000Y-110806411D01*
X143822138Y-110725714D01*
X143848406Y-110596000D01*
X143848406Y-110559000D01*
X144043141Y-110559000D01*
X144111012Y-110664474D01*
X144220286Y-110739138D01*
X144350000Y-110765406D01*
X145550000Y-110765406D01*
X145671179Y-110742605D01*
X145782474Y-110670988D01*
X145857138Y-110561714D01*
X145883406Y-110432000D01*
X145883406Y-109532000D01*
X146216594Y-109532000D01*
X146216594Y-110432000D01*
X146239395Y-110553179D01*
X146311012Y-110664474D01*
X146420286Y-110739138D01*
X146550000Y-110765406D01*
X147750000Y-110765406D01*
X147871179Y-110742605D01*
X147982474Y-110670988D01*
X148057138Y-110561714D01*
X148057688Y-110559000D01*
X148344584Y-110559000D01*
X148464735Y-110608891D01*
X148714171Y-110609109D01*
X148944703Y-110513855D01*
X149121235Y-110337631D01*
X149216891Y-110107265D01*
X149217109Y-109857829D01*
X149121855Y-109627297D01*
X148945631Y-109450765D01*
X148715265Y-109355109D01*
X148465829Y-109354891D01*
X148344556Y-109405000D01*
X148056859Y-109405000D01*
X147988988Y-109299526D01*
X147879714Y-109224862D01*
X147750000Y-109198594D01*
X146550000Y-109198594D01*
X146428821Y-109221395D01*
X146317526Y-109293012D01*
X146242862Y-109402286D01*
X146216594Y-109532000D01*
X145883406Y-109532000D01*
X145860605Y-109410821D01*
X145788988Y-109299526D01*
X145679714Y-109224862D01*
X145550000Y-109198594D01*
X144350000Y-109198594D01*
X144228821Y-109221395D01*
X144117526Y-109293012D01*
X144042862Y-109402286D01*
X144042312Y-109405000D01*
X143819285Y-109405000D01*
X143753988Y-109303526D01*
X143644714Y-109228862D01*
X143515000Y-109202594D01*
X142865000Y-109202594D01*
X142743821Y-109225395D01*
X142632526Y-109297012D01*
X142557862Y-109406286D01*
X142531594Y-109536000D01*
X142531594Y-110596000D01*
X142554395Y-110717179D01*
X142613000Y-110808253D01*
X142613000Y-111305594D01*
X142590000Y-111305594D01*
X142468821Y-111328395D01*
X142452905Y-111338637D01*
X142428327Y-111279301D01*
X142249698Y-111100673D01*
X142016309Y-111004000D01*
X141575750Y-111004000D01*
X141417000Y-111162750D01*
X141163000Y-111162750D01*
X141004250Y-111004000D01*
X140563691Y-111004000D01*
X140330302Y-111100673D01*
X140151673Y-111279301D01*
X140055000Y-111512690D01*
X139467406Y-111512690D01*
X139467406Y-111498000D01*
X139444605Y-111376821D01*
X139372988Y-111265526D01*
X139263714Y-111190862D01*
X139134000Y-111164594D01*
X138234000Y-111164594D01*
X138112821Y-111187395D01*
X138001526Y-111259012D01*
X137926862Y-111368286D01*
X137900594Y-111498000D01*
X137483000Y-111498000D01*
X137483000Y-111371691D01*
X137386327Y-111138302D01*
X137207699Y-110959673D01*
X136974310Y-110863000D01*
X136683750Y-110863000D01*
X136525000Y-111021750D01*
X136271000Y-111021750D01*
X136112250Y-110863000D01*
X135821690Y-110863000D01*
X135588301Y-110959673D01*
X135409673Y-111138302D01*
X135313000Y-111371691D01*
X132670507Y-111371691D01*
X131331203Y-110476797D01*
X127986970Y-105471799D01*
X127879946Y-104933750D01*
X131777000Y-104933750D01*
X131777000Y-105224310D01*
X131873673Y-105457699D01*
X132052302Y-105636327D01*
X132285691Y-105733000D01*
X132726250Y-105733000D01*
X132885000Y-105574250D01*
X132885000Y-104775000D01*
X133139000Y-104775000D01*
X133139000Y-105574250D01*
X133297750Y-105733000D01*
X133738309Y-105733000D01*
X133971698Y-105636327D01*
X134150327Y-105457699D01*
X134247000Y-105224310D01*
X134247000Y-104933750D01*
X134088250Y-104775000D01*
X133139000Y-104775000D01*
X132885000Y-104775000D01*
X131935750Y-104775000D01*
X131777000Y-104933750D01*
X127879946Y-104933750D01*
X127708472Y-104071690D01*
X131777000Y-104071690D01*
X131777000Y-104362250D01*
X131935750Y-104521000D01*
X132885000Y-104521000D01*
X132885000Y-103721750D01*
X133139000Y-103721750D01*
X133139000Y-104521000D01*
X134088250Y-104521000D01*
X134247000Y-104362250D01*
X134247000Y-104198000D01*
X134278594Y-104198000D01*
X134278594Y-105098000D01*
X134301395Y-105219179D01*
X134373012Y-105330474D01*
X134482286Y-105405138D01*
X134612000Y-105431406D01*
X134760000Y-105431406D01*
X134760000Y-106256000D01*
X134794406Y-106428973D01*
X134892388Y-106575612D01*
X135316388Y-106999613D01*
X135462156Y-107097012D01*
X135463027Y-107097594D01*
X135636000Y-107132000D01*
X137308974Y-107132000D01*
X137225673Y-107215301D01*
X137201654Y-107273287D01*
X137193714Y-107267862D01*
X137064000Y-107241594D01*
X135864000Y-107241594D01*
X135742821Y-107264395D01*
X135631526Y-107336012D01*
X135556862Y-107445286D01*
X135530594Y-107575000D01*
X135530594Y-108325000D01*
X135553395Y-108446179D01*
X135625012Y-108557474D01*
X135734286Y-108632138D01*
X135864000Y-108658406D01*
X136012000Y-108658406D01*
X136012000Y-108964594D01*
X135948000Y-108964594D01*
X135826821Y-108987395D01*
X135715526Y-109059012D01*
X135640862Y-109168286D01*
X135614594Y-109298000D01*
X135614594Y-110498000D01*
X135637395Y-110619179D01*
X135709012Y-110730474D01*
X135818286Y-110805138D01*
X135948000Y-110831406D01*
X136848000Y-110831406D01*
X136969179Y-110808605D01*
X137080474Y-110736988D01*
X137155138Y-110627714D01*
X137181406Y-110498000D01*
X137181406Y-110350000D01*
X137900594Y-110350000D01*
X137900594Y-110498000D01*
X137923395Y-110619179D01*
X137995012Y-110730474D01*
X138104286Y-110805138D01*
X138234000Y-110831406D01*
X139134000Y-110831406D01*
X139255179Y-110808605D01*
X139366474Y-110736988D01*
X139441138Y-110627714D01*
X139467406Y-110498000D01*
X139467406Y-110350000D01*
X140631594Y-110350000D01*
X140631594Y-110596000D01*
X140654395Y-110717179D01*
X140726012Y-110828474D01*
X140835286Y-110903138D01*
X140965000Y-110929406D01*
X141615000Y-110929406D01*
X141736179Y-110906605D01*
X141847474Y-110834988D01*
X141922138Y-110725714D01*
X141948406Y-110596000D01*
X141948406Y-109536000D01*
X141925605Y-109414821D01*
X141853988Y-109303526D01*
X141744714Y-109228862D01*
X141615000Y-109202594D01*
X140965000Y-109202594D01*
X140843821Y-109225395D01*
X140732526Y-109297012D01*
X140657862Y-109406286D01*
X140649820Y-109446000D01*
X139467406Y-109446000D01*
X139467406Y-109298000D01*
X139444605Y-109176821D01*
X139372988Y-109065526D01*
X139263714Y-108990862D01*
X139134000Y-108964594D01*
X138234000Y-108964594D01*
X138112821Y-108987395D01*
X138001526Y-109059012D01*
X137926862Y-109168286D01*
X137900594Y-109298000D01*
X137900594Y-109446000D01*
X137181406Y-109446000D01*
X137181406Y-109298000D01*
X137158605Y-109176821D01*
X137086988Y-109065526D01*
X136977714Y-108990862D01*
X136916000Y-108978364D01*
X136916000Y-108658406D01*
X137064000Y-108658406D01*
X137185179Y-108635605D01*
X137201095Y-108625363D01*
X137225673Y-108684699D01*
X137404302Y-108863327D01*
X137637691Y-108960000D01*
X138078250Y-108960000D01*
X138237000Y-108801250D01*
X138237000Y-108077000D01*
X138491000Y-108077000D01*
X138491000Y-108801250D01*
X138649750Y-108960000D01*
X139090309Y-108960000D01*
X139323698Y-108863327D01*
X139502327Y-108684699D01*
X139599000Y-108451310D01*
X139599000Y-108235750D01*
X139440250Y-108077000D01*
X138491000Y-108077000D01*
X138237000Y-108077000D01*
X138217000Y-108077000D01*
X138217000Y-107823000D01*
X138237000Y-107823000D01*
X138237000Y-107803000D01*
X138491000Y-107803000D01*
X138491000Y-107823000D01*
X139440250Y-107823000D01*
X139599000Y-107664250D01*
X139599000Y-107448690D01*
X139502327Y-107215301D01*
X139419026Y-107132000D01*
X140708620Y-107132000D01*
X140657862Y-107206286D01*
X140631594Y-107336000D01*
X140631594Y-108396000D01*
X140654395Y-108517179D01*
X140726012Y-108628474D01*
X140835286Y-108703138D01*
X140965000Y-108729406D01*
X141365782Y-108729406D01*
X141376673Y-108755698D01*
X141555301Y-108934327D01*
X141788690Y-109031000D01*
X141954250Y-109031000D01*
X142113000Y-108872250D01*
X142113000Y-107993000D01*
X142093000Y-107993000D01*
X142093000Y-107739000D01*
X142113000Y-107739000D01*
X142113000Y-106859750D01*
X142031380Y-106778130D01*
X142113000Y-106696510D01*
X142113000Y-104096820D01*
X142367000Y-104096820D01*
X142367000Y-106696510D01*
X142448620Y-106778130D01*
X142367000Y-106859750D01*
X142367000Y-107739000D01*
X142387000Y-107739000D01*
X142387000Y-107993000D01*
X142367000Y-107993000D01*
X142367000Y-108872250D01*
X142525750Y-109031000D01*
X142691310Y-109031000D01*
X142924699Y-108934327D01*
X143103327Y-108755698D01*
X143114218Y-108729406D01*
X143515000Y-108729406D01*
X143636179Y-108706605D01*
X143747474Y-108634988D01*
X143822138Y-108525714D01*
X143848406Y-108396000D01*
X143848406Y-108318000D01*
X144016594Y-108318000D01*
X144016594Y-108400000D01*
X144039395Y-108521179D01*
X144111012Y-108632474D01*
X144220286Y-108707138D01*
X144350000Y-108733406D01*
X145550000Y-108733406D01*
X145671179Y-108710605D01*
X145782474Y-108638988D01*
X145857138Y-108529714D01*
X145883406Y-108400000D01*
X145883406Y-107500000D01*
X146216594Y-107500000D01*
X146216594Y-108400000D01*
X146239395Y-108521179D01*
X146311012Y-108632474D01*
X146420286Y-108707138D01*
X146550000Y-108733406D01*
X147750000Y-108733406D01*
X147871179Y-108710605D01*
X147982474Y-108638988D01*
X148057138Y-108529714D01*
X148083001Y-108402000D01*
X152654000Y-108402000D01*
X152826973Y-108367594D01*
X152973612Y-108269612D01*
X156021612Y-105221612D01*
X156119594Y-105074973D01*
X156154000Y-104902000D01*
X156154000Y-102187406D01*
X156718000Y-102187406D01*
X156839179Y-102164605D01*
X156950474Y-102092988D01*
X157025138Y-101983714D01*
X157051406Y-101854000D01*
X157051406Y-99822000D01*
X157028605Y-99700821D01*
X156956988Y-99589526D01*
X156847714Y-99514862D01*
X156792348Y-99503650D01*
X157108385Y-99162818D01*
X157307975Y-98680944D01*
X157188836Y-98425000D01*
X155829000Y-98425000D01*
X155829000Y-98445000D01*
X155575000Y-98445000D01*
X155575000Y-98425000D01*
X154215164Y-98425000D01*
X154096025Y-98680944D01*
X154295615Y-99162818D01*
X154610810Y-99502742D01*
X154564821Y-99511395D01*
X154453526Y-99583012D01*
X154378862Y-99692286D01*
X154352594Y-99822000D01*
X154352594Y-101854000D01*
X154375395Y-101975179D01*
X154447012Y-102086474D01*
X154556286Y-102161138D01*
X154686000Y-102187406D01*
X155250000Y-102187406D01*
X155250000Y-104714776D01*
X152466776Y-107498000D01*
X148083030Y-107498000D01*
X148060605Y-107378821D01*
X147988988Y-107267526D01*
X147879714Y-107192862D01*
X147750000Y-107166594D01*
X146550000Y-107166594D01*
X146428821Y-107189395D01*
X146317526Y-107261012D01*
X146242862Y-107370286D01*
X146216594Y-107500000D01*
X145883406Y-107500000D01*
X145860605Y-107378821D01*
X145788988Y-107267526D01*
X145679714Y-107192862D01*
X145550000Y-107166594D01*
X144350000Y-107166594D01*
X144228821Y-107189395D01*
X144117526Y-107261012D01*
X144042862Y-107370286D01*
X144034010Y-107414000D01*
X143848406Y-107414000D01*
X143848406Y-107336000D01*
X143825605Y-107214821D01*
X143753988Y-107103526D01*
X143644714Y-107028862D01*
X143515000Y-107002594D01*
X143114218Y-107002594D01*
X143103327Y-106976302D01*
X142982286Y-106855260D01*
X144016040Y-106855260D01*
X144249429Y-106758587D01*
X144428057Y-106579958D01*
X144524730Y-106346569D01*
X144524730Y-104255570D01*
X144365980Y-104096820D01*
X142367000Y-104096820D01*
X142113000Y-104096820D01*
X140114020Y-104096820D01*
X139955270Y-104255570D01*
X139955270Y-106228000D01*
X135823225Y-106228000D01*
X135664000Y-106068776D01*
X135664000Y-105431406D01*
X135812000Y-105431406D01*
X135933179Y-105408605D01*
X136044474Y-105336988D01*
X136119138Y-105227714D01*
X136145406Y-105098000D01*
X136145406Y-104198000D01*
X136122605Y-104076821D01*
X136050988Y-103965526D01*
X135941714Y-103890862D01*
X135834000Y-103869049D01*
X135834000Y-102452918D01*
X135878179Y-102444605D01*
X135989474Y-102372988D01*
X136064138Y-102263714D01*
X136090406Y-102134000D01*
X136090406Y-101593071D01*
X139955270Y-101593071D01*
X139955270Y-103684070D01*
X140114020Y-103842820D01*
X142113000Y-103842820D01*
X142113000Y-101243130D01*
X142367000Y-101243130D01*
X142367000Y-103842820D01*
X144365980Y-103842820D01*
X144524730Y-103684070D01*
X144524730Y-101593071D01*
X144428057Y-101359682D01*
X144249429Y-101181053D01*
X144016040Y-101084380D01*
X142525750Y-101084380D01*
X142367000Y-101243130D01*
X142113000Y-101243130D01*
X141954250Y-101084380D01*
X140463960Y-101084380D01*
X140230571Y-101181053D01*
X140051943Y-101359682D01*
X139955270Y-101593071D01*
X136090406Y-101593071D01*
X136090406Y-100934000D01*
X136067605Y-100812821D01*
X135995988Y-100701526D01*
X135886714Y-100626862D01*
X135757000Y-100600594D01*
X135007000Y-100600594D01*
X134885821Y-100623395D01*
X134774526Y-100695012D01*
X134699862Y-100804286D01*
X134673594Y-100934000D01*
X134673594Y-102134000D01*
X134696395Y-102255179D01*
X134768012Y-102366474D01*
X134877286Y-102441138D01*
X134930000Y-102451813D01*
X134930000Y-103864594D01*
X134612000Y-103864594D01*
X134490821Y-103887395D01*
X134379526Y-103959012D01*
X134304862Y-104068286D01*
X134278594Y-104198000D01*
X134247000Y-104198000D01*
X134247000Y-104071690D01*
X134150327Y-103838301D01*
X133971698Y-103659673D01*
X133738309Y-103563000D01*
X133297750Y-103563000D01*
X133139000Y-103721750D01*
X132885000Y-103721750D01*
X132726250Y-103563000D01*
X132285691Y-103563000D01*
X132052302Y-103659673D01*
X131873673Y-103838301D01*
X131777000Y-104071690D01*
X127708472Y-104071690D01*
X127260533Y-101819750D01*
X131832000Y-101819750D01*
X131832000Y-102260309D01*
X131928673Y-102493698D01*
X132107301Y-102672327D01*
X132340690Y-102769000D01*
X132556250Y-102769000D01*
X132715000Y-102610250D01*
X132715000Y-101661000D01*
X132969000Y-101661000D01*
X132969000Y-102610250D01*
X133127750Y-102769000D01*
X133343310Y-102769000D01*
X133576699Y-102672327D01*
X133755327Y-102493698D01*
X133852000Y-102260309D01*
X133852000Y-101819750D01*
X133693250Y-101661000D01*
X132969000Y-101661000D01*
X132715000Y-101661000D01*
X131990750Y-101661000D01*
X131832000Y-101819750D01*
X127260533Y-101819750D01*
X126855530Y-99783665D01*
X129400811Y-99783665D01*
X129566252Y-100184063D01*
X129872326Y-100490671D01*
X130272434Y-100656811D01*
X130705665Y-100657189D01*
X131106063Y-100491748D01*
X131412671Y-100185674D01*
X131429560Y-100145000D01*
X132133594Y-100145000D01*
X132133594Y-100234000D01*
X132156395Y-100355179D01*
X132166637Y-100371095D01*
X132107301Y-100395673D01*
X131928673Y-100574302D01*
X131832000Y-100807691D01*
X131832000Y-101248250D01*
X131990750Y-101407000D01*
X132715000Y-101407000D01*
X132715000Y-101387000D01*
X132969000Y-101387000D01*
X132969000Y-101407000D01*
X133693250Y-101407000D01*
X133852000Y-101248250D01*
X133852000Y-100807691D01*
X133755327Y-100574302D01*
X133576699Y-100395673D01*
X133518713Y-100371654D01*
X133524138Y-100363714D01*
X133550406Y-100234000D01*
X133550406Y-99034000D01*
X134673594Y-99034000D01*
X134673594Y-100234000D01*
X134696395Y-100355179D01*
X134768012Y-100466474D01*
X134877286Y-100541138D01*
X135007000Y-100567406D01*
X135757000Y-100567406D01*
X135859003Y-100548213D01*
X149689392Y-100548213D01*
X149758857Y-100790397D01*
X150282302Y-100977144D01*
X150837368Y-100949362D01*
X151221143Y-100790397D01*
X151290608Y-100548213D01*
X150490000Y-99747605D01*
X149689392Y-100548213D01*
X135859003Y-100548213D01*
X135878179Y-100544605D01*
X135989474Y-100472988D01*
X136064138Y-100363714D01*
X136090406Y-100234000D01*
X136090406Y-99360302D01*
X149080856Y-99360302D01*
X149108638Y-99915368D01*
X149267603Y-100299143D01*
X149509787Y-100368608D01*
X150310395Y-99568000D01*
X150669605Y-99568000D01*
X151470213Y-100368608D01*
X151712397Y-100299143D01*
X151899144Y-99775698D01*
X151871362Y-99220632D01*
X151712397Y-98836857D01*
X151470213Y-98767392D01*
X150669605Y-99568000D01*
X150310395Y-99568000D01*
X149509787Y-98767392D01*
X149267603Y-98836857D01*
X149080856Y-99360302D01*
X136090406Y-99360302D01*
X136090406Y-99034000D01*
X136067605Y-98912821D01*
X135995988Y-98801526D01*
X135886714Y-98726862D01*
X135834000Y-98716187D01*
X135834000Y-98587787D01*
X149689392Y-98587787D01*
X150490000Y-99388395D01*
X151290608Y-98587787D01*
X151221143Y-98345603D01*
X150697698Y-98158856D01*
X150142632Y-98186638D01*
X149758857Y-98345603D01*
X149689392Y-98587787D01*
X135834000Y-98587787D01*
X135834000Y-92897224D01*
X136011225Y-92720000D01*
X136451594Y-92720000D01*
X136451594Y-92868000D01*
X136474395Y-92989179D01*
X136546012Y-93100474D01*
X136655286Y-93175138D01*
X136785000Y-93201406D01*
X137535000Y-93201406D01*
X137656179Y-93178605D01*
X137767474Y-93106988D01*
X137842138Y-92997714D01*
X137868406Y-92868000D01*
X137868406Y-92720000D01*
X138408970Y-92720000D01*
X138431395Y-92839179D01*
X138503012Y-92950474D01*
X138612286Y-93025138D01*
X138742000Y-93051406D01*
X139642000Y-93051406D01*
X139763179Y-93028605D01*
X139874474Y-92956988D01*
X139949138Y-92847714D01*
X139975406Y-92718000D01*
X139975406Y-91518000D01*
X139952605Y-91396821D01*
X139880988Y-91285526D01*
X139771714Y-91210862D01*
X139644000Y-91184999D01*
X139644000Y-90876000D01*
X140655490Y-90876000D01*
X140631594Y-90994000D01*
X140631594Y-92054000D01*
X140654395Y-92175179D01*
X140726012Y-92286474D01*
X140835286Y-92361138D01*
X140838000Y-92361688D01*
X140838000Y-92582334D01*
X140590270Y-92582334D01*
X140469091Y-92605135D01*
X140357796Y-92676752D01*
X140283132Y-92786026D01*
X140256864Y-92915740D01*
X140256864Y-94114740D01*
X139975406Y-94114740D01*
X139975406Y-93718000D01*
X139952605Y-93596821D01*
X139880988Y-93485526D01*
X139771714Y-93410862D01*
X139642000Y-93384594D01*
X138742000Y-93384594D01*
X138620821Y-93407395D01*
X138509526Y-93479012D01*
X138434862Y-93588286D01*
X138408999Y-93716000D01*
X137868406Y-93716000D01*
X137868406Y-93568000D01*
X137845605Y-93446821D01*
X137773988Y-93335526D01*
X137664714Y-93260862D01*
X137535000Y-93234594D01*
X136785000Y-93234594D01*
X136663821Y-93257395D01*
X136552526Y-93329012D01*
X136477862Y-93438286D01*
X136451594Y-93568000D01*
X136451594Y-94768000D01*
X136474395Y-94889179D01*
X136546012Y-95000474D01*
X136655286Y-95075138D01*
X136785000Y-95101406D01*
X137535000Y-95101406D01*
X137656179Y-95078605D01*
X137767474Y-95006988D01*
X137842138Y-94897714D01*
X137868406Y-94768000D01*
X137868406Y-94620000D01*
X138408594Y-94620000D01*
X138408594Y-94918000D01*
X138431395Y-95039179D01*
X138503012Y-95150474D01*
X138612286Y-95225138D01*
X138742000Y-95251406D01*
X139642000Y-95251406D01*
X139763179Y-95228605D01*
X139874474Y-95156988D01*
X139949138Y-95047714D01*
X139955005Y-95018740D01*
X140256864Y-95018740D01*
X140256864Y-97416620D01*
X140279665Y-97537799D01*
X140351282Y-97649094D01*
X140460556Y-97723758D01*
X140590270Y-97750026D01*
X143889730Y-97750026D01*
X144010909Y-97727225D01*
X144122204Y-97655608D01*
X144196868Y-97546334D01*
X144223136Y-97416620D01*
X144223136Y-94752000D01*
X146103559Y-94752000D01*
X146116585Y-94821229D01*
X146188202Y-94932524D01*
X146297476Y-95007188D01*
X146375240Y-95022936D01*
X146375240Y-95476319D01*
X146306011Y-95489345D01*
X146194716Y-95560962D01*
X146120052Y-95670236D01*
X146093784Y-95799950D01*
X146093784Y-96600050D01*
X146116585Y-96721229D01*
X146188202Y-96832524D01*
X146297476Y-96907188D01*
X146427190Y-96933456D01*
X147227290Y-96933456D01*
X147348469Y-96910655D01*
X147459764Y-96839038D01*
X147534428Y-96729764D01*
X147560696Y-96600050D01*
X147560696Y-95799950D01*
X147537895Y-95678771D01*
X147466278Y-95567476D01*
X147357004Y-95492812D01*
X147279240Y-95477064D01*
X147279240Y-95023681D01*
X147348469Y-95010655D01*
X147459764Y-94939038D01*
X147520635Y-94849950D01*
X148092764Y-94849950D01*
X148092764Y-95650050D01*
X148115565Y-95771229D01*
X148187182Y-95882524D01*
X148296456Y-95957188D01*
X148426170Y-95983456D01*
X149226270Y-95983456D01*
X149347449Y-95960655D01*
X149453921Y-95892142D01*
X149490202Y-95948524D01*
X149599476Y-96023188D01*
X149677240Y-96038936D01*
X149677240Y-96492319D01*
X149608011Y-96505345D01*
X149496716Y-96576962D01*
X149422052Y-96686236D01*
X149395784Y-96815950D01*
X149395784Y-97616050D01*
X149418585Y-97737229D01*
X149490202Y-97848524D01*
X149599476Y-97923188D01*
X149729190Y-97949456D01*
X150529290Y-97949456D01*
X150650469Y-97926655D01*
X150668494Y-97915056D01*
X154096025Y-97915056D01*
X154215164Y-98171000D01*
X155575000Y-98171000D01*
X155575000Y-96810633D01*
X155829000Y-96810633D01*
X155829000Y-98171000D01*
X157188836Y-98171000D01*
X157307975Y-97915056D01*
X157108385Y-97433182D01*
X156670379Y-96960812D01*
X156084946Y-96692017D01*
X155829000Y-96810633D01*
X155575000Y-96810633D01*
X155319054Y-96692017D01*
X154733621Y-96960812D01*
X154295615Y-97433182D01*
X154096025Y-97915056D01*
X150668494Y-97915056D01*
X150761764Y-97855038D01*
X150836428Y-97745764D01*
X150862696Y-97616050D01*
X150862696Y-96815950D01*
X150839895Y-96694771D01*
X150768278Y-96583476D01*
X150659004Y-96508812D01*
X150581240Y-96493064D01*
X150581240Y-96039681D01*
X150650469Y-96026655D01*
X150761764Y-95955038D01*
X150822635Y-95865950D01*
X151394764Y-95865950D01*
X151394764Y-96666050D01*
X151417565Y-96787229D01*
X151489182Y-96898524D01*
X151598456Y-96973188D01*
X151728170Y-96999456D01*
X152528270Y-96999456D01*
X152649449Y-96976655D01*
X152760744Y-96905038D01*
X152835408Y-96795764D01*
X152861676Y-96666050D01*
X152861676Y-95865950D01*
X152838875Y-95744771D01*
X152767258Y-95633476D01*
X152657984Y-95558812D01*
X152582760Y-95543579D01*
X152582760Y-94637681D01*
X152651989Y-94624655D01*
X152763284Y-94553038D01*
X152837948Y-94443764D01*
X152864216Y-94314050D01*
X152864216Y-93513950D01*
X152841415Y-93392771D01*
X152769798Y-93281476D01*
X152660524Y-93206812D01*
X152582760Y-93191064D01*
X152582760Y-92737681D01*
X152651989Y-92724655D01*
X152763284Y-92653038D01*
X152837948Y-92543764D01*
X152864216Y-92414050D01*
X152864216Y-91613950D01*
X152841415Y-91492771D01*
X152769798Y-91381476D01*
X152660524Y-91306812D01*
X152530810Y-91280544D01*
X151730710Y-91280544D01*
X151609531Y-91303345D01*
X151498236Y-91374962D01*
X151423572Y-91484236D01*
X151397304Y-91613950D01*
X151397304Y-92414050D01*
X151420105Y-92535229D01*
X151491722Y-92646524D01*
X151600996Y-92721188D01*
X151678760Y-92736936D01*
X151678760Y-93190319D01*
X151609531Y-93203345D01*
X151498236Y-93274962D01*
X151423572Y-93384236D01*
X151397304Y-93513950D01*
X151397304Y-94314050D01*
X151420105Y-94435229D01*
X151491722Y-94546524D01*
X151600996Y-94621188D01*
X151678760Y-94636936D01*
X151678760Y-95541841D01*
X151606991Y-95555345D01*
X151495696Y-95626962D01*
X151421032Y-95736236D01*
X151394764Y-95865950D01*
X150822635Y-95865950D01*
X150836428Y-95845764D01*
X150862696Y-95716050D01*
X150862696Y-94915950D01*
X150839895Y-94794771D01*
X150768278Y-94683476D01*
X150659004Y-94608812D01*
X150529290Y-94582544D01*
X149729190Y-94582544D01*
X149608011Y-94605345D01*
X149501539Y-94673858D01*
X149465258Y-94617476D01*
X149355984Y-94542812D01*
X149226270Y-94516544D01*
X148426170Y-94516544D01*
X148304991Y-94539345D01*
X148193696Y-94610962D01*
X148119032Y-94720236D01*
X148092764Y-94849950D01*
X147520635Y-94849950D01*
X147534428Y-94829764D01*
X147560696Y-94700050D01*
X147560696Y-93899950D01*
X147537895Y-93778771D01*
X147466278Y-93667476D01*
X147357004Y-93592812D01*
X147227290Y-93566544D01*
X146427190Y-93566544D01*
X146306011Y-93589345D01*
X146194716Y-93660962D01*
X146120052Y-93770236D01*
X146104304Y-93848000D01*
X144223136Y-93848000D01*
X144223136Y-92915740D01*
X144200335Y-92794561D01*
X144128718Y-92683266D01*
X144019444Y-92608602D01*
X143889730Y-92582334D01*
X141742000Y-92582334D01*
X141742000Y-92360859D01*
X141847474Y-92292988D01*
X141922138Y-92183714D01*
X141948406Y-92054000D01*
X141948406Y-90994000D01*
X141926203Y-90876000D01*
X142555490Y-90876000D01*
X142531594Y-90994000D01*
X142531594Y-92054000D01*
X142554395Y-92175179D01*
X142626012Y-92286474D01*
X142735286Y-92361138D01*
X142865000Y-92387406D01*
X143515000Y-92387406D01*
X143636179Y-92364605D01*
X143747474Y-92292988D01*
X143822138Y-92183714D01*
X143838888Y-92101000D01*
X144352141Y-92101000D01*
X144420012Y-92206474D01*
X144529286Y-92281138D01*
X144659000Y-92307406D01*
X145409000Y-92307406D01*
X145530179Y-92284605D01*
X145641474Y-92212988D01*
X145716138Y-92103714D01*
X145742406Y-91974000D01*
X145742406Y-91951000D01*
X146028594Y-91951000D01*
X146028594Y-92124000D01*
X146051395Y-92245179D01*
X146123012Y-92356474D01*
X146232286Y-92431138D01*
X146362000Y-92457406D01*
X147262000Y-92457406D01*
X147383179Y-92434605D01*
X147494474Y-92362988D01*
X147569138Y-92253714D01*
X147595406Y-92124000D01*
X147595406Y-91940000D01*
X147806594Y-91940000D01*
X147806594Y-93140000D01*
X147829395Y-93261179D01*
X147901012Y-93372474D01*
X148010286Y-93447138D01*
X148140000Y-93473406D01*
X149040000Y-93473406D01*
X149161179Y-93450605D01*
X149214956Y-93416000D01*
X149408099Y-93416000D01*
X149421125Y-93485229D01*
X149492742Y-93596524D01*
X149602016Y-93671188D01*
X149731730Y-93697456D01*
X150531830Y-93697456D01*
X150653009Y-93674655D01*
X150764304Y-93603038D01*
X150838968Y-93493764D01*
X150865236Y-93364050D01*
X150865236Y-92563950D01*
X150842435Y-92442771D01*
X150770818Y-92331476D01*
X150661544Y-92256812D01*
X150531830Y-92230544D01*
X149731730Y-92230544D01*
X149610551Y-92253345D01*
X149499256Y-92324962D01*
X149424592Y-92434236D01*
X149408844Y-92512000D01*
X149373406Y-92512000D01*
X149373406Y-91940000D01*
X149350605Y-91818821D01*
X149278988Y-91707526D01*
X149169714Y-91632862D01*
X149040000Y-91606594D01*
X148140000Y-91606594D01*
X148018821Y-91629395D01*
X147907526Y-91701012D01*
X147832862Y-91810286D01*
X147806594Y-91940000D01*
X147595406Y-91940000D01*
X147595406Y-90924000D01*
X147586374Y-90876000D01*
X147806594Y-90876000D01*
X147806594Y-90940000D01*
X147829395Y-91061179D01*
X147901012Y-91172474D01*
X148010286Y-91247138D01*
X148140000Y-91273406D01*
X149040000Y-91273406D01*
X149161179Y-91250605D01*
X149272474Y-91178988D01*
X149347138Y-91069714D01*
X149373406Y-90940000D01*
X149373406Y-89740000D01*
X149350605Y-89618821D01*
X149278988Y-89507526D01*
X149169714Y-89432862D01*
X149040000Y-89406594D01*
X148140000Y-89406594D01*
X148018821Y-89429395D01*
X147907526Y-89501012D01*
X147832862Y-89610286D01*
X147806594Y-89740000D01*
X147806594Y-89972000D01*
X147585686Y-89972000D01*
X147595406Y-89924000D01*
X147595406Y-88724000D01*
X147572605Y-88602821D01*
X147500988Y-88491526D01*
X147391714Y-88416862D01*
X147389000Y-88416312D01*
X147389000Y-88129416D01*
X147438891Y-88009265D01*
X147439109Y-87759829D01*
X147343855Y-87529297D01*
X147167631Y-87352765D01*
X146937265Y-87257109D01*
X146687829Y-87256891D01*
X146457297Y-87352145D01*
X146280765Y-87528369D01*
X146185109Y-87758735D01*
X146184891Y-88008171D01*
X146235000Y-88129444D01*
X146235000Y-88417141D01*
X146129526Y-88485012D01*
X146054862Y-88594286D01*
X146030430Y-88714931D01*
X145947327Y-88514302D01*
X145768699Y-88335673D01*
X145535310Y-88239000D01*
X145319750Y-88239000D01*
X145161000Y-88397750D01*
X145161000Y-89347000D01*
X145181000Y-89347000D01*
X145181000Y-89601000D01*
X145161000Y-89601000D01*
X145161000Y-89621000D01*
X144907000Y-89621000D01*
X144907000Y-89601000D01*
X144182750Y-89601000D01*
X144024000Y-89759750D01*
X144024000Y-89972000D01*
X143824510Y-89972000D01*
X143848406Y-89854000D01*
X143848406Y-88794000D01*
X143839693Y-88747691D01*
X144024000Y-88747691D01*
X144024000Y-89188250D01*
X144182750Y-89347000D01*
X144907000Y-89347000D01*
X144907000Y-88397750D01*
X144748250Y-88239000D01*
X144532690Y-88239000D01*
X144299301Y-88335673D01*
X144120673Y-88514302D01*
X144024000Y-88747691D01*
X143839693Y-88747691D01*
X143825605Y-88672821D01*
X143753988Y-88561526D01*
X143644714Y-88486862D01*
X143515000Y-88460594D01*
X143114218Y-88460594D01*
X143103327Y-88434302D01*
X142924699Y-88255673D01*
X142691310Y-88159000D01*
X142525750Y-88159000D01*
X142367000Y-88317750D01*
X142367000Y-89197000D01*
X142387000Y-89197000D01*
X142387000Y-89451000D01*
X142367000Y-89451000D01*
X142367000Y-89471000D01*
X142113000Y-89471000D01*
X142113000Y-89451000D01*
X142093000Y-89451000D01*
X142093000Y-89197000D01*
X142113000Y-89197000D01*
X142113000Y-88317750D01*
X141968518Y-88173268D01*
X141987406Y-88080000D01*
X141987406Y-87180000D01*
X141964605Y-87058821D01*
X141892988Y-86947526D01*
X141783714Y-86872862D01*
X141654000Y-86846594D01*
X141506000Y-86846594D01*
X141506000Y-86635406D01*
X141654000Y-86635406D01*
X141775179Y-86612605D01*
X141886474Y-86540988D01*
X141961138Y-86431714D01*
X141987001Y-86304000D01*
X142149082Y-86304000D01*
X142157395Y-86348179D01*
X142229012Y-86459474D01*
X142338286Y-86534138D01*
X142468000Y-86560406D01*
X143668000Y-86560406D01*
X143789179Y-86537605D01*
X143805095Y-86527363D01*
X143829673Y-86586699D01*
X144008302Y-86765327D01*
X144241691Y-86862000D01*
X144682250Y-86862000D01*
X144841000Y-86703250D01*
X144841000Y-85979000D01*
X145095000Y-85979000D01*
X145095000Y-86703250D01*
X145253750Y-86862000D01*
X145694309Y-86862000D01*
X145927698Y-86765327D01*
X146106327Y-86586699D01*
X146203000Y-86353310D01*
X146203000Y-86137750D01*
X146044250Y-85979000D01*
X145095000Y-85979000D01*
X144841000Y-85979000D01*
X144821000Y-85979000D01*
X144821000Y-85725000D01*
X144841000Y-85725000D01*
X144841000Y-85000750D01*
X145095000Y-85000750D01*
X145095000Y-85725000D01*
X146044250Y-85725000D01*
X146203000Y-85566250D01*
X146203000Y-85350690D01*
X146106327Y-85117301D01*
X145927698Y-84938673D01*
X145694309Y-84842000D01*
X145253750Y-84842000D01*
X145095000Y-85000750D01*
X144841000Y-85000750D01*
X144682250Y-84842000D01*
X144241691Y-84842000D01*
X144008302Y-84938673D01*
X143829673Y-85117301D01*
X143805654Y-85175287D01*
X143797714Y-85169862D01*
X143668000Y-85143594D01*
X142468000Y-85143594D01*
X142346821Y-85166395D01*
X142235526Y-85238012D01*
X142160862Y-85347286D01*
X142150187Y-85400000D01*
X141987030Y-85400000D01*
X141964605Y-85280821D01*
X141892988Y-85169526D01*
X141783714Y-85094862D01*
X141654000Y-85068594D01*
X140454000Y-85068594D01*
X140332821Y-85091395D01*
X140221526Y-85163012D01*
X140146862Y-85272286D01*
X140120594Y-85402000D01*
X140120594Y-86302000D01*
X140143395Y-86423179D01*
X140215012Y-86534474D01*
X140324286Y-86609138D01*
X140454000Y-86635406D01*
X140602000Y-86635406D01*
X140602000Y-86846594D01*
X140454000Y-86846594D01*
X140332821Y-86869395D01*
X140221526Y-86941012D01*
X140146862Y-87050286D01*
X140120594Y-87180000D01*
X140120594Y-88080000D01*
X140143395Y-88201179D01*
X140215012Y-88312474D01*
X140324286Y-88387138D01*
X140454000Y-88413406D01*
X140602000Y-88413406D01*
X140602000Y-89088000D01*
X140631594Y-89236781D01*
X140631594Y-89854000D01*
X140653797Y-89972000D01*
X139446000Y-89972000D01*
X139273027Y-90006406D01*
X139126388Y-90104388D01*
X138872388Y-90358388D01*
X138774406Y-90505027D01*
X138740000Y-90678000D01*
X138740000Y-91184970D01*
X138620821Y-91207395D01*
X138509526Y-91279012D01*
X138434862Y-91388286D01*
X138408594Y-91518000D01*
X138408594Y-91816000D01*
X137868406Y-91816000D01*
X137868406Y-91668000D01*
X137845605Y-91546821D01*
X137773988Y-91435526D01*
X137664714Y-91360862D01*
X137535000Y-91334594D01*
X136785000Y-91334594D01*
X136663821Y-91357395D01*
X136552526Y-91429012D01*
X136477862Y-91538286D01*
X136451594Y-91668000D01*
X136451594Y-91816000D01*
X135824000Y-91816000D01*
X135651027Y-91850406D01*
X135504387Y-91948388D01*
X135062388Y-92390388D01*
X134964406Y-92537027D01*
X134930000Y-92710000D01*
X134930000Y-98715082D01*
X134885821Y-98723395D01*
X134774526Y-98795012D01*
X134699862Y-98904286D01*
X134673594Y-99034000D01*
X133550406Y-99034000D01*
X133527605Y-98912821D01*
X133455988Y-98801526D01*
X133346714Y-98726862D01*
X133217000Y-98700594D01*
X132467000Y-98700594D01*
X132345821Y-98723395D01*
X132234526Y-98795012D01*
X132159862Y-98904286D01*
X132142302Y-98991000D01*
X131429888Y-98991000D01*
X131413748Y-98951937D01*
X131107674Y-98645329D01*
X130707566Y-98479189D01*
X130274335Y-98478811D01*
X129873937Y-98644252D01*
X129567329Y-98950326D01*
X129401189Y-99350434D01*
X129400811Y-99783665D01*
X126855530Y-99783665D01*
X126812631Y-99568000D01*
X127986970Y-93664201D01*
X131331203Y-88659203D01*
X132443858Y-87915750D01*
X137619000Y-87915750D01*
X137619000Y-88206310D01*
X137715673Y-88439699D01*
X137894302Y-88618327D01*
X138127691Y-88715000D01*
X138568250Y-88715000D01*
X138727000Y-88556250D01*
X138727000Y-87757000D01*
X138981000Y-87757000D01*
X138981000Y-88556250D01*
X139139750Y-88715000D01*
X139580309Y-88715000D01*
X139813698Y-88618327D01*
X139992327Y-88439699D01*
X140089000Y-88206310D01*
X140089000Y-87915750D01*
X139930250Y-87757000D01*
X138981000Y-87757000D01*
X138727000Y-87757000D01*
X137777750Y-87757000D01*
X137619000Y-87915750D01*
X132443858Y-87915750D01*
X135346643Y-85976171D01*
X136532891Y-85976171D01*
X136628145Y-86206703D01*
X136804369Y-86383235D01*
X137034735Y-86478891D01*
X137284171Y-86479109D01*
X137405444Y-86429000D01*
X137947141Y-86429000D01*
X138015012Y-86534474D01*
X138067130Y-86570085D01*
X137894302Y-86641673D01*
X137715673Y-86820301D01*
X137619000Y-87053690D01*
X137619000Y-87344250D01*
X137777750Y-87503000D01*
X138727000Y-87503000D01*
X138727000Y-87483000D01*
X138981000Y-87483000D01*
X138981000Y-87503000D01*
X139930250Y-87503000D01*
X140089000Y-87344250D01*
X140089000Y-87053690D01*
X139992327Y-86820301D01*
X139813698Y-86641673D01*
X139641105Y-86570182D01*
X139686474Y-86540988D01*
X139761138Y-86431714D01*
X139787406Y-86302000D01*
X139787406Y-85402000D01*
X139764605Y-85280821D01*
X139692988Y-85169526D01*
X139583714Y-85094862D01*
X139454000Y-85068594D01*
X138254000Y-85068594D01*
X138132821Y-85091395D01*
X138021526Y-85163012D01*
X137946862Y-85272286D01*
X137946312Y-85275000D01*
X137405416Y-85275000D01*
X137285265Y-85225109D01*
X137035829Y-85224891D01*
X136805297Y-85320145D01*
X136628765Y-85496369D01*
X136533109Y-85726735D01*
X136532891Y-85976171D01*
X135346643Y-85976171D01*
X136336201Y-85314970D01*
X142240000Y-84140631D01*
X148143799Y-85314970D01*
X148143799Y-85314970D01*
G37*
X148143799Y-85314970D02*
X153148797Y-88659203D01*
X156493030Y-93664201D01*
X157667369Y-99568000D01*
X156493030Y-105471799D01*
X153148797Y-110476797D01*
X148143799Y-113821030D01*
X142240000Y-114995369D01*
X136336201Y-113821030D01*
X134185160Y-112383750D01*
X135313000Y-112383750D01*
X135313000Y-112824309D01*
X135409673Y-113057698D01*
X135588301Y-113236327D01*
X135821690Y-113333000D01*
X136112250Y-113333000D01*
X136271000Y-113174250D01*
X136271000Y-112225000D01*
X136525000Y-112225000D01*
X136525000Y-113174250D01*
X136683750Y-113333000D01*
X136974310Y-113333000D01*
X137207699Y-113236327D01*
X137386327Y-113057698D01*
X137483000Y-112824309D01*
X137483000Y-112383750D01*
X137324250Y-112225000D01*
X136525000Y-112225000D01*
X136271000Y-112225000D01*
X135471750Y-112225000D01*
X135313000Y-112383750D01*
X134185160Y-112383750D01*
X132670507Y-111371691D01*
X135313000Y-111371691D01*
X135313000Y-111812250D01*
X135471750Y-111971000D01*
X136271000Y-111971000D01*
X136271000Y-111021750D01*
X136525000Y-111021750D01*
X136525000Y-111971000D01*
X137324250Y-111971000D01*
X137483000Y-111812250D01*
X137483000Y-111498000D01*
X137900594Y-111498000D01*
X137900594Y-112698000D01*
X137923395Y-112819179D01*
X137995012Y-112930474D01*
X138104286Y-113005138D01*
X138107000Y-113005688D01*
X138107000Y-113292584D01*
X138057109Y-113412735D01*
X138056891Y-113662171D01*
X138152145Y-113892703D01*
X138328369Y-114069235D01*
X138558735Y-114164891D01*
X138808171Y-114165109D01*
X139038703Y-114069855D01*
X139215235Y-113893631D01*
X139310891Y-113663265D01*
X139311109Y-113413829D01*
X139261000Y-113292556D01*
X139261000Y-113004859D01*
X139366474Y-112936988D01*
X139441138Y-112827714D01*
X139467406Y-112698000D01*
X139467406Y-112299750D01*
X140055000Y-112299750D01*
X140055000Y-112515310D01*
X140151673Y-112748699D01*
X140330302Y-112927327D01*
X140563691Y-113024000D01*
X141004250Y-113024000D01*
X141163000Y-112865250D01*
X141163000Y-112141000D01*
X140213750Y-112141000D01*
X140055000Y-112299750D01*
X139467406Y-112299750D01*
X139467406Y-111512690D01*
X140055000Y-111512690D01*
X140055000Y-111728250D01*
X140213750Y-111887000D01*
X141163000Y-111887000D01*
X141163000Y-111162750D01*
X141417000Y-111162750D01*
X141417000Y-111887000D01*
X141437000Y-111887000D01*
X141437000Y-112141000D01*
X141417000Y-112141000D01*
X141417000Y-112865250D01*
X141575750Y-113024000D01*
X142016309Y-113024000D01*
X142249698Y-112927327D01*
X142428327Y-112748699D01*
X142452346Y-112690713D01*
X142460286Y-112696138D01*
X142590000Y-112722406D01*
X143790000Y-112722406D01*
X143911179Y-112699605D01*
X144022474Y-112627988D01*
X144097138Y-112518714D01*
X144123406Y-112389000D01*
X144123406Y-111639000D01*
X144100605Y-111517821D01*
X144028988Y-111406526D01*
X143919714Y-111331862D01*
X143790000Y-111305594D01*
X143767000Y-111305594D01*
X143767000Y-110806411D01*
X143822138Y-110725714D01*
X143848406Y-110596000D01*
X143848406Y-110559000D01*
X144043141Y-110559000D01*
X144111012Y-110664474D01*
X144220286Y-110739138D01*
X144350000Y-110765406D01*
X145550000Y-110765406D01*
X145671179Y-110742605D01*
X145782474Y-110670988D01*
X145857138Y-110561714D01*
X145883406Y-110432000D01*
X145883406Y-109532000D01*
X146216594Y-109532000D01*
X146216594Y-110432000D01*
X146239395Y-110553179D01*
X146311012Y-110664474D01*
X146420286Y-110739138D01*
X146550000Y-110765406D01*
X147750000Y-110765406D01*
X147871179Y-110742605D01*
X147982474Y-110670988D01*
X148057138Y-110561714D01*
X148057688Y-110559000D01*
X148344584Y-110559000D01*
X148464735Y-110608891D01*
X148714171Y-110609109D01*
X148944703Y-110513855D01*
X149121235Y-110337631D01*
X149216891Y-110107265D01*
X149217109Y-109857829D01*
X149121855Y-109627297D01*
X148945631Y-109450765D01*
X148715265Y-109355109D01*
X148465829Y-109354891D01*
X148344556Y-109405000D01*
X148056859Y-109405000D01*
X147988988Y-109299526D01*
X147879714Y-109224862D01*
X147750000Y-109198594D01*
X146550000Y-109198594D01*
X146428821Y-109221395D01*
X146317526Y-109293012D01*
X146242862Y-109402286D01*
X146216594Y-109532000D01*
X145883406Y-109532000D01*
X145860605Y-109410821D01*
X145788988Y-109299526D01*
X145679714Y-109224862D01*
X145550000Y-109198594D01*
X144350000Y-109198594D01*
X144228821Y-109221395D01*
X144117526Y-109293012D01*
X144042862Y-109402286D01*
X144042312Y-109405000D01*
X143819285Y-109405000D01*
X143753988Y-109303526D01*
X143644714Y-109228862D01*
X143515000Y-109202594D01*
X142865000Y-109202594D01*
X142743821Y-109225395D01*
X142632526Y-109297012D01*
X142557862Y-109406286D01*
X142531594Y-109536000D01*
X142531594Y-110596000D01*
X142554395Y-110717179D01*
X142613000Y-110808253D01*
X142613000Y-111305594D01*
X142590000Y-111305594D01*
X142468821Y-111328395D01*
X142452905Y-111338637D01*
X142428327Y-111279301D01*
X142249698Y-111100673D01*
X142016309Y-111004000D01*
X141575750Y-111004000D01*
X141417000Y-111162750D01*
X141163000Y-111162750D01*
X141004250Y-111004000D01*
X140563691Y-111004000D01*
X140330302Y-111100673D01*
X140151673Y-111279301D01*
X140055000Y-111512690D01*
X139467406Y-111512690D01*
X139467406Y-111498000D01*
X139444605Y-111376821D01*
X139372988Y-111265526D01*
X139263714Y-111190862D01*
X139134000Y-111164594D01*
X138234000Y-111164594D01*
X138112821Y-111187395D01*
X138001526Y-111259012D01*
X137926862Y-111368286D01*
X137900594Y-111498000D01*
X137483000Y-111498000D01*
X137483000Y-111371691D01*
X137386327Y-111138302D01*
X137207699Y-110959673D01*
X136974310Y-110863000D01*
X136683750Y-110863000D01*
X136525000Y-111021750D01*
X136271000Y-111021750D01*
X136112250Y-110863000D01*
X135821690Y-110863000D01*
X135588301Y-110959673D01*
X135409673Y-111138302D01*
X135313000Y-111371691D01*
X132670507Y-111371691D01*
X131331203Y-110476797D01*
X127986970Y-105471799D01*
X127879946Y-104933750D01*
X131777000Y-104933750D01*
X131777000Y-105224310D01*
X131873673Y-105457699D01*
X132052302Y-105636327D01*
X132285691Y-105733000D01*
X132726250Y-105733000D01*
X132885000Y-105574250D01*
X132885000Y-104775000D01*
X133139000Y-104775000D01*
X133139000Y-105574250D01*
X133297750Y-105733000D01*
X133738309Y-105733000D01*
X133971698Y-105636327D01*
X134150327Y-105457699D01*
X134247000Y-105224310D01*
X134247000Y-104933750D01*
X134088250Y-104775000D01*
X133139000Y-104775000D01*
X132885000Y-104775000D01*
X131935750Y-104775000D01*
X131777000Y-104933750D01*
X127879946Y-104933750D01*
X127708472Y-104071690D01*
X131777000Y-104071690D01*
X131777000Y-104362250D01*
X131935750Y-104521000D01*
X132885000Y-104521000D01*
X132885000Y-103721750D01*
X133139000Y-103721750D01*
X133139000Y-104521000D01*
X134088250Y-104521000D01*
X134247000Y-104362250D01*
X134247000Y-104198000D01*
X134278594Y-104198000D01*
X134278594Y-105098000D01*
X134301395Y-105219179D01*
X134373012Y-105330474D01*
X134482286Y-105405138D01*
X134612000Y-105431406D01*
X134760000Y-105431406D01*
X134760000Y-106256000D01*
X134794406Y-106428973D01*
X134892388Y-106575612D01*
X135316388Y-106999613D01*
X135462156Y-107097012D01*
X135463027Y-107097594D01*
X135636000Y-107132000D01*
X137308974Y-107132000D01*
X137225673Y-107215301D01*
X137201654Y-107273287D01*
X137193714Y-107267862D01*
X137064000Y-107241594D01*
X135864000Y-107241594D01*
X135742821Y-107264395D01*
X135631526Y-107336012D01*
X135556862Y-107445286D01*
X135530594Y-107575000D01*
X135530594Y-108325000D01*
X135553395Y-108446179D01*
X135625012Y-108557474D01*
X135734286Y-108632138D01*
X135864000Y-108658406D01*
X136012000Y-108658406D01*
X136012000Y-108964594D01*
X135948000Y-108964594D01*
X135826821Y-108987395D01*
X135715526Y-109059012D01*
X135640862Y-109168286D01*
X135614594Y-109298000D01*
X135614594Y-110498000D01*
X135637395Y-110619179D01*
X135709012Y-110730474D01*
X135818286Y-110805138D01*
X135948000Y-110831406D01*
X136848000Y-110831406D01*
X136969179Y-110808605D01*
X137080474Y-110736988D01*
X137155138Y-110627714D01*
X137181406Y-110498000D01*
X137181406Y-110350000D01*
X137900594Y-110350000D01*
X137900594Y-110498000D01*
X137923395Y-110619179D01*
X137995012Y-110730474D01*
X138104286Y-110805138D01*
X138234000Y-110831406D01*
X139134000Y-110831406D01*
X139255179Y-110808605D01*
X139366474Y-110736988D01*
X139441138Y-110627714D01*
X139467406Y-110498000D01*
X139467406Y-110350000D01*
X140631594Y-110350000D01*
X140631594Y-110596000D01*
X140654395Y-110717179D01*
X140726012Y-110828474D01*
X140835286Y-110903138D01*
X140965000Y-110929406D01*
X141615000Y-110929406D01*
X141736179Y-110906605D01*
X141847474Y-110834988D01*
X141922138Y-110725714D01*
X141948406Y-110596000D01*
X141948406Y-109536000D01*
X141925605Y-109414821D01*
X141853988Y-109303526D01*
X141744714Y-109228862D01*
X141615000Y-109202594D01*
X140965000Y-109202594D01*
X140843821Y-109225395D01*
X140732526Y-109297012D01*
X140657862Y-109406286D01*
X140649820Y-109446000D01*
X139467406Y-109446000D01*
X139467406Y-109298000D01*
X139444605Y-109176821D01*
X139372988Y-109065526D01*
X139263714Y-108990862D01*
X139134000Y-108964594D01*
X138234000Y-108964594D01*
X138112821Y-108987395D01*
X138001526Y-109059012D01*
X137926862Y-109168286D01*
X137900594Y-109298000D01*
X137900594Y-109446000D01*
X137181406Y-109446000D01*
X137181406Y-109298000D01*
X137158605Y-109176821D01*
X137086988Y-109065526D01*
X136977714Y-108990862D01*
X136916000Y-108978364D01*
X136916000Y-108658406D01*
X137064000Y-108658406D01*
X137185179Y-108635605D01*
X137201095Y-108625363D01*
X137225673Y-108684699D01*
X137404302Y-108863327D01*
X137637691Y-108960000D01*
X138078250Y-108960000D01*
X138237000Y-108801250D01*
X138237000Y-108077000D01*
X138491000Y-108077000D01*
X138491000Y-108801250D01*
X138649750Y-108960000D01*
X139090309Y-108960000D01*
X139323698Y-108863327D01*
X139502327Y-108684699D01*
X139599000Y-108451310D01*
X139599000Y-108235750D01*
X139440250Y-108077000D01*
X138491000Y-108077000D01*
X138237000Y-108077000D01*
X138217000Y-108077000D01*
X138217000Y-107823000D01*
X138237000Y-107823000D01*
X138237000Y-107803000D01*
X138491000Y-107803000D01*
X138491000Y-107823000D01*
X139440250Y-107823000D01*
X139599000Y-107664250D01*
X139599000Y-107448690D01*
X139502327Y-107215301D01*
X139419026Y-107132000D01*
X140708620Y-107132000D01*
X140657862Y-107206286D01*
X140631594Y-107336000D01*
X140631594Y-108396000D01*
X140654395Y-108517179D01*
X140726012Y-108628474D01*
X140835286Y-108703138D01*
X140965000Y-108729406D01*
X141365782Y-108729406D01*
X141376673Y-108755698D01*
X141555301Y-108934327D01*
X141788690Y-109031000D01*
X141954250Y-109031000D01*
X142113000Y-108872250D01*
X142113000Y-107993000D01*
X142093000Y-107993000D01*
X142093000Y-107739000D01*
X142113000Y-107739000D01*
X142113000Y-106859750D01*
X142031380Y-106778130D01*
X142113000Y-106696510D01*
X142113000Y-104096820D01*
X142367000Y-104096820D01*
X142367000Y-106696510D01*
X142448620Y-106778130D01*
X142367000Y-106859750D01*
X142367000Y-107739000D01*
X142387000Y-107739000D01*
X142387000Y-107993000D01*
X142367000Y-107993000D01*
X142367000Y-108872250D01*
X142525750Y-109031000D01*
X142691310Y-109031000D01*
X142924699Y-108934327D01*
X143103327Y-108755698D01*
X143114218Y-108729406D01*
X143515000Y-108729406D01*
X143636179Y-108706605D01*
X143747474Y-108634988D01*
X143822138Y-108525714D01*
X143848406Y-108396000D01*
X143848406Y-108318000D01*
X144016594Y-108318000D01*
X144016594Y-108400000D01*
X144039395Y-108521179D01*
X144111012Y-108632474D01*
X144220286Y-108707138D01*
X144350000Y-108733406D01*
X145550000Y-108733406D01*
X145671179Y-108710605D01*
X145782474Y-108638988D01*
X145857138Y-108529714D01*
X145883406Y-108400000D01*
X145883406Y-107500000D01*
X146216594Y-107500000D01*
X146216594Y-108400000D01*
X146239395Y-108521179D01*
X146311012Y-108632474D01*
X146420286Y-108707138D01*
X146550000Y-108733406D01*
X147750000Y-108733406D01*
X147871179Y-108710605D01*
X147982474Y-108638988D01*
X148057138Y-108529714D01*
X148083001Y-108402000D01*
X152654000Y-108402000D01*
X152826973Y-108367594D01*
X152973612Y-108269612D01*
X156021612Y-105221612D01*
X156119594Y-105074973D01*
X156154000Y-104902000D01*
X156154000Y-102187406D01*
X156718000Y-102187406D01*
X156839179Y-102164605D01*
X156950474Y-102092988D01*
X157025138Y-101983714D01*
X157051406Y-101854000D01*
X157051406Y-99822000D01*
X157028605Y-99700821D01*
X156956988Y-99589526D01*
X156847714Y-99514862D01*
X156792348Y-99503650D01*
X157108385Y-99162818D01*
X157307975Y-98680944D01*
X157188836Y-98425000D01*
X155829000Y-98425000D01*
X155829000Y-98445000D01*
X155575000Y-98445000D01*
X155575000Y-98425000D01*
X154215164Y-98425000D01*
X154096025Y-98680944D01*
X154295615Y-99162818D01*
X154610810Y-99502742D01*
X154564821Y-99511395D01*
X154453526Y-99583012D01*
X154378862Y-99692286D01*
X154352594Y-99822000D01*
X154352594Y-101854000D01*
X154375395Y-101975179D01*
X154447012Y-102086474D01*
X154556286Y-102161138D01*
X154686000Y-102187406D01*
X155250000Y-102187406D01*
X155250000Y-104714776D01*
X152466776Y-107498000D01*
X148083030Y-107498000D01*
X148060605Y-107378821D01*
X147988988Y-107267526D01*
X147879714Y-107192862D01*
X147750000Y-107166594D01*
X146550000Y-107166594D01*
X146428821Y-107189395D01*
X146317526Y-107261012D01*
X146242862Y-107370286D01*
X146216594Y-107500000D01*
X145883406Y-107500000D01*
X145860605Y-107378821D01*
X145788988Y-107267526D01*
X145679714Y-107192862D01*
X145550000Y-107166594D01*
X144350000Y-107166594D01*
X144228821Y-107189395D01*
X144117526Y-107261012D01*
X144042862Y-107370286D01*
X144034010Y-107414000D01*
X143848406Y-107414000D01*
X143848406Y-107336000D01*
X143825605Y-107214821D01*
X143753988Y-107103526D01*
X143644714Y-107028862D01*
X143515000Y-107002594D01*
X143114218Y-107002594D01*
X143103327Y-106976302D01*
X142982286Y-106855260D01*
X144016040Y-106855260D01*
X144249429Y-106758587D01*
X144428057Y-106579958D01*
X144524730Y-106346569D01*
X144524730Y-104255570D01*
X144365980Y-104096820D01*
X142367000Y-104096820D01*
X142113000Y-104096820D01*
X140114020Y-104096820D01*
X139955270Y-104255570D01*
X139955270Y-106228000D01*
X135823225Y-106228000D01*
X135664000Y-106068776D01*
X135664000Y-105431406D01*
X135812000Y-105431406D01*
X135933179Y-105408605D01*
X136044474Y-105336988D01*
X136119138Y-105227714D01*
X136145406Y-105098000D01*
X136145406Y-104198000D01*
X136122605Y-104076821D01*
X136050988Y-103965526D01*
X135941714Y-103890862D01*
X135834000Y-103869049D01*
X135834000Y-102452918D01*
X135878179Y-102444605D01*
X135989474Y-102372988D01*
X136064138Y-102263714D01*
X136090406Y-102134000D01*
X136090406Y-101593071D01*
X139955270Y-101593071D01*
X139955270Y-103684070D01*
X140114020Y-103842820D01*
X142113000Y-103842820D01*
X142113000Y-101243130D01*
X142367000Y-101243130D01*
X142367000Y-103842820D01*
X144365980Y-103842820D01*
X144524730Y-103684070D01*
X144524730Y-101593071D01*
X144428057Y-101359682D01*
X144249429Y-101181053D01*
X144016040Y-101084380D01*
X142525750Y-101084380D01*
X142367000Y-101243130D01*
X142113000Y-101243130D01*
X141954250Y-101084380D01*
X140463960Y-101084380D01*
X140230571Y-101181053D01*
X140051943Y-101359682D01*
X139955270Y-101593071D01*
X136090406Y-101593071D01*
X136090406Y-100934000D01*
X136067605Y-100812821D01*
X135995988Y-100701526D01*
X135886714Y-100626862D01*
X135757000Y-100600594D01*
X135007000Y-100600594D01*
X134885821Y-100623395D01*
X134774526Y-100695012D01*
X134699862Y-100804286D01*
X134673594Y-100934000D01*
X134673594Y-102134000D01*
X134696395Y-102255179D01*
X134768012Y-102366474D01*
X134877286Y-102441138D01*
X134930000Y-102451813D01*
X134930000Y-103864594D01*
X134612000Y-103864594D01*
X134490821Y-103887395D01*
X134379526Y-103959012D01*
X134304862Y-104068286D01*
X134278594Y-104198000D01*
X134247000Y-104198000D01*
X134247000Y-104071690D01*
X134150327Y-103838301D01*
X133971698Y-103659673D01*
X133738309Y-103563000D01*
X133297750Y-103563000D01*
X133139000Y-103721750D01*
X132885000Y-103721750D01*
X132726250Y-103563000D01*
X132285691Y-103563000D01*
X132052302Y-103659673D01*
X131873673Y-103838301D01*
X131777000Y-104071690D01*
X127708472Y-104071690D01*
X127260533Y-101819750D01*
X131832000Y-101819750D01*
X131832000Y-102260309D01*
X131928673Y-102493698D01*
X132107301Y-102672327D01*
X132340690Y-102769000D01*
X132556250Y-102769000D01*
X132715000Y-102610250D01*
X132715000Y-101661000D01*
X132969000Y-101661000D01*
X132969000Y-102610250D01*
X133127750Y-102769000D01*
X133343310Y-102769000D01*
X133576699Y-102672327D01*
X133755327Y-102493698D01*
X133852000Y-102260309D01*
X133852000Y-101819750D01*
X133693250Y-101661000D01*
X132969000Y-101661000D01*
X132715000Y-101661000D01*
X131990750Y-101661000D01*
X131832000Y-101819750D01*
X127260533Y-101819750D01*
X126855530Y-99783665D01*
X129400811Y-99783665D01*
X129566252Y-100184063D01*
X129872326Y-100490671D01*
X130272434Y-100656811D01*
X130705665Y-100657189D01*
X131106063Y-100491748D01*
X131412671Y-100185674D01*
X131429560Y-100145000D01*
X132133594Y-100145000D01*
X132133594Y-100234000D01*
X132156395Y-100355179D01*
X132166637Y-100371095D01*
X132107301Y-100395673D01*
X131928673Y-100574302D01*
X131832000Y-100807691D01*
X131832000Y-101248250D01*
X131990750Y-101407000D01*
X132715000Y-101407000D01*
X132715000Y-101387000D01*
X132969000Y-101387000D01*
X132969000Y-101407000D01*
X133693250Y-101407000D01*
X133852000Y-101248250D01*
X133852000Y-100807691D01*
X133755327Y-100574302D01*
X133576699Y-100395673D01*
X133518713Y-100371654D01*
X133524138Y-100363714D01*
X133550406Y-100234000D01*
X133550406Y-99034000D01*
X134673594Y-99034000D01*
X134673594Y-100234000D01*
X134696395Y-100355179D01*
X134768012Y-100466474D01*
X134877286Y-100541138D01*
X135007000Y-100567406D01*
X135757000Y-100567406D01*
X135859003Y-100548213D01*
X149689392Y-100548213D01*
X149758857Y-100790397D01*
X150282302Y-100977144D01*
X150837368Y-100949362D01*
X151221143Y-100790397D01*
X151290608Y-100548213D01*
X150490000Y-99747605D01*
X149689392Y-100548213D01*
X135859003Y-100548213D01*
X135878179Y-100544605D01*
X135989474Y-100472988D01*
X136064138Y-100363714D01*
X136090406Y-100234000D01*
X136090406Y-99360302D01*
X149080856Y-99360302D01*
X149108638Y-99915368D01*
X149267603Y-100299143D01*
X149509787Y-100368608D01*
X150310395Y-99568000D01*
X150669605Y-99568000D01*
X151470213Y-100368608D01*
X151712397Y-100299143D01*
X151899144Y-99775698D01*
X151871362Y-99220632D01*
X151712397Y-98836857D01*
X151470213Y-98767392D01*
X150669605Y-99568000D01*
X150310395Y-99568000D01*
X149509787Y-98767392D01*
X149267603Y-98836857D01*
X149080856Y-99360302D01*
X136090406Y-99360302D01*
X136090406Y-99034000D01*
X136067605Y-98912821D01*
X135995988Y-98801526D01*
X135886714Y-98726862D01*
X135834000Y-98716187D01*
X135834000Y-98587787D01*
X149689392Y-98587787D01*
X150490000Y-99388395D01*
X151290608Y-98587787D01*
X151221143Y-98345603D01*
X150697698Y-98158856D01*
X150142632Y-98186638D01*
X149758857Y-98345603D01*
X149689392Y-98587787D01*
X135834000Y-98587787D01*
X135834000Y-92897224D01*
X136011225Y-92720000D01*
X136451594Y-92720000D01*
X136451594Y-92868000D01*
X136474395Y-92989179D01*
X136546012Y-93100474D01*
X136655286Y-93175138D01*
X136785000Y-93201406D01*
X137535000Y-93201406D01*
X137656179Y-93178605D01*
X137767474Y-93106988D01*
X137842138Y-92997714D01*
X137868406Y-92868000D01*
X137868406Y-92720000D01*
X138408970Y-92720000D01*
X138431395Y-92839179D01*
X138503012Y-92950474D01*
X138612286Y-93025138D01*
X138742000Y-93051406D01*
X139642000Y-93051406D01*
X139763179Y-93028605D01*
X139874474Y-92956988D01*
X139949138Y-92847714D01*
X139975406Y-92718000D01*
X139975406Y-91518000D01*
X139952605Y-91396821D01*
X139880988Y-91285526D01*
X139771714Y-91210862D01*
X139644000Y-91184999D01*
X139644000Y-90876000D01*
X140655490Y-90876000D01*
X140631594Y-90994000D01*
X140631594Y-92054000D01*
X140654395Y-92175179D01*
X140726012Y-92286474D01*
X140835286Y-92361138D01*
X140838000Y-92361688D01*
X140838000Y-92582334D01*
X140590270Y-92582334D01*
X140469091Y-92605135D01*
X140357796Y-92676752D01*
X140283132Y-92786026D01*
X140256864Y-92915740D01*
X140256864Y-94114740D01*
X139975406Y-94114740D01*
X139975406Y-93718000D01*
X139952605Y-93596821D01*
X139880988Y-93485526D01*
X139771714Y-93410862D01*
X139642000Y-93384594D01*
X138742000Y-93384594D01*
X138620821Y-93407395D01*
X138509526Y-93479012D01*
X138434862Y-93588286D01*
X138408999Y-93716000D01*
X137868406Y-93716000D01*
X137868406Y-93568000D01*
X137845605Y-93446821D01*
X137773988Y-93335526D01*
X137664714Y-93260862D01*
X137535000Y-93234594D01*
X136785000Y-93234594D01*
X136663821Y-93257395D01*
X136552526Y-93329012D01*
X136477862Y-93438286D01*
X136451594Y-93568000D01*
X136451594Y-94768000D01*
X136474395Y-94889179D01*
X136546012Y-95000474D01*
X136655286Y-95075138D01*
X136785000Y-95101406D01*
X137535000Y-95101406D01*
X137656179Y-95078605D01*
X137767474Y-95006988D01*
X137842138Y-94897714D01*
X137868406Y-94768000D01*
X137868406Y-94620000D01*
X138408594Y-94620000D01*
X138408594Y-94918000D01*
X138431395Y-95039179D01*
X138503012Y-95150474D01*
X138612286Y-95225138D01*
X138742000Y-95251406D01*
X139642000Y-95251406D01*
X139763179Y-95228605D01*
X139874474Y-95156988D01*
X139949138Y-95047714D01*
X139955005Y-95018740D01*
X140256864Y-95018740D01*
X140256864Y-97416620D01*
X140279665Y-97537799D01*
X140351282Y-97649094D01*
X140460556Y-97723758D01*
X140590270Y-97750026D01*
X143889730Y-97750026D01*
X144010909Y-97727225D01*
X144122204Y-97655608D01*
X144196868Y-97546334D01*
X144223136Y-97416620D01*
X144223136Y-94752000D01*
X146103559Y-94752000D01*
X146116585Y-94821229D01*
X146188202Y-94932524D01*
X146297476Y-95007188D01*
X146375240Y-95022936D01*
X146375240Y-95476319D01*
X146306011Y-95489345D01*
X146194716Y-95560962D01*
X146120052Y-95670236D01*
X146093784Y-95799950D01*
X146093784Y-96600050D01*
X146116585Y-96721229D01*
X146188202Y-96832524D01*
X146297476Y-96907188D01*
X146427190Y-96933456D01*
X147227290Y-96933456D01*
X147348469Y-96910655D01*
X147459764Y-96839038D01*
X147534428Y-96729764D01*
X147560696Y-96600050D01*
X147560696Y-95799950D01*
X147537895Y-95678771D01*
X147466278Y-95567476D01*
X147357004Y-95492812D01*
X147279240Y-95477064D01*
X147279240Y-95023681D01*
X147348469Y-95010655D01*
X147459764Y-94939038D01*
X147520635Y-94849950D01*
X148092764Y-94849950D01*
X148092764Y-95650050D01*
X148115565Y-95771229D01*
X148187182Y-95882524D01*
X148296456Y-95957188D01*
X148426170Y-95983456D01*
X149226270Y-95983456D01*
X149347449Y-95960655D01*
X149453921Y-95892142D01*
X149490202Y-95948524D01*
X149599476Y-96023188D01*
X149677240Y-96038936D01*
X149677240Y-96492319D01*
X149608011Y-96505345D01*
X149496716Y-96576962D01*
X149422052Y-96686236D01*
X149395784Y-96815950D01*
X149395784Y-97616050D01*
X149418585Y-97737229D01*
X149490202Y-97848524D01*
X149599476Y-97923188D01*
X149729190Y-97949456D01*
X150529290Y-97949456D01*
X150650469Y-97926655D01*
X150668494Y-97915056D01*
X154096025Y-97915056D01*
X154215164Y-98171000D01*
X155575000Y-98171000D01*
X155575000Y-96810633D01*
X155829000Y-96810633D01*
X155829000Y-98171000D01*
X157188836Y-98171000D01*
X157307975Y-97915056D01*
X157108385Y-97433182D01*
X156670379Y-96960812D01*
X156084946Y-96692017D01*
X155829000Y-96810633D01*
X155575000Y-96810633D01*
X155319054Y-96692017D01*
X154733621Y-96960812D01*
X154295615Y-97433182D01*
X154096025Y-97915056D01*
X150668494Y-97915056D01*
X150761764Y-97855038D01*
X150836428Y-97745764D01*
X150862696Y-97616050D01*
X150862696Y-96815950D01*
X150839895Y-96694771D01*
X150768278Y-96583476D01*
X150659004Y-96508812D01*
X150581240Y-96493064D01*
X150581240Y-96039681D01*
X150650469Y-96026655D01*
X150761764Y-95955038D01*
X150822635Y-95865950D01*
X151394764Y-95865950D01*
X151394764Y-96666050D01*
X151417565Y-96787229D01*
X151489182Y-96898524D01*
X151598456Y-96973188D01*
X151728170Y-96999456D01*
X152528270Y-96999456D01*
X152649449Y-96976655D01*
X152760744Y-96905038D01*
X152835408Y-96795764D01*
X152861676Y-96666050D01*
X152861676Y-95865950D01*
X152838875Y-95744771D01*
X152767258Y-95633476D01*
X152657984Y-95558812D01*
X152582760Y-95543579D01*
X152582760Y-94637681D01*
X152651989Y-94624655D01*
X152763284Y-94553038D01*
X152837948Y-94443764D01*
X152864216Y-94314050D01*
X152864216Y-93513950D01*
X152841415Y-93392771D01*
X152769798Y-93281476D01*
X152660524Y-93206812D01*
X152582760Y-93191064D01*
X152582760Y-92737681D01*
X152651989Y-92724655D01*
X152763284Y-92653038D01*
X152837948Y-92543764D01*
X152864216Y-92414050D01*
X152864216Y-91613950D01*
X152841415Y-91492771D01*
X152769798Y-91381476D01*
X152660524Y-91306812D01*
X152530810Y-91280544D01*
X151730710Y-91280544D01*
X151609531Y-91303345D01*
X151498236Y-91374962D01*
X151423572Y-91484236D01*
X151397304Y-91613950D01*
X151397304Y-92414050D01*
X151420105Y-92535229D01*
X151491722Y-92646524D01*
X151600996Y-92721188D01*
X151678760Y-92736936D01*
X151678760Y-93190319D01*
X151609531Y-93203345D01*
X151498236Y-93274962D01*
X151423572Y-93384236D01*
X151397304Y-93513950D01*
X151397304Y-94314050D01*
X151420105Y-94435229D01*
X151491722Y-94546524D01*
X151600996Y-94621188D01*
X151678760Y-94636936D01*
X151678760Y-95541841D01*
X151606991Y-95555345D01*
X151495696Y-95626962D01*
X151421032Y-95736236D01*
X151394764Y-95865950D01*
X150822635Y-95865950D01*
X150836428Y-95845764D01*
X150862696Y-95716050D01*
X150862696Y-94915950D01*
X150839895Y-94794771D01*
X150768278Y-94683476D01*
X150659004Y-94608812D01*
X150529290Y-94582544D01*
X149729190Y-94582544D01*
X149608011Y-94605345D01*
X149501539Y-94673858D01*
X149465258Y-94617476D01*
X149355984Y-94542812D01*
X149226270Y-94516544D01*
X148426170Y-94516544D01*
X148304991Y-94539345D01*
X148193696Y-94610962D01*
X148119032Y-94720236D01*
X148092764Y-94849950D01*
X147520635Y-94849950D01*
X147534428Y-94829764D01*
X147560696Y-94700050D01*
X147560696Y-93899950D01*
X147537895Y-93778771D01*
X147466278Y-93667476D01*
X147357004Y-93592812D01*
X147227290Y-93566544D01*
X146427190Y-93566544D01*
X146306011Y-93589345D01*
X146194716Y-93660962D01*
X146120052Y-93770236D01*
X146104304Y-93848000D01*
X144223136Y-93848000D01*
X144223136Y-92915740D01*
X144200335Y-92794561D01*
X144128718Y-92683266D01*
X144019444Y-92608602D01*
X143889730Y-92582334D01*
X141742000Y-92582334D01*
X141742000Y-92360859D01*
X141847474Y-92292988D01*
X141922138Y-92183714D01*
X141948406Y-92054000D01*
X141948406Y-90994000D01*
X141926203Y-90876000D01*
X142555490Y-90876000D01*
X142531594Y-90994000D01*
X142531594Y-92054000D01*
X142554395Y-92175179D01*
X142626012Y-92286474D01*
X142735286Y-92361138D01*
X142865000Y-92387406D01*
X143515000Y-92387406D01*
X143636179Y-92364605D01*
X143747474Y-92292988D01*
X143822138Y-92183714D01*
X143838888Y-92101000D01*
X144352141Y-92101000D01*
X144420012Y-92206474D01*
X144529286Y-92281138D01*
X144659000Y-92307406D01*
X145409000Y-92307406D01*
X145530179Y-92284605D01*
X145641474Y-92212988D01*
X145716138Y-92103714D01*
X145742406Y-91974000D01*
X145742406Y-91951000D01*
X146028594Y-91951000D01*
X146028594Y-92124000D01*
X146051395Y-92245179D01*
X146123012Y-92356474D01*
X146232286Y-92431138D01*
X146362000Y-92457406D01*
X147262000Y-92457406D01*
X147383179Y-92434605D01*
X147494474Y-92362988D01*
X147569138Y-92253714D01*
X147595406Y-92124000D01*
X147595406Y-91940000D01*
X147806594Y-91940000D01*
X147806594Y-93140000D01*
X147829395Y-93261179D01*
X147901012Y-93372474D01*
X148010286Y-93447138D01*
X148140000Y-93473406D01*
X149040000Y-93473406D01*
X149161179Y-93450605D01*
X149214956Y-93416000D01*
X149408099Y-93416000D01*
X149421125Y-93485229D01*
X149492742Y-93596524D01*
X149602016Y-93671188D01*
X149731730Y-93697456D01*
X150531830Y-93697456D01*
X150653009Y-93674655D01*
X150764304Y-93603038D01*
X150838968Y-93493764D01*
X150865236Y-93364050D01*
X150865236Y-92563950D01*
X150842435Y-92442771D01*
X150770818Y-92331476D01*
X150661544Y-92256812D01*
X150531830Y-92230544D01*
X149731730Y-92230544D01*
X149610551Y-92253345D01*
X149499256Y-92324962D01*
X149424592Y-92434236D01*
X149408844Y-92512000D01*
X149373406Y-92512000D01*
X149373406Y-91940000D01*
X149350605Y-91818821D01*
X149278988Y-91707526D01*
X149169714Y-91632862D01*
X149040000Y-91606594D01*
X148140000Y-91606594D01*
X148018821Y-91629395D01*
X147907526Y-91701012D01*
X147832862Y-91810286D01*
X147806594Y-91940000D01*
X147595406Y-91940000D01*
X147595406Y-90924000D01*
X147586374Y-90876000D01*
X147806594Y-90876000D01*
X147806594Y-90940000D01*
X147829395Y-91061179D01*
X147901012Y-91172474D01*
X148010286Y-91247138D01*
X148140000Y-91273406D01*
X149040000Y-91273406D01*
X149161179Y-91250605D01*
X149272474Y-91178988D01*
X149347138Y-91069714D01*
X149373406Y-90940000D01*
X149373406Y-89740000D01*
X149350605Y-89618821D01*
X149278988Y-89507526D01*
X149169714Y-89432862D01*
X149040000Y-89406594D01*
X148140000Y-89406594D01*
X148018821Y-89429395D01*
X147907526Y-89501012D01*
X147832862Y-89610286D01*
X147806594Y-89740000D01*
X147806594Y-89972000D01*
X147585686Y-89972000D01*
X147595406Y-89924000D01*
X147595406Y-88724000D01*
X147572605Y-88602821D01*
X147500988Y-88491526D01*
X147391714Y-88416862D01*
X147389000Y-88416312D01*
X147389000Y-88129416D01*
X147438891Y-88009265D01*
X147439109Y-87759829D01*
X147343855Y-87529297D01*
X147167631Y-87352765D01*
X146937265Y-87257109D01*
X146687829Y-87256891D01*
X146457297Y-87352145D01*
X146280765Y-87528369D01*
X146185109Y-87758735D01*
X146184891Y-88008171D01*
X146235000Y-88129444D01*
X146235000Y-88417141D01*
X146129526Y-88485012D01*
X146054862Y-88594286D01*
X146030430Y-88714931D01*
X145947327Y-88514302D01*
X145768699Y-88335673D01*
X145535310Y-88239000D01*
X145319750Y-88239000D01*
X145161000Y-88397750D01*
X145161000Y-89347000D01*
X145181000Y-89347000D01*
X145181000Y-89601000D01*
X145161000Y-89601000D01*
X145161000Y-89621000D01*
X144907000Y-89621000D01*
X144907000Y-89601000D01*
X144182750Y-89601000D01*
X144024000Y-89759750D01*
X144024000Y-89972000D01*
X143824510Y-89972000D01*
X143848406Y-89854000D01*
X143848406Y-88794000D01*
X143839693Y-88747691D01*
X144024000Y-88747691D01*
X144024000Y-89188250D01*
X144182750Y-89347000D01*
X144907000Y-89347000D01*
X144907000Y-88397750D01*
X144748250Y-88239000D01*
X144532690Y-88239000D01*
X144299301Y-88335673D01*
X144120673Y-88514302D01*
X144024000Y-88747691D01*
X143839693Y-88747691D01*
X143825605Y-88672821D01*
X143753988Y-88561526D01*
X143644714Y-88486862D01*
X143515000Y-88460594D01*
X143114218Y-88460594D01*
X143103327Y-88434302D01*
X142924699Y-88255673D01*
X142691310Y-88159000D01*
X142525750Y-88159000D01*
X142367000Y-88317750D01*
X142367000Y-89197000D01*
X142387000Y-89197000D01*
X142387000Y-89451000D01*
X142367000Y-89451000D01*
X142367000Y-89471000D01*
X142113000Y-89471000D01*
X142113000Y-89451000D01*
X142093000Y-89451000D01*
X142093000Y-89197000D01*
X142113000Y-89197000D01*
X142113000Y-88317750D01*
X141968518Y-88173268D01*
X141987406Y-88080000D01*
X141987406Y-87180000D01*
X141964605Y-87058821D01*
X141892988Y-86947526D01*
X141783714Y-86872862D01*
X141654000Y-86846594D01*
X141506000Y-86846594D01*
X141506000Y-86635406D01*
X141654000Y-86635406D01*
X141775179Y-86612605D01*
X141886474Y-86540988D01*
X141961138Y-86431714D01*
X141987001Y-86304000D01*
X142149082Y-86304000D01*
X142157395Y-86348179D01*
X142229012Y-86459474D01*
X142338286Y-86534138D01*
X142468000Y-86560406D01*
X143668000Y-86560406D01*
X143789179Y-86537605D01*
X143805095Y-86527363D01*
X143829673Y-86586699D01*
X144008302Y-86765327D01*
X144241691Y-86862000D01*
X144682250Y-86862000D01*
X144841000Y-86703250D01*
X144841000Y-85979000D01*
X145095000Y-85979000D01*
X145095000Y-86703250D01*
X145253750Y-86862000D01*
X145694309Y-86862000D01*
X145927698Y-86765327D01*
X146106327Y-86586699D01*
X146203000Y-86353310D01*
X146203000Y-86137750D01*
X146044250Y-85979000D01*
X145095000Y-85979000D01*
X144841000Y-85979000D01*
X144821000Y-85979000D01*
X144821000Y-85725000D01*
X144841000Y-85725000D01*
X144841000Y-85000750D01*
X145095000Y-85000750D01*
X145095000Y-85725000D01*
X146044250Y-85725000D01*
X146203000Y-85566250D01*
X146203000Y-85350690D01*
X146106327Y-85117301D01*
X145927698Y-84938673D01*
X145694309Y-84842000D01*
X145253750Y-84842000D01*
X145095000Y-85000750D01*
X144841000Y-85000750D01*
X144682250Y-84842000D01*
X144241691Y-84842000D01*
X144008302Y-84938673D01*
X143829673Y-85117301D01*
X143805654Y-85175287D01*
X143797714Y-85169862D01*
X143668000Y-85143594D01*
X142468000Y-85143594D01*
X142346821Y-85166395D01*
X142235526Y-85238012D01*
X142160862Y-85347286D01*
X142150187Y-85400000D01*
X141987030Y-85400000D01*
X141964605Y-85280821D01*
X141892988Y-85169526D01*
X141783714Y-85094862D01*
X141654000Y-85068594D01*
X140454000Y-85068594D01*
X140332821Y-85091395D01*
X140221526Y-85163012D01*
X140146862Y-85272286D01*
X140120594Y-85402000D01*
X140120594Y-86302000D01*
X140143395Y-86423179D01*
X140215012Y-86534474D01*
X140324286Y-86609138D01*
X140454000Y-86635406D01*
X140602000Y-86635406D01*
X140602000Y-86846594D01*
X140454000Y-86846594D01*
X140332821Y-86869395D01*
X140221526Y-86941012D01*
X140146862Y-87050286D01*
X140120594Y-87180000D01*
X140120594Y-88080000D01*
X140143395Y-88201179D01*
X140215012Y-88312474D01*
X140324286Y-88387138D01*
X140454000Y-88413406D01*
X140602000Y-88413406D01*
X140602000Y-89088000D01*
X140631594Y-89236781D01*
X140631594Y-89854000D01*
X140653797Y-89972000D01*
X139446000Y-89972000D01*
X139273027Y-90006406D01*
X139126388Y-90104388D01*
X138872388Y-90358388D01*
X138774406Y-90505027D01*
X138740000Y-90678000D01*
X138740000Y-91184970D01*
X138620821Y-91207395D01*
X138509526Y-91279012D01*
X138434862Y-91388286D01*
X138408594Y-91518000D01*
X138408594Y-91816000D01*
X137868406Y-91816000D01*
X137868406Y-91668000D01*
X137845605Y-91546821D01*
X137773988Y-91435526D01*
X137664714Y-91360862D01*
X137535000Y-91334594D01*
X136785000Y-91334594D01*
X136663821Y-91357395D01*
X136552526Y-91429012D01*
X136477862Y-91538286D01*
X136451594Y-91668000D01*
X136451594Y-91816000D01*
X135824000Y-91816000D01*
X135651027Y-91850406D01*
X135504387Y-91948388D01*
X135062388Y-92390388D01*
X134964406Y-92537027D01*
X134930000Y-92710000D01*
X134930000Y-98715082D01*
X134885821Y-98723395D01*
X134774526Y-98795012D01*
X134699862Y-98904286D01*
X134673594Y-99034000D01*
X133550406Y-99034000D01*
X133527605Y-98912821D01*
X133455988Y-98801526D01*
X133346714Y-98726862D01*
X133217000Y-98700594D01*
X132467000Y-98700594D01*
X132345821Y-98723395D01*
X132234526Y-98795012D01*
X132159862Y-98904286D01*
X132142302Y-98991000D01*
X131429888Y-98991000D01*
X131413748Y-98951937D01*
X131107674Y-98645329D01*
X130707566Y-98479189D01*
X130274335Y-98478811D01*
X129873937Y-98644252D01*
X129567329Y-98950326D01*
X129401189Y-99350434D01*
X129400811Y-99783665D01*
X126855530Y-99783665D01*
X126812631Y-99568000D01*
X127986970Y-93664201D01*
X131331203Y-88659203D01*
X132443858Y-87915750D01*
X137619000Y-87915750D01*
X137619000Y-88206310D01*
X137715673Y-88439699D01*
X137894302Y-88618327D01*
X138127691Y-88715000D01*
X138568250Y-88715000D01*
X138727000Y-88556250D01*
X138727000Y-87757000D01*
X138981000Y-87757000D01*
X138981000Y-88556250D01*
X139139750Y-88715000D01*
X139580309Y-88715000D01*
X139813698Y-88618327D01*
X139992327Y-88439699D01*
X140089000Y-88206310D01*
X140089000Y-87915750D01*
X139930250Y-87757000D01*
X138981000Y-87757000D01*
X138727000Y-87757000D01*
X137777750Y-87757000D01*
X137619000Y-87915750D01*
X132443858Y-87915750D01*
X135346643Y-85976171D01*
X136532891Y-85976171D01*
X136628145Y-86206703D01*
X136804369Y-86383235D01*
X137034735Y-86478891D01*
X137284171Y-86479109D01*
X137405444Y-86429000D01*
X137947141Y-86429000D01*
X138015012Y-86534474D01*
X138067130Y-86570085D01*
X137894302Y-86641673D01*
X137715673Y-86820301D01*
X137619000Y-87053690D01*
X137619000Y-87344250D01*
X137777750Y-87503000D01*
X138727000Y-87503000D01*
X138727000Y-87483000D01*
X138981000Y-87483000D01*
X138981000Y-87503000D01*
X139930250Y-87503000D01*
X140089000Y-87344250D01*
X140089000Y-87053690D01*
X139992327Y-86820301D01*
X139813698Y-86641673D01*
X139641105Y-86570182D01*
X139686474Y-86540988D01*
X139761138Y-86431714D01*
X139787406Y-86302000D01*
X139787406Y-85402000D01*
X139764605Y-85280821D01*
X139692988Y-85169526D01*
X139583714Y-85094862D01*
X139454000Y-85068594D01*
X138254000Y-85068594D01*
X138132821Y-85091395D01*
X138021526Y-85163012D01*
X137946862Y-85272286D01*
X137946312Y-85275000D01*
X137405416Y-85275000D01*
X137285265Y-85225109D01*
X137035829Y-85224891D01*
X136805297Y-85320145D01*
X136628765Y-85496369D01*
X136533109Y-85726735D01*
X136532891Y-85976171D01*
X135346643Y-85976171D01*
X136336201Y-85314970D01*
X142240000Y-84140631D01*
X148143799Y-85314970D01*
M02*
