G04 #@! TF.FileFunction,Copper,L2,Bot,Signal*
%FSLAX46Y46*%
G04 Gerber Fmt 4.6, Leading zero omitted, Abs format (unit mm)*
G04 Created by KiCad (PCBNEW 4.0.2-stable) date Thursday, May 05, 2016 'AMt' 11:28:06 AM*
%MOMM*%
G01*
G04 APERTURE LIST*
%ADD10C,0.100000*%
%ADD11R,3.299460X4.500880*%
%ADD12C,1.524000*%
%ADD13R,2.032000X2.032000*%
%ADD14O,2.032000X2.032000*%
%ADD15C,0.600000*%
%ADD16C,0.254000*%
G04 APERTURE END LIST*
D10*
D11*
X142240000Y-95166180D03*
X142240000Y-103969820D03*
D12*
X150490000Y-99568000D03*
X130490000Y-99568000D03*
D13*
X155702000Y-100838000D03*
D14*
X155702000Y-98298000D03*
D15*
X148590000Y-109982000D03*
X138684000Y-113538000D03*
X146812000Y-87884000D03*
X137160000Y-85852000D03*
D16*
G36*
X148143799Y-85314970D02*
X153148797Y-88659203D01*
X156493030Y-93664201D01*
X157667369Y-99568000D01*
X156493030Y-105471799D01*
X153148797Y-110476797D01*
X148143799Y-113821030D01*
X142240000Y-114995369D01*
X136336201Y-113821030D01*
X131331203Y-110476797D01*
X127986970Y-105471799D01*
X127240568Y-101719380D01*
X140256864Y-101719380D01*
X140256864Y-106220260D01*
X140279665Y-106341439D01*
X140351282Y-106452734D01*
X140460556Y-106527398D01*
X140590270Y-106553666D01*
X143889730Y-106553666D01*
X144010909Y-106530865D01*
X144122204Y-106459248D01*
X144196868Y-106349974D01*
X144223136Y-106220260D01*
X144223136Y-101719380D01*
X144200335Y-101598201D01*
X144128718Y-101486906D01*
X144019444Y-101412242D01*
X143889730Y-101385974D01*
X140590270Y-101385974D01*
X140469091Y-101408775D01*
X140357796Y-101480392D01*
X140283132Y-101589666D01*
X140256864Y-101719380D01*
X127240568Y-101719380D01*
X127007608Y-100548213D01*
X129689392Y-100548213D01*
X129758857Y-100790397D01*
X130282302Y-100977144D01*
X130837368Y-100949362D01*
X131221143Y-100790397D01*
X131290608Y-100548213D01*
X130490000Y-99747605D01*
X129689392Y-100548213D01*
X127007608Y-100548213D01*
X126812631Y-99568000D01*
X126853944Y-99360302D01*
X129080856Y-99360302D01*
X129108638Y-99915368D01*
X129267603Y-100299143D01*
X129509787Y-100368608D01*
X130310395Y-99568000D01*
X130669605Y-99568000D01*
X131470213Y-100368608D01*
X131712397Y-100299143D01*
X131896301Y-99783665D01*
X149400811Y-99783665D01*
X149566252Y-100184063D01*
X149872326Y-100490671D01*
X150272434Y-100656811D01*
X150705665Y-100657189D01*
X151106063Y-100491748D01*
X151412671Y-100185674D01*
X151578811Y-99785566D01*
X151579189Y-99352335D01*
X151413748Y-98951937D01*
X151107674Y-98645329D01*
X150707566Y-98479189D01*
X150274335Y-98478811D01*
X149873937Y-98644252D01*
X149567329Y-98950326D01*
X149401189Y-99350434D01*
X149400811Y-99783665D01*
X131896301Y-99783665D01*
X131899144Y-99775698D01*
X131871362Y-99220632D01*
X131712397Y-98836857D01*
X131470213Y-98767392D01*
X130669605Y-99568000D01*
X130310395Y-99568000D01*
X129509787Y-98767392D01*
X129267603Y-98836857D01*
X129080856Y-99360302D01*
X126853944Y-99360302D01*
X127007606Y-98587787D01*
X129689392Y-98587787D01*
X130490000Y-99388395D01*
X131290608Y-98587787D01*
X131221143Y-98345603D01*
X131087714Y-98298000D01*
X154332689Y-98298000D01*
X154434919Y-98811944D01*
X154726045Y-99247644D01*
X155086651Y-99488594D01*
X154686000Y-99488594D01*
X154564821Y-99511395D01*
X154453526Y-99583012D01*
X154378862Y-99692286D01*
X154352594Y-99822000D01*
X154352594Y-101854000D01*
X154375395Y-101975179D01*
X154447012Y-102086474D01*
X154556286Y-102161138D01*
X154686000Y-102187406D01*
X156718000Y-102187406D01*
X156839179Y-102164605D01*
X156950474Y-102092988D01*
X157025138Y-101983714D01*
X157051406Y-101854000D01*
X157051406Y-99822000D01*
X157028605Y-99700821D01*
X156956988Y-99589526D01*
X156847714Y-99514862D01*
X156718000Y-99488594D01*
X156317349Y-99488594D01*
X156677955Y-99247644D01*
X156969081Y-98811944D01*
X157071311Y-98298000D01*
X156969081Y-97784056D01*
X156677955Y-97348356D01*
X156242255Y-97057230D01*
X155728311Y-96955000D01*
X155675689Y-96955000D01*
X155161745Y-97057230D01*
X154726045Y-97348356D01*
X154434919Y-97784056D01*
X154332689Y-98298000D01*
X131087714Y-98298000D01*
X130697698Y-98158856D01*
X130142632Y-98186638D01*
X129758857Y-98345603D01*
X129689392Y-98587787D01*
X127007606Y-98587787D01*
X127986970Y-93664201D01*
X128487075Y-92915740D01*
X140256864Y-92915740D01*
X140256864Y-97416620D01*
X140279665Y-97537799D01*
X140351282Y-97649094D01*
X140460556Y-97723758D01*
X140590270Y-97750026D01*
X143889730Y-97750026D01*
X144010909Y-97727225D01*
X144122204Y-97655608D01*
X144196868Y-97546334D01*
X144223136Y-97416620D01*
X144223136Y-92915740D01*
X144200335Y-92794561D01*
X144128718Y-92683266D01*
X144019444Y-92608602D01*
X143889730Y-92582334D01*
X140590270Y-92582334D01*
X140469091Y-92605135D01*
X140357796Y-92676752D01*
X140283132Y-92786026D01*
X140256864Y-92915740D01*
X128487075Y-92915740D01*
X131331203Y-88659203D01*
X136336201Y-85314970D01*
X142240000Y-84140631D01*
X148143799Y-85314970D01*
X148143799Y-85314970D01*
G37*
X148143799Y-85314970D02*
X153148797Y-88659203D01*
X156493030Y-93664201D01*
X157667369Y-99568000D01*
X156493030Y-105471799D01*
X153148797Y-110476797D01*
X148143799Y-113821030D01*
X142240000Y-114995369D01*
X136336201Y-113821030D01*
X131331203Y-110476797D01*
X127986970Y-105471799D01*
X127240568Y-101719380D01*
X140256864Y-101719380D01*
X140256864Y-106220260D01*
X140279665Y-106341439D01*
X140351282Y-106452734D01*
X140460556Y-106527398D01*
X140590270Y-106553666D01*
X143889730Y-106553666D01*
X144010909Y-106530865D01*
X144122204Y-106459248D01*
X144196868Y-106349974D01*
X144223136Y-106220260D01*
X144223136Y-101719380D01*
X144200335Y-101598201D01*
X144128718Y-101486906D01*
X144019444Y-101412242D01*
X143889730Y-101385974D01*
X140590270Y-101385974D01*
X140469091Y-101408775D01*
X140357796Y-101480392D01*
X140283132Y-101589666D01*
X140256864Y-101719380D01*
X127240568Y-101719380D01*
X127007608Y-100548213D01*
X129689392Y-100548213D01*
X129758857Y-100790397D01*
X130282302Y-100977144D01*
X130837368Y-100949362D01*
X131221143Y-100790397D01*
X131290608Y-100548213D01*
X130490000Y-99747605D01*
X129689392Y-100548213D01*
X127007608Y-100548213D01*
X126812631Y-99568000D01*
X126853944Y-99360302D01*
X129080856Y-99360302D01*
X129108638Y-99915368D01*
X129267603Y-100299143D01*
X129509787Y-100368608D01*
X130310395Y-99568000D01*
X130669605Y-99568000D01*
X131470213Y-100368608D01*
X131712397Y-100299143D01*
X131896301Y-99783665D01*
X149400811Y-99783665D01*
X149566252Y-100184063D01*
X149872326Y-100490671D01*
X150272434Y-100656811D01*
X150705665Y-100657189D01*
X151106063Y-100491748D01*
X151412671Y-100185674D01*
X151578811Y-99785566D01*
X151579189Y-99352335D01*
X151413748Y-98951937D01*
X151107674Y-98645329D01*
X150707566Y-98479189D01*
X150274335Y-98478811D01*
X149873937Y-98644252D01*
X149567329Y-98950326D01*
X149401189Y-99350434D01*
X149400811Y-99783665D01*
X131896301Y-99783665D01*
X131899144Y-99775698D01*
X131871362Y-99220632D01*
X131712397Y-98836857D01*
X131470213Y-98767392D01*
X130669605Y-99568000D01*
X130310395Y-99568000D01*
X129509787Y-98767392D01*
X129267603Y-98836857D01*
X129080856Y-99360302D01*
X126853944Y-99360302D01*
X127007606Y-98587787D01*
X129689392Y-98587787D01*
X130490000Y-99388395D01*
X131290608Y-98587787D01*
X131221143Y-98345603D01*
X131087714Y-98298000D01*
X154332689Y-98298000D01*
X154434919Y-98811944D01*
X154726045Y-99247644D01*
X155086651Y-99488594D01*
X154686000Y-99488594D01*
X154564821Y-99511395D01*
X154453526Y-99583012D01*
X154378862Y-99692286D01*
X154352594Y-99822000D01*
X154352594Y-101854000D01*
X154375395Y-101975179D01*
X154447012Y-102086474D01*
X154556286Y-102161138D01*
X154686000Y-102187406D01*
X156718000Y-102187406D01*
X156839179Y-102164605D01*
X156950474Y-102092988D01*
X157025138Y-101983714D01*
X157051406Y-101854000D01*
X157051406Y-99822000D01*
X157028605Y-99700821D01*
X156956988Y-99589526D01*
X156847714Y-99514862D01*
X156718000Y-99488594D01*
X156317349Y-99488594D01*
X156677955Y-99247644D01*
X156969081Y-98811944D01*
X157071311Y-98298000D01*
X156969081Y-97784056D01*
X156677955Y-97348356D01*
X156242255Y-97057230D01*
X155728311Y-96955000D01*
X155675689Y-96955000D01*
X155161745Y-97057230D01*
X154726045Y-97348356D01*
X154434919Y-97784056D01*
X154332689Y-98298000D01*
X131087714Y-98298000D01*
X130697698Y-98158856D01*
X130142632Y-98186638D01*
X129758857Y-98345603D01*
X129689392Y-98587787D01*
X127007606Y-98587787D01*
X127986970Y-93664201D01*
X128487075Y-92915740D01*
X140256864Y-92915740D01*
X140256864Y-97416620D01*
X140279665Y-97537799D01*
X140351282Y-97649094D01*
X140460556Y-97723758D01*
X140590270Y-97750026D01*
X143889730Y-97750026D01*
X144010909Y-97727225D01*
X144122204Y-97655608D01*
X144196868Y-97546334D01*
X144223136Y-97416620D01*
X144223136Y-92915740D01*
X144200335Y-92794561D01*
X144128718Y-92683266D01*
X144019444Y-92608602D01*
X143889730Y-92582334D01*
X140590270Y-92582334D01*
X140469091Y-92605135D01*
X140357796Y-92676752D01*
X140283132Y-92786026D01*
X140256864Y-92915740D01*
X128487075Y-92915740D01*
X131331203Y-88659203D01*
X136336201Y-85314970D01*
X142240000Y-84140631D01*
X148143799Y-85314970D01*
M02*
