G04 #@! TF.FileFunction,Soldermask,Top*
%FSLAX46Y46*%
G04 Gerber Fmt 4.6, Leading zero omitted, Abs format (unit mm)*
G04 Created by KiCad (PCBNEW 4.0.2-stable) date Thursday, May 05, 2016 'AMt' 11:28:06 AM*
%MOMM*%
G01*
G04 APERTURE LIST*
%ADD10C,0.100000*%
%ADD11R,1.150000X1.600000*%
%ADD12R,1.600000X1.150000*%
%ADD13R,3.699460X4.900880*%
%ADD14R,1.200100X1.200100*%
%ADD15R,1.300000X1.600000*%
%ADD16R,1.600000X1.300000*%
%ADD17R,1.050000X1.460000*%
%ADD18C,1.924000*%
%ADD19R,2.432000X2.432000*%
%ADD20O,2.432000X2.432000*%
G04 APERTURE END LIST*
D10*
D11*
X137160000Y-92268000D03*
X137160000Y-94168000D03*
D12*
X143068000Y-85852000D03*
X144968000Y-85852000D03*
D11*
X145034000Y-89474000D03*
X145034000Y-91374000D03*
X135382000Y-101534000D03*
X135382000Y-99634000D03*
D12*
X141290000Y-112014000D03*
X143190000Y-112014000D03*
X136464000Y-107950000D03*
X138364000Y-107950000D03*
D11*
X132842000Y-99634000D03*
X132842000Y-101534000D03*
D13*
X142240000Y-95166180D03*
X142240000Y-103969820D03*
D14*
X146827240Y-94300000D03*
X146827240Y-96200000D03*
X148826220Y-95250000D03*
D15*
X139192000Y-92118000D03*
X139192000Y-94318000D03*
D16*
X138854000Y-87630000D03*
X141054000Y-87630000D03*
X141054000Y-85852000D03*
X138854000Y-85852000D03*
D15*
X146812000Y-91524000D03*
X146812000Y-89324000D03*
X148590000Y-92540000D03*
X148590000Y-90340000D03*
D16*
X133012000Y-104648000D03*
X135212000Y-104648000D03*
X144950000Y-109982000D03*
X147150000Y-109982000D03*
D15*
X138684000Y-112098000D03*
X138684000Y-109898000D03*
X136398000Y-112098000D03*
X136398000Y-109898000D03*
D16*
X144950000Y-107950000D03*
X147150000Y-107950000D03*
D17*
X143190000Y-89324000D03*
X142240000Y-89324000D03*
X141290000Y-89324000D03*
X141290000Y-91524000D03*
X143190000Y-91524000D03*
X143190000Y-107866000D03*
X142240000Y-107866000D03*
X141290000Y-107866000D03*
X141290000Y-110066000D03*
X143190000Y-110066000D03*
D18*
X150490000Y-99568000D03*
X130490000Y-99568000D03*
D19*
X155702000Y-100838000D03*
D20*
X155702000Y-98298000D03*
D14*
X150129240Y-95316000D03*
X150129240Y-97216000D03*
X152128220Y-96266000D03*
X152130760Y-93914000D03*
X152130760Y-92014000D03*
X150131780Y-92964000D03*
M02*
