G04 #@! TF.FileFunction,Copper,L2,Bot,Signal*
%FSLAX46Y46*%
G04 Gerber Fmt 4.6, Leading zero omitted, Abs format (unit mm)*
G04 Created by KiCad (PCBNEW 4.0.2-stable) date Saturday, May 21, 2016 'PMt' 09:34:14 PM*
%MOMM*%
G01*
G04 APERTURE LIST*
%ADD10C,0.100000*%
%ADD11R,3.299460X4.500880*%
%ADD12C,1.524000*%
%ADD13R,2.032000X2.032000*%
%ADD14O,2.032000X2.032000*%
%ADD15C,0.600000*%
%ADD16C,0.254000*%
G04 APERTURE END LIST*
D10*
D11*
X142240000Y-95166180D03*
X142240000Y-103969820D03*
D12*
X150490000Y-99568000D03*
X130490000Y-99568000D03*
D13*
X155702000Y-100838000D03*
D14*
X155702000Y-98298000D03*
D15*
X137414000Y-86868000D03*
X139954000Y-113284000D03*
X148590000Y-109982000D03*
X146812000Y-87884000D03*
D16*
G36*
X148054251Y-85531157D02*
X152983334Y-88824666D01*
X156276843Y-93753749D01*
X157433369Y-99568000D01*
X157106464Y-101211463D01*
X157106464Y-99822000D01*
X157079897Y-99680810D01*
X156996454Y-99551135D01*
X156869134Y-99464141D01*
X156718000Y-99433536D01*
X156496137Y-99433536D01*
X156717197Y-99285828D01*
X157020029Y-98832609D01*
X157126369Y-98298000D01*
X157020029Y-97763391D01*
X156717197Y-97310172D01*
X156263978Y-97007340D01*
X155729369Y-96901000D01*
X155674631Y-96901000D01*
X155140022Y-97007340D01*
X154686803Y-97310172D01*
X154383971Y-97763391D01*
X154277631Y-98298000D01*
X154383971Y-98832609D01*
X154686803Y-99285828D01*
X154907863Y-99433536D01*
X154686000Y-99433536D01*
X154544810Y-99460103D01*
X154415135Y-99543546D01*
X154328141Y-99670866D01*
X154297536Y-99822000D01*
X154297536Y-101854000D01*
X154324103Y-101995190D01*
X154407546Y-102124865D01*
X154534866Y-102211859D01*
X154686000Y-102242464D01*
X156718000Y-102242464D01*
X156859190Y-102215897D01*
X156913639Y-102180860D01*
X156276843Y-105382251D01*
X152983334Y-110311334D01*
X148054251Y-113604843D01*
X142240000Y-114761369D01*
X136425749Y-113604843D01*
X131496666Y-110311334D01*
X128203157Y-105382251D01*
X127474568Y-101719380D01*
X140201806Y-101719380D01*
X140201806Y-106220260D01*
X140228373Y-106361450D01*
X140311816Y-106491125D01*
X140439136Y-106578119D01*
X140590270Y-106608724D01*
X143889730Y-106608724D01*
X144030920Y-106582157D01*
X144160595Y-106498714D01*
X144247589Y-106371394D01*
X144278194Y-106220260D01*
X144278194Y-101719380D01*
X144251627Y-101578190D01*
X144168184Y-101448515D01*
X144040864Y-101361521D01*
X143889730Y-101330916D01*
X140590270Y-101330916D01*
X140449080Y-101357483D01*
X140319405Y-101440926D01*
X140232411Y-101568246D01*
X140201806Y-101719380D01*
X127474568Y-101719380D01*
X127241608Y-100548213D01*
X129689392Y-100548213D01*
X129758857Y-100790397D01*
X130282302Y-100977144D01*
X130837368Y-100949362D01*
X131221143Y-100790397D01*
X131290608Y-100548213D01*
X130490000Y-99747605D01*
X129689392Y-100548213D01*
X127241608Y-100548213D01*
X127046631Y-99568000D01*
X127087944Y-99360302D01*
X129080856Y-99360302D01*
X129108638Y-99915368D01*
X129267603Y-100299143D01*
X129509787Y-100368608D01*
X130310395Y-99568000D01*
X130669605Y-99568000D01*
X131470213Y-100368608D01*
X131712397Y-100299143D01*
X131892486Y-99794359D01*
X149346802Y-99794359D01*
X149520446Y-100214612D01*
X149841697Y-100536423D01*
X150261646Y-100710801D01*
X150716359Y-100711198D01*
X151136612Y-100537554D01*
X151458423Y-100216303D01*
X151632801Y-99796354D01*
X151633198Y-99341641D01*
X151459554Y-98921388D01*
X151138303Y-98599577D01*
X150718354Y-98425199D01*
X150263641Y-98424802D01*
X149843388Y-98598446D01*
X149521577Y-98919697D01*
X149347199Y-99339646D01*
X149346802Y-99794359D01*
X131892486Y-99794359D01*
X131899144Y-99775698D01*
X131871362Y-99220632D01*
X131712397Y-98836857D01*
X131470213Y-98767392D01*
X130669605Y-99568000D01*
X130310395Y-99568000D01*
X129509787Y-98767392D01*
X129267603Y-98836857D01*
X129080856Y-99360302D01*
X127087944Y-99360302D01*
X127241606Y-98587787D01*
X129689392Y-98587787D01*
X130490000Y-99388395D01*
X131290608Y-98587787D01*
X131221143Y-98345603D01*
X130697698Y-98158856D01*
X130142632Y-98186638D01*
X129758857Y-98345603D01*
X129689392Y-98587787D01*
X127241606Y-98587787D01*
X128203157Y-93753749D01*
X128763096Y-92915740D01*
X140201806Y-92915740D01*
X140201806Y-97416620D01*
X140228373Y-97557810D01*
X140311816Y-97687485D01*
X140439136Y-97774479D01*
X140590270Y-97805084D01*
X143889730Y-97805084D01*
X144030920Y-97778517D01*
X144160595Y-97695074D01*
X144247589Y-97567754D01*
X144278194Y-97416620D01*
X144278194Y-92915740D01*
X144251627Y-92774550D01*
X144168184Y-92644875D01*
X144040864Y-92557881D01*
X143889730Y-92527276D01*
X140590270Y-92527276D01*
X140449080Y-92553843D01*
X140319405Y-92637286D01*
X140232411Y-92764606D01*
X140201806Y-92915740D01*
X128763096Y-92915740D01*
X131496666Y-88824666D01*
X136425749Y-85531157D01*
X142240000Y-84374631D01*
X148054251Y-85531157D01*
X148054251Y-85531157D01*
G37*
X148054251Y-85531157D02*
X152983334Y-88824666D01*
X156276843Y-93753749D01*
X157433369Y-99568000D01*
X157106464Y-101211463D01*
X157106464Y-99822000D01*
X157079897Y-99680810D01*
X156996454Y-99551135D01*
X156869134Y-99464141D01*
X156718000Y-99433536D01*
X156496137Y-99433536D01*
X156717197Y-99285828D01*
X157020029Y-98832609D01*
X157126369Y-98298000D01*
X157020029Y-97763391D01*
X156717197Y-97310172D01*
X156263978Y-97007340D01*
X155729369Y-96901000D01*
X155674631Y-96901000D01*
X155140022Y-97007340D01*
X154686803Y-97310172D01*
X154383971Y-97763391D01*
X154277631Y-98298000D01*
X154383971Y-98832609D01*
X154686803Y-99285828D01*
X154907863Y-99433536D01*
X154686000Y-99433536D01*
X154544810Y-99460103D01*
X154415135Y-99543546D01*
X154328141Y-99670866D01*
X154297536Y-99822000D01*
X154297536Y-101854000D01*
X154324103Y-101995190D01*
X154407546Y-102124865D01*
X154534866Y-102211859D01*
X154686000Y-102242464D01*
X156718000Y-102242464D01*
X156859190Y-102215897D01*
X156913639Y-102180860D01*
X156276843Y-105382251D01*
X152983334Y-110311334D01*
X148054251Y-113604843D01*
X142240000Y-114761369D01*
X136425749Y-113604843D01*
X131496666Y-110311334D01*
X128203157Y-105382251D01*
X127474568Y-101719380D01*
X140201806Y-101719380D01*
X140201806Y-106220260D01*
X140228373Y-106361450D01*
X140311816Y-106491125D01*
X140439136Y-106578119D01*
X140590270Y-106608724D01*
X143889730Y-106608724D01*
X144030920Y-106582157D01*
X144160595Y-106498714D01*
X144247589Y-106371394D01*
X144278194Y-106220260D01*
X144278194Y-101719380D01*
X144251627Y-101578190D01*
X144168184Y-101448515D01*
X144040864Y-101361521D01*
X143889730Y-101330916D01*
X140590270Y-101330916D01*
X140449080Y-101357483D01*
X140319405Y-101440926D01*
X140232411Y-101568246D01*
X140201806Y-101719380D01*
X127474568Y-101719380D01*
X127241608Y-100548213D01*
X129689392Y-100548213D01*
X129758857Y-100790397D01*
X130282302Y-100977144D01*
X130837368Y-100949362D01*
X131221143Y-100790397D01*
X131290608Y-100548213D01*
X130490000Y-99747605D01*
X129689392Y-100548213D01*
X127241608Y-100548213D01*
X127046631Y-99568000D01*
X127087944Y-99360302D01*
X129080856Y-99360302D01*
X129108638Y-99915368D01*
X129267603Y-100299143D01*
X129509787Y-100368608D01*
X130310395Y-99568000D01*
X130669605Y-99568000D01*
X131470213Y-100368608D01*
X131712397Y-100299143D01*
X131892486Y-99794359D01*
X149346802Y-99794359D01*
X149520446Y-100214612D01*
X149841697Y-100536423D01*
X150261646Y-100710801D01*
X150716359Y-100711198D01*
X151136612Y-100537554D01*
X151458423Y-100216303D01*
X151632801Y-99796354D01*
X151633198Y-99341641D01*
X151459554Y-98921388D01*
X151138303Y-98599577D01*
X150718354Y-98425199D01*
X150263641Y-98424802D01*
X149843388Y-98598446D01*
X149521577Y-98919697D01*
X149347199Y-99339646D01*
X149346802Y-99794359D01*
X131892486Y-99794359D01*
X131899144Y-99775698D01*
X131871362Y-99220632D01*
X131712397Y-98836857D01*
X131470213Y-98767392D01*
X130669605Y-99568000D01*
X130310395Y-99568000D01*
X129509787Y-98767392D01*
X129267603Y-98836857D01*
X129080856Y-99360302D01*
X127087944Y-99360302D01*
X127241606Y-98587787D01*
X129689392Y-98587787D01*
X130490000Y-99388395D01*
X131290608Y-98587787D01*
X131221143Y-98345603D01*
X130697698Y-98158856D01*
X130142632Y-98186638D01*
X129758857Y-98345603D01*
X129689392Y-98587787D01*
X127241606Y-98587787D01*
X128203157Y-93753749D01*
X128763096Y-92915740D01*
X140201806Y-92915740D01*
X140201806Y-97416620D01*
X140228373Y-97557810D01*
X140311816Y-97687485D01*
X140439136Y-97774479D01*
X140590270Y-97805084D01*
X143889730Y-97805084D01*
X144030920Y-97778517D01*
X144160595Y-97695074D01*
X144247589Y-97567754D01*
X144278194Y-97416620D01*
X144278194Y-92915740D01*
X144251627Y-92774550D01*
X144168184Y-92644875D01*
X144040864Y-92557881D01*
X143889730Y-92527276D01*
X140590270Y-92527276D01*
X140449080Y-92553843D01*
X140319405Y-92637286D01*
X140232411Y-92764606D01*
X140201806Y-92915740D01*
X128763096Y-92915740D01*
X131496666Y-88824666D01*
X136425749Y-85531157D01*
X142240000Y-84374631D01*
X148054251Y-85531157D01*
M02*
