G04 #@! TF.FileFunction,Copper,L1,Top,Signal*
%FSLAX46Y46*%
G04 Gerber Fmt 4.6, Leading zero omitted, Abs format (unit mm)*
G04 Created by KiCad (PCBNEW 4.0.2-stable) date Friday, April 15, 2016 'PMt' 05:49:26 PM*
%MOMM*%
G01*
G04 APERTURE LIST*
%ADD10C,0.100000*%
%ADD11R,1.200000X0.750000*%
%ADD12R,0.750000X1.200000*%
%ADD13R,3.299460X4.500880*%
%ADD14R,0.800100X0.800100*%
%ADD15R,1.200000X0.900000*%
%ADD16R,0.900000X1.200000*%
%ADD17R,0.650000X1.060000*%
%ADD18R,2.032000X2.032000*%
%ADD19O,2.032000X2.032000*%
%ADD20C,0.600000*%
%ADD21C,0.250000*%
%ADD22C,0.254000*%
G04 APERTURE END LIST*
D10*
D11*
X143190000Y-85344000D03*
X141290000Y-85344000D03*
D12*
X136398000Y-89474000D03*
X136398000Y-91374000D03*
X138938000Y-94422000D03*
X138938000Y-92522000D03*
X149098000Y-100264000D03*
X149098000Y-98364000D03*
D11*
X141290000Y-112014000D03*
X143190000Y-112014000D03*
X136464000Y-107950000D03*
X138364000Y-107950000D03*
D12*
X133096000Y-98872000D03*
X133096000Y-100772000D03*
D13*
X142240000Y-95166180D03*
X142240000Y-103969820D03*
D14*
X145303240Y-92522000D03*
X145303240Y-94422000D03*
X147302220Y-93472000D03*
D15*
X143340000Y-87376000D03*
X141140000Y-87376000D03*
D16*
X132334000Y-91778000D03*
X132334000Y-89578000D03*
X134366000Y-89578000D03*
X134366000Y-91778000D03*
D15*
X137752000Y-98806000D03*
X135552000Y-98806000D03*
D16*
X146050000Y-90508000D03*
X146050000Y-88308000D03*
D15*
X151214000Y-104140000D03*
X149014000Y-104140000D03*
D16*
X133858000Y-105748000D03*
X133858000Y-103548000D03*
X138684000Y-112098000D03*
X138684000Y-109898000D03*
X136398000Y-112098000D03*
X136398000Y-109898000D03*
D15*
X149014000Y-107950000D03*
X151214000Y-107950000D03*
D17*
X143190000Y-89324000D03*
X142240000Y-89324000D03*
X141290000Y-89324000D03*
X141290000Y-91524000D03*
X143190000Y-91524000D03*
X143190000Y-107866000D03*
X142240000Y-107866000D03*
X141290000Y-107866000D03*
X141290000Y-110066000D03*
X143190000Y-110066000D03*
D18*
X130048000Y-98552000D03*
D19*
X130048000Y-101092000D03*
D18*
X154432000Y-98552000D03*
D19*
X154432000Y-101092000D03*
D20*
X137922000Y-88392000D03*
X134874000Y-107950000D03*
X144780000Y-109474000D03*
X154432000Y-106172000D03*
D21*
X146050000Y-88308000D02*
X147744000Y-88308000D01*
X149098000Y-89662000D02*
X149098000Y-98364000D01*
X147744000Y-88308000D02*
X149098000Y-89662000D01*
X143190000Y-85344000D02*
X143190000Y-87226000D01*
X143190000Y-87226000D02*
X143340000Y-87376000D01*
X143340000Y-87376000D02*
X144272000Y-87376000D01*
X145288000Y-88392000D02*
X145966000Y-88392000D01*
X144272000Y-87376000D02*
X145288000Y-88392000D01*
X145966000Y-88392000D02*
X146050000Y-88308000D01*
X143340000Y-87376000D02*
X143340000Y-89174000D01*
X143340000Y-89174000D02*
X143190000Y-89324000D01*
X145303240Y-94422000D02*
X142384740Y-94422000D01*
X142384740Y-94422000D02*
X142240000Y-94566740D01*
X141140000Y-87376000D02*
X138938000Y-87376000D01*
X138938000Y-87376000D02*
X137922000Y-88392000D01*
X145303240Y-92522000D02*
X145303240Y-94422000D01*
X141290000Y-91524000D02*
X141290000Y-93616740D01*
X141290000Y-93616740D02*
X142240000Y-94566740D01*
X141290000Y-85344000D02*
X141290000Y-87226000D01*
X141290000Y-87226000D02*
X141140000Y-87376000D01*
X141290000Y-89324000D02*
X136548000Y-89324000D01*
X136548000Y-89324000D02*
X136398000Y-89474000D01*
X134366000Y-89578000D02*
X136294000Y-89578000D01*
X136294000Y-89578000D02*
X136398000Y-89474000D01*
X132334000Y-89578000D02*
X134366000Y-89578000D01*
X134366000Y-89578000D02*
X134470000Y-89474000D01*
X141140000Y-89474000D02*
X141290000Y-89324000D01*
X137752000Y-98806000D02*
X137752000Y-92880000D01*
X138110000Y-92522000D02*
X138938000Y-92522000D01*
X137752000Y-92880000D02*
X138110000Y-92522000D01*
X143190000Y-91524000D02*
X143190000Y-90866000D01*
X138938000Y-90932000D02*
X138938000Y-92522000D01*
X139446000Y-90424000D02*
X138938000Y-90932000D01*
X142748000Y-90424000D02*
X139446000Y-90424000D01*
X143190000Y-90866000D02*
X142748000Y-90424000D01*
X141290000Y-107866000D02*
X141290000Y-106868000D01*
X146812000Y-104140000D02*
X149014000Y-104140000D01*
X144272000Y-106680000D02*
X146812000Y-104140000D01*
X141478000Y-106680000D02*
X144272000Y-106680000D01*
X141290000Y-106868000D02*
X141478000Y-106680000D01*
X149098000Y-100264000D02*
X149098000Y-104056000D01*
X149098000Y-104056000D02*
X149014000Y-104140000D01*
X143190000Y-110066000D02*
X144188000Y-110066000D01*
X133858000Y-106934000D02*
X133858000Y-105748000D01*
X134874000Y-107950000D02*
X133858000Y-106934000D01*
X144188000Y-110066000D02*
X144780000Y-109474000D01*
X143190000Y-112014000D02*
X143190000Y-110066000D01*
X138684000Y-109898000D02*
X141122000Y-109898000D01*
X141122000Y-109898000D02*
X141290000Y-110066000D01*
X136398000Y-109898000D02*
X138684000Y-109898000D01*
X136464000Y-107950000D02*
X136464000Y-109832000D01*
X136464000Y-109832000D02*
X136398000Y-109898000D01*
X138684000Y-112098000D02*
X138684000Y-111252000D01*
X132334000Y-107696000D02*
X132334000Y-103548000D01*
X135636000Y-110998000D02*
X132334000Y-107696000D01*
X138430000Y-110998000D02*
X135636000Y-110998000D01*
X138684000Y-111252000D02*
X138430000Y-110998000D01*
X130048000Y-98552000D02*
X131064000Y-98552000D01*
X131064000Y-98552000D02*
X131826000Y-99314000D01*
X132250000Y-103548000D02*
X132334000Y-103548000D01*
X132334000Y-103548000D02*
X133858000Y-103548000D01*
X131826000Y-103124000D02*
X132250000Y-103548000D01*
X131826000Y-99314000D02*
X131826000Y-103124000D01*
X134366000Y-91778000D02*
X134366000Y-96012000D01*
X133096000Y-97282000D02*
X133096000Y-98872000D01*
X134366000Y-96012000D02*
X133096000Y-97282000D01*
X135552000Y-98806000D02*
X133162000Y-98806000D01*
X133162000Y-98806000D02*
X132908000Y-98552000D01*
X132908000Y-98552000D02*
X130048000Y-98552000D01*
X151214000Y-107950000D02*
X152654000Y-107950000D01*
X152654000Y-107950000D02*
X154432000Y-106172000D01*
X147302220Y-93472000D02*
X147302220Y-92692220D01*
X146050000Y-91440000D02*
X146050000Y-90508000D01*
X147302220Y-92692220D02*
X146050000Y-91440000D01*
X149014000Y-107950000D02*
X143274000Y-107950000D01*
X143274000Y-107950000D02*
X143190000Y-107866000D01*
D22*
G36*
X148143799Y-85314970D02*
X153148797Y-88659203D01*
X156493030Y-93664201D01*
X157667369Y-99568000D01*
X156493030Y-105471799D01*
X153148797Y-110476797D01*
X148143799Y-113821030D01*
X142240000Y-114995369D01*
X136336201Y-113821030D01*
X134185160Y-112383750D01*
X135313000Y-112383750D01*
X135313000Y-112824309D01*
X135409673Y-113057698D01*
X135588301Y-113236327D01*
X135821690Y-113333000D01*
X136112250Y-113333000D01*
X136271000Y-113174250D01*
X136271000Y-112225000D01*
X136525000Y-112225000D01*
X136525000Y-113174250D01*
X136683750Y-113333000D01*
X136974310Y-113333000D01*
X137207699Y-113236327D01*
X137386327Y-113057698D01*
X137483000Y-112824309D01*
X137483000Y-112383750D01*
X137324250Y-112225000D01*
X136525000Y-112225000D01*
X136271000Y-112225000D01*
X135471750Y-112225000D01*
X135313000Y-112383750D01*
X134185160Y-112383750D01*
X131331203Y-110476797D01*
X127986970Y-105471799D01*
X127191947Y-101474944D01*
X128442025Y-101474944D01*
X128641615Y-101956818D01*
X129079621Y-102429188D01*
X129665054Y-102697983D01*
X129921000Y-102579367D01*
X129921000Y-101219000D01*
X128561164Y-101219000D01*
X128442025Y-101474944D01*
X127191947Y-101474944D01*
X127039602Y-100709056D01*
X128442025Y-100709056D01*
X128561164Y-100965000D01*
X129921000Y-100965000D01*
X129921000Y-100945000D01*
X130175000Y-100945000D01*
X130175000Y-100965000D01*
X130195000Y-100965000D01*
X130195000Y-101219000D01*
X130175000Y-101219000D01*
X130175000Y-102579367D01*
X130430946Y-102697983D01*
X131016379Y-102429188D01*
X131374000Y-102043510D01*
X131374000Y-103124000D01*
X131408406Y-103296973D01*
X131506388Y-103443612D01*
X131882000Y-103819225D01*
X131882000Y-107696000D01*
X131916406Y-107868973D01*
X132014388Y-108015612D01*
X135316388Y-111317612D01*
X135331279Y-111327562D01*
X135313000Y-111371691D01*
X135313000Y-111812250D01*
X135471750Y-111971000D01*
X136271000Y-111971000D01*
X136271000Y-111951000D01*
X136525000Y-111951000D01*
X136525000Y-111971000D01*
X137324250Y-111971000D01*
X137483000Y-111812250D01*
X137483000Y-111450000D01*
X137910314Y-111450000D01*
X137900594Y-111498000D01*
X137900594Y-112698000D01*
X137923395Y-112819179D01*
X137995012Y-112930474D01*
X138104286Y-113005138D01*
X138234000Y-113031406D01*
X139134000Y-113031406D01*
X139255179Y-113008605D01*
X139366474Y-112936988D01*
X139441138Y-112827714D01*
X139467406Y-112698000D01*
X139467406Y-112299750D01*
X140055000Y-112299750D01*
X140055000Y-112515310D01*
X140151673Y-112748699D01*
X140330302Y-112927327D01*
X140563691Y-113024000D01*
X141004250Y-113024000D01*
X141163000Y-112865250D01*
X141163000Y-112141000D01*
X140213750Y-112141000D01*
X140055000Y-112299750D01*
X139467406Y-112299750D01*
X139467406Y-111512690D01*
X140055000Y-111512690D01*
X140055000Y-111728250D01*
X140213750Y-111887000D01*
X141163000Y-111887000D01*
X141163000Y-111162750D01*
X141417000Y-111162750D01*
X141417000Y-111887000D01*
X141437000Y-111887000D01*
X141437000Y-112141000D01*
X141417000Y-112141000D01*
X141417000Y-112865250D01*
X141575750Y-113024000D01*
X142016309Y-113024000D01*
X142249698Y-112927327D01*
X142428327Y-112748699D01*
X142452346Y-112690713D01*
X142460286Y-112696138D01*
X142590000Y-112722406D01*
X143790000Y-112722406D01*
X143911179Y-112699605D01*
X144022474Y-112627988D01*
X144097138Y-112518714D01*
X144123406Y-112389000D01*
X144123406Y-111639000D01*
X144100605Y-111517821D01*
X144028988Y-111406526D01*
X143919714Y-111331862D01*
X143790000Y-111305594D01*
X143642000Y-111305594D01*
X143642000Y-110902859D01*
X143747474Y-110834988D01*
X143822138Y-110725714D01*
X143848406Y-110596000D01*
X143848406Y-110518000D01*
X144188000Y-110518000D01*
X144360973Y-110483594D01*
X144507612Y-110385612D01*
X144792213Y-110101011D01*
X144904171Y-110101109D01*
X145134703Y-110005855D01*
X145311235Y-109829631D01*
X145406891Y-109599265D01*
X145407109Y-109349829D01*
X145311855Y-109119297D01*
X145135631Y-108942765D01*
X144905265Y-108847109D01*
X144655829Y-108846891D01*
X144425297Y-108942145D01*
X144248765Y-109118369D01*
X144153109Y-109348735D01*
X144153010Y-109461765D01*
X144000776Y-109614000D01*
X143848406Y-109614000D01*
X143848406Y-109536000D01*
X143825605Y-109414821D01*
X143753988Y-109303526D01*
X143644714Y-109228862D01*
X143515000Y-109202594D01*
X142865000Y-109202594D01*
X142743821Y-109225395D01*
X142632526Y-109297012D01*
X142557862Y-109406286D01*
X142531594Y-109536000D01*
X142531594Y-110596000D01*
X142554395Y-110717179D01*
X142626012Y-110828474D01*
X142735286Y-110903138D01*
X142738000Y-110903688D01*
X142738000Y-111305594D01*
X142590000Y-111305594D01*
X142468821Y-111328395D01*
X142452905Y-111338637D01*
X142428327Y-111279301D01*
X142249698Y-111100673D01*
X142016309Y-111004000D01*
X141575750Y-111004000D01*
X141417000Y-111162750D01*
X141163000Y-111162750D01*
X141004250Y-111004000D01*
X140563691Y-111004000D01*
X140330302Y-111100673D01*
X140151673Y-111279301D01*
X140055000Y-111512690D01*
X139467406Y-111512690D01*
X139467406Y-111498000D01*
X139444605Y-111376821D01*
X139372988Y-111265526D01*
X139263714Y-111190862D01*
X139134000Y-111164594D01*
X139118614Y-111164594D01*
X139101594Y-111079027D01*
X139003612Y-110932388D01*
X138902630Y-110831406D01*
X139134000Y-110831406D01*
X139255179Y-110808605D01*
X139366474Y-110736988D01*
X139441138Y-110627714D01*
X139467406Y-110498000D01*
X139467406Y-110350000D01*
X140631594Y-110350000D01*
X140631594Y-110596000D01*
X140654395Y-110717179D01*
X140726012Y-110828474D01*
X140835286Y-110903138D01*
X140965000Y-110929406D01*
X141615000Y-110929406D01*
X141736179Y-110906605D01*
X141847474Y-110834988D01*
X141922138Y-110725714D01*
X141948406Y-110596000D01*
X141948406Y-109536000D01*
X141925605Y-109414821D01*
X141853988Y-109303526D01*
X141744714Y-109228862D01*
X141615000Y-109202594D01*
X140965000Y-109202594D01*
X140843821Y-109225395D01*
X140732526Y-109297012D01*
X140657862Y-109406286D01*
X140649820Y-109446000D01*
X139467406Y-109446000D01*
X139467406Y-109298000D01*
X139444605Y-109176821D01*
X139372988Y-109065526D01*
X139263714Y-108990862D01*
X139134000Y-108964594D01*
X138234000Y-108964594D01*
X138112821Y-108987395D01*
X138001526Y-109059012D01*
X137926862Y-109168286D01*
X137900594Y-109298000D01*
X137900594Y-109446000D01*
X137181406Y-109446000D01*
X137181406Y-109298000D01*
X137158605Y-109176821D01*
X137086988Y-109065526D01*
X136977714Y-108990862D01*
X136916000Y-108978364D01*
X136916000Y-108658406D01*
X137064000Y-108658406D01*
X137185179Y-108635605D01*
X137201095Y-108625363D01*
X137225673Y-108684699D01*
X137404302Y-108863327D01*
X137637691Y-108960000D01*
X138078250Y-108960000D01*
X138237000Y-108801250D01*
X138237000Y-108077000D01*
X138491000Y-108077000D01*
X138491000Y-108801250D01*
X138649750Y-108960000D01*
X139090309Y-108960000D01*
X139323698Y-108863327D01*
X139502327Y-108684699D01*
X139599000Y-108451310D01*
X139599000Y-108235750D01*
X139440250Y-108077000D01*
X138491000Y-108077000D01*
X138237000Y-108077000D01*
X138217000Y-108077000D01*
X138217000Y-107823000D01*
X138237000Y-107823000D01*
X138237000Y-107098750D01*
X138491000Y-107098750D01*
X138491000Y-107823000D01*
X139440250Y-107823000D01*
X139599000Y-107664250D01*
X139599000Y-107448690D01*
X139502327Y-107215301D01*
X139323698Y-107036673D01*
X139090309Y-106940000D01*
X138649750Y-106940000D01*
X138491000Y-107098750D01*
X138237000Y-107098750D01*
X138078250Y-106940000D01*
X137637691Y-106940000D01*
X137404302Y-107036673D01*
X137225673Y-107215301D01*
X137201654Y-107273287D01*
X137193714Y-107267862D01*
X137064000Y-107241594D01*
X135864000Y-107241594D01*
X135742821Y-107264395D01*
X135631526Y-107336012D01*
X135556862Y-107445286D01*
X135530594Y-107575000D01*
X135530594Y-108325000D01*
X135553395Y-108446179D01*
X135625012Y-108557474D01*
X135734286Y-108632138D01*
X135864000Y-108658406D01*
X136012000Y-108658406D01*
X136012000Y-108964594D01*
X135948000Y-108964594D01*
X135826821Y-108987395D01*
X135715526Y-109059012D01*
X135640862Y-109168286D01*
X135614594Y-109298000D01*
X135614594Y-110337370D01*
X132786000Y-107508776D01*
X132786000Y-105148000D01*
X133074594Y-105148000D01*
X133074594Y-106348000D01*
X133097395Y-106469179D01*
X133169012Y-106580474D01*
X133278286Y-106655138D01*
X133406000Y-106681001D01*
X133406000Y-106934000D01*
X133440406Y-107106973D01*
X133538388Y-107253612D01*
X134246989Y-107962213D01*
X134246891Y-108074171D01*
X134342145Y-108304703D01*
X134518369Y-108481235D01*
X134748735Y-108576891D01*
X134998171Y-108577109D01*
X135228703Y-108481855D01*
X135405235Y-108305631D01*
X135500891Y-108075265D01*
X135501109Y-107825829D01*
X135405855Y-107595297D01*
X135229631Y-107418765D01*
X134999265Y-107323109D01*
X134886234Y-107323010D01*
X134310000Y-106746776D01*
X134310000Y-106681030D01*
X134429179Y-106658605D01*
X134540474Y-106586988D01*
X134615138Y-106477714D01*
X134641406Y-106348000D01*
X134641406Y-105148000D01*
X134618605Y-105026821D01*
X134546988Y-104915526D01*
X134437714Y-104840862D01*
X134308000Y-104814594D01*
X133408000Y-104814594D01*
X133286821Y-104837395D01*
X133175526Y-104909012D01*
X133100862Y-105018286D01*
X133074594Y-105148000D01*
X132786000Y-105148000D01*
X132786000Y-104000000D01*
X133074594Y-104000000D01*
X133074594Y-104148000D01*
X133097395Y-104269179D01*
X133169012Y-104380474D01*
X133278286Y-104455138D01*
X133408000Y-104481406D01*
X134308000Y-104481406D01*
X134429179Y-104458605D01*
X134540474Y-104386988D01*
X134615138Y-104277714D01*
X134619622Y-104255570D01*
X139955270Y-104255570D01*
X139955270Y-106346569D01*
X140051943Y-106579958D01*
X140230571Y-106758587D01*
X140463960Y-106855260D01*
X140840534Y-106855260D01*
X140838000Y-106868000D01*
X140838000Y-107029141D01*
X140732526Y-107097012D01*
X140657862Y-107206286D01*
X140631594Y-107336000D01*
X140631594Y-108396000D01*
X140654395Y-108517179D01*
X140726012Y-108628474D01*
X140835286Y-108703138D01*
X140965000Y-108729406D01*
X141365782Y-108729406D01*
X141376673Y-108755698D01*
X141555301Y-108934327D01*
X141788690Y-109031000D01*
X141954250Y-109031000D01*
X142113000Y-108872250D01*
X142113000Y-107993000D01*
X142093000Y-107993000D01*
X142093000Y-107739000D01*
X142113000Y-107739000D01*
X142113000Y-107719000D01*
X142367000Y-107719000D01*
X142367000Y-107739000D01*
X142387000Y-107739000D01*
X142387000Y-107993000D01*
X142367000Y-107993000D01*
X142367000Y-108872250D01*
X142525750Y-109031000D01*
X142691310Y-109031000D01*
X142924699Y-108934327D01*
X143103327Y-108755698D01*
X143114218Y-108729406D01*
X143515000Y-108729406D01*
X143636179Y-108706605D01*
X143747474Y-108634988D01*
X143822138Y-108525714D01*
X143847191Y-108402000D01*
X148080970Y-108402000D01*
X148103395Y-108521179D01*
X148175012Y-108632474D01*
X148284286Y-108707138D01*
X148414000Y-108733406D01*
X149614000Y-108733406D01*
X149735179Y-108710605D01*
X149846474Y-108638988D01*
X149921138Y-108529714D01*
X149947406Y-108400000D01*
X149947406Y-107500000D01*
X150280594Y-107500000D01*
X150280594Y-108400000D01*
X150303395Y-108521179D01*
X150375012Y-108632474D01*
X150484286Y-108707138D01*
X150614000Y-108733406D01*
X151814000Y-108733406D01*
X151935179Y-108710605D01*
X152046474Y-108638988D01*
X152121138Y-108529714D01*
X152147001Y-108402000D01*
X152654000Y-108402000D01*
X152826973Y-108367594D01*
X152973612Y-108269612D01*
X154444213Y-106799011D01*
X154556171Y-106799109D01*
X154786703Y-106703855D01*
X154963235Y-106527631D01*
X155058891Y-106297265D01*
X155059109Y-106047829D01*
X154963855Y-105817297D01*
X154787631Y-105640765D01*
X154557265Y-105545109D01*
X154307829Y-105544891D01*
X154077297Y-105640145D01*
X153900765Y-105816369D01*
X153805109Y-106046735D01*
X153805010Y-106159766D01*
X152466776Y-107498000D01*
X152147030Y-107498000D01*
X152124605Y-107378821D01*
X152052988Y-107267526D01*
X151943714Y-107192862D01*
X151814000Y-107166594D01*
X150614000Y-107166594D01*
X150492821Y-107189395D01*
X150381526Y-107261012D01*
X150306862Y-107370286D01*
X150280594Y-107500000D01*
X149947406Y-107500000D01*
X149924605Y-107378821D01*
X149852988Y-107267526D01*
X149743714Y-107192862D01*
X149614000Y-107166594D01*
X148414000Y-107166594D01*
X148292821Y-107189395D01*
X148181526Y-107261012D01*
X148106862Y-107370286D01*
X148080999Y-107498000D01*
X143848406Y-107498000D01*
X143848406Y-107336000D01*
X143825605Y-107214821D01*
X143772311Y-107132000D01*
X144272000Y-107132000D01*
X144444973Y-107097594D01*
X144591612Y-106999612D01*
X146999225Y-104592000D01*
X148080970Y-104592000D01*
X148103395Y-104711179D01*
X148175012Y-104822474D01*
X148284286Y-104897138D01*
X148414000Y-104923406D01*
X149614000Y-104923406D01*
X149735179Y-104900605D01*
X149846474Y-104828988D01*
X149921138Y-104719714D01*
X149947406Y-104590000D01*
X149947406Y-104425750D01*
X149979000Y-104425750D01*
X149979000Y-104716310D01*
X150075673Y-104949699D01*
X150254302Y-105128327D01*
X150487691Y-105225000D01*
X150928250Y-105225000D01*
X151087000Y-105066250D01*
X151087000Y-104267000D01*
X151341000Y-104267000D01*
X151341000Y-105066250D01*
X151499750Y-105225000D01*
X151940309Y-105225000D01*
X152173698Y-105128327D01*
X152352327Y-104949699D01*
X152449000Y-104716310D01*
X152449000Y-104425750D01*
X152290250Y-104267000D01*
X151341000Y-104267000D01*
X151087000Y-104267000D01*
X150137750Y-104267000D01*
X149979000Y-104425750D01*
X149947406Y-104425750D01*
X149947406Y-103690000D01*
X149924605Y-103568821D01*
X149921304Y-103563690D01*
X149979000Y-103563690D01*
X149979000Y-103854250D01*
X150137750Y-104013000D01*
X151087000Y-104013000D01*
X151087000Y-103213750D01*
X151341000Y-103213750D01*
X151341000Y-104013000D01*
X152290250Y-104013000D01*
X152449000Y-103854250D01*
X152449000Y-103563690D01*
X152352327Y-103330301D01*
X152173698Y-103151673D01*
X151940309Y-103055000D01*
X151499750Y-103055000D01*
X151341000Y-103213750D01*
X151087000Y-103213750D01*
X150928250Y-103055000D01*
X150487691Y-103055000D01*
X150254302Y-103151673D01*
X150075673Y-103330301D01*
X149979000Y-103563690D01*
X149921304Y-103563690D01*
X149852988Y-103457526D01*
X149743714Y-103382862D01*
X149614000Y-103356594D01*
X149550000Y-103356594D01*
X149550000Y-101474944D01*
X152826025Y-101474944D01*
X153025615Y-101956818D01*
X153463621Y-102429188D01*
X154049054Y-102697983D01*
X154305000Y-102579367D01*
X154305000Y-101219000D01*
X154559000Y-101219000D01*
X154559000Y-102579367D01*
X154814946Y-102697983D01*
X155400379Y-102429188D01*
X155838385Y-101956818D01*
X156037975Y-101474944D01*
X155918836Y-101219000D01*
X154559000Y-101219000D01*
X154305000Y-101219000D01*
X152945164Y-101219000D01*
X152826025Y-101474944D01*
X149550000Y-101474944D01*
X149550000Y-101182918D01*
X149594179Y-101174605D01*
X149705474Y-101102988D01*
X149780138Y-100993714D01*
X149806406Y-100864000D01*
X149806406Y-100709056D01*
X152826025Y-100709056D01*
X152945164Y-100965000D01*
X154305000Y-100965000D01*
X154305000Y-100945000D01*
X154559000Y-100945000D01*
X154559000Y-100965000D01*
X155918836Y-100965000D01*
X156037975Y-100709056D01*
X155838385Y-100227182D01*
X155523190Y-99887258D01*
X155569179Y-99878605D01*
X155680474Y-99806988D01*
X155755138Y-99697714D01*
X155781406Y-99568000D01*
X155781406Y-97536000D01*
X155758605Y-97414821D01*
X155686988Y-97303526D01*
X155577714Y-97228862D01*
X155448000Y-97202594D01*
X153416000Y-97202594D01*
X153294821Y-97225395D01*
X153183526Y-97297012D01*
X153108862Y-97406286D01*
X153082594Y-97536000D01*
X153082594Y-99568000D01*
X153105395Y-99689179D01*
X153177012Y-99800474D01*
X153286286Y-99875138D01*
X153341652Y-99886350D01*
X153025615Y-100227182D01*
X152826025Y-100709056D01*
X149806406Y-100709056D01*
X149806406Y-99664000D01*
X149783605Y-99542821D01*
X149711988Y-99431526D01*
X149602714Y-99356862D01*
X149473000Y-99330594D01*
X148723000Y-99330594D01*
X148601821Y-99353395D01*
X148490526Y-99425012D01*
X148415862Y-99534286D01*
X148389594Y-99664000D01*
X148389594Y-100864000D01*
X148412395Y-100985179D01*
X148484012Y-101096474D01*
X148593286Y-101171138D01*
X148646000Y-101181813D01*
X148646000Y-103356594D01*
X148414000Y-103356594D01*
X148292821Y-103379395D01*
X148181526Y-103451012D01*
X148106862Y-103560286D01*
X148080999Y-103688000D01*
X146812000Y-103688000D01*
X146646231Y-103720973D01*
X146639027Y-103722406D01*
X146492387Y-103820388D01*
X144524730Y-105788046D01*
X144524730Y-104255570D01*
X144365980Y-104096820D01*
X142367000Y-104096820D01*
X142367000Y-104116820D01*
X142113000Y-104116820D01*
X142113000Y-104096820D01*
X140114020Y-104096820D01*
X139955270Y-104255570D01*
X134619622Y-104255570D01*
X134641406Y-104148000D01*
X134641406Y-102948000D01*
X134618605Y-102826821D01*
X134546988Y-102715526D01*
X134437714Y-102640862D01*
X134308000Y-102614594D01*
X133408000Y-102614594D01*
X133286821Y-102637395D01*
X133175526Y-102709012D01*
X133100862Y-102818286D01*
X133074594Y-102948000D01*
X133074594Y-103096000D01*
X132437225Y-103096000D01*
X132278000Y-102936776D01*
X132278000Y-101827026D01*
X132361301Y-101910327D01*
X132594690Y-102007000D01*
X132810250Y-102007000D01*
X132969000Y-101848250D01*
X132969000Y-100899000D01*
X133223000Y-100899000D01*
X133223000Y-101848250D01*
X133381750Y-102007000D01*
X133597310Y-102007000D01*
X133830699Y-101910327D01*
X134009327Y-101731698D01*
X134066748Y-101593071D01*
X139955270Y-101593071D01*
X139955270Y-103684070D01*
X140114020Y-103842820D01*
X142113000Y-103842820D01*
X142113000Y-101243130D01*
X142367000Y-101243130D01*
X142367000Y-103842820D01*
X144365980Y-103842820D01*
X144524730Y-103684070D01*
X144524730Y-101593071D01*
X144428057Y-101359682D01*
X144249429Y-101181053D01*
X144016040Y-101084380D01*
X142525750Y-101084380D01*
X142367000Y-101243130D01*
X142113000Y-101243130D01*
X141954250Y-101084380D01*
X140463960Y-101084380D01*
X140230571Y-101181053D01*
X140051943Y-101359682D01*
X139955270Y-101593071D01*
X134066748Y-101593071D01*
X134106000Y-101498309D01*
X134106000Y-101057750D01*
X133947250Y-100899000D01*
X133223000Y-100899000D01*
X132969000Y-100899000D01*
X132949000Y-100899000D01*
X132949000Y-100645000D01*
X132969000Y-100645000D01*
X132969000Y-100625000D01*
X133223000Y-100625000D01*
X133223000Y-100645000D01*
X133947250Y-100645000D01*
X134106000Y-100486250D01*
X134106000Y-100045691D01*
X134009327Y-99812302D01*
X133830699Y-99633673D01*
X133772713Y-99609654D01*
X133778138Y-99601714D01*
X133804406Y-99472000D01*
X133804406Y-99258000D01*
X134618970Y-99258000D01*
X134641395Y-99377179D01*
X134713012Y-99488474D01*
X134822286Y-99563138D01*
X134952000Y-99589406D01*
X136152000Y-99589406D01*
X136273179Y-99566605D01*
X136384474Y-99494988D01*
X136459138Y-99385714D01*
X136485406Y-99256000D01*
X136485406Y-98356000D01*
X136462605Y-98234821D01*
X136390988Y-98123526D01*
X136281714Y-98048862D01*
X136152000Y-98022594D01*
X134952000Y-98022594D01*
X134830821Y-98045395D01*
X134719526Y-98117012D01*
X134644862Y-98226286D01*
X134618999Y-98354000D01*
X133804406Y-98354000D01*
X133804406Y-98272000D01*
X133781605Y-98150821D01*
X133709988Y-98039526D01*
X133600714Y-97964862D01*
X133548000Y-97954187D01*
X133548000Y-97469224D01*
X134685612Y-96331612D01*
X134783594Y-96184973D01*
X134818000Y-96012000D01*
X134818000Y-92711030D01*
X134937179Y-92688605D01*
X135048474Y-92616988D01*
X135123138Y-92507714D01*
X135149406Y-92378000D01*
X135149406Y-91659750D01*
X135388000Y-91659750D01*
X135388000Y-92100309D01*
X135484673Y-92333698D01*
X135663301Y-92512327D01*
X135896690Y-92609000D01*
X136112250Y-92609000D01*
X136271000Y-92450250D01*
X136271000Y-91501000D01*
X136525000Y-91501000D01*
X136525000Y-92450250D01*
X136683750Y-92609000D01*
X136899310Y-92609000D01*
X137132699Y-92512327D01*
X137311327Y-92333698D01*
X137408000Y-92100309D01*
X137408000Y-91659750D01*
X137249250Y-91501000D01*
X136525000Y-91501000D01*
X136271000Y-91501000D01*
X135546750Y-91501000D01*
X135388000Y-91659750D01*
X135149406Y-91659750D01*
X135149406Y-91178000D01*
X135126605Y-91056821D01*
X135054988Y-90945526D01*
X134945714Y-90870862D01*
X134816000Y-90844594D01*
X133916000Y-90844594D01*
X133794821Y-90867395D01*
X133683526Y-90939012D01*
X133608862Y-91048286D01*
X133582594Y-91178000D01*
X133582594Y-92378000D01*
X133605395Y-92499179D01*
X133677012Y-92610474D01*
X133786286Y-92685138D01*
X133914000Y-92711001D01*
X133914000Y-95824776D01*
X132776388Y-96962388D01*
X132678406Y-97109027D01*
X132644000Y-97282000D01*
X132644000Y-97953082D01*
X132599821Y-97961395D01*
X132488526Y-98033012D01*
X132442755Y-98100000D01*
X131397406Y-98100000D01*
X131397406Y-97536000D01*
X131374605Y-97414821D01*
X131302988Y-97303526D01*
X131193714Y-97228862D01*
X131064000Y-97202594D01*
X129032000Y-97202594D01*
X128910821Y-97225395D01*
X128799526Y-97297012D01*
X128724862Y-97406286D01*
X128698594Y-97536000D01*
X128698594Y-99568000D01*
X128721395Y-99689179D01*
X128793012Y-99800474D01*
X128902286Y-99875138D01*
X128957652Y-99886350D01*
X128641615Y-100227182D01*
X128442025Y-100709056D01*
X127039602Y-100709056D01*
X126812631Y-99568000D01*
X127986970Y-93664201D01*
X129056357Y-92063750D01*
X131249000Y-92063750D01*
X131249000Y-92504309D01*
X131345673Y-92737698D01*
X131524301Y-92916327D01*
X131757690Y-93013000D01*
X132048250Y-93013000D01*
X132207000Y-92854250D01*
X132207000Y-91905000D01*
X132461000Y-91905000D01*
X132461000Y-92854250D01*
X132619750Y-93013000D01*
X132910310Y-93013000D01*
X133143699Y-92916327D01*
X133322327Y-92737698D01*
X133419000Y-92504309D01*
X133419000Y-92063750D01*
X133260250Y-91905000D01*
X132461000Y-91905000D01*
X132207000Y-91905000D01*
X131407750Y-91905000D01*
X131249000Y-92063750D01*
X129056357Y-92063750D01*
X129732593Y-91051691D01*
X131249000Y-91051691D01*
X131249000Y-91492250D01*
X131407750Y-91651000D01*
X132207000Y-91651000D01*
X132207000Y-90701750D01*
X132461000Y-90701750D01*
X132461000Y-91651000D01*
X133260250Y-91651000D01*
X133419000Y-91492250D01*
X133419000Y-91051691D01*
X133322327Y-90818302D01*
X133143699Y-90639673D01*
X132910310Y-90543000D01*
X132619750Y-90543000D01*
X132461000Y-90701750D01*
X132207000Y-90701750D01*
X132048250Y-90543000D01*
X131757690Y-90543000D01*
X131524301Y-90639673D01*
X131345673Y-90818302D01*
X131249000Y-91051691D01*
X129732593Y-91051691D01*
X131118189Y-88978000D01*
X131550594Y-88978000D01*
X131550594Y-90178000D01*
X131573395Y-90299179D01*
X131645012Y-90410474D01*
X131754286Y-90485138D01*
X131884000Y-90511406D01*
X132784000Y-90511406D01*
X132905179Y-90488605D01*
X133016474Y-90416988D01*
X133091138Y-90307714D01*
X133117406Y-90178000D01*
X133117406Y-90030000D01*
X133582594Y-90030000D01*
X133582594Y-90178000D01*
X133605395Y-90299179D01*
X133677012Y-90410474D01*
X133786286Y-90485138D01*
X133916000Y-90511406D01*
X134816000Y-90511406D01*
X134937179Y-90488605D01*
X135048474Y-90416988D01*
X135123138Y-90307714D01*
X135149406Y-90178000D01*
X135149406Y-90030000D01*
X135689594Y-90030000D01*
X135689594Y-90074000D01*
X135712395Y-90195179D01*
X135722637Y-90211095D01*
X135663301Y-90235673D01*
X135484673Y-90414302D01*
X135388000Y-90647691D01*
X135388000Y-91088250D01*
X135546750Y-91247000D01*
X136271000Y-91247000D01*
X136271000Y-91227000D01*
X136525000Y-91227000D01*
X136525000Y-91247000D01*
X137249250Y-91247000D01*
X137408000Y-91088250D01*
X137408000Y-90647691D01*
X137311327Y-90414302D01*
X137132699Y-90235673D01*
X137074713Y-90211654D01*
X137080138Y-90203714D01*
X137106406Y-90074000D01*
X137106406Y-89776000D01*
X140631594Y-89776000D01*
X140631594Y-89854000D01*
X140653797Y-89972000D01*
X139446000Y-89972000D01*
X139301724Y-90000698D01*
X139273026Y-90006406D01*
X139126387Y-90104388D01*
X138618388Y-90612388D01*
X138520406Y-90759027D01*
X138486000Y-90932000D01*
X138486000Y-91603082D01*
X138441821Y-91611395D01*
X138330526Y-91683012D01*
X138255862Y-91792286D01*
X138229594Y-91922000D01*
X138229594Y-92070000D01*
X138110000Y-92070000D01*
X137937027Y-92104406D01*
X137790387Y-92202388D01*
X137432388Y-92560388D01*
X137334406Y-92707027D01*
X137300000Y-92880000D01*
X137300000Y-98022594D01*
X137152000Y-98022594D01*
X137030821Y-98045395D01*
X136919526Y-98117012D01*
X136844862Y-98226286D01*
X136818594Y-98356000D01*
X136818594Y-99256000D01*
X136841395Y-99377179D01*
X136913012Y-99488474D01*
X137022286Y-99563138D01*
X137152000Y-99589406D01*
X138352000Y-99589406D01*
X138473179Y-99566605D01*
X138584474Y-99494988D01*
X138659138Y-99385714D01*
X138685406Y-99256000D01*
X138685406Y-98356000D01*
X138662605Y-98234821D01*
X138590988Y-98123526D01*
X138481714Y-98048862D01*
X138352000Y-98022594D01*
X138204000Y-98022594D01*
X138204000Y-95560617D01*
X138436690Y-95657000D01*
X138652250Y-95657000D01*
X138811000Y-95498250D01*
X138811000Y-94549000D01*
X139065000Y-94549000D01*
X139065000Y-95498250D01*
X139223750Y-95657000D01*
X139439310Y-95657000D01*
X139672699Y-95560327D01*
X139851327Y-95381698D01*
X139948000Y-95148309D01*
X139948000Y-94707750D01*
X139789250Y-94549000D01*
X139065000Y-94549000D01*
X138811000Y-94549000D01*
X138791000Y-94549000D01*
X138791000Y-94295000D01*
X138811000Y-94295000D01*
X138811000Y-94275000D01*
X139065000Y-94275000D01*
X139065000Y-94295000D01*
X139789250Y-94295000D01*
X139948000Y-94136250D01*
X139948000Y-93695691D01*
X139851327Y-93462302D01*
X139672699Y-93283673D01*
X139614713Y-93259654D01*
X139620138Y-93251714D01*
X139646406Y-93122000D01*
X139646406Y-91922000D01*
X139623605Y-91800821D01*
X139551988Y-91689526D01*
X139442714Y-91614862D01*
X139390000Y-91604187D01*
X139390000Y-91119224D01*
X139633225Y-90876000D01*
X140655490Y-90876000D01*
X140631594Y-90994000D01*
X140631594Y-92054000D01*
X140654395Y-92175179D01*
X140726012Y-92286474D01*
X140835286Y-92361138D01*
X140838000Y-92361688D01*
X140838000Y-92582334D01*
X140590270Y-92582334D01*
X140469091Y-92605135D01*
X140357796Y-92676752D01*
X140283132Y-92786026D01*
X140256864Y-92915740D01*
X140256864Y-97416620D01*
X140279665Y-97537799D01*
X140351282Y-97649094D01*
X140460556Y-97723758D01*
X140590270Y-97750026D01*
X143889730Y-97750026D01*
X144010909Y-97727225D01*
X144122204Y-97655608D01*
X144196868Y-97546334D01*
X144223136Y-97416620D01*
X144223136Y-94874000D01*
X144579559Y-94874000D01*
X144592585Y-94943229D01*
X144664202Y-95054524D01*
X144773476Y-95129188D01*
X144903190Y-95155456D01*
X145703290Y-95155456D01*
X145824469Y-95132655D01*
X145935764Y-95061038D01*
X146010428Y-94951764D01*
X146036696Y-94822050D01*
X146036696Y-94021950D01*
X146013895Y-93900771D01*
X145942278Y-93789476D01*
X145833004Y-93714812D01*
X145755240Y-93699064D01*
X145755240Y-93245681D01*
X145824469Y-93232655D01*
X145935764Y-93161038D01*
X146010428Y-93051764D01*
X146036696Y-92922050D01*
X146036696Y-92121950D01*
X146023710Y-92052934D01*
X146751255Y-92780480D01*
X146669696Y-92832962D01*
X146595032Y-92942236D01*
X146568764Y-93071950D01*
X146568764Y-93872050D01*
X146591565Y-93993229D01*
X146663182Y-94104524D01*
X146772456Y-94179188D01*
X146902170Y-94205456D01*
X147702270Y-94205456D01*
X147823449Y-94182655D01*
X147934744Y-94111038D01*
X148009408Y-94001764D01*
X148035676Y-93872050D01*
X148035676Y-93071950D01*
X148012875Y-92950771D01*
X147941258Y-92839476D01*
X147831984Y-92764812D01*
X147754220Y-92749064D01*
X147754220Y-92692220D01*
X147719814Y-92519247D01*
X147681834Y-92462406D01*
X147621833Y-92372608D01*
X146649564Y-91400340D01*
X146732474Y-91346988D01*
X146807138Y-91237714D01*
X146833406Y-91108000D01*
X146833406Y-89908000D01*
X146810605Y-89786821D01*
X146738988Y-89675526D01*
X146629714Y-89600862D01*
X146500000Y-89574594D01*
X145600000Y-89574594D01*
X145478821Y-89597395D01*
X145367526Y-89669012D01*
X145292862Y-89778286D01*
X145266594Y-89908000D01*
X145266594Y-91108000D01*
X145289395Y-91229179D01*
X145361012Y-91340474D01*
X145470286Y-91415138D01*
X145598207Y-91441043D01*
X145632406Y-91612973D01*
X145730388Y-91759612D01*
X145773548Y-91802772D01*
X145703290Y-91788544D01*
X144903190Y-91788544D01*
X144782011Y-91811345D01*
X144670716Y-91882962D01*
X144596052Y-91992236D01*
X144569784Y-92121950D01*
X144569784Y-92922050D01*
X144592585Y-93043229D01*
X144664202Y-93154524D01*
X144773476Y-93229188D01*
X144851240Y-93244936D01*
X144851240Y-93698319D01*
X144782011Y-93711345D01*
X144670716Y-93782962D01*
X144596052Y-93892236D01*
X144580304Y-93970000D01*
X144223136Y-93970000D01*
X144223136Y-92915740D01*
X144200335Y-92794561D01*
X144128718Y-92683266D01*
X144019444Y-92608602D01*
X143889730Y-92582334D01*
X141742000Y-92582334D01*
X141742000Y-92360859D01*
X141847474Y-92292988D01*
X141922138Y-92183714D01*
X141948406Y-92054000D01*
X141948406Y-90994000D01*
X141926203Y-90876000D01*
X142555490Y-90876000D01*
X142531594Y-90994000D01*
X142531594Y-92054000D01*
X142554395Y-92175179D01*
X142626012Y-92286474D01*
X142735286Y-92361138D01*
X142865000Y-92387406D01*
X143515000Y-92387406D01*
X143636179Y-92364605D01*
X143747474Y-92292988D01*
X143822138Y-92183714D01*
X143848406Y-92054000D01*
X143848406Y-90994000D01*
X143825605Y-90872821D01*
X143753988Y-90761526D01*
X143644714Y-90686862D01*
X143597021Y-90677204D01*
X143571944Y-90639673D01*
X143509612Y-90546387D01*
X143150630Y-90187406D01*
X143515000Y-90187406D01*
X143636179Y-90164605D01*
X143747474Y-90092988D01*
X143822138Y-89983714D01*
X143848406Y-89854000D01*
X143848406Y-88794000D01*
X143825605Y-88672821D01*
X143792000Y-88620598D01*
X143792000Y-88159406D01*
X143940000Y-88159406D01*
X144061179Y-88136605D01*
X144172474Y-88064988D01*
X144233074Y-87976298D01*
X144968388Y-88711612D01*
X145115027Y-88809594D01*
X145266594Y-88839742D01*
X145266594Y-88908000D01*
X145289395Y-89029179D01*
X145361012Y-89140474D01*
X145470286Y-89215138D01*
X145600000Y-89241406D01*
X146500000Y-89241406D01*
X146621179Y-89218605D01*
X146732474Y-89146988D01*
X146807138Y-89037714D01*
X146833406Y-88908000D01*
X146833406Y-88760000D01*
X147556776Y-88760000D01*
X148646000Y-89849224D01*
X148646000Y-97445082D01*
X148601821Y-97453395D01*
X148490526Y-97525012D01*
X148415862Y-97634286D01*
X148389594Y-97764000D01*
X148389594Y-98964000D01*
X148412395Y-99085179D01*
X148484012Y-99196474D01*
X148593286Y-99271138D01*
X148723000Y-99297406D01*
X149473000Y-99297406D01*
X149594179Y-99274605D01*
X149705474Y-99202988D01*
X149780138Y-99093714D01*
X149806406Y-98964000D01*
X149806406Y-97764000D01*
X149783605Y-97642821D01*
X149711988Y-97531526D01*
X149602714Y-97456862D01*
X149550000Y-97446187D01*
X149550000Y-89662000D01*
X149515594Y-89489027D01*
X149417612Y-89342388D01*
X148063612Y-87988388D01*
X147916973Y-87890406D01*
X147744000Y-87856000D01*
X146833406Y-87856000D01*
X146833406Y-87708000D01*
X146810605Y-87586821D01*
X146738988Y-87475526D01*
X146629714Y-87400862D01*
X146500000Y-87374594D01*
X145600000Y-87374594D01*
X145478821Y-87397395D01*
X145367526Y-87469012D01*
X145292862Y-87578286D01*
X145266594Y-87708000D01*
X145266594Y-87731370D01*
X144591612Y-87056388D01*
X144444973Y-86958406D01*
X144273070Y-86924213D01*
X144250605Y-86804821D01*
X144178988Y-86693526D01*
X144069714Y-86618862D01*
X143940000Y-86592594D01*
X143642000Y-86592594D01*
X143642000Y-86052406D01*
X143790000Y-86052406D01*
X143911179Y-86029605D01*
X144022474Y-85957988D01*
X144097138Y-85848714D01*
X144123406Y-85719000D01*
X144123406Y-84969000D01*
X144100605Y-84847821D01*
X144028988Y-84736526D01*
X143919714Y-84661862D01*
X143790000Y-84635594D01*
X142590000Y-84635594D01*
X142468821Y-84658395D01*
X142357526Y-84730012D01*
X142282862Y-84839286D01*
X142256594Y-84969000D01*
X142256594Y-85719000D01*
X142279395Y-85840179D01*
X142351012Y-85951474D01*
X142460286Y-86026138D01*
X142590000Y-86052406D01*
X142738000Y-86052406D01*
X142738000Y-86592970D01*
X142618821Y-86615395D01*
X142507526Y-86687012D01*
X142432862Y-86796286D01*
X142406594Y-86926000D01*
X142406594Y-87826000D01*
X142429395Y-87947179D01*
X142501012Y-88058474D01*
X142610286Y-88133138D01*
X142740000Y-88159406D01*
X142888000Y-88159406D01*
X142888000Y-88240472D01*
X142691310Y-88159000D01*
X142525750Y-88159000D01*
X142367000Y-88317750D01*
X142367000Y-89197000D01*
X142387000Y-89197000D01*
X142387000Y-89451000D01*
X142367000Y-89451000D01*
X142367000Y-89471000D01*
X142113000Y-89471000D01*
X142113000Y-89451000D01*
X142093000Y-89451000D01*
X142093000Y-89197000D01*
X142113000Y-89197000D01*
X142113000Y-88317750D01*
X141954250Y-88159000D01*
X141788690Y-88159000D01*
X141555301Y-88255673D01*
X141376673Y-88434302D01*
X141365782Y-88460594D01*
X140965000Y-88460594D01*
X140843821Y-88483395D01*
X140732526Y-88555012D01*
X140657862Y-88664286D01*
X140631594Y-88794000D01*
X140631594Y-88872000D01*
X138328649Y-88872000D01*
X138453235Y-88747631D01*
X138548891Y-88517265D01*
X138548990Y-88404234D01*
X139125224Y-87828000D01*
X140206970Y-87828000D01*
X140229395Y-87947179D01*
X140301012Y-88058474D01*
X140410286Y-88133138D01*
X140540000Y-88159406D01*
X141740000Y-88159406D01*
X141861179Y-88136605D01*
X141972474Y-88064988D01*
X142047138Y-87955714D01*
X142073406Y-87826000D01*
X142073406Y-86926000D01*
X142050605Y-86804821D01*
X141978988Y-86693526D01*
X141869714Y-86618862D01*
X141742000Y-86592999D01*
X141742000Y-86052406D01*
X141890000Y-86052406D01*
X142011179Y-86029605D01*
X142122474Y-85957988D01*
X142197138Y-85848714D01*
X142223406Y-85719000D01*
X142223406Y-84969000D01*
X142200605Y-84847821D01*
X142128988Y-84736526D01*
X142019714Y-84661862D01*
X141890000Y-84635594D01*
X140690000Y-84635594D01*
X140568821Y-84658395D01*
X140457526Y-84730012D01*
X140382862Y-84839286D01*
X140356594Y-84969000D01*
X140356594Y-85719000D01*
X140379395Y-85840179D01*
X140451012Y-85951474D01*
X140560286Y-86026138D01*
X140690000Y-86052406D01*
X140838000Y-86052406D01*
X140838000Y-86592594D01*
X140540000Y-86592594D01*
X140418821Y-86615395D01*
X140307526Y-86687012D01*
X140232862Y-86796286D01*
X140206999Y-86924000D01*
X138938000Y-86924000D01*
X138765027Y-86958406D01*
X138618388Y-87056388D01*
X137909787Y-87764989D01*
X137797829Y-87764891D01*
X137567297Y-87860145D01*
X137390765Y-88036369D01*
X137295109Y-88266735D01*
X137294891Y-88516171D01*
X137390145Y-88746703D01*
X137515223Y-88872000D01*
X137106030Y-88872000D01*
X137083605Y-88752821D01*
X137011988Y-88641526D01*
X136902714Y-88566862D01*
X136773000Y-88540594D01*
X136023000Y-88540594D01*
X135901821Y-88563395D01*
X135790526Y-88635012D01*
X135715862Y-88744286D01*
X135689594Y-88874000D01*
X135689594Y-89126000D01*
X135149406Y-89126000D01*
X135149406Y-88978000D01*
X135126605Y-88856821D01*
X135054988Y-88745526D01*
X134945714Y-88670862D01*
X134816000Y-88644594D01*
X133916000Y-88644594D01*
X133794821Y-88667395D01*
X133683526Y-88739012D01*
X133608862Y-88848286D01*
X133582594Y-88978000D01*
X133582594Y-89126000D01*
X133117406Y-89126000D01*
X133117406Y-88978000D01*
X133094605Y-88856821D01*
X133022988Y-88745526D01*
X132913714Y-88670862D01*
X132784000Y-88644594D01*
X131884000Y-88644594D01*
X131762821Y-88667395D01*
X131651526Y-88739012D01*
X131576862Y-88848286D01*
X131550594Y-88978000D01*
X131118189Y-88978000D01*
X131331203Y-88659203D01*
X136336201Y-85314970D01*
X142240000Y-84140631D01*
X148143799Y-85314970D01*
X148143799Y-85314970D01*
G37*
X148143799Y-85314970D02*
X153148797Y-88659203D01*
X156493030Y-93664201D01*
X157667369Y-99568000D01*
X156493030Y-105471799D01*
X153148797Y-110476797D01*
X148143799Y-113821030D01*
X142240000Y-114995369D01*
X136336201Y-113821030D01*
X134185160Y-112383750D01*
X135313000Y-112383750D01*
X135313000Y-112824309D01*
X135409673Y-113057698D01*
X135588301Y-113236327D01*
X135821690Y-113333000D01*
X136112250Y-113333000D01*
X136271000Y-113174250D01*
X136271000Y-112225000D01*
X136525000Y-112225000D01*
X136525000Y-113174250D01*
X136683750Y-113333000D01*
X136974310Y-113333000D01*
X137207699Y-113236327D01*
X137386327Y-113057698D01*
X137483000Y-112824309D01*
X137483000Y-112383750D01*
X137324250Y-112225000D01*
X136525000Y-112225000D01*
X136271000Y-112225000D01*
X135471750Y-112225000D01*
X135313000Y-112383750D01*
X134185160Y-112383750D01*
X131331203Y-110476797D01*
X127986970Y-105471799D01*
X127191947Y-101474944D01*
X128442025Y-101474944D01*
X128641615Y-101956818D01*
X129079621Y-102429188D01*
X129665054Y-102697983D01*
X129921000Y-102579367D01*
X129921000Y-101219000D01*
X128561164Y-101219000D01*
X128442025Y-101474944D01*
X127191947Y-101474944D01*
X127039602Y-100709056D01*
X128442025Y-100709056D01*
X128561164Y-100965000D01*
X129921000Y-100965000D01*
X129921000Y-100945000D01*
X130175000Y-100945000D01*
X130175000Y-100965000D01*
X130195000Y-100965000D01*
X130195000Y-101219000D01*
X130175000Y-101219000D01*
X130175000Y-102579367D01*
X130430946Y-102697983D01*
X131016379Y-102429188D01*
X131374000Y-102043510D01*
X131374000Y-103124000D01*
X131408406Y-103296973D01*
X131506388Y-103443612D01*
X131882000Y-103819225D01*
X131882000Y-107696000D01*
X131916406Y-107868973D01*
X132014388Y-108015612D01*
X135316388Y-111317612D01*
X135331279Y-111327562D01*
X135313000Y-111371691D01*
X135313000Y-111812250D01*
X135471750Y-111971000D01*
X136271000Y-111971000D01*
X136271000Y-111951000D01*
X136525000Y-111951000D01*
X136525000Y-111971000D01*
X137324250Y-111971000D01*
X137483000Y-111812250D01*
X137483000Y-111450000D01*
X137910314Y-111450000D01*
X137900594Y-111498000D01*
X137900594Y-112698000D01*
X137923395Y-112819179D01*
X137995012Y-112930474D01*
X138104286Y-113005138D01*
X138234000Y-113031406D01*
X139134000Y-113031406D01*
X139255179Y-113008605D01*
X139366474Y-112936988D01*
X139441138Y-112827714D01*
X139467406Y-112698000D01*
X139467406Y-112299750D01*
X140055000Y-112299750D01*
X140055000Y-112515310D01*
X140151673Y-112748699D01*
X140330302Y-112927327D01*
X140563691Y-113024000D01*
X141004250Y-113024000D01*
X141163000Y-112865250D01*
X141163000Y-112141000D01*
X140213750Y-112141000D01*
X140055000Y-112299750D01*
X139467406Y-112299750D01*
X139467406Y-111512690D01*
X140055000Y-111512690D01*
X140055000Y-111728250D01*
X140213750Y-111887000D01*
X141163000Y-111887000D01*
X141163000Y-111162750D01*
X141417000Y-111162750D01*
X141417000Y-111887000D01*
X141437000Y-111887000D01*
X141437000Y-112141000D01*
X141417000Y-112141000D01*
X141417000Y-112865250D01*
X141575750Y-113024000D01*
X142016309Y-113024000D01*
X142249698Y-112927327D01*
X142428327Y-112748699D01*
X142452346Y-112690713D01*
X142460286Y-112696138D01*
X142590000Y-112722406D01*
X143790000Y-112722406D01*
X143911179Y-112699605D01*
X144022474Y-112627988D01*
X144097138Y-112518714D01*
X144123406Y-112389000D01*
X144123406Y-111639000D01*
X144100605Y-111517821D01*
X144028988Y-111406526D01*
X143919714Y-111331862D01*
X143790000Y-111305594D01*
X143642000Y-111305594D01*
X143642000Y-110902859D01*
X143747474Y-110834988D01*
X143822138Y-110725714D01*
X143848406Y-110596000D01*
X143848406Y-110518000D01*
X144188000Y-110518000D01*
X144360973Y-110483594D01*
X144507612Y-110385612D01*
X144792213Y-110101011D01*
X144904171Y-110101109D01*
X145134703Y-110005855D01*
X145311235Y-109829631D01*
X145406891Y-109599265D01*
X145407109Y-109349829D01*
X145311855Y-109119297D01*
X145135631Y-108942765D01*
X144905265Y-108847109D01*
X144655829Y-108846891D01*
X144425297Y-108942145D01*
X144248765Y-109118369D01*
X144153109Y-109348735D01*
X144153010Y-109461765D01*
X144000776Y-109614000D01*
X143848406Y-109614000D01*
X143848406Y-109536000D01*
X143825605Y-109414821D01*
X143753988Y-109303526D01*
X143644714Y-109228862D01*
X143515000Y-109202594D01*
X142865000Y-109202594D01*
X142743821Y-109225395D01*
X142632526Y-109297012D01*
X142557862Y-109406286D01*
X142531594Y-109536000D01*
X142531594Y-110596000D01*
X142554395Y-110717179D01*
X142626012Y-110828474D01*
X142735286Y-110903138D01*
X142738000Y-110903688D01*
X142738000Y-111305594D01*
X142590000Y-111305594D01*
X142468821Y-111328395D01*
X142452905Y-111338637D01*
X142428327Y-111279301D01*
X142249698Y-111100673D01*
X142016309Y-111004000D01*
X141575750Y-111004000D01*
X141417000Y-111162750D01*
X141163000Y-111162750D01*
X141004250Y-111004000D01*
X140563691Y-111004000D01*
X140330302Y-111100673D01*
X140151673Y-111279301D01*
X140055000Y-111512690D01*
X139467406Y-111512690D01*
X139467406Y-111498000D01*
X139444605Y-111376821D01*
X139372988Y-111265526D01*
X139263714Y-111190862D01*
X139134000Y-111164594D01*
X139118614Y-111164594D01*
X139101594Y-111079027D01*
X139003612Y-110932388D01*
X138902630Y-110831406D01*
X139134000Y-110831406D01*
X139255179Y-110808605D01*
X139366474Y-110736988D01*
X139441138Y-110627714D01*
X139467406Y-110498000D01*
X139467406Y-110350000D01*
X140631594Y-110350000D01*
X140631594Y-110596000D01*
X140654395Y-110717179D01*
X140726012Y-110828474D01*
X140835286Y-110903138D01*
X140965000Y-110929406D01*
X141615000Y-110929406D01*
X141736179Y-110906605D01*
X141847474Y-110834988D01*
X141922138Y-110725714D01*
X141948406Y-110596000D01*
X141948406Y-109536000D01*
X141925605Y-109414821D01*
X141853988Y-109303526D01*
X141744714Y-109228862D01*
X141615000Y-109202594D01*
X140965000Y-109202594D01*
X140843821Y-109225395D01*
X140732526Y-109297012D01*
X140657862Y-109406286D01*
X140649820Y-109446000D01*
X139467406Y-109446000D01*
X139467406Y-109298000D01*
X139444605Y-109176821D01*
X139372988Y-109065526D01*
X139263714Y-108990862D01*
X139134000Y-108964594D01*
X138234000Y-108964594D01*
X138112821Y-108987395D01*
X138001526Y-109059012D01*
X137926862Y-109168286D01*
X137900594Y-109298000D01*
X137900594Y-109446000D01*
X137181406Y-109446000D01*
X137181406Y-109298000D01*
X137158605Y-109176821D01*
X137086988Y-109065526D01*
X136977714Y-108990862D01*
X136916000Y-108978364D01*
X136916000Y-108658406D01*
X137064000Y-108658406D01*
X137185179Y-108635605D01*
X137201095Y-108625363D01*
X137225673Y-108684699D01*
X137404302Y-108863327D01*
X137637691Y-108960000D01*
X138078250Y-108960000D01*
X138237000Y-108801250D01*
X138237000Y-108077000D01*
X138491000Y-108077000D01*
X138491000Y-108801250D01*
X138649750Y-108960000D01*
X139090309Y-108960000D01*
X139323698Y-108863327D01*
X139502327Y-108684699D01*
X139599000Y-108451310D01*
X139599000Y-108235750D01*
X139440250Y-108077000D01*
X138491000Y-108077000D01*
X138237000Y-108077000D01*
X138217000Y-108077000D01*
X138217000Y-107823000D01*
X138237000Y-107823000D01*
X138237000Y-107098750D01*
X138491000Y-107098750D01*
X138491000Y-107823000D01*
X139440250Y-107823000D01*
X139599000Y-107664250D01*
X139599000Y-107448690D01*
X139502327Y-107215301D01*
X139323698Y-107036673D01*
X139090309Y-106940000D01*
X138649750Y-106940000D01*
X138491000Y-107098750D01*
X138237000Y-107098750D01*
X138078250Y-106940000D01*
X137637691Y-106940000D01*
X137404302Y-107036673D01*
X137225673Y-107215301D01*
X137201654Y-107273287D01*
X137193714Y-107267862D01*
X137064000Y-107241594D01*
X135864000Y-107241594D01*
X135742821Y-107264395D01*
X135631526Y-107336012D01*
X135556862Y-107445286D01*
X135530594Y-107575000D01*
X135530594Y-108325000D01*
X135553395Y-108446179D01*
X135625012Y-108557474D01*
X135734286Y-108632138D01*
X135864000Y-108658406D01*
X136012000Y-108658406D01*
X136012000Y-108964594D01*
X135948000Y-108964594D01*
X135826821Y-108987395D01*
X135715526Y-109059012D01*
X135640862Y-109168286D01*
X135614594Y-109298000D01*
X135614594Y-110337370D01*
X132786000Y-107508776D01*
X132786000Y-105148000D01*
X133074594Y-105148000D01*
X133074594Y-106348000D01*
X133097395Y-106469179D01*
X133169012Y-106580474D01*
X133278286Y-106655138D01*
X133406000Y-106681001D01*
X133406000Y-106934000D01*
X133440406Y-107106973D01*
X133538388Y-107253612D01*
X134246989Y-107962213D01*
X134246891Y-108074171D01*
X134342145Y-108304703D01*
X134518369Y-108481235D01*
X134748735Y-108576891D01*
X134998171Y-108577109D01*
X135228703Y-108481855D01*
X135405235Y-108305631D01*
X135500891Y-108075265D01*
X135501109Y-107825829D01*
X135405855Y-107595297D01*
X135229631Y-107418765D01*
X134999265Y-107323109D01*
X134886234Y-107323010D01*
X134310000Y-106746776D01*
X134310000Y-106681030D01*
X134429179Y-106658605D01*
X134540474Y-106586988D01*
X134615138Y-106477714D01*
X134641406Y-106348000D01*
X134641406Y-105148000D01*
X134618605Y-105026821D01*
X134546988Y-104915526D01*
X134437714Y-104840862D01*
X134308000Y-104814594D01*
X133408000Y-104814594D01*
X133286821Y-104837395D01*
X133175526Y-104909012D01*
X133100862Y-105018286D01*
X133074594Y-105148000D01*
X132786000Y-105148000D01*
X132786000Y-104000000D01*
X133074594Y-104000000D01*
X133074594Y-104148000D01*
X133097395Y-104269179D01*
X133169012Y-104380474D01*
X133278286Y-104455138D01*
X133408000Y-104481406D01*
X134308000Y-104481406D01*
X134429179Y-104458605D01*
X134540474Y-104386988D01*
X134615138Y-104277714D01*
X134619622Y-104255570D01*
X139955270Y-104255570D01*
X139955270Y-106346569D01*
X140051943Y-106579958D01*
X140230571Y-106758587D01*
X140463960Y-106855260D01*
X140840534Y-106855260D01*
X140838000Y-106868000D01*
X140838000Y-107029141D01*
X140732526Y-107097012D01*
X140657862Y-107206286D01*
X140631594Y-107336000D01*
X140631594Y-108396000D01*
X140654395Y-108517179D01*
X140726012Y-108628474D01*
X140835286Y-108703138D01*
X140965000Y-108729406D01*
X141365782Y-108729406D01*
X141376673Y-108755698D01*
X141555301Y-108934327D01*
X141788690Y-109031000D01*
X141954250Y-109031000D01*
X142113000Y-108872250D01*
X142113000Y-107993000D01*
X142093000Y-107993000D01*
X142093000Y-107739000D01*
X142113000Y-107739000D01*
X142113000Y-107719000D01*
X142367000Y-107719000D01*
X142367000Y-107739000D01*
X142387000Y-107739000D01*
X142387000Y-107993000D01*
X142367000Y-107993000D01*
X142367000Y-108872250D01*
X142525750Y-109031000D01*
X142691310Y-109031000D01*
X142924699Y-108934327D01*
X143103327Y-108755698D01*
X143114218Y-108729406D01*
X143515000Y-108729406D01*
X143636179Y-108706605D01*
X143747474Y-108634988D01*
X143822138Y-108525714D01*
X143847191Y-108402000D01*
X148080970Y-108402000D01*
X148103395Y-108521179D01*
X148175012Y-108632474D01*
X148284286Y-108707138D01*
X148414000Y-108733406D01*
X149614000Y-108733406D01*
X149735179Y-108710605D01*
X149846474Y-108638988D01*
X149921138Y-108529714D01*
X149947406Y-108400000D01*
X149947406Y-107500000D01*
X150280594Y-107500000D01*
X150280594Y-108400000D01*
X150303395Y-108521179D01*
X150375012Y-108632474D01*
X150484286Y-108707138D01*
X150614000Y-108733406D01*
X151814000Y-108733406D01*
X151935179Y-108710605D01*
X152046474Y-108638988D01*
X152121138Y-108529714D01*
X152147001Y-108402000D01*
X152654000Y-108402000D01*
X152826973Y-108367594D01*
X152973612Y-108269612D01*
X154444213Y-106799011D01*
X154556171Y-106799109D01*
X154786703Y-106703855D01*
X154963235Y-106527631D01*
X155058891Y-106297265D01*
X155059109Y-106047829D01*
X154963855Y-105817297D01*
X154787631Y-105640765D01*
X154557265Y-105545109D01*
X154307829Y-105544891D01*
X154077297Y-105640145D01*
X153900765Y-105816369D01*
X153805109Y-106046735D01*
X153805010Y-106159766D01*
X152466776Y-107498000D01*
X152147030Y-107498000D01*
X152124605Y-107378821D01*
X152052988Y-107267526D01*
X151943714Y-107192862D01*
X151814000Y-107166594D01*
X150614000Y-107166594D01*
X150492821Y-107189395D01*
X150381526Y-107261012D01*
X150306862Y-107370286D01*
X150280594Y-107500000D01*
X149947406Y-107500000D01*
X149924605Y-107378821D01*
X149852988Y-107267526D01*
X149743714Y-107192862D01*
X149614000Y-107166594D01*
X148414000Y-107166594D01*
X148292821Y-107189395D01*
X148181526Y-107261012D01*
X148106862Y-107370286D01*
X148080999Y-107498000D01*
X143848406Y-107498000D01*
X143848406Y-107336000D01*
X143825605Y-107214821D01*
X143772311Y-107132000D01*
X144272000Y-107132000D01*
X144444973Y-107097594D01*
X144591612Y-106999612D01*
X146999225Y-104592000D01*
X148080970Y-104592000D01*
X148103395Y-104711179D01*
X148175012Y-104822474D01*
X148284286Y-104897138D01*
X148414000Y-104923406D01*
X149614000Y-104923406D01*
X149735179Y-104900605D01*
X149846474Y-104828988D01*
X149921138Y-104719714D01*
X149947406Y-104590000D01*
X149947406Y-104425750D01*
X149979000Y-104425750D01*
X149979000Y-104716310D01*
X150075673Y-104949699D01*
X150254302Y-105128327D01*
X150487691Y-105225000D01*
X150928250Y-105225000D01*
X151087000Y-105066250D01*
X151087000Y-104267000D01*
X151341000Y-104267000D01*
X151341000Y-105066250D01*
X151499750Y-105225000D01*
X151940309Y-105225000D01*
X152173698Y-105128327D01*
X152352327Y-104949699D01*
X152449000Y-104716310D01*
X152449000Y-104425750D01*
X152290250Y-104267000D01*
X151341000Y-104267000D01*
X151087000Y-104267000D01*
X150137750Y-104267000D01*
X149979000Y-104425750D01*
X149947406Y-104425750D01*
X149947406Y-103690000D01*
X149924605Y-103568821D01*
X149921304Y-103563690D01*
X149979000Y-103563690D01*
X149979000Y-103854250D01*
X150137750Y-104013000D01*
X151087000Y-104013000D01*
X151087000Y-103213750D01*
X151341000Y-103213750D01*
X151341000Y-104013000D01*
X152290250Y-104013000D01*
X152449000Y-103854250D01*
X152449000Y-103563690D01*
X152352327Y-103330301D01*
X152173698Y-103151673D01*
X151940309Y-103055000D01*
X151499750Y-103055000D01*
X151341000Y-103213750D01*
X151087000Y-103213750D01*
X150928250Y-103055000D01*
X150487691Y-103055000D01*
X150254302Y-103151673D01*
X150075673Y-103330301D01*
X149979000Y-103563690D01*
X149921304Y-103563690D01*
X149852988Y-103457526D01*
X149743714Y-103382862D01*
X149614000Y-103356594D01*
X149550000Y-103356594D01*
X149550000Y-101474944D01*
X152826025Y-101474944D01*
X153025615Y-101956818D01*
X153463621Y-102429188D01*
X154049054Y-102697983D01*
X154305000Y-102579367D01*
X154305000Y-101219000D01*
X154559000Y-101219000D01*
X154559000Y-102579367D01*
X154814946Y-102697983D01*
X155400379Y-102429188D01*
X155838385Y-101956818D01*
X156037975Y-101474944D01*
X155918836Y-101219000D01*
X154559000Y-101219000D01*
X154305000Y-101219000D01*
X152945164Y-101219000D01*
X152826025Y-101474944D01*
X149550000Y-101474944D01*
X149550000Y-101182918D01*
X149594179Y-101174605D01*
X149705474Y-101102988D01*
X149780138Y-100993714D01*
X149806406Y-100864000D01*
X149806406Y-100709056D01*
X152826025Y-100709056D01*
X152945164Y-100965000D01*
X154305000Y-100965000D01*
X154305000Y-100945000D01*
X154559000Y-100945000D01*
X154559000Y-100965000D01*
X155918836Y-100965000D01*
X156037975Y-100709056D01*
X155838385Y-100227182D01*
X155523190Y-99887258D01*
X155569179Y-99878605D01*
X155680474Y-99806988D01*
X155755138Y-99697714D01*
X155781406Y-99568000D01*
X155781406Y-97536000D01*
X155758605Y-97414821D01*
X155686988Y-97303526D01*
X155577714Y-97228862D01*
X155448000Y-97202594D01*
X153416000Y-97202594D01*
X153294821Y-97225395D01*
X153183526Y-97297012D01*
X153108862Y-97406286D01*
X153082594Y-97536000D01*
X153082594Y-99568000D01*
X153105395Y-99689179D01*
X153177012Y-99800474D01*
X153286286Y-99875138D01*
X153341652Y-99886350D01*
X153025615Y-100227182D01*
X152826025Y-100709056D01*
X149806406Y-100709056D01*
X149806406Y-99664000D01*
X149783605Y-99542821D01*
X149711988Y-99431526D01*
X149602714Y-99356862D01*
X149473000Y-99330594D01*
X148723000Y-99330594D01*
X148601821Y-99353395D01*
X148490526Y-99425012D01*
X148415862Y-99534286D01*
X148389594Y-99664000D01*
X148389594Y-100864000D01*
X148412395Y-100985179D01*
X148484012Y-101096474D01*
X148593286Y-101171138D01*
X148646000Y-101181813D01*
X148646000Y-103356594D01*
X148414000Y-103356594D01*
X148292821Y-103379395D01*
X148181526Y-103451012D01*
X148106862Y-103560286D01*
X148080999Y-103688000D01*
X146812000Y-103688000D01*
X146646231Y-103720973D01*
X146639027Y-103722406D01*
X146492387Y-103820388D01*
X144524730Y-105788046D01*
X144524730Y-104255570D01*
X144365980Y-104096820D01*
X142367000Y-104096820D01*
X142367000Y-104116820D01*
X142113000Y-104116820D01*
X142113000Y-104096820D01*
X140114020Y-104096820D01*
X139955270Y-104255570D01*
X134619622Y-104255570D01*
X134641406Y-104148000D01*
X134641406Y-102948000D01*
X134618605Y-102826821D01*
X134546988Y-102715526D01*
X134437714Y-102640862D01*
X134308000Y-102614594D01*
X133408000Y-102614594D01*
X133286821Y-102637395D01*
X133175526Y-102709012D01*
X133100862Y-102818286D01*
X133074594Y-102948000D01*
X133074594Y-103096000D01*
X132437225Y-103096000D01*
X132278000Y-102936776D01*
X132278000Y-101827026D01*
X132361301Y-101910327D01*
X132594690Y-102007000D01*
X132810250Y-102007000D01*
X132969000Y-101848250D01*
X132969000Y-100899000D01*
X133223000Y-100899000D01*
X133223000Y-101848250D01*
X133381750Y-102007000D01*
X133597310Y-102007000D01*
X133830699Y-101910327D01*
X134009327Y-101731698D01*
X134066748Y-101593071D01*
X139955270Y-101593071D01*
X139955270Y-103684070D01*
X140114020Y-103842820D01*
X142113000Y-103842820D01*
X142113000Y-101243130D01*
X142367000Y-101243130D01*
X142367000Y-103842820D01*
X144365980Y-103842820D01*
X144524730Y-103684070D01*
X144524730Y-101593071D01*
X144428057Y-101359682D01*
X144249429Y-101181053D01*
X144016040Y-101084380D01*
X142525750Y-101084380D01*
X142367000Y-101243130D01*
X142113000Y-101243130D01*
X141954250Y-101084380D01*
X140463960Y-101084380D01*
X140230571Y-101181053D01*
X140051943Y-101359682D01*
X139955270Y-101593071D01*
X134066748Y-101593071D01*
X134106000Y-101498309D01*
X134106000Y-101057750D01*
X133947250Y-100899000D01*
X133223000Y-100899000D01*
X132969000Y-100899000D01*
X132949000Y-100899000D01*
X132949000Y-100645000D01*
X132969000Y-100645000D01*
X132969000Y-100625000D01*
X133223000Y-100625000D01*
X133223000Y-100645000D01*
X133947250Y-100645000D01*
X134106000Y-100486250D01*
X134106000Y-100045691D01*
X134009327Y-99812302D01*
X133830699Y-99633673D01*
X133772713Y-99609654D01*
X133778138Y-99601714D01*
X133804406Y-99472000D01*
X133804406Y-99258000D01*
X134618970Y-99258000D01*
X134641395Y-99377179D01*
X134713012Y-99488474D01*
X134822286Y-99563138D01*
X134952000Y-99589406D01*
X136152000Y-99589406D01*
X136273179Y-99566605D01*
X136384474Y-99494988D01*
X136459138Y-99385714D01*
X136485406Y-99256000D01*
X136485406Y-98356000D01*
X136462605Y-98234821D01*
X136390988Y-98123526D01*
X136281714Y-98048862D01*
X136152000Y-98022594D01*
X134952000Y-98022594D01*
X134830821Y-98045395D01*
X134719526Y-98117012D01*
X134644862Y-98226286D01*
X134618999Y-98354000D01*
X133804406Y-98354000D01*
X133804406Y-98272000D01*
X133781605Y-98150821D01*
X133709988Y-98039526D01*
X133600714Y-97964862D01*
X133548000Y-97954187D01*
X133548000Y-97469224D01*
X134685612Y-96331612D01*
X134783594Y-96184973D01*
X134818000Y-96012000D01*
X134818000Y-92711030D01*
X134937179Y-92688605D01*
X135048474Y-92616988D01*
X135123138Y-92507714D01*
X135149406Y-92378000D01*
X135149406Y-91659750D01*
X135388000Y-91659750D01*
X135388000Y-92100309D01*
X135484673Y-92333698D01*
X135663301Y-92512327D01*
X135896690Y-92609000D01*
X136112250Y-92609000D01*
X136271000Y-92450250D01*
X136271000Y-91501000D01*
X136525000Y-91501000D01*
X136525000Y-92450250D01*
X136683750Y-92609000D01*
X136899310Y-92609000D01*
X137132699Y-92512327D01*
X137311327Y-92333698D01*
X137408000Y-92100309D01*
X137408000Y-91659750D01*
X137249250Y-91501000D01*
X136525000Y-91501000D01*
X136271000Y-91501000D01*
X135546750Y-91501000D01*
X135388000Y-91659750D01*
X135149406Y-91659750D01*
X135149406Y-91178000D01*
X135126605Y-91056821D01*
X135054988Y-90945526D01*
X134945714Y-90870862D01*
X134816000Y-90844594D01*
X133916000Y-90844594D01*
X133794821Y-90867395D01*
X133683526Y-90939012D01*
X133608862Y-91048286D01*
X133582594Y-91178000D01*
X133582594Y-92378000D01*
X133605395Y-92499179D01*
X133677012Y-92610474D01*
X133786286Y-92685138D01*
X133914000Y-92711001D01*
X133914000Y-95824776D01*
X132776388Y-96962388D01*
X132678406Y-97109027D01*
X132644000Y-97282000D01*
X132644000Y-97953082D01*
X132599821Y-97961395D01*
X132488526Y-98033012D01*
X132442755Y-98100000D01*
X131397406Y-98100000D01*
X131397406Y-97536000D01*
X131374605Y-97414821D01*
X131302988Y-97303526D01*
X131193714Y-97228862D01*
X131064000Y-97202594D01*
X129032000Y-97202594D01*
X128910821Y-97225395D01*
X128799526Y-97297012D01*
X128724862Y-97406286D01*
X128698594Y-97536000D01*
X128698594Y-99568000D01*
X128721395Y-99689179D01*
X128793012Y-99800474D01*
X128902286Y-99875138D01*
X128957652Y-99886350D01*
X128641615Y-100227182D01*
X128442025Y-100709056D01*
X127039602Y-100709056D01*
X126812631Y-99568000D01*
X127986970Y-93664201D01*
X129056357Y-92063750D01*
X131249000Y-92063750D01*
X131249000Y-92504309D01*
X131345673Y-92737698D01*
X131524301Y-92916327D01*
X131757690Y-93013000D01*
X132048250Y-93013000D01*
X132207000Y-92854250D01*
X132207000Y-91905000D01*
X132461000Y-91905000D01*
X132461000Y-92854250D01*
X132619750Y-93013000D01*
X132910310Y-93013000D01*
X133143699Y-92916327D01*
X133322327Y-92737698D01*
X133419000Y-92504309D01*
X133419000Y-92063750D01*
X133260250Y-91905000D01*
X132461000Y-91905000D01*
X132207000Y-91905000D01*
X131407750Y-91905000D01*
X131249000Y-92063750D01*
X129056357Y-92063750D01*
X129732593Y-91051691D01*
X131249000Y-91051691D01*
X131249000Y-91492250D01*
X131407750Y-91651000D01*
X132207000Y-91651000D01*
X132207000Y-90701750D01*
X132461000Y-90701750D01*
X132461000Y-91651000D01*
X133260250Y-91651000D01*
X133419000Y-91492250D01*
X133419000Y-91051691D01*
X133322327Y-90818302D01*
X133143699Y-90639673D01*
X132910310Y-90543000D01*
X132619750Y-90543000D01*
X132461000Y-90701750D01*
X132207000Y-90701750D01*
X132048250Y-90543000D01*
X131757690Y-90543000D01*
X131524301Y-90639673D01*
X131345673Y-90818302D01*
X131249000Y-91051691D01*
X129732593Y-91051691D01*
X131118189Y-88978000D01*
X131550594Y-88978000D01*
X131550594Y-90178000D01*
X131573395Y-90299179D01*
X131645012Y-90410474D01*
X131754286Y-90485138D01*
X131884000Y-90511406D01*
X132784000Y-90511406D01*
X132905179Y-90488605D01*
X133016474Y-90416988D01*
X133091138Y-90307714D01*
X133117406Y-90178000D01*
X133117406Y-90030000D01*
X133582594Y-90030000D01*
X133582594Y-90178000D01*
X133605395Y-90299179D01*
X133677012Y-90410474D01*
X133786286Y-90485138D01*
X133916000Y-90511406D01*
X134816000Y-90511406D01*
X134937179Y-90488605D01*
X135048474Y-90416988D01*
X135123138Y-90307714D01*
X135149406Y-90178000D01*
X135149406Y-90030000D01*
X135689594Y-90030000D01*
X135689594Y-90074000D01*
X135712395Y-90195179D01*
X135722637Y-90211095D01*
X135663301Y-90235673D01*
X135484673Y-90414302D01*
X135388000Y-90647691D01*
X135388000Y-91088250D01*
X135546750Y-91247000D01*
X136271000Y-91247000D01*
X136271000Y-91227000D01*
X136525000Y-91227000D01*
X136525000Y-91247000D01*
X137249250Y-91247000D01*
X137408000Y-91088250D01*
X137408000Y-90647691D01*
X137311327Y-90414302D01*
X137132699Y-90235673D01*
X137074713Y-90211654D01*
X137080138Y-90203714D01*
X137106406Y-90074000D01*
X137106406Y-89776000D01*
X140631594Y-89776000D01*
X140631594Y-89854000D01*
X140653797Y-89972000D01*
X139446000Y-89972000D01*
X139301724Y-90000698D01*
X139273026Y-90006406D01*
X139126387Y-90104388D01*
X138618388Y-90612388D01*
X138520406Y-90759027D01*
X138486000Y-90932000D01*
X138486000Y-91603082D01*
X138441821Y-91611395D01*
X138330526Y-91683012D01*
X138255862Y-91792286D01*
X138229594Y-91922000D01*
X138229594Y-92070000D01*
X138110000Y-92070000D01*
X137937027Y-92104406D01*
X137790387Y-92202388D01*
X137432388Y-92560388D01*
X137334406Y-92707027D01*
X137300000Y-92880000D01*
X137300000Y-98022594D01*
X137152000Y-98022594D01*
X137030821Y-98045395D01*
X136919526Y-98117012D01*
X136844862Y-98226286D01*
X136818594Y-98356000D01*
X136818594Y-99256000D01*
X136841395Y-99377179D01*
X136913012Y-99488474D01*
X137022286Y-99563138D01*
X137152000Y-99589406D01*
X138352000Y-99589406D01*
X138473179Y-99566605D01*
X138584474Y-99494988D01*
X138659138Y-99385714D01*
X138685406Y-99256000D01*
X138685406Y-98356000D01*
X138662605Y-98234821D01*
X138590988Y-98123526D01*
X138481714Y-98048862D01*
X138352000Y-98022594D01*
X138204000Y-98022594D01*
X138204000Y-95560617D01*
X138436690Y-95657000D01*
X138652250Y-95657000D01*
X138811000Y-95498250D01*
X138811000Y-94549000D01*
X139065000Y-94549000D01*
X139065000Y-95498250D01*
X139223750Y-95657000D01*
X139439310Y-95657000D01*
X139672699Y-95560327D01*
X139851327Y-95381698D01*
X139948000Y-95148309D01*
X139948000Y-94707750D01*
X139789250Y-94549000D01*
X139065000Y-94549000D01*
X138811000Y-94549000D01*
X138791000Y-94549000D01*
X138791000Y-94295000D01*
X138811000Y-94295000D01*
X138811000Y-94275000D01*
X139065000Y-94275000D01*
X139065000Y-94295000D01*
X139789250Y-94295000D01*
X139948000Y-94136250D01*
X139948000Y-93695691D01*
X139851327Y-93462302D01*
X139672699Y-93283673D01*
X139614713Y-93259654D01*
X139620138Y-93251714D01*
X139646406Y-93122000D01*
X139646406Y-91922000D01*
X139623605Y-91800821D01*
X139551988Y-91689526D01*
X139442714Y-91614862D01*
X139390000Y-91604187D01*
X139390000Y-91119224D01*
X139633225Y-90876000D01*
X140655490Y-90876000D01*
X140631594Y-90994000D01*
X140631594Y-92054000D01*
X140654395Y-92175179D01*
X140726012Y-92286474D01*
X140835286Y-92361138D01*
X140838000Y-92361688D01*
X140838000Y-92582334D01*
X140590270Y-92582334D01*
X140469091Y-92605135D01*
X140357796Y-92676752D01*
X140283132Y-92786026D01*
X140256864Y-92915740D01*
X140256864Y-97416620D01*
X140279665Y-97537799D01*
X140351282Y-97649094D01*
X140460556Y-97723758D01*
X140590270Y-97750026D01*
X143889730Y-97750026D01*
X144010909Y-97727225D01*
X144122204Y-97655608D01*
X144196868Y-97546334D01*
X144223136Y-97416620D01*
X144223136Y-94874000D01*
X144579559Y-94874000D01*
X144592585Y-94943229D01*
X144664202Y-95054524D01*
X144773476Y-95129188D01*
X144903190Y-95155456D01*
X145703290Y-95155456D01*
X145824469Y-95132655D01*
X145935764Y-95061038D01*
X146010428Y-94951764D01*
X146036696Y-94822050D01*
X146036696Y-94021950D01*
X146013895Y-93900771D01*
X145942278Y-93789476D01*
X145833004Y-93714812D01*
X145755240Y-93699064D01*
X145755240Y-93245681D01*
X145824469Y-93232655D01*
X145935764Y-93161038D01*
X146010428Y-93051764D01*
X146036696Y-92922050D01*
X146036696Y-92121950D01*
X146023710Y-92052934D01*
X146751255Y-92780480D01*
X146669696Y-92832962D01*
X146595032Y-92942236D01*
X146568764Y-93071950D01*
X146568764Y-93872050D01*
X146591565Y-93993229D01*
X146663182Y-94104524D01*
X146772456Y-94179188D01*
X146902170Y-94205456D01*
X147702270Y-94205456D01*
X147823449Y-94182655D01*
X147934744Y-94111038D01*
X148009408Y-94001764D01*
X148035676Y-93872050D01*
X148035676Y-93071950D01*
X148012875Y-92950771D01*
X147941258Y-92839476D01*
X147831984Y-92764812D01*
X147754220Y-92749064D01*
X147754220Y-92692220D01*
X147719814Y-92519247D01*
X147681834Y-92462406D01*
X147621833Y-92372608D01*
X146649564Y-91400340D01*
X146732474Y-91346988D01*
X146807138Y-91237714D01*
X146833406Y-91108000D01*
X146833406Y-89908000D01*
X146810605Y-89786821D01*
X146738988Y-89675526D01*
X146629714Y-89600862D01*
X146500000Y-89574594D01*
X145600000Y-89574594D01*
X145478821Y-89597395D01*
X145367526Y-89669012D01*
X145292862Y-89778286D01*
X145266594Y-89908000D01*
X145266594Y-91108000D01*
X145289395Y-91229179D01*
X145361012Y-91340474D01*
X145470286Y-91415138D01*
X145598207Y-91441043D01*
X145632406Y-91612973D01*
X145730388Y-91759612D01*
X145773548Y-91802772D01*
X145703290Y-91788544D01*
X144903190Y-91788544D01*
X144782011Y-91811345D01*
X144670716Y-91882962D01*
X144596052Y-91992236D01*
X144569784Y-92121950D01*
X144569784Y-92922050D01*
X144592585Y-93043229D01*
X144664202Y-93154524D01*
X144773476Y-93229188D01*
X144851240Y-93244936D01*
X144851240Y-93698319D01*
X144782011Y-93711345D01*
X144670716Y-93782962D01*
X144596052Y-93892236D01*
X144580304Y-93970000D01*
X144223136Y-93970000D01*
X144223136Y-92915740D01*
X144200335Y-92794561D01*
X144128718Y-92683266D01*
X144019444Y-92608602D01*
X143889730Y-92582334D01*
X141742000Y-92582334D01*
X141742000Y-92360859D01*
X141847474Y-92292988D01*
X141922138Y-92183714D01*
X141948406Y-92054000D01*
X141948406Y-90994000D01*
X141926203Y-90876000D01*
X142555490Y-90876000D01*
X142531594Y-90994000D01*
X142531594Y-92054000D01*
X142554395Y-92175179D01*
X142626012Y-92286474D01*
X142735286Y-92361138D01*
X142865000Y-92387406D01*
X143515000Y-92387406D01*
X143636179Y-92364605D01*
X143747474Y-92292988D01*
X143822138Y-92183714D01*
X143848406Y-92054000D01*
X143848406Y-90994000D01*
X143825605Y-90872821D01*
X143753988Y-90761526D01*
X143644714Y-90686862D01*
X143597021Y-90677204D01*
X143571944Y-90639673D01*
X143509612Y-90546387D01*
X143150630Y-90187406D01*
X143515000Y-90187406D01*
X143636179Y-90164605D01*
X143747474Y-90092988D01*
X143822138Y-89983714D01*
X143848406Y-89854000D01*
X143848406Y-88794000D01*
X143825605Y-88672821D01*
X143792000Y-88620598D01*
X143792000Y-88159406D01*
X143940000Y-88159406D01*
X144061179Y-88136605D01*
X144172474Y-88064988D01*
X144233074Y-87976298D01*
X144968388Y-88711612D01*
X145115027Y-88809594D01*
X145266594Y-88839742D01*
X145266594Y-88908000D01*
X145289395Y-89029179D01*
X145361012Y-89140474D01*
X145470286Y-89215138D01*
X145600000Y-89241406D01*
X146500000Y-89241406D01*
X146621179Y-89218605D01*
X146732474Y-89146988D01*
X146807138Y-89037714D01*
X146833406Y-88908000D01*
X146833406Y-88760000D01*
X147556776Y-88760000D01*
X148646000Y-89849224D01*
X148646000Y-97445082D01*
X148601821Y-97453395D01*
X148490526Y-97525012D01*
X148415862Y-97634286D01*
X148389594Y-97764000D01*
X148389594Y-98964000D01*
X148412395Y-99085179D01*
X148484012Y-99196474D01*
X148593286Y-99271138D01*
X148723000Y-99297406D01*
X149473000Y-99297406D01*
X149594179Y-99274605D01*
X149705474Y-99202988D01*
X149780138Y-99093714D01*
X149806406Y-98964000D01*
X149806406Y-97764000D01*
X149783605Y-97642821D01*
X149711988Y-97531526D01*
X149602714Y-97456862D01*
X149550000Y-97446187D01*
X149550000Y-89662000D01*
X149515594Y-89489027D01*
X149417612Y-89342388D01*
X148063612Y-87988388D01*
X147916973Y-87890406D01*
X147744000Y-87856000D01*
X146833406Y-87856000D01*
X146833406Y-87708000D01*
X146810605Y-87586821D01*
X146738988Y-87475526D01*
X146629714Y-87400862D01*
X146500000Y-87374594D01*
X145600000Y-87374594D01*
X145478821Y-87397395D01*
X145367526Y-87469012D01*
X145292862Y-87578286D01*
X145266594Y-87708000D01*
X145266594Y-87731370D01*
X144591612Y-87056388D01*
X144444973Y-86958406D01*
X144273070Y-86924213D01*
X144250605Y-86804821D01*
X144178988Y-86693526D01*
X144069714Y-86618862D01*
X143940000Y-86592594D01*
X143642000Y-86592594D01*
X143642000Y-86052406D01*
X143790000Y-86052406D01*
X143911179Y-86029605D01*
X144022474Y-85957988D01*
X144097138Y-85848714D01*
X144123406Y-85719000D01*
X144123406Y-84969000D01*
X144100605Y-84847821D01*
X144028988Y-84736526D01*
X143919714Y-84661862D01*
X143790000Y-84635594D01*
X142590000Y-84635594D01*
X142468821Y-84658395D01*
X142357526Y-84730012D01*
X142282862Y-84839286D01*
X142256594Y-84969000D01*
X142256594Y-85719000D01*
X142279395Y-85840179D01*
X142351012Y-85951474D01*
X142460286Y-86026138D01*
X142590000Y-86052406D01*
X142738000Y-86052406D01*
X142738000Y-86592970D01*
X142618821Y-86615395D01*
X142507526Y-86687012D01*
X142432862Y-86796286D01*
X142406594Y-86926000D01*
X142406594Y-87826000D01*
X142429395Y-87947179D01*
X142501012Y-88058474D01*
X142610286Y-88133138D01*
X142740000Y-88159406D01*
X142888000Y-88159406D01*
X142888000Y-88240472D01*
X142691310Y-88159000D01*
X142525750Y-88159000D01*
X142367000Y-88317750D01*
X142367000Y-89197000D01*
X142387000Y-89197000D01*
X142387000Y-89451000D01*
X142367000Y-89451000D01*
X142367000Y-89471000D01*
X142113000Y-89471000D01*
X142113000Y-89451000D01*
X142093000Y-89451000D01*
X142093000Y-89197000D01*
X142113000Y-89197000D01*
X142113000Y-88317750D01*
X141954250Y-88159000D01*
X141788690Y-88159000D01*
X141555301Y-88255673D01*
X141376673Y-88434302D01*
X141365782Y-88460594D01*
X140965000Y-88460594D01*
X140843821Y-88483395D01*
X140732526Y-88555012D01*
X140657862Y-88664286D01*
X140631594Y-88794000D01*
X140631594Y-88872000D01*
X138328649Y-88872000D01*
X138453235Y-88747631D01*
X138548891Y-88517265D01*
X138548990Y-88404234D01*
X139125224Y-87828000D01*
X140206970Y-87828000D01*
X140229395Y-87947179D01*
X140301012Y-88058474D01*
X140410286Y-88133138D01*
X140540000Y-88159406D01*
X141740000Y-88159406D01*
X141861179Y-88136605D01*
X141972474Y-88064988D01*
X142047138Y-87955714D01*
X142073406Y-87826000D01*
X142073406Y-86926000D01*
X142050605Y-86804821D01*
X141978988Y-86693526D01*
X141869714Y-86618862D01*
X141742000Y-86592999D01*
X141742000Y-86052406D01*
X141890000Y-86052406D01*
X142011179Y-86029605D01*
X142122474Y-85957988D01*
X142197138Y-85848714D01*
X142223406Y-85719000D01*
X142223406Y-84969000D01*
X142200605Y-84847821D01*
X142128988Y-84736526D01*
X142019714Y-84661862D01*
X141890000Y-84635594D01*
X140690000Y-84635594D01*
X140568821Y-84658395D01*
X140457526Y-84730012D01*
X140382862Y-84839286D01*
X140356594Y-84969000D01*
X140356594Y-85719000D01*
X140379395Y-85840179D01*
X140451012Y-85951474D01*
X140560286Y-86026138D01*
X140690000Y-86052406D01*
X140838000Y-86052406D01*
X140838000Y-86592594D01*
X140540000Y-86592594D01*
X140418821Y-86615395D01*
X140307526Y-86687012D01*
X140232862Y-86796286D01*
X140206999Y-86924000D01*
X138938000Y-86924000D01*
X138765027Y-86958406D01*
X138618388Y-87056388D01*
X137909787Y-87764989D01*
X137797829Y-87764891D01*
X137567297Y-87860145D01*
X137390765Y-88036369D01*
X137295109Y-88266735D01*
X137294891Y-88516171D01*
X137390145Y-88746703D01*
X137515223Y-88872000D01*
X137106030Y-88872000D01*
X137083605Y-88752821D01*
X137011988Y-88641526D01*
X136902714Y-88566862D01*
X136773000Y-88540594D01*
X136023000Y-88540594D01*
X135901821Y-88563395D01*
X135790526Y-88635012D01*
X135715862Y-88744286D01*
X135689594Y-88874000D01*
X135689594Y-89126000D01*
X135149406Y-89126000D01*
X135149406Y-88978000D01*
X135126605Y-88856821D01*
X135054988Y-88745526D01*
X134945714Y-88670862D01*
X134816000Y-88644594D01*
X133916000Y-88644594D01*
X133794821Y-88667395D01*
X133683526Y-88739012D01*
X133608862Y-88848286D01*
X133582594Y-88978000D01*
X133582594Y-89126000D01*
X133117406Y-89126000D01*
X133117406Y-88978000D01*
X133094605Y-88856821D01*
X133022988Y-88745526D01*
X132913714Y-88670862D01*
X132784000Y-88644594D01*
X131884000Y-88644594D01*
X131762821Y-88667395D01*
X131651526Y-88739012D01*
X131576862Y-88848286D01*
X131550594Y-88978000D01*
X131118189Y-88978000D01*
X131331203Y-88659203D01*
X136336201Y-85314970D01*
X142240000Y-84140631D01*
X148143799Y-85314970D01*
M02*
