G04 #@! TF.FileFunction,Copper,L2,Bot,Signal*
%FSLAX46Y46*%
G04 Gerber Fmt 4.6, Leading zero omitted, Abs format (unit mm)*
G04 Created by KiCad (PCBNEW 4.0.2-stable) date Friday, April 15, 2016 'PMt' 05:49:26 PM*
%MOMM*%
G01*
G04 APERTURE LIST*
%ADD10C,0.100000*%
%ADD11R,3.299460X4.500880*%
%ADD12R,2.032000X2.032000*%
%ADD13O,2.032000X2.032000*%
%ADD14C,0.600000*%
%ADD15C,0.250000*%
%ADD16C,0.254000*%
G04 APERTURE END LIST*
D10*
D11*
X142240000Y-95166180D03*
X142240000Y-103969820D03*
D12*
X130048000Y-98552000D03*
D13*
X130048000Y-101092000D03*
D12*
X154432000Y-98552000D03*
D13*
X154432000Y-101092000D03*
D14*
X137922000Y-88392000D03*
X134874000Y-107950000D03*
X144780000Y-109474000D03*
X154432000Y-106172000D03*
D15*
X139270740Y-94566740D02*
X142240000Y-94566740D01*
X137922000Y-93218000D02*
X139270740Y-94566740D01*
X137922000Y-88392000D02*
X137922000Y-93218000D01*
X144018000Y-107950000D02*
X134874000Y-107950000D01*
X144780000Y-108712000D02*
X144018000Y-107950000D01*
X144780000Y-109474000D02*
X144780000Y-108712000D01*
X152908000Y-98552000D02*
X154432000Y-98552000D01*
X152146000Y-99314000D02*
X152908000Y-98552000D01*
X152146000Y-102108000D02*
X152146000Y-99314000D01*
X154432000Y-104394000D02*
X152146000Y-102108000D01*
X154432000Y-106172000D02*
X154432000Y-104394000D01*
D16*
G36*
X148143799Y-85314970D02*
X153148797Y-88659203D01*
X156493030Y-93664201D01*
X157667369Y-99568000D01*
X156493030Y-105471799D01*
X153148797Y-110476797D01*
X148143799Y-113821030D01*
X142240000Y-114995369D01*
X136336201Y-113821030D01*
X131331203Y-110476797D01*
X129725820Y-108074171D01*
X134246891Y-108074171D01*
X134342145Y-108304703D01*
X134518369Y-108481235D01*
X134748735Y-108576891D01*
X134998171Y-108577109D01*
X135228703Y-108481855D01*
X135308698Y-108402000D01*
X143830776Y-108402000D01*
X144328000Y-108899224D01*
X144328000Y-109039272D01*
X144248765Y-109118369D01*
X144153109Y-109348735D01*
X144152891Y-109598171D01*
X144248145Y-109828703D01*
X144424369Y-110005235D01*
X144654735Y-110100891D01*
X144904171Y-110101109D01*
X145134703Y-110005855D01*
X145311235Y-109829631D01*
X145406891Y-109599265D01*
X145407109Y-109349829D01*
X145311855Y-109119297D01*
X145232000Y-109039302D01*
X145232000Y-108712000D01*
X145197594Y-108539027D01*
X145099612Y-108392388D01*
X144337612Y-107630388D01*
X144190973Y-107532406D01*
X144018000Y-107498000D01*
X135308728Y-107498000D01*
X135229631Y-107418765D01*
X134999265Y-107323109D01*
X134749829Y-107322891D01*
X134519297Y-107418145D01*
X134342765Y-107594369D01*
X134247109Y-107824735D01*
X134246891Y-108074171D01*
X129725820Y-108074171D01*
X127986970Y-105471799D01*
X126812631Y-99568000D01*
X126957886Y-98837750D01*
X128397000Y-98837750D01*
X128397000Y-99694310D01*
X128493673Y-99927699D01*
X128672302Y-100106327D01*
X128905691Y-100203000D01*
X129031524Y-100203000D01*
X128780919Y-100578056D01*
X128678689Y-101092000D01*
X128780919Y-101605944D01*
X129072045Y-102041644D01*
X129507745Y-102332770D01*
X130021689Y-102435000D01*
X130074311Y-102435000D01*
X130588255Y-102332770D01*
X131023955Y-102041644D01*
X131239285Y-101719380D01*
X140256864Y-101719380D01*
X140256864Y-106220260D01*
X140279665Y-106341439D01*
X140351282Y-106452734D01*
X140460556Y-106527398D01*
X140590270Y-106553666D01*
X143889730Y-106553666D01*
X144010909Y-106530865D01*
X144122204Y-106459248D01*
X144196868Y-106349974D01*
X144223136Y-106220260D01*
X144223136Y-101719380D01*
X144200335Y-101598201D01*
X144128718Y-101486906D01*
X144019444Y-101412242D01*
X143889730Y-101385974D01*
X140590270Y-101385974D01*
X140469091Y-101408775D01*
X140357796Y-101480392D01*
X140283132Y-101589666D01*
X140256864Y-101719380D01*
X131239285Y-101719380D01*
X131315081Y-101605944D01*
X131417311Y-101092000D01*
X131315081Y-100578056D01*
X131064476Y-100203000D01*
X131190309Y-100203000D01*
X131423698Y-100106327D01*
X131602327Y-99927699D01*
X131699000Y-99694310D01*
X131699000Y-99314000D01*
X151694000Y-99314000D01*
X151694000Y-102108000D01*
X151728406Y-102280973D01*
X151826388Y-102427612D01*
X153980000Y-104581224D01*
X153980000Y-105737272D01*
X153900765Y-105816369D01*
X153805109Y-106046735D01*
X153804891Y-106296171D01*
X153900145Y-106526703D01*
X154076369Y-106703235D01*
X154306735Y-106798891D01*
X154556171Y-106799109D01*
X154786703Y-106703855D01*
X154963235Y-106527631D01*
X155058891Y-106297265D01*
X155059109Y-106047829D01*
X154963855Y-105817297D01*
X154884000Y-105737302D01*
X154884000Y-104394000D01*
X154849594Y-104221027D01*
X154751612Y-104074388D01*
X152598000Y-101920776D01*
X152598000Y-99501224D01*
X153082594Y-99016630D01*
X153082594Y-99568000D01*
X153105395Y-99689179D01*
X153177012Y-99800474D01*
X153286286Y-99875138D01*
X153416000Y-99901406D01*
X153816651Y-99901406D01*
X153456045Y-100142356D01*
X153164919Y-100578056D01*
X153062689Y-101092000D01*
X153164919Y-101605944D01*
X153456045Y-102041644D01*
X153891745Y-102332770D01*
X154405689Y-102435000D01*
X154458311Y-102435000D01*
X154972255Y-102332770D01*
X155407955Y-102041644D01*
X155699081Y-101605944D01*
X155801311Y-101092000D01*
X155699081Y-100578056D01*
X155407955Y-100142356D01*
X155047349Y-99901406D01*
X155448000Y-99901406D01*
X155569179Y-99878605D01*
X155680474Y-99806988D01*
X155755138Y-99697714D01*
X155781406Y-99568000D01*
X155781406Y-97536000D01*
X155758605Y-97414821D01*
X155686988Y-97303526D01*
X155577714Y-97228862D01*
X155448000Y-97202594D01*
X153416000Y-97202594D01*
X153294821Y-97225395D01*
X153183526Y-97297012D01*
X153108862Y-97406286D01*
X153082594Y-97536000D01*
X153082594Y-98100000D01*
X152908000Y-98100000D01*
X152735027Y-98134406D01*
X152588388Y-98232388D01*
X151826388Y-98994388D01*
X151728406Y-99141027D01*
X151694000Y-99314000D01*
X131699000Y-99314000D01*
X131699000Y-98837750D01*
X131540250Y-98679000D01*
X130175000Y-98679000D01*
X130175000Y-98699000D01*
X129921000Y-98699000D01*
X129921000Y-98679000D01*
X128555750Y-98679000D01*
X128397000Y-98837750D01*
X126957886Y-98837750D01*
X127241945Y-97409690D01*
X128397000Y-97409690D01*
X128397000Y-98266250D01*
X128555750Y-98425000D01*
X129921000Y-98425000D01*
X129921000Y-97059750D01*
X130175000Y-97059750D01*
X130175000Y-98425000D01*
X131540250Y-98425000D01*
X131699000Y-98266250D01*
X131699000Y-97409690D01*
X131602327Y-97176301D01*
X131423698Y-96997673D01*
X131190309Y-96901000D01*
X130333750Y-96901000D01*
X130175000Y-97059750D01*
X129921000Y-97059750D01*
X129762250Y-96901000D01*
X128905691Y-96901000D01*
X128672302Y-96997673D01*
X128493673Y-97176301D01*
X128397000Y-97409690D01*
X127241945Y-97409690D01*
X127986970Y-93664201D01*
X131331203Y-88659203D01*
X131545265Y-88516171D01*
X137294891Y-88516171D01*
X137390145Y-88746703D01*
X137470000Y-88826698D01*
X137470000Y-93218000D01*
X137504406Y-93390973D01*
X137602388Y-93537612D01*
X138951127Y-94886352D01*
X139097767Y-94984334D01*
X139270740Y-95018740D01*
X140256864Y-95018740D01*
X140256864Y-97416620D01*
X140279665Y-97537799D01*
X140351282Y-97649094D01*
X140460556Y-97723758D01*
X140590270Y-97750026D01*
X143889730Y-97750026D01*
X144010909Y-97727225D01*
X144122204Y-97655608D01*
X144196868Y-97546334D01*
X144223136Y-97416620D01*
X144223136Y-92915740D01*
X144200335Y-92794561D01*
X144128718Y-92683266D01*
X144019444Y-92608602D01*
X143889730Y-92582334D01*
X140590270Y-92582334D01*
X140469091Y-92605135D01*
X140357796Y-92676752D01*
X140283132Y-92786026D01*
X140256864Y-92915740D01*
X140256864Y-94114740D01*
X139457965Y-94114740D01*
X138374000Y-93030776D01*
X138374000Y-88826728D01*
X138453235Y-88747631D01*
X138548891Y-88517265D01*
X138549109Y-88267829D01*
X138453855Y-88037297D01*
X138277631Y-87860765D01*
X138047265Y-87765109D01*
X137797829Y-87764891D01*
X137567297Y-87860145D01*
X137390765Y-88036369D01*
X137295109Y-88266735D01*
X137294891Y-88516171D01*
X131545265Y-88516171D01*
X136336201Y-85314970D01*
X142240000Y-84140631D01*
X148143799Y-85314970D01*
X148143799Y-85314970D01*
G37*
X148143799Y-85314970D02*
X153148797Y-88659203D01*
X156493030Y-93664201D01*
X157667369Y-99568000D01*
X156493030Y-105471799D01*
X153148797Y-110476797D01*
X148143799Y-113821030D01*
X142240000Y-114995369D01*
X136336201Y-113821030D01*
X131331203Y-110476797D01*
X129725820Y-108074171D01*
X134246891Y-108074171D01*
X134342145Y-108304703D01*
X134518369Y-108481235D01*
X134748735Y-108576891D01*
X134998171Y-108577109D01*
X135228703Y-108481855D01*
X135308698Y-108402000D01*
X143830776Y-108402000D01*
X144328000Y-108899224D01*
X144328000Y-109039272D01*
X144248765Y-109118369D01*
X144153109Y-109348735D01*
X144152891Y-109598171D01*
X144248145Y-109828703D01*
X144424369Y-110005235D01*
X144654735Y-110100891D01*
X144904171Y-110101109D01*
X145134703Y-110005855D01*
X145311235Y-109829631D01*
X145406891Y-109599265D01*
X145407109Y-109349829D01*
X145311855Y-109119297D01*
X145232000Y-109039302D01*
X145232000Y-108712000D01*
X145197594Y-108539027D01*
X145099612Y-108392388D01*
X144337612Y-107630388D01*
X144190973Y-107532406D01*
X144018000Y-107498000D01*
X135308728Y-107498000D01*
X135229631Y-107418765D01*
X134999265Y-107323109D01*
X134749829Y-107322891D01*
X134519297Y-107418145D01*
X134342765Y-107594369D01*
X134247109Y-107824735D01*
X134246891Y-108074171D01*
X129725820Y-108074171D01*
X127986970Y-105471799D01*
X126812631Y-99568000D01*
X126957886Y-98837750D01*
X128397000Y-98837750D01*
X128397000Y-99694310D01*
X128493673Y-99927699D01*
X128672302Y-100106327D01*
X128905691Y-100203000D01*
X129031524Y-100203000D01*
X128780919Y-100578056D01*
X128678689Y-101092000D01*
X128780919Y-101605944D01*
X129072045Y-102041644D01*
X129507745Y-102332770D01*
X130021689Y-102435000D01*
X130074311Y-102435000D01*
X130588255Y-102332770D01*
X131023955Y-102041644D01*
X131239285Y-101719380D01*
X140256864Y-101719380D01*
X140256864Y-106220260D01*
X140279665Y-106341439D01*
X140351282Y-106452734D01*
X140460556Y-106527398D01*
X140590270Y-106553666D01*
X143889730Y-106553666D01*
X144010909Y-106530865D01*
X144122204Y-106459248D01*
X144196868Y-106349974D01*
X144223136Y-106220260D01*
X144223136Y-101719380D01*
X144200335Y-101598201D01*
X144128718Y-101486906D01*
X144019444Y-101412242D01*
X143889730Y-101385974D01*
X140590270Y-101385974D01*
X140469091Y-101408775D01*
X140357796Y-101480392D01*
X140283132Y-101589666D01*
X140256864Y-101719380D01*
X131239285Y-101719380D01*
X131315081Y-101605944D01*
X131417311Y-101092000D01*
X131315081Y-100578056D01*
X131064476Y-100203000D01*
X131190309Y-100203000D01*
X131423698Y-100106327D01*
X131602327Y-99927699D01*
X131699000Y-99694310D01*
X131699000Y-99314000D01*
X151694000Y-99314000D01*
X151694000Y-102108000D01*
X151728406Y-102280973D01*
X151826388Y-102427612D01*
X153980000Y-104581224D01*
X153980000Y-105737272D01*
X153900765Y-105816369D01*
X153805109Y-106046735D01*
X153804891Y-106296171D01*
X153900145Y-106526703D01*
X154076369Y-106703235D01*
X154306735Y-106798891D01*
X154556171Y-106799109D01*
X154786703Y-106703855D01*
X154963235Y-106527631D01*
X155058891Y-106297265D01*
X155059109Y-106047829D01*
X154963855Y-105817297D01*
X154884000Y-105737302D01*
X154884000Y-104394000D01*
X154849594Y-104221027D01*
X154751612Y-104074388D01*
X152598000Y-101920776D01*
X152598000Y-99501224D01*
X153082594Y-99016630D01*
X153082594Y-99568000D01*
X153105395Y-99689179D01*
X153177012Y-99800474D01*
X153286286Y-99875138D01*
X153416000Y-99901406D01*
X153816651Y-99901406D01*
X153456045Y-100142356D01*
X153164919Y-100578056D01*
X153062689Y-101092000D01*
X153164919Y-101605944D01*
X153456045Y-102041644D01*
X153891745Y-102332770D01*
X154405689Y-102435000D01*
X154458311Y-102435000D01*
X154972255Y-102332770D01*
X155407955Y-102041644D01*
X155699081Y-101605944D01*
X155801311Y-101092000D01*
X155699081Y-100578056D01*
X155407955Y-100142356D01*
X155047349Y-99901406D01*
X155448000Y-99901406D01*
X155569179Y-99878605D01*
X155680474Y-99806988D01*
X155755138Y-99697714D01*
X155781406Y-99568000D01*
X155781406Y-97536000D01*
X155758605Y-97414821D01*
X155686988Y-97303526D01*
X155577714Y-97228862D01*
X155448000Y-97202594D01*
X153416000Y-97202594D01*
X153294821Y-97225395D01*
X153183526Y-97297012D01*
X153108862Y-97406286D01*
X153082594Y-97536000D01*
X153082594Y-98100000D01*
X152908000Y-98100000D01*
X152735027Y-98134406D01*
X152588388Y-98232388D01*
X151826388Y-98994388D01*
X151728406Y-99141027D01*
X151694000Y-99314000D01*
X131699000Y-99314000D01*
X131699000Y-98837750D01*
X131540250Y-98679000D01*
X130175000Y-98679000D01*
X130175000Y-98699000D01*
X129921000Y-98699000D01*
X129921000Y-98679000D01*
X128555750Y-98679000D01*
X128397000Y-98837750D01*
X126957886Y-98837750D01*
X127241945Y-97409690D01*
X128397000Y-97409690D01*
X128397000Y-98266250D01*
X128555750Y-98425000D01*
X129921000Y-98425000D01*
X129921000Y-97059750D01*
X130175000Y-97059750D01*
X130175000Y-98425000D01*
X131540250Y-98425000D01*
X131699000Y-98266250D01*
X131699000Y-97409690D01*
X131602327Y-97176301D01*
X131423698Y-96997673D01*
X131190309Y-96901000D01*
X130333750Y-96901000D01*
X130175000Y-97059750D01*
X129921000Y-97059750D01*
X129762250Y-96901000D01*
X128905691Y-96901000D01*
X128672302Y-96997673D01*
X128493673Y-97176301D01*
X128397000Y-97409690D01*
X127241945Y-97409690D01*
X127986970Y-93664201D01*
X131331203Y-88659203D01*
X131545265Y-88516171D01*
X137294891Y-88516171D01*
X137390145Y-88746703D01*
X137470000Y-88826698D01*
X137470000Y-93218000D01*
X137504406Y-93390973D01*
X137602388Y-93537612D01*
X138951127Y-94886352D01*
X139097767Y-94984334D01*
X139270740Y-95018740D01*
X140256864Y-95018740D01*
X140256864Y-97416620D01*
X140279665Y-97537799D01*
X140351282Y-97649094D01*
X140460556Y-97723758D01*
X140590270Y-97750026D01*
X143889730Y-97750026D01*
X144010909Y-97727225D01*
X144122204Y-97655608D01*
X144196868Y-97546334D01*
X144223136Y-97416620D01*
X144223136Y-92915740D01*
X144200335Y-92794561D01*
X144128718Y-92683266D01*
X144019444Y-92608602D01*
X143889730Y-92582334D01*
X140590270Y-92582334D01*
X140469091Y-92605135D01*
X140357796Y-92676752D01*
X140283132Y-92786026D01*
X140256864Y-92915740D01*
X140256864Y-94114740D01*
X139457965Y-94114740D01*
X138374000Y-93030776D01*
X138374000Y-88826728D01*
X138453235Y-88747631D01*
X138548891Y-88517265D01*
X138549109Y-88267829D01*
X138453855Y-88037297D01*
X138277631Y-87860765D01*
X138047265Y-87765109D01*
X137797829Y-87764891D01*
X137567297Y-87860145D01*
X137390765Y-88036369D01*
X137295109Y-88266735D01*
X137294891Y-88516171D01*
X131545265Y-88516171D01*
X136336201Y-85314970D01*
X142240000Y-84140631D01*
X148143799Y-85314970D01*
M02*
