G04 #@! TF.FileFunction,Copper,L1,Top,Signal*
%FSLAX46Y46*%
G04 Gerber Fmt 4.6, Leading zero omitted, Abs format (unit mm)*
G04 Created by KiCad (PCBNEW 4.0.2-stable) date Saturday, May 21, 2016 'PMt' 09:34:14 PM*
%MOMM*%
G01*
G04 APERTURE LIST*
%ADD10C,0.100000*%
%ADD11R,0.750000X1.200000*%
%ADD12R,1.200000X0.750000*%
%ADD13R,3.299460X4.500880*%
%ADD14R,0.800100X0.800100*%
%ADD15R,0.900000X1.200000*%
%ADD16R,1.200000X0.900000*%
%ADD17R,0.650000X1.060000*%
%ADD18C,1.524000*%
%ADD19R,2.032000X2.032000*%
%ADD20O,2.032000X2.032000*%
%ADD21R,1.220000X0.910000*%
%ADD22C,0.600000*%
%ADD23C,0.250000*%
%ADD24C,0.500000*%
%ADD25C,0.254000*%
G04 APERTURE END LIST*
D10*
D11*
X137160000Y-92268000D03*
X137160000Y-94168000D03*
D12*
X143068000Y-85852000D03*
X144968000Y-85852000D03*
D11*
X145034000Y-89474000D03*
X145034000Y-91374000D03*
X135128000Y-97470000D03*
X135128000Y-95570000D03*
D12*
X141290000Y-112014000D03*
X143190000Y-112014000D03*
X136464000Y-107950000D03*
X138364000Y-107950000D03*
D11*
X132842000Y-99634000D03*
X132842000Y-101534000D03*
D13*
X142240000Y-95166180D03*
X142240000Y-103969820D03*
D14*
X146827240Y-94300000D03*
X146827240Y-96200000D03*
X148826220Y-95250000D03*
D15*
X139192000Y-92118000D03*
X139192000Y-94318000D03*
D16*
X138854000Y-87630000D03*
X141054000Y-87630000D03*
X141054000Y-85852000D03*
X138854000Y-85852000D03*
D15*
X146812000Y-91524000D03*
X146812000Y-89324000D03*
X148590000Y-92540000D03*
X148590000Y-90340000D03*
X132842000Y-95420000D03*
X132842000Y-97620000D03*
D16*
X144950000Y-109982000D03*
X147150000Y-109982000D03*
D15*
X138684000Y-112098000D03*
X138684000Y-109898000D03*
X136398000Y-112098000D03*
X136398000Y-109898000D03*
X135128000Y-101516000D03*
X135128000Y-103716000D03*
D17*
X143190000Y-89324000D03*
X142240000Y-89324000D03*
X141290000Y-89324000D03*
X141290000Y-91524000D03*
X143190000Y-91524000D03*
X143190000Y-107866000D03*
X142240000Y-107866000D03*
X141290000Y-107866000D03*
X141290000Y-110066000D03*
X143190000Y-110066000D03*
D18*
X150490000Y-99568000D03*
X130490000Y-99568000D03*
D19*
X155702000Y-100838000D03*
D20*
X155702000Y-98298000D03*
D14*
X150129240Y-95316000D03*
X150129240Y-97216000D03*
X152128220Y-96266000D03*
X152130760Y-93914000D03*
X152130760Y-92014000D03*
X150131780Y-92964000D03*
D21*
X137414000Y-103743000D03*
X137414000Y-100473000D03*
D16*
X149014000Y-107950000D03*
X151214000Y-107950000D03*
D22*
X137414000Y-86868000D03*
X139954000Y-113284000D03*
X148590000Y-109982000D03*
X146812000Y-87884000D03*
D23*
X137160000Y-92268000D02*
X135570000Y-92268000D01*
X135128000Y-92710000D02*
X135128000Y-95570000D01*
X135570000Y-92268000D02*
X135128000Y-92710000D01*
X143002000Y-90424000D02*
X148506000Y-90424000D01*
X148506000Y-90424000D02*
X148590000Y-90340000D01*
X143190000Y-89324000D02*
X143190000Y-89220000D01*
X137160000Y-92268000D02*
X139042000Y-92268000D01*
X139042000Y-92268000D02*
X139192000Y-92118000D01*
X139192000Y-92118000D02*
X139192000Y-90678000D01*
X139192000Y-90678000D02*
X139446000Y-90424000D01*
X139446000Y-90424000D02*
X143002000Y-90424000D01*
X143002000Y-90424000D02*
X143190000Y-90236000D01*
X143190000Y-90236000D02*
X143190000Y-89324000D01*
X143340000Y-89174000D02*
X143190000Y-89324000D01*
X146827240Y-94300000D02*
X142506740Y-94300000D01*
X142506740Y-94300000D02*
X142240000Y-94566740D01*
X146827240Y-96200000D02*
X146827240Y-94300000D01*
X137160000Y-94168000D02*
X139042000Y-94168000D01*
X139042000Y-94168000D02*
X139440740Y-94566740D01*
X139440740Y-94566740D02*
X142240000Y-94566740D01*
X142603260Y-94930000D02*
X142240000Y-94566740D01*
X141290000Y-91524000D02*
X141290000Y-93616740D01*
X141290000Y-93616740D02*
X142240000Y-94566740D01*
X141054000Y-85852000D02*
X143068000Y-85852000D01*
X141054000Y-87630000D02*
X141054000Y-89088000D01*
X141054000Y-89088000D02*
X141290000Y-89324000D01*
X141054000Y-87630000D02*
X141054000Y-85852000D01*
X141140000Y-89474000D02*
X141290000Y-89324000D01*
D24*
X145034000Y-91374000D02*
X146662000Y-91374000D01*
X146662000Y-91374000D02*
X146812000Y-91524000D01*
X143190000Y-91524000D02*
X144884000Y-91524000D01*
X144884000Y-91524000D02*
X145034000Y-91374000D01*
D23*
X143340000Y-91374000D02*
X143190000Y-91524000D01*
X135128000Y-97470000D02*
X132992000Y-97470000D01*
X132992000Y-97470000D02*
X132842000Y-97620000D01*
X135128000Y-97470000D02*
X135128000Y-101516000D01*
D24*
X143190000Y-110066000D02*
X143190000Y-112014000D01*
X144950000Y-109982000D02*
X143274000Y-109982000D01*
X143274000Y-109982000D02*
X143190000Y-110066000D01*
D23*
X138684000Y-109898000D02*
X141122000Y-109898000D01*
X141122000Y-109898000D02*
X141290000Y-110066000D01*
X136398000Y-109898000D02*
X138684000Y-109898000D01*
X136464000Y-107950000D02*
X136464000Y-109832000D01*
X136464000Y-109832000D02*
X136398000Y-109898000D01*
D24*
X138854000Y-85852000D02*
X137668000Y-85852000D01*
X137414000Y-86106000D02*
X137414000Y-86868000D01*
X137668000Y-85852000D02*
X137414000Y-86106000D01*
X138684000Y-112098000D02*
X138684000Y-113030000D01*
X138938000Y-113284000D02*
X139954000Y-113284000D01*
X138684000Y-113030000D02*
X138938000Y-113284000D01*
X130490000Y-99568000D02*
X132776000Y-99568000D01*
X132776000Y-99568000D02*
X132842000Y-99634000D01*
X147150000Y-109982000D02*
X148590000Y-109982000D01*
X146812000Y-89324000D02*
X146812000Y-87884000D01*
D23*
X130556000Y-99634000D02*
X130490000Y-99568000D01*
X132908000Y-99568000D02*
X132842000Y-99634000D01*
X150129240Y-95316000D02*
X148892220Y-95316000D01*
X148892220Y-95316000D02*
X148826220Y-95250000D01*
X150129240Y-97216000D02*
X150129240Y-95316000D01*
X151214000Y-107950000D02*
X152908000Y-107950000D01*
X155702000Y-105156000D02*
X155702000Y-100838000D01*
X152908000Y-107950000D02*
X155702000Y-105156000D01*
X152130760Y-93914000D02*
X152130760Y-96263460D01*
X152130760Y-96263460D02*
X152128220Y-96266000D01*
X152130760Y-92014000D02*
X152130760Y-93914000D01*
X150131780Y-92964000D02*
X149014000Y-92964000D01*
X149014000Y-92964000D02*
X148590000Y-92540000D01*
X137414000Y-103743000D02*
X137414000Y-106426000D01*
X141290000Y-107000000D02*
X141290000Y-107866000D01*
X140970000Y-106680000D02*
X141290000Y-107000000D01*
X137668000Y-106680000D02*
X140970000Y-106680000D01*
X137414000Y-106426000D02*
X137668000Y-106680000D01*
X135128000Y-103716000D02*
X137387000Y-103716000D01*
X137387000Y-103716000D02*
X137414000Y-103743000D01*
X143190000Y-107866000D02*
X148930000Y-107866000D01*
X148930000Y-107866000D02*
X149014000Y-107950000D01*
X143274000Y-107950000D02*
X143190000Y-107866000D01*
D25*
G36*
X148054251Y-85531157D02*
X152983334Y-88824666D01*
X156276843Y-93753749D01*
X156981511Y-97296354D01*
X156670379Y-96960812D01*
X156084946Y-96692017D01*
X155829000Y-96810633D01*
X155829000Y-98171000D01*
X155849000Y-98171000D01*
X155849000Y-98425000D01*
X155829000Y-98425000D01*
X155829000Y-98445000D01*
X155575000Y-98445000D01*
X155575000Y-98425000D01*
X154215164Y-98425000D01*
X154096025Y-98680944D01*
X154295615Y-99162818D01*
X154567342Y-99455863D01*
X154544810Y-99460103D01*
X154415135Y-99543546D01*
X154328141Y-99670866D01*
X154297536Y-99822000D01*
X154297536Y-101854000D01*
X154324103Y-101995190D01*
X154407546Y-102124865D01*
X154534866Y-102211859D01*
X154686000Y-102242464D01*
X155196000Y-102242464D01*
X155196000Y-104946408D01*
X152698408Y-107444000D01*
X152191927Y-107444000D01*
X152175897Y-107358810D01*
X152092454Y-107229135D01*
X151965134Y-107142141D01*
X151814000Y-107111536D01*
X150614000Y-107111536D01*
X150472810Y-107138103D01*
X150343135Y-107221546D01*
X150256141Y-107348866D01*
X150225536Y-107500000D01*
X150225536Y-108400000D01*
X150252103Y-108541190D01*
X150335546Y-108670865D01*
X150462866Y-108757859D01*
X150614000Y-108788464D01*
X151814000Y-108788464D01*
X151955190Y-108761897D01*
X152084865Y-108678454D01*
X152171859Y-108551134D01*
X152191124Y-108456000D01*
X152908000Y-108456000D01*
X153101638Y-108417483D01*
X153265796Y-108307796D01*
X156059796Y-105513796D01*
X156169483Y-105349638D01*
X156208000Y-105156000D01*
X156208000Y-102242464D01*
X156718000Y-102242464D01*
X156859190Y-102215897D01*
X156913639Y-102180860D01*
X156276843Y-105382251D01*
X152983334Y-110311334D01*
X148054251Y-113604843D01*
X142240000Y-114761369D01*
X136425749Y-113604843D01*
X136018907Y-113333000D01*
X136112250Y-113333000D01*
X136271000Y-113174250D01*
X136271000Y-112225000D01*
X136525000Y-112225000D01*
X136525000Y-113174250D01*
X136683750Y-113333000D01*
X136974310Y-113333000D01*
X137207699Y-113236327D01*
X137386327Y-113057698D01*
X137483000Y-112824309D01*
X137483000Y-112383750D01*
X137324250Y-112225000D01*
X136525000Y-112225000D01*
X136271000Y-112225000D01*
X135471750Y-112225000D01*
X135313000Y-112383750D01*
X135313000Y-112824309D01*
X135334202Y-112875494D01*
X131496666Y-110311334D01*
X128203157Y-105382251D01*
X127752373Y-103116000D01*
X134289536Y-103116000D01*
X134289536Y-104316000D01*
X134316103Y-104457190D01*
X134399546Y-104586865D01*
X134526866Y-104673859D01*
X134678000Y-104704464D01*
X135578000Y-104704464D01*
X135719190Y-104677897D01*
X135848865Y-104594454D01*
X135935859Y-104467134D01*
X135966464Y-104316000D01*
X135966464Y-104222000D01*
X136420052Y-104222000D01*
X136442103Y-104339190D01*
X136525546Y-104468865D01*
X136652866Y-104555859D01*
X136804000Y-104586464D01*
X136908000Y-104586464D01*
X136908000Y-106426000D01*
X136946517Y-106619638D01*
X137056204Y-106783796D01*
X137310204Y-107037796D01*
X137365938Y-107075037D01*
X137225673Y-107215301D01*
X137222754Y-107222348D01*
X137215134Y-107217141D01*
X137064000Y-107186536D01*
X135864000Y-107186536D01*
X135722810Y-107213103D01*
X135593135Y-107296546D01*
X135506141Y-107423866D01*
X135475536Y-107575000D01*
X135475536Y-108325000D01*
X135502103Y-108466190D01*
X135585546Y-108595865D01*
X135712866Y-108682859D01*
X135864000Y-108713464D01*
X135958000Y-108713464D01*
X135958000Y-108909536D01*
X135948000Y-108909536D01*
X135806810Y-108936103D01*
X135677135Y-109019546D01*
X135590141Y-109146866D01*
X135559536Y-109298000D01*
X135559536Y-110498000D01*
X135586103Y-110639190D01*
X135669546Y-110768865D01*
X135796866Y-110855859D01*
X135832130Y-110863000D01*
X135821690Y-110863000D01*
X135588301Y-110959673D01*
X135409673Y-111138302D01*
X135313000Y-111371691D01*
X135313000Y-111812250D01*
X135471750Y-111971000D01*
X136271000Y-111971000D01*
X136271000Y-111951000D01*
X136525000Y-111951000D01*
X136525000Y-111971000D01*
X137324250Y-111971000D01*
X137483000Y-111812250D01*
X137483000Y-111498000D01*
X137845536Y-111498000D01*
X137845536Y-112698000D01*
X137872103Y-112839190D01*
X137955546Y-112968865D01*
X138054255Y-113036310D01*
X138094041Y-113236327D01*
X138101032Y-113271473D01*
X138237816Y-113476184D01*
X138491815Y-113730184D01*
X138696526Y-113866968D01*
X138736589Y-113874937D01*
X138938000Y-113915000D01*
X139697818Y-113915000D01*
X139817946Y-113964882D01*
X140088865Y-113965118D01*
X140339252Y-113861661D01*
X140530987Y-113670259D01*
X140634882Y-113420054D01*
X140635118Y-113149135D01*
X140583414Y-113024000D01*
X141004250Y-113024000D01*
X141163000Y-112865250D01*
X141163000Y-112141000D01*
X140213750Y-112141000D01*
X140055000Y-112299750D01*
X140055000Y-112515310D01*
X140091645Y-112603779D01*
X140090054Y-112603118D01*
X139819135Y-112602882D01*
X139697839Y-112653000D01*
X139522464Y-112653000D01*
X139522464Y-111512690D01*
X140055000Y-111512690D01*
X140055000Y-111728250D01*
X140213750Y-111887000D01*
X141163000Y-111887000D01*
X141163000Y-111162750D01*
X141417000Y-111162750D01*
X141417000Y-111887000D01*
X141437000Y-111887000D01*
X141437000Y-112141000D01*
X141417000Y-112141000D01*
X141417000Y-112865250D01*
X141575750Y-113024000D01*
X142016309Y-113024000D01*
X142249698Y-112927327D01*
X142428327Y-112748699D01*
X142431246Y-112741652D01*
X142438866Y-112746859D01*
X142590000Y-112777464D01*
X143790000Y-112777464D01*
X143931190Y-112750897D01*
X144060865Y-112667454D01*
X144147859Y-112540134D01*
X144178464Y-112389000D01*
X144178464Y-111639000D01*
X144151897Y-111497810D01*
X144068454Y-111368135D01*
X143941134Y-111281141D01*
X143821000Y-111256814D01*
X143821000Y-110823032D01*
X143872859Y-110747134D01*
X143900021Y-110613000D01*
X144013720Y-110613000D01*
X144071546Y-110702865D01*
X144198866Y-110789859D01*
X144350000Y-110820464D01*
X145550000Y-110820464D01*
X145691190Y-110793897D01*
X145820865Y-110710454D01*
X145907859Y-110583134D01*
X145938464Y-110432000D01*
X145938464Y-109532000D01*
X146161536Y-109532000D01*
X146161536Y-110432000D01*
X146188103Y-110573190D01*
X146271546Y-110702865D01*
X146398866Y-110789859D01*
X146550000Y-110820464D01*
X147750000Y-110820464D01*
X147891190Y-110793897D01*
X148020865Y-110710454D01*
X148087452Y-110613000D01*
X148333818Y-110613000D01*
X148453946Y-110662882D01*
X148724865Y-110663118D01*
X148975252Y-110559661D01*
X149166987Y-110368259D01*
X149270882Y-110118054D01*
X149271118Y-109847135D01*
X149167661Y-109596748D01*
X148976259Y-109405013D01*
X148726054Y-109301118D01*
X148455135Y-109300882D01*
X148333839Y-109351000D01*
X148086280Y-109351000D01*
X148028454Y-109261135D01*
X147901134Y-109174141D01*
X147750000Y-109143536D01*
X146550000Y-109143536D01*
X146408810Y-109170103D01*
X146279135Y-109253546D01*
X146192141Y-109380866D01*
X146161536Y-109532000D01*
X145938464Y-109532000D01*
X145911897Y-109390810D01*
X145828454Y-109261135D01*
X145701134Y-109174141D01*
X145550000Y-109143536D01*
X144350000Y-109143536D01*
X144208810Y-109170103D01*
X144079135Y-109253546D01*
X144012548Y-109351000D01*
X143848706Y-109351000D01*
X143793454Y-109265135D01*
X143666134Y-109178141D01*
X143515000Y-109147536D01*
X142865000Y-109147536D01*
X142723810Y-109174103D01*
X142594135Y-109257546D01*
X142507141Y-109384866D01*
X142476536Y-109536000D01*
X142476536Y-110596000D01*
X142503103Y-110737190D01*
X142559000Y-110824057D01*
X142559000Y-111256369D01*
X142448810Y-111277103D01*
X142431919Y-111287972D01*
X142428327Y-111279301D01*
X142249698Y-111100673D01*
X142016309Y-111004000D01*
X141575750Y-111004000D01*
X141417000Y-111162750D01*
X141163000Y-111162750D01*
X141004250Y-111004000D01*
X140563691Y-111004000D01*
X140330302Y-111100673D01*
X140151673Y-111279301D01*
X140055000Y-111512690D01*
X139522464Y-111512690D01*
X139522464Y-111498000D01*
X139495897Y-111356810D01*
X139412454Y-111227135D01*
X139285134Y-111140141D01*
X139134000Y-111109536D01*
X138234000Y-111109536D01*
X138092810Y-111136103D01*
X137963135Y-111219546D01*
X137876141Y-111346866D01*
X137845536Y-111498000D01*
X137483000Y-111498000D01*
X137483000Y-111371691D01*
X137386327Y-111138302D01*
X137207699Y-110959673D01*
X136974310Y-110863000D01*
X136972699Y-110863000D01*
X136989190Y-110859897D01*
X137118865Y-110776454D01*
X137205859Y-110649134D01*
X137236464Y-110498000D01*
X137236464Y-110404000D01*
X137845536Y-110404000D01*
X137845536Y-110498000D01*
X137872103Y-110639190D01*
X137955546Y-110768865D01*
X138082866Y-110855859D01*
X138234000Y-110886464D01*
X139134000Y-110886464D01*
X139275190Y-110859897D01*
X139404865Y-110776454D01*
X139491859Y-110649134D01*
X139522464Y-110498000D01*
X139522464Y-110404000D01*
X140576536Y-110404000D01*
X140576536Y-110596000D01*
X140603103Y-110737190D01*
X140686546Y-110866865D01*
X140813866Y-110953859D01*
X140965000Y-110984464D01*
X141615000Y-110984464D01*
X141756190Y-110957897D01*
X141885865Y-110874454D01*
X141972859Y-110747134D01*
X142003464Y-110596000D01*
X142003464Y-109536000D01*
X141976897Y-109394810D01*
X141893454Y-109265135D01*
X141766134Y-109178141D01*
X141615000Y-109147536D01*
X140965000Y-109147536D01*
X140823810Y-109174103D01*
X140694135Y-109257546D01*
X140607141Y-109384866D01*
X140605696Y-109392000D01*
X139522464Y-109392000D01*
X139522464Y-109298000D01*
X139495897Y-109156810D01*
X139412454Y-109027135D01*
X139285134Y-108940141D01*
X139186482Y-108920164D01*
X139323698Y-108863327D01*
X139502327Y-108684699D01*
X139599000Y-108451310D01*
X139599000Y-108235750D01*
X139440250Y-108077000D01*
X138491000Y-108077000D01*
X138491000Y-108097000D01*
X138237000Y-108097000D01*
X138237000Y-108077000D01*
X138217000Y-108077000D01*
X138217000Y-107823000D01*
X138237000Y-107823000D01*
X138237000Y-107803000D01*
X138491000Y-107803000D01*
X138491000Y-107823000D01*
X139440250Y-107823000D01*
X139599000Y-107664250D01*
X139599000Y-107448690D01*
X139502327Y-107215301D01*
X139473026Y-107186000D01*
X140606911Y-107186000D01*
X140576536Y-107336000D01*
X140576536Y-108396000D01*
X140603103Y-108537190D01*
X140686546Y-108666865D01*
X140813866Y-108753859D01*
X140965000Y-108784464D01*
X141405439Y-108784464D01*
X141555301Y-108934327D01*
X141788690Y-109031000D01*
X141954250Y-109031000D01*
X142113000Y-108872250D01*
X142113000Y-107993000D01*
X142093000Y-107993000D01*
X142093000Y-107739000D01*
X142113000Y-107739000D01*
X142113000Y-106859750D01*
X142031380Y-106778130D01*
X142113000Y-106696510D01*
X142113000Y-104096820D01*
X142367000Y-104096820D01*
X142367000Y-106696510D01*
X142448620Y-106778130D01*
X142367000Y-106859750D01*
X142367000Y-107739000D01*
X142387000Y-107739000D01*
X142387000Y-107993000D01*
X142367000Y-107993000D01*
X142367000Y-108872250D01*
X142525750Y-109031000D01*
X142691310Y-109031000D01*
X142924699Y-108934327D01*
X143074561Y-108784464D01*
X143515000Y-108784464D01*
X143656190Y-108757897D01*
X143785865Y-108674454D01*
X143872859Y-108547134D01*
X143903464Y-108396000D01*
X143903464Y-108372000D01*
X148025536Y-108372000D01*
X148025536Y-108400000D01*
X148052103Y-108541190D01*
X148135546Y-108670865D01*
X148262866Y-108757859D01*
X148414000Y-108788464D01*
X149614000Y-108788464D01*
X149755190Y-108761897D01*
X149884865Y-108678454D01*
X149971859Y-108551134D01*
X150002464Y-108400000D01*
X150002464Y-107500000D01*
X149975897Y-107358810D01*
X149892454Y-107229135D01*
X149765134Y-107142141D01*
X149614000Y-107111536D01*
X148414000Y-107111536D01*
X148272810Y-107138103D01*
X148143135Y-107221546D01*
X148056141Y-107348866D01*
X148053886Y-107360000D01*
X143903464Y-107360000D01*
X143903464Y-107336000D01*
X143876897Y-107194810D01*
X143793454Y-107065135D01*
X143666134Y-106978141D01*
X143515000Y-106947536D01*
X143074561Y-106947536D01*
X142982286Y-106855260D01*
X144016040Y-106855260D01*
X144249429Y-106758587D01*
X144428057Y-106579958D01*
X144524730Y-106346569D01*
X144524730Y-104255570D01*
X144365980Y-104096820D01*
X142367000Y-104096820D01*
X142113000Y-104096820D01*
X140114020Y-104096820D01*
X139955270Y-104255570D01*
X139955270Y-106174000D01*
X137920000Y-106174000D01*
X137920000Y-104586464D01*
X138024000Y-104586464D01*
X138165190Y-104559897D01*
X138294865Y-104476454D01*
X138381859Y-104349134D01*
X138412464Y-104198000D01*
X138412464Y-103288000D01*
X138385897Y-103146810D01*
X138302454Y-103017135D01*
X138175134Y-102930141D01*
X138024000Y-102899536D01*
X136804000Y-102899536D01*
X136662810Y-102926103D01*
X136533135Y-103009546D01*
X136446141Y-103136866D01*
X136431331Y-103210000D01*
X135966464Y-103210000D01*
X135966464Y-103116000D01*
X135939897Y-102974810D01*
X135856454Y-102845135D01*
X135729134Y-102758141D01*
X135578000Y-102727536D01*
X134678000Y-102727536D01*
X134536810Y-102754103D01*
X134407135Y-102837546D01*
X134320141Y-102964866D01*
X134289536Y-103116000D01*
X127752373Y-103116000D01*
X127494533Y-101819750D01*
X131832000Y-101819750D01*
X131832000Y-102260309D01*
X131928673Y-102493698D01*
X132107301Y-102672327D01*
X132340690Y-102769000D01*
X132556250Y-102769000D01*
X132715000Y-102610250D01*
X132715000Y-101661000D01*
X132969000Y-101661000D01*
X132969000Y-102610250D01*
X133127750Y-102769000D01*
X133343310Y-102769000D01*
X133576699Y-102672327D01*
X133755327Y-102493698D01*
X133852000Y-102260309D01*
X133852000Y-101819750D01*
X133693250Y-101661000D01*
X132969000Y-101661000D01*
X132715000Y-101661000D01*
X131990750Y-101661000D01*
X131832000Y-101819750D01*
X127494533Y-101819750D01*
X127091657Y-99794359D01*
X129346802Y-99794359D01*
X129520446Y-100214612D01*
X129841697Y-100536423D01*
X130261646Y-100710801D01*
X130716359Y-100711198D01*
X131136612Y-100537554D01*
X131458423Y-100216303D01*
X131465608Y-100199000D01*
X132078536Y-100199000D01*
X132078536Y-100234000D01*
X132105103Y-100375190D01*
X132115972Y-100392081D01*
X132107301Y-100395673D01*
X131928673Y-100574302D01*
X131832000Y-100807691D01*
X131832000Y-101248250D01*
X131990750Y-101407000D01*
X132715000Y-101407000D01*
X132715000Y-101387000D01*
X132969000Y-101387000D01*
X132969000Y-101407000D01*
X133693250Y-101407000D01*
X133852000Y-101248250D01*
X133852000Y-100807691D01*
X133755327Y-100574302D01*
X133576699Y-100395673D01*
X133569652Y-100392754D01*
X133574859Y-100385134D01*
X133605464Y-100234000D01*
X133605464Y-99034000D01*
X133578897Y-98892810D01*
X133495454Y-98763135D01*
X133368134Y-98676141D01*
X133217000Y-98645536D01*
X132467000Y-98645536D01*
X132325810Y-98672103D01*
X132196135Y-98755546D01*
X132109141Y-98882866D01*
X132098179Y-98937000D01*
X131466005Y-98937000D01*
X131459554Y-98921388D01*
X131138303Y-98599577D01*
X130718354Y-98425199D01*
X130263641Y-98424802D01*
X129843388Y-98598446D01*
X129521577Y-98919697D01*
X129347199Y-99339646D01*
X129346802Y-99794359D01*
X127091657Y-99794359D01*
X127046631Y-99568000D01*
X128016190Y-94693691D01*
X131757000Y-94693691D01*
X131757000Y-95134250D01*
X131915750Y-95293000D01*
X132715000Y-95293000D01*
X132715000Y-94343750D01*
X132969000Y-94343750D01*
X132969000Y-95293000D01*
X133768250Y-95293000D01*
X133927000Y-95134250D01*
X133927000Y-94693691D01*
X133830327Y-94460302D01*
X133651699Y-94281673D01*
X133418310Y-94185000D01*
X133127750Y-94185000D01*
X132969000Y-94343750D01*
X132715000Y-94343750D01*
X132556250Y-94185000D01*
X132265690Y-94185000D01*
X132032301Y-94281673D01*
X131853673Y-94460302D01*
X131757000Y-94693691D01*
X128016190Y-94693691D01*
X128203157Y-93753749D01*
X131496666Y-88824666D01*
X132856954Y-87915750D01*
X137619000Y-87915750D01*
X137619000Y-88206310D01*
X137715673Y-88439699D01*
X137894302Y-88618327D01*
X138127691Y-88715000D01*
X138568250Y-88715000D01*
X138727000Y-88556250D01*
X138727000Y-87757000D01*
X137777750Y-87757000D01*
X137619000Y-87915750D01*
X132856954Y-87915750D01*
X136425749Y-85531157D01*
X137292151Y-85358819D01*
X137221815Y-85405816D01*
X136967816Y-85659816D01*
X136831032Y-85864527D01*
X136783000Y-86106000D01*
X136783000Y-86611818D01*
X136733118Y-86731946D01*
X136732882Y-87002865D01*
X136836339Y-87253252D01*
X137027741Y-87444987D01*
X137277946Y-87548882D01*
X137548865Y-87549118D01*
X137743463Y-87468713D01*
X137777750Y-87503000D01*
X138727000Y-87503000D01*
X138727000Y-87483000D01*
X138981000Y-87483000D01*
X138981000Y-87503000D01*
X139001000Y-87503000D01*
X139001000Y-87757000D01*
X138981000Y-87757000D01*
X138981000Y-88556250D01*
X139139750Y-88715000D01*
X139580309Y-88715000D01*
X139813698Y-88618327D01*
X139992327Y-88439699D01*
X140089000Y-88206310D01*
X140089000Y-88204699D01*
X140092103Y-88221190D01*
X140175546Y-88350865D01*
X140302866Y-88437859D01*
X140454000Y-88468464D01*
X140548000Y-88468464D01*
X140548000Y-89088000D01*
X140576536Y-89231460D01*
X140576536Y-89854000D01*
X140588579Y-89918000D01*
X139446000Y-89918000D01*
X139252362Y-89956517D01*
X139088204Y-90066204D01*
X138834204Y-90320204D01*
X138724517Y-90484362D01*
X138686000Y-90678000D01*
X138686000Y-91140073D01*
X138600810Y-91156103D01*
X138471135Y-91239546D01*
X138384141Y-91366866D01*
X138353536Y-91518000D01*
X138353536Y-91762000D01*
X137923464Y-91762000D01*
X137923464Y-91668000D01*
X137896897Y-91526810D01*
X137813454Y-91397135D01*
X137686134Y-91310141D01*
X137535000Y-91279536D01*
X136785000Y-91279536D01*
X136643810Y-91306103D01*
X136514135Y-91389546D01*
X136427141Y-91516866D01*
X136396536Y-91668000D01*
X136396536Y-91762000D01*
X135570000Y-91762000D01*
X135376362Y-91800517D01*
X135212204Y-91910204D01*
X134770204Y-92352204D01*
X134660517Y-92516362D01*
X134622000Y-92710000D01*
X134622000Y-94606186D01*
X134611810Y-94608103D01*
X134482135Y-94691546D01*
X134395141Y-94818866D01*
X134364536Y-94970000D01*
X134364536Y-96170000D01*
X134391103Y-96311190D01*
X134474546Y-96440865D01*
X134591798Y-96520980D01*
X134482135Y-96591546D01*
X134395141Y-96718866D01*
X134364536Y-96870000D01*
X134364536Y-96964000D01*
X133669927Y-96964000D01*
X133653897Y-96878810D01*
X133570454Y-96749135D01*
X133443134Y-96662141D01*
X133407870Y-96655000D01*
X133418310Y-96655000D01*
X133651699Y-96558327D01*
X133830327Y-96379698D01*
X133927000Y-96146309D01*
X133927000Y-95705750D01*
X133768250Y-95547000D01*
X132969000Y-95547000D01*
X132969000Y-95567000D01*
X132715000Y-95567000D01*
X132715000Y-95547000D01*
X131915750Y-95547000D01*
X131757000Y-95705750D01*
X131757000Y-96146309D01*
X131853673Y-96379698D01*
X132032301Y-96558327D01*
X132265690Y-96655000D01*
X132267301Y-96655000D01*
X132250810Y-96658103D01*
X132121135Y-96741546D01*
X132034141Y-96868866D01*
X132003536Y-97020000D01*
X132003536Y-98220000D01*
X132030103Y-98361190D01*
X132113546Y-98490865D01*
X132240866Y-98577859D01*
X132392000Y-98608464D01*
X133292000Y-98608464D01*
X133433190Y-98581897D01*
X133562865Y-98498454D01*
X133649859Y-98371134D01*
X133680464Y-98220000D01*
X133680464Y-97976000D01*
X134364536Y-97976000D01*
X134364536Y-98070000D01*
X134391103Y-98211190D01*
X134474546Y-98340865D01*
X134601866Y-98427859D01*
X134622000Y-98431936D01*
X134622000Y-100538073D01*
X134536810Y-100554103D01*
X134407135Y-100637546D01*
X134320141Y-100764866D01*
X134289536Y-100916000D01*
X134289536Y-102116000D01*
X134316103Y-102257190D01*
X134399546Y-102386865D01*
X134526866Y-102473859D01*
X134678000Y-102504464D01*
X135578000Y-102504464D01*
X135719190Y-102477897D01*
X135848865Y-102394454D01*
X135935859Y-102267134D01*
X135966464Y-102116000D01*
X135966464Y-101593071D01*
X139955270Y-101593071D01*
X139955270Y-103684070D01*
X140114020Y-103842820D01*
X142113000Y-103842820D01*
X142113000Y-101243130D01*
X142367000Y-101243130D01*
X142367000Y-103842820D01*
X144365980Y-103842820D01*
X144524730Y-103684070D01*
X144524730Y-101593071D01*
X144428057Y-101359682D01*
X144249429Y-101181053D01*
X144016040Y-101084380D01*
X142525750Y-101084380D01*
X142367000Y-101243130D01*
X142113000Y-101243130D01*
X141954250Y-101084380D01*
X140463960Y-101084380D01*
X140230571Y-101181053D01*
X140051943Y-101359682D01*
X139955270Y-101593071D01*
X135966464Y-101593071D01*
X135966464Y-100916000D01*
X135939897Y-100774810D01*
X135929563Y-100758750D01*
X136169000Y-100758750D01*
X136169000Y-101054309D01*
X136265673Y-101287698D01*
X136444301Y-101466327D01*
X136677690Y-101563000D01*
X137128250Y-101563000D01*
X137287000Y-101404250D01*
X137287000Y-100600000D01*
X137541000Y-100600000D01*
X137541000Y-101404250D01*
X137699750Y-101563000D01*
X138150310Y-101563000D01*
X138383699Y-101466327D01*
X138562327Y-101287698D01*
X138659000Y-101054309D01*
X138659000Y-100758750D01*
X138500250Y-100600000D01*
X137541000Y-100600000D01*
X137287000Y-100600000D01*
X136327750Y-100600000D01*
X136169000Y-100758750D01*
X135929563Y-100758750D01*
X135856454Y-100645135D01*
X135729134Y-100558141D01*
X135680108Y-100548213D01*
X149689392Y-100548213D01*
X149758857Y-100790397D01*
X150282302Y-100977144D01*
X150837368Y-100949362D01*
X151221143Y-100790397D01*
X151290608Y-100548213D01*
X150490000Y-99747605D01*
X149689392Y-100548213D01*
X135680108Y-100548213D01*
X135634000Y-100538876D01*
X135634000Y-99891691D01*
X136169000Y-99891691D01*
X136169000Y-100187250D01*
X136327750Y-100346000D01*
X137287000Y-100346000D01*
X137287000Y-99541750D01*
X137541000Y-99541750D01*
X137541000Y-100346000D01*
X138500250Y-100346000D01*
X138659000Y-100187250D01*
X138659000Y-99891691D01*
X138562327Y-99658302D01*
X138383699Y-99479673D01*
X138150310Y-99383000D01*
X137699750Y-99383000D01*
X137541000Y-99541750D01*
X137287000Y-99541750D01*
X137128250Y-99383000D01*
X136677690Y-99383000D01*
X136444301Y-99479673D01*
X136265673Y-99658302D01*
X136169000Y-99891691D01*
X135634000Y-99891691D01*
X135634000Y-99360302D01*
X149080856Y-99360302D01*
X149108638Y-99915368D01*
X149267603Y-100299143D01*
X149509787Y-100368608D01*
X150310395Y-99568000D01*
X150669605Y-99568000D01*
X151470213Y-100368608D01*
X151712397Y-100299143D01*
X151899144Y-99775698D01*
X151871362Y-99220632D01*
X151712397Y-98836857D01*
X151470213Y-98767392D01*
X150669605Y-99568000D01*
X150310395Y-99568000D01*
X149509787Y-98767392D01*
X149267603Y-98836857D01*
X149080856Y-99360302D01*
X135634000Y-99360302D01*
X135634000Y-98587787D01*
X149689392Y-98587787D01*
X150490000Y-99388395D01*
X151290608Y-98587787D01*
X151221143Y-98345603D01*
X150697698Y-98158856D01*
X150142632Y-98186638D01*
X149758857Y-98345603D01*
X149689392Y-98587787D01*
X135634000Y-98587787D01*
X135634000Y-98433814D01*
X135644190Y-98431897D01*
X135773865Y-98348454D01*
X135860859Y-98221134D01*
X135891464Y-98070000D01*
X135891464Y-96870000D01*
X135864897Y-96728810D01*
X135781454Y-96599135D01*
X135664202Y-96519020D01*
X135773865Y-96448454D01*
X135860859Y-96321134D01*
X135891464Y-96170000D01*
X135891464Y-94970000D01*
X135864897Y-94828810D01*
X135781454Y-94699135D01*
X135654134Y-94612141D01*
X135634000Y-94608064D01*
X135634000Y-92919592D01*
X135779592Y-92774000D01*
X136396536Y-92774000D01*
X136396536Y-92868000D01*
X136423103Y-93009190D01*
X136506546Y-93138865D01*
X136623798Y-93218980D01*
X136514135Y-93289546D01*
X136427141Y-93416866D01*
X136396536Y-93568000D01*
X136396536Y-94768000D01*
X136423103Y-94909190D01*
X136506546Y-95038865D01*
X136633866Y-95125859D01*
X136785000Y-95156464D01*
X137535000Y-95156464D01*
X137676190Y-95129897D01*
X137805865Y-95046454D01*
X137892859Y-94919134D01*
X137923464Y-94768000D01*
X137923464Y-94674000D01*
X138353536Y-94674000D01*
X138353536Y-94918000D01*
X138380103Y-95059190D01*
X138463546Y-95188865D01*
X138590866Y-95275859D01*
X138742000Y-95306464D01*
X139642000Y-95306464D01*
X139783190Y-95279897D01*
X139912865Y-95196454D01*
X139997395Y-95072740D01*
X140201806Y-95072740D01*
X140201806Y-97416620D01*
X140228373Y-97557810D01*
X140311816Y-97687485D01*
X140439136Y-97774479D01*
X140590270Y-97805084D01*
X143889730Y-97805084D01*
X144030920Y-97778517D01*
X144160595Y-97695074D01*
X144247589Y-97567754D01*
X144278194Y-97416620D01*
X144278194Y-94806000D01*
X146058662Y-94806000D01*
X146065293Y-94841240D01*
X146148736Y-94970915D01*
X146276056Y-95057909D01*
X146321240Y-95067059D01*
X146321240Y-95431422D01*
X146286000Y-95438053D01*
X146156325Y-95521496D01*
X146069331Y-95648816D01*
X146038726Y-95799950D01*
X146038726Y-96600050D01*
X146065293Y-96741240D01*
X146148736Y-96870915D01*
X146276056Y-96957909D01*
X146427190Y-96988514D01*
X147227290Y-96988514D01*
X147368480Y-96961947D01*
X147498155Y-96878504D01*
X147585149Y-96751184D01*
X147615754Y-96600050D01*
X147615754Y-95799950D01*
X147589187Y-95658760D01*
X147505744Y-95529085D01*
X147378424Y-95442091D01*
X147333240Y-95432941D01*
X147333240Y-95068578D01*
X147368480Y-95061947D01*
X147498155Y-94978504D01*
X147585149Y-94851184D01*
X147585398Y-94849950D01*
X148037706Y-94849950D01*
X148037706Y-95650050D01*
X148064273Y-95791240D01*
X148147716Y-95920915D01*
X148275036Y-96007909D01*
X148426170Y-96038514D01*
X149226270Y-96038514D01*
X149367460Y-96011947D01*
X149437742Y-95966722D01*
X149450736Y-95986915D01*
X149578056Y-96073909D01*
X149623240Y-96083059D01*
X149623240Y-96447422D01*
X149588000Y-96454053D01*
X149458325Y-96537496D01*
X149371331Y-96664816D01*
X149340726Y-96815950D01*
X149340726Y-97616050D01*
X149367293Y-97757240D01*
X149450736Y-97886915D01*
X149578056Y-97973909D01*
X149729190Y-98004514D01*
X150529290Y-98004514D01*
X150670480Y-97977947D01*
X150768216Y-97915056D01*
X154096025Y-97915056D01*
X154215164Y-98171000D01*
X155575000Y-98171000D01*
X155575000Y-96810633D01*
X155319054Y-96692017D01*
X154733621Y-96960812D01*
X154295615Y-97433182D01*
X154096025Y-97915056D01*
X150768216Y-97915056D01*
X150800155Y-97894504D01*
X150887149Y-97767184D01*
X150917754Y-97616050D01*
X150917754Y-96815950D01*
X150891187Y-96674760D01*
X150807744Y-96545085D01*
X150680424Y-96458091D01*
X150635240Y-96448941D01*
X150635240Y-96084578D01*
X150670480Y-96077947D01*
X150800155Y-95994504D01*
X150887149Y-95867184D01*
X150887398Y-95865950D01*
X151339706Y-95865950D01*
X151339706Y-96666050D01*
X151366273Y-96807240D01*
X151449716Y-96936915D01*
X151577036Y-97023909D01*
X151728170Y-97054514D01*
X152528270Y-97054514D01*
X152669460Y-97027947D01*
X152799135Y-96944504D01*
X152886129Y-96817184D01*
X152916734Y-96666050D01*
X152916734Y-95865950D01*
X152890167Y-95724760D01*
X152806724Y-95595085D01*
X152679404Y-95508091D01*
X152636760Y-95499455D01*
X152636760Y-94682578D01*
X152672000Y-94675947D01*
X152801675Y-94592504D01*
X152888669Y-94465184D01*
X152919274Y-94314050D01*
X152919274Y-93513950D01*
X152892707Y-93372760D01*
X152809264Y-93243085D01*
X152681944Y-93156091D01*
X152636760Y-93146941D01*
X152636760Y-92782578D01*
X152672000Y-92775947D01*
X152801675Y-92692504D01*
X152888669Y-92565184D01*
X152919274Y-92414050D01*
X152919274Y-91613950D01*
X152892707Y-91472760D01*
X152809264Y-91343085D01*
X152681944Y-91256091D01*
X152530810Y-91225486D01*
X151730710Y-91225486D01*
X151589520Y-91252053D01*
X151459845Y-91335496D01*
X151372851Y-91462816D01*
X151342246Y-91613950D01*
X151342246Y-92414050D01*
X151368813Y-92555240D01*
X151452256Y-92684915D01*
X151579576Y-92771909D01*
X151624760Y-92781059D01*
X151624760Y-93145422D01*
X151589520Y-93152053D01*
X151459845Y-93235496D01*
X151372851Y-93362816D01*
X151342246Y-93513950D01*
X151342246Y-94314050D01*
X151368813Y-94455240D01*
X151452256Y-94584915D01*
X151579576Y-94671909D01*
X151624760Y-94681059D01*
X151624760Y-95496944D01*
X151586980Y-95504053D01*
X151457305Y-95587496D01*
X151370311Y-95714816D01*
X151339706Y-95865950D01*
X150887398Y-95865950D01*
X150917754Y-95716050D01*
X150917754Y-94915950D01*
X150891187Y-94774760D01*
X150807744Y-94645085D01*
X150680424Y-94558091D01*
X150529290Y-94527486D01*
X149729190Y-94527486D01*
X149588000Y-94554053D01*
X149517718Y-94599278D01*
X149504724Y-94579085D01*
X149377404Y-94492091D01*
X149226270Y-94461486D01*
X148426170Y-94461486D01*
X148284980Y-94488053D01*
X148155305Y-94571496D01*
X148068311Y-94698816D01*
X148037706Y-94849950D01*
X147585398Y-94849950D01*
X147615754Y-94700050D01*
X147615754Y-93899950D01*
X147589187Y-93758760D01*
X147505744Y-93629085D01*
X147378424Y-93542091D01*
X147227290Y-93511486D01*
X146427190Y-93511486D01*
X146286000Y-93538053D01*
X146156325Y-93621496D01*
X146069331Y-93748816D01*
X146060181Y-93794000D01*
X144278194Y-93794000D01*
X144278194Y-92915740D01*
X144251627Y-92774550D01*
X144168184Y-92644875D01*
X144040864Y-92557881D01*
X143889730Y-92527276D01*
X141796000Y-92527276D01*
X141796000Y-92390280D01*
X141885865Y-92332454D01*
X141972859Y-92205134D01*
X142003464Y-92054000D01*
X142003464Y-90994000D01*
X141991421Y-90930000D01*
X142489496Y-90930000D01*
X142476536Y-90994000D01*
X142476536Y-92054000D01*
X142503103Y-92195190D01*
X142586546Y-92324865D01*
X142713866Y-92411859D01*
X142865000Y-92442464D01*
X143515000Y-92442464D01*
X143656190Y-92415897D01*
X143785865Y-92332454D01*
X143872859Y-92205134D01*
X143883011Y-92155000D01*
X144322720Y-92155000D01*
X144380546Y-92244865D01*
X144507866Y-92331859D01*
X144659000Y-92362464D01*
X145409000Y-92362464D01*
X145550190Y-92335897D01*
X145679865Y-92252454D01*
X145766859Y-92125134D01*
X145791186Y-92005000D01*
X145973536Y-92005000D01*
X145973536Y-92124000D01*
X146000103Y-92265190D01*
X146083546Y-92394865D01*
X146210866Y-92481859D01*
X146362000Y-92512464D01*
X147262000Y-92512464D01*
X147403190Y-92485897D01*
X147532865Y-92402454D01*
X147619859Y-92275134D01*
X147650464Y-92124000D01*
X147650464Y-91940000D01*
X147751536Y-91940000D01*
X147751536Y-93140000D01*
X147778103Y-93281190D01*
X147861546Y-93410865D01*
X147988866Y-93497859D01*
X148140000Y-93528464D01*
X149040000Y-93528464D01*
X149181190Y-93501897D01*
X149230760Y-93470000D01*
X149363202Y-93470000D01*
X149369833Y-93505240D01*
X149453276Y-93634915D01*
X149580596Y-93721909D01*
X149731730Y-93752514D01*
X150531830Y-93752514D01*
X150673020Y-93725947D01*
X150802695Y-93642504D01*
X150889689Y-93515184D01*
X150920294Y-93364050D01*
X150920294Y-92563950D01*
X150893727Y-92422760D01*
X150810284Y-92293085D01*
X150682964Y-92206091D01*
X150531830Y-92175486D01*
X149731730Y-92175486D01*
X149590540Y-92202053D01*
X149460865Y-92285496D01*
X149428464Y-92332916D01*
X149428464Y-91940000D01*
X149401897Y-91798810D01*
X149318454Y-91669135D01*
X149191134Y-91582141D01*
X149040000Y-91551536D01*
X148140000Y-91551536D01*
X147998810Y-91578103D01*
X147869135Y-91661546D01*
X147782141Y-91788866D01*
X147751536Y-91940000D01*
X147650464Y-91940000D01*
X147650464Y-90930000D01*
X147751536Y-90930000D01*
X147751536Y-90940000D01*
X147778103Y-91081190D01*
X147861546Y-91210865D01*
X147988866Y-91297859D01*
X148140000Y-91328464D01*
X149040000Y-91328464D01*
X149181190Y-91301897D01*
X149310865Y-91218454D01*
X149397859Y-91091134D01*
X149428464Y-90940000D01*
X149428464Y-89740000D01*
X149401897Y-89598810D01*
X149318454Y-89469135D01*
X149191134Y-89382141D01*
X149040000Y-89351536D01*
X148140000Y-89351536D01*
X147998810Y-89378103D01*
X147869135Y-89461546D01*
X147782141Y-89588866D01*
X147751536Y-89740000D01*
X147751536Y-89918000D01*
X147650464Y-89918000D01*
X147650464Y-88724000D01*
X147623897Y-88582810D01*
X147540454Y-88453135D01*
X147443000Y-88386548D01*
X147443000Y-88140182D01*
X147492882Y-88020054D01*
X147493118Y-87749135D01*
X147389661Y-87498748D01*
X147198259Y-87307013D01*
X146948054Y-87203118D01*
X146677135Y-87202882D01*
X146426748Y-87306339D01*
X146235013Y-87497741D01*
X146131118Y-87747946D01*
X146130882Y-88018865D01*
X146181000Y-88140161D01*
X146181000Y-88387720D01*
X146091135Y-88445546D01*
X146004141Y-88572866D01*
X145993451Y-88625655D01*
X145947327Y-88514302D01*
X145768699Y-88335673D01*
X145535310Y-88239000D01*
X145319750Y-88239000D01*
X145161000Y-88397750D01*
X145161000Y-89347000D01*
X145181000Y-89347000D01*
X145181000Y-89601000D01*
X145161000Y-89601000D01*
X145161000Y-89621000D01*
X144907000Y-89621000D01*
X144907000Y-89601000D01*
X144182750Y-89601000D01*
X144024000Y-89759750D01*
X144024000Y-89918000D01*
X143890504Y-89918000D01*
X143903464Y-89854000D01*
X143903464Y-88794000D01*
X143894751Y-88747691D01*
X144024000Y-88747691D01*
X144024000Y-89188250D01*
X144182750Y-89347000D01*
X144907000Y-89347000D01*
X144907000Y-88397750D01*
X144748250Y-88239000D01*
X144532690Y-88239000D01*
X144299301Y-88335673D01*
X144120673Y-88514302D01*
X144024000Y-88747691D01*
X143894751Y-88747691D01*
X143876897Y-88652810D01*
X143793454Y-88523135D01*
X143666134Y-88436141D01*
X143515000Y-88405536D01*
X143074561Y-88405536D01*
X142924699Y-88255673D01*
X142691310Y-88159000D01*
X142525750Y-88159000D01*
X142367000Y-88317750D01*
X142367000Y-89197000D01*
X142387000Y-89197000D01*
X142387000Y-89451000D01*
X142367000Y-89451000D01*
X142367000Y-89471000D01*
X142113000Y-89471000D01*
X142113000Y-89451000D01*
X142093000Y-89451000D01*
X142093000Y-89197000D01*
X142113000Y-89197000D01*
X142113000Y-88317750D01*
X142014305Y-88219055D01*
X142042464Y-88080000D01*
X142042464Y-87180000D01*
X142015897Y-87038810D01*
X141932454Y-86909135D01*
X141805134Y-86822141D01*
X141654000Y-86791536D01*
X141560000Y-86791536D01*
X141560000Y-86690464D01*
X141654000Y-86690464D01*
X141795190Y-86663897D01*
X141924865Y-86580454D01*
X142011859Y-86453134D01*
X142031124Y-86358000D01*
X142104186Y-86358000D01*
X142106103Y-86368190D01*
X142189546Y-86497865D01*
X142316866Y-86584859D01*
X142468000Y-86615464D01*
X143668000Y-86615464D01*
X143809190Y-86588897D01*
X143826081Y-86578028D01*
X143829673Y-86586699D01*
X144008302Y-86765327D01*
X144241691Y-86862000D01*
X144682250Y-86862000D01*
X144841000Y-86703250D01*
X144841000Y-85979000D01*
X145095000Y-85979000D01*
X145095000Y-86703250D01*
X145253750Y-86862000D01*
X145694309Y-86862000D01*
X145927698Y-86765327D01*
X146106327Y-86586699D01*
X146203000Y-86353310D01*
X146203000Y-86137750D01*
X146044250Y-85979000D01*
X145095000Y-85979000D01*
X144841000Y-85979000D01*
X144821000Y-85979000D01*
X144821000Y-85725000D01*
X144841000Y-85725000D01*
X144841000Y-85705000D01*
X145095000Y-85705000D01*
X145095000Y-85725000D01*
X146044250Y-85725000D01*
X146203000Y-85566250D01*
X146203000Y-85350690D01*
X146118240Y-85146061D01*
X148054251Y-85531157D01*
X148054251Y-85531157D01*
G37*
X148054251Y-85531157D02*
X152983334Y-88824666D01*
X156276843Y-93753749D01*
X156981511Y-97296354D01*
X156670379Y-96960812D01*
X156084946Y-96692017D01*
X155829000Y-96810633D01*
X155829000Y-98171000D01*
X155849000Y-98171000D01*
X155849000Y-98425000D01*
X155829000Y-98425000D01*
X155829000Y-98445000D01*
X155575000Y-98445000D01*
X155575000Y-98425000D01*
X154215164Y-98425000D01*
X154096025Y-98680944D01*
X154295615Y-99162818D01*
X154567342Y-99455863D01*
X154544810Y-99460103D01*
X154415135Y-99543546D01*
X154328141Y-99670866D01*
X154297536Y-99822000D01*
X154297536Y-101854000D01*
X154324103Y-101995190D01*
X154407546Y-102124865D01*
X154534866Y-102211859D01*
X154686000Y-102242464D01*
X155196000Y-102242464D01*
X155196000Y-104946408D01*
X152698408Y-107444000D01*
X152191927Y-107444000D01*
X152175897Y-107358810D01*
X152092454Y-107229135D01*
X151965134Y-107142141D01*
X151814000Y-107111536D01*
X150614000Y-107111536D01*
X150472810Y-107138103D01*
X150343135Y-107221546D01*
X150256141Y-107348866D01*
X150225536Y-107500000D01*
X150225536Y-108400000D01*
X150252103Y-108541190D01*
X150335546Y-108670865D01*
X150462866Y-108757859D01*
X150614000Y-108788464D01*
X151814000Y-108788464D01*
X151955190Y-108761897D01*
X152084865Y-108678454D01*
X152171859Y-108551134D01*
X152191124Y-108456000D01*
X152908000Y-108456000D01*
X153101638Y-108417483D01*
X153265796Y-108307796D01*
X156059796Y-105513796D01*
X156169483Y-105349638D01*
X156208000Y-105156000D01*
X156208000Y-102242464D01*
X156718000Y-102242464D01*
X156859190Y-102215897D01*
X156913639Y-102180860D01*
X156276843Y-105382251D01*
X152983334Y-110311334D01*
X148054251Y-113604843D01*
X142240000Y-114761369D01*
X136425749Y-113604843D01*
X136018907Y-113333000D01*
X136112250Y-113333000D01*
X136271000Y-113174250D01*
X136271000Y-112225000D01*
X136525000Y-112225000D01*
X136525000Y-113174250D01*
X136683750Y-113333000D01*
X136974310Y-113333000D01*
X137207699Y-113236327D01*
X137386327Y-113057698D01*
X137483000Y-112824309D01*
X137483000Y-112383750D01*
X137324250Y-112225000D01*
X136525000Y-112225000D01*
X136271000Y-112225000D01*
X135471750Y-112225000D01*
X135313000Y-112383750D01*
X135313000Y-112824309D01*
X135334202Y-112875494D01*
X131496666Y-110311334D01*
X128203157Y-105382251D01*
X127752373Y-103116000D01*
X134289536Y-103116000D01*
X134289536Y-104316000D01*
X134316103Y-104457190D01*
X134399546Y-104586865D01*
X134526866Y-104673859D01*
X134678000Y-104704464D01*
X135578000Y-104704464D01*
X135719190Y-104677897D01*
X135848865Y-104594454D01*
X135935859Y-104467134D01*
X135966464Y-104316000D01*
X135966464Y-104222000D01*
X136420052Y-104222000D01*
X136442103Y-104339190D01*
X136525546Y-104468865D01*
X136652866Y-104555859D01*
X136804000Y-104586464D01*
X136908000Y-104586464D01*
X136908000Y-106426000D01*
X136946517Y-106619638D01*
X137056204Y-106783796D01*
X137310204Y-107037796D01*
X137365938Y-107075037D01*
X137225673Y-107215301D01*
X137222754Y-107222348D01*
X137215134Y-107217141D01*
X137064000Y-107186536D01*
X135864000Y-107186536D01*
X135722810Y-107213103D01*
X135593135Y-107296546D01*
X135506141Y-107423866D01*
X135475536Y-107575000D01*
X135475536Y-108325000D01*
X135502103Y-108466190D01*
X135585546Y-108595865D01*
X135712866Y-108682859D01*
X135864000Y-108713464D01*
X135958000Y-108713464D01*
X135958000Y-108909536D01*
X135948000Y-108909536D01*
X135806810Y-108936103D01*
X135677135Y-109019546D01*
X135590141Y-109146866D01*
X135559536Y-109298000D01*
X135559536Y-110498000D01*
X135586103Y-110639190D01*
X135669546Y-110768865D01*
X135796866Y-110855859D01*
X135832130Y-110863000D01*
X135821690Y-110863000D01*
X135588301Y-110959673D01*
X135409673Y-111138302D01*
X135313000Y-111371691D01*
X135313000Y-111812250D01*
X135471750Y-111971000D01*
X136271000Y-111971000D01*
X136271000Y-111951000D01*
X136525000Y-111951000D01*
X136525000Y-111971000D01*
X137324250Y-111971000D01*
X137483000Y-111812250D01*
X137483000Y-111498000D01*
X137845536Y-111498000D01*
X137845536Y-112698000D01*
X137872103Y-112839190D01*
X137955546Y-112968865D01*
X138054255Y-113036310D01*
X138094041Y-113236327D01*
X138101032Y-113271473D01*
X138237816Y-113476184D01*
X138491815Y-113730184D01*
X138696526Y-113866968D01*
X138736589Y-113874937D01*
X138938000Y-113915000D01*
X139697818Y-113915000D01*
X139817946Y-113964882D01*
X140088865Y-113965118D01*
X140339252Y-113861661D01*
X140530987Y-113670259D01*
X140634882Y-113420054D01*
X140635118Y-113149135D01*
X140583414Y-113024000D01*
X141004250Y-113024000D01*
X141163000Y-112865250D01*
X141163000Y-112141000D01*
X140213750Y-112141000D01*
X140055000Y-112299750D01*
X140055000Y-112515310D01*
X140091645Y-112603779D01*
X140090054Y-112603118D01*
X139819135Y-112602882D01*
X139697839Y-112653000D01*
X139522464Y-112653000D01*
X139522464Y-111512690D01*
X140055000Y-111512690D01*
X140055000Y-111728250D01*
X140213750Y-111887000D01*
X141163000Y-111887000D01*
X141163000Y-111162750D01*
X141417000Y-111162750D01*
X141417000Y-111887000D01*
X141437000Y-111887000D01*
X141437000Y-112141000D01*
X141417000Y-112141000D01*
X141417000Y-112865250D01*
X141575750Y-113024000D01*
X142016309Y-113024000D01*
X142249698Y-112927327D01*
X142428327Y-112748699D01*
X142431246Y-112741652D01*
X142438866Y-112746859D01*
X142590000Y-112777464D01*
X143790000Y-112777464D01*
X143931190Y-112750897D01*
X144060865Y-112667454D01*
X144147859Y-112540134D01*
X144178464Y-112389000D01*
X144178464Y-111639000D01*
X144151897Y-111497810D01*
X144068454Y-111368135D01*
X143941134Y-111281141D01*
X143821000Y-111256814D01*
X143821000Y-110823032D01*
X143872859Y-110747134D01*
X143900021Y-110613000D01*
X144013720Y-110613000D01*
X144071546Y-110702865D01*
X144198866Y-110789859D01*
X144350000Y-110820464D01*
X145550000Y-110820464D01*
X145691190Y-110793897D01*
X145820865Y-110710454D01*
X145907859Y-110583134D01*
X145938464Y-110432000D01*
X145938464Y-109532000D01*
X146161536Y-109532000D01*
X146161536Y-110432000D01*
X146188103Y-110573190D01*
X146271546Y-110702865D01*
X146398866Y-110789859D01*
X146550000Y-110820464D01*
X147750000Y-110820464D01*
X147891190Y-110793897D01*
X148020865Y-110710454D01*
X148087452Y-110613000D01*
X148333818Y-110613000D01*
X148453946Y-110662882D01*
X148724865Y-110663118D01*
X148975252Y-110559661D01*
X149166987Y-110368259D01*
X149270882Y-110118054D01*
X149271118Y-109847135D01*
X149167661Y-109596748D01*
X148976259Y-109405013D01*
X148726054Y-109301118D01*
X148455135Y-109300882D01*
X148333839Y-109351000D01*
X148086280Y-109351000D01*
X148028454Y-109261135D01*
X147901134Y-109174141D01*
X147750000Y-109143536D01*
X146550000Y-109143536D01*
X146408810Y-109170103D01*
X146279135Y-109253546D01*
X146192141Y-109380866D01*
X146161536Y-109532000D01*
X145938464Y-109532000D01*
X145911897Y-109390810D01*
X145828454Y-109261135D01*
X145701134Y-109174141D01*
X145550000Y-109143536D01*
X144350000Y-109143536D01*
X144208810Y-109170103D01*
X144079135Y-109253546D01*
X144012548Y-109351000D01*
X143848706Y-109351000D01*
X143793454Y-109265135D01*
X143666134Y-109178141D01*
X143515000Y-109147536D01*
X142865000Y-109147536D01*
X142723810Y-109174103D01*
X142594135Y-109257546D01*
X142507141Y-109384866D01*
X142476536Y-109536000D01*
X142476536Y-110596000D01*
X142503103Y-110737190D01*
X142559000Y-110824057D01*
X142559000Y-111256369D01*
X142448810Y-111277103D01*
X142431919Y-111287972D01*
X142428327Y-111279301D01*
X142249698Y-111100673D01*
X142016309Y-111004000D01*
X141575750Y-111004000D01*
X141417000Y-111162750D01*
X141163000Y-111162750D01*
X141004250Y-111004000D01*
X140563691Y-111004000D01*
X140330302Y-111100673D01*
X140151673Y-111279301D01*
X140055000Y-111512690D01*
X139522464Y-111512690D01*
X139522464Y-111498000D01*
X139495897Y-111356810D01*
X139412454Y-111227135D01*
X139285134Y-111140141D01*
X139134000Y-111109536D01*
X138234000Y-111109536D01*
X138092810Y-111136103D01*
X137963135Y-111219546D01*
X137876141Y-111346866D01*
X137845536Y-111498000D01*
X137483000Y-111498000D01*
X137483000Y-111371691D01*
X137386327Y-111138302D01*
X137207699Y-110959673D01*
X136974310Y-110863000D01*
X136972699Y-110863000D01*
X136989190Y-110859897D01*
X137118865Y-110776454D01*
X137205859Y-110649134D01*
X137236464Y-110498000D01*
X137236464Y-110404000D01*
X137845536Y-110404000D01*
X137845536Y-110498000D01*
X137872103Y-110639190D01*
X137955546Y-110768865D01*
X138082866Y-110855859D01*
X138234000Y-110886464D01*
X139134000Y-110886464D01*
X139275190Y-110859897D01*
X139404865Y-110776454D01*
X139491859Y-110649134D01*
X139522464Y-110498000D01*
X139522464Y-110404000D01*
X140576536Y-110404000D01*
X140576536Y-110596000D01*
X140603103Y-110737190D01*
X140686546Y-110866865D01*
X140813866Y-110953859D01*
X140965000Y-110984464D01*
X141615000Y-110984464D01*
X141756190Y-110957897D01*
X141885865Y-110874454D01*
X141972859Y-110747134D01*
X142003464Y-110596000D01*
X142003464Y-109536000D01*
X141976897Y-109394810D01*
X141893454Y-109265135D01*
X141766134Y-109178141D01*
X141615000Y-109147536D01*
X140965000Y-109147536D01*
X140823810Y-109174103D01*
X140694135Y-109257546D01*
X140607141Y-109384866D01*
X140605696Y-109392000D01*
X139522464Y-109392000D01*
X139522464Y-109298000D01*
X139495897Y-109156810D01*
X139412454Y-109027135D01*
X139285134Y-108940141D01*
X139186482Y-108920164D01*
X139323698Y-108863327D01*
X139502327Y-108684699D01*
X139599000Y-108451310D01*
X139599000Y-108235750D01*
X139440250Y-108077000D01*
X138491000Y-108077000D01*
X138491000Y-108097000D01*
X138237000Y-108097000D01*
X138237000Y-108077000D01*
X138217000Y-108077000D01*
X138217000Y-107823000D01*
X138237000Y-107823000D01*
X138237000Y-107803000D01*
X138491000Y-107803000D01*
X138491000Y-107823000D01*
X139440250Y-107823000D01*
X139599000Y-107664250D01*
X139599000Y-107448690D01*
X139502327Y-107215301D01*
X139473026Y-107186000D01*
X140606911Y-107186000D01*
X140576536Y-107336000D01*
X140576536Y-108396000D01*
X140603103Y-108537190D01*
X140686546Y-108666865D01*
X140813866Y-108753859D01*
X140965000Y-108784464D01*
X141405439Y-108784464D01*
X141555301Y-108934327D01*
X141788690Y-109031000D01*
X141954250Y-109031000D01*
X142113000Y-108872250D01*
X142113000Y-107993000D01*
X142093000Y-107993000D01*
X142093000Y-107739000D01*
X142113000Y-107739000D01*
X142113000Y-106859750D01*
X142031380Y-106778130D01*
X142113000Y-106696510D01*
X142113000Y-104096820D01*
X142367000Y-104096820D01*
X142367000Y-106696510D01*
X142448620Y-106778130D01*
X142367000Y-106859750D01*
X142367000Y-107739000D01*
X142387000Y-107739000D01*
X142387000Y-107993000D01*
X142367000Y-107993000D01*
X142367000Y-108872250D01*
X142525750Y-109031000D01*
X142691310Y-109031000D01*
X142924699Y-108934327D01*
X143074561Y-108784464D01*
X143515000Y-108784464D01*
X143656190Y-108757897D01*
X143785865Y-108674454D01*
X143872859Y-108547134D01*
X143903464Y-108396000D01*
X143903464Y-108372000D01*
X148025536Y-108372000D01*
X148025536Y-108400000D01*
X148052103Y-108541190D01*
X148135546Y-108670865D01*
X148262866Y-108757859D01*
X148414000Y-108788464D01*
X149614000Y-108788464D01*
X149755190Y-108761897D01*
X149884865Y-108678454D01*
X149971859Y-108551134D01*
X150002464Y-108400000D01*
X150002464Y-107500000D01*
X149975897Y-107358810D01*
X149892454Y-107229135D01*
X149765134Y-107142141D01*
X149614000Y-107111536D01*
X148414000Y-107111536D01*
X148272810Y-107138103D01*
X148143135Y-107221546D01*
X148056141Y-107348866D01*
X148053886Y-107360000D01*
X143903464Y-107360000D01*
X143903464Y-107336000D01*
X143876897Y-107194810D01*
X143793454Y-107065135D01*
X143666134Y-106978141D01*
X143515000Y-106947536D01*
X143074561Y-106947536D01*
X142982286Y-106855260D01*
X144016040Y-106855260D01*
X144249429Y-106758587D01*
X144428057Y-106579958D01*
X144524730Y-106346569D01*
X144524730Y-104255570D01*
X144365980Y-104096820D01*
X142367000Y-104096820D01*
X142113000Y-104096820D01*
X140114020Y-104096820D01*
X139955270Y-104255570D01*
X139955270Y-106174000D01*
X137920000Y-106174000D01*
X137920000Y-104586464D01*
X138024000Y-104586464D01*
X138165190Y-104559897D01*
X138294865Y-104476454D01*
X138381859Y-104349134D01*
X138412464Y-104198000D01*
X138412464Y-103288000D01*
X138385897Y-103146810D01*
X138302454Y-103017135D01*
X138175134Y-102930141D01*
X138024000Y-102899536D01*
X136804000Y-102899536D01*
X136662810Y-102926103D01*
X136533135Y-103009546D01*
X136446141Y-103136866D01*
X136431331Y-103210000D01*
X135966464Y-103210000D01*
X135966464Y-103116000D01*
X135939897Y-102974810D01*
X135856454Y-102845135D01*
X135729134Y-102758141D01*
X135578000Y-102727536D01*
X134678000Y-102727536D01*
X134536810Y-102754103D01*
X134407135Y-102837546D01*
X134320141Y-102964866D01*
X134289536Y-103116000D01*
X127752373Y-103116000D01*
X127494533Y-101819750D01*
X131832000Y-101819750D01*
X131832000Y-102260309D01*
X131928673Y-102493698D01*
X132107301Y-102672327D01*
X132340690Y-102769000D01*
X132556250Y-102769000D01*
X132715000Y-102610250D01*
X132715000Y-101661000D01*
X132969000Y-101661000D01*
X132969000Y-102610250D01*
X133127750Y-102769000D01*
X133343310Y-102769000D01*
X133576699Y-102672327D01*
X133755327Y-102493698D01*
X133852000Y-102260309D01*
X133852000Y-101819750D01*
X133693250Y-101661000D01*
X132969000Y-101661000D01*
X132715000Y-101661000D01*
X131990750Y-101661000D01*
X131832000Y-101819750D01*
X127494533Y-101819750D01*
X127091657Y-99794359D01*
X129346802Y-99794359D01*
X129520446Y-100214612D01*
X129841697Y-100536423D01*
X130261646Y-100710801D01*
X130716359Y-100711198D01*
X131136612Y-100537554D01*
X131458423Y-100216303D01*
X131465608Y-100199000D01*
X132078536Y-100199000D01*
X132078536Y-100234000D01*
X132105103Y-100375190D01*
X132115972Y-100392081D01*
X132107301Y-100395673D01*
X131928673Y-100574302D01*
X131832000Y-100807691D01*
X131832000Y-101248250D01*
X131990750Y-101407000D01*
X132715000Y-101407000D01*
X132715000Y-101387000D01*
X132969000Y-101387000D01*
X132969000Y-101407000D01*
X133693250Y-101407000D01*
X133852000Y-101248250D01*
X133852000Y-100807691D01*
X133755327Y-100574302D01*
X133576699Y-100395673D01*
X133569652Y-100392754D01*
X133574859Y-100385134D01*
X133605464Y-100234000D01*
X133605464Y-99034000D01*
X133578897Y-98892810D01*
X133495454Y-98763135D01*
X133368134Y-98676141D01*
X133217000Y-98645536D01*
X132467000Y-98645536D01*
X132325810Y-98672103D01*
X132196135Y-98755546D01*
X132109141Y-98882866D01*
X132098179Y-98937000D01*
X131466005Y-98937000D01*
X131459554Y-98921388D01*
X131138303Y-98599577D01*
X130718354Y-98425199D01*
X130263641Y-98424802D01*
X129843388Y-98598446D01*
X129521577Y-98919697D01*
X129347199Y-99339646D01*
X129346802Y-99794359D01*
X127091657Y-99794359D01*
X127046631Y-99568000D01*
X128016190Y-94693691D01*
X131757000Y-94693691D01*
X131757000Y-95134250D01*
X131915750Y-95293000D01*
X132715000Y-95293000D01*
X132715000Y-94343750D01*
X132969000Y-94343750D01*
X132969000Y-95293000D01*
X133768250Y-95293000D01*
X133927000Y-95134250D01*
X133927000Y-94693691D01*
X133830327Y-94460302D01*
X133651699Y-94281673D01*
X133418310Y-94185000D01*
X133127750Y-94185000D01*
X132969000Y-94343750D01*
X132715000Y-94343750D01*
X132556250Y-94185000D01*
X132265690Y-94185000D01*
X132032301Y-94281673D01*
X131853673Y-94460302D01*
X131757000Y-94693691D01*
X128016190Y-94693691D01*
X128203157Y-93753749D01*
X131496666Y-88824666D01*
X132856954Y-87915750D01*
X137619000Y-87915750D01*
X137619000Y-88206310D01*
X137715673Y-88439699D01*
X137894302Y-88618327D01*
X138127691Y-88715000D01*
X138568250Y-88715000D01*
X138727000Y-88556250D01*
X138727000Y-87757000D01*
X137777750Y-87757000D01*
X137619000Y-87915750D01*
X132856954Y-87915750D01*
X136425749Y-85531157D01*
X137292151Y-85358819D01*
X137221815Y-85405816D01*
X136967816Y-85659816D01*
X136831032Y-85864527D01*
X136783000Y-86106000D01*
X136783000Y-86611818D01*
X136733118Y-86731946D01*
X136732882Y-87002865D01*
X136836339Y-87253252D01*
X137027741Y-87444987D01*
X137277946Y-87548882D01*
X137548865Y-87549118D01*
X137743463Y-87468713D01*
X137777750Y-87503000D01*
X138727000Y-87503000D01*
X138727000Y-87483000D01*
X138981000Y-87483000D01*
X138981000Y-87503000D01*
X139001000Y-87503000D01*
X139001000Y-87757000D01*
X138981000Y-87757000D01*
X138981000Y-88556250D01*
X139139750Y-88715000D01*
X139580309Y-88715000D01*
X139813698Y-88618327D01*
X139992327Y-88439699D01*
X140089000Y-88206310D01*
X140089000Y-88204699D01*
X140092103Y-88221190D01*
X140175546Y-88350865D01*
X140302866Y-88437859D01*
X140454000Y-88468464D01*
X140548000Y-88468464D01*
X140548000Y-89088000D01*
X140576536Y-89231460D01*
X140576536Y-89854000D01*
X140588579Y-89918000D01*
X139446000Y-89918000D01*
X139252362Y-89956517D01*
X139088204Y-90066204D01*
X138834204Y-90320204D01*
X138724517Y-90484362D01*
X138686000Y-90678000D01*
X138686000Y-91140073D01*
X138600810Y-91156103D01*
X138471135Y-91239546D01*
X138384141Y-91366866D01*
X138353536Y-91518000D01*
X138353536Y-91762000D01*
X137923464Y-91762000D01*
X137923464Y-91668000D01*
X137896897Y-91526810D01*
X137813454Y-91397135D01*
X137686134Y-91310141D01*
X137535000Y-91279536D01*
X136785000Y-91279536D01*
X136643810Y-91306103D01*
X136514135Y-91389546D01*
X136427141Y-91516866D01*
X136396536Y-91668000D01*
X136396536Y-91762000D01*
X135570000Y-91762000D01*
X135376362Y-91800517D01*
X135212204Y-91910204D01*
X134770204Y-92352204D01*
X134660517Y-92516362D01*
X134622000Y-92710000D01*
X134622000Y-94606186D01*
X134611810Y-94608103D01*
X134482135Y-94691546D01*
X134395141Y-94818866D01*
X134364536Y-94970000D01*
X134364536Y-96170000D01*
X134391103Y-96311190D01*
X134474546Y-96440865D01*
X134591798Y-96520980D01*
X134482135Y-96591546D01*
X134395141Y-96718866D01*
X134364536Y-96870000D01*
X134364536Y-96964000D01*
X133669927Y-96964000D01*
X133653897Y-96878810D01*
X133570454Y-96749135D01*
X133443134Y-96662141D01*
X133407870Y-96655000D01*
X133418310Y-96655000D01*
X133651699Y-96558327D01*
X133830327Y-96379698D01*
X133927000Y-96146309D01*
X133927000Y-95705750D01*
X133768250Y-95547000D01*
X132969000Y-95547000D01*
X132969000Y-95567000D01*
X132715000Y-95567000D01*
X132715000Y-95547000D01*
X131915750Y-95547000D01*
X131757000Y-95705750D01*
X131757000Y-96146309D01*
X131853673Y-96379698D01*
X132032301Y-96558327D01*
X132265690Y-96655000D01*
X132267301Y-96655000D01*
X132250810Y-96658103D01*
X132121135Y-96741546D01*
X132034141Y-96868866D01*
X132003536Y-97020000D01*
X132003536Y-98220000D01*
X132030103Y-98361190D01*
X132113546Y-98490865D01*
X132240866Y-98577859D01*
X132392000Y-98608464D01*
X133292000Y-98608464D01*
X133433190Y-98581897D01*
X133562865Y-98498454D01*
X133649859Y-98371134D01*
X133680464Y-98220000D01*
X133680464Y-97976000D01*
X134364536Y-97976000D01*
X134364536Y-98070000D01*
X134391103Y-98211190D01*
X134474546Y-98340865D01*
X134601866Y-98427859D01*
X134622000Y-98431936D01*
X134622000Y-100538073D01*
X134536810Y-100554103D01*
X134407135Y-100637546D01*
X134320141Y-100764866D01*
X134289536Y-100916000D01*
X134289536Y-102116000D01*
X134316103Y-102257190D01*
X134399546Y-102386865D01*
X134526866Y-102473859D01*
X134678000Y-102504464D01*
X135578000Y-102504464D01*
X135719190Y-102477897D01*
X135848865Y-102394454D01*
X135935859Y-102267134D01*
X135966464Y-102116000D01*
X135966464Y-101593071D01*
X139955270Y-101593071D01*
X139955270Y-103684070D01*
X140114020Y-103842820D01*
X142113000Y-103842820D01*
X142113000Y-101243130D01*
X142367000Y-101243130D01*
X142367000Y-103842820D01*
X144365980Y-103842820D01*
X144524730Y-103684070D01*
X144524730Y-101593071D01*
X144428057Y-101359682D01*
X144249429Y-101181053D01*
X144016040Y-101084380D01*
X142525750Y-101084380D01*
X142367000Y-101243130D01*
X142113000Y-101243130D01*
X141954250Y-101084380D01*
X140463960Y-101084380D01*
X140230571Y-101181053D01*
X140051943Y-101359682D01*
X139955270Y-101593071D01*
X135966464Y-101593071D01*
X135966464Y-100916000D01*
X135939897Y-100774810D01*
X135929563Y-100758750D01*
X136169000Y-100758750D01*
X136169000Y-101054309D01*
X136265673Y-101287698D01*
X136444301Y-101466327D01*
X136677690Y-101563000D01*
X137128250Y-101563000D01*
X137287000Y-101404250D01*
X137287000Y-100600000D01*
X137541000Y-100600000D01*
X137541000Y-101404250D01*
X137699750Y-101563000D01*
X138150310Y-101563000D01*
X138383699Y-101466327D01*
X138562327Y-101287698D01*
X138659000Y-101054309D01*
X138659000Y-100758750D01*
X138500250Y-100600000D01*
X137541000Y-100600000D01*
X137287000Y-100600000D01*
X136327750Y-100600000D01*
X136169000Y-100758750D01*
X135929563Y-100758750D01*
X135856454Y-100645135D01*
X135729134Y-100558141D01*
X135680108Y-100548213D01*
X149689392Y-100548213D01*
X149758857Y-100790397D01*
X150282302Y-100977144D01*
X150837368Y-100949362D01*
X151221143Y-100790397D01*
X151290608Y-100548213D01*
X150490000Y-99747605D01*
X149689392Y-100548213D01*
X135680108Y-100548213D01*
X135634000Y-100538876D01*
X135634000Y-99891691D01*
X136169000Y-99891691D01*
X136169000Y-100187250D01*
X136327750Y-100346000D01*
X137287000Y-100346000D01*
X137287000Y-99541750D01*
X137541000Y-99541750D01*
X137541000Y-100346000D01*
X138500250Y-100346000D01*
X138659000Y-100187250D01*
X138659000Y-99891691D01*
X138562327Y-99658302D01*
X138383699Y-99479673D01*
X138150310Y-99383000D01*
X137699750Y-99383000D01*
X137541000Y-99541750D01*
X137287000Y-99541750D01*
X137128250Y-99383000D01*
X136677690Y-99383000D01*
X136444301Y-99479673D01*
X136265673Y-99658302D01*
X136169000Y-99891691D01*
X135634000Y-99891691D01*
X135634000Y-99360302D01*
X149080856Y-99360302D01*
X149108638Y-99915368D01*
X149267603Y-100299143D01*
X149509787Y-100368608D01*
X150310395Y-99568000D01*
X150669605Y-99568000D01*
X151470213Y-100368608D01*
X151712397Y-100299143D01*
X151899144Y-99775698D01*
X151871362Y-99220632D01*
X151712397Y-98836857D01*
X151470213Y-98767392D01*
X150669605Y-99568000D01*
X150310395Y-99568000D01*
X149509787Y-98767392D01*
X149267603Y-98836857D01*
X149080856Y-99360302D01*
X135634000Y-99360302D01*
X135634000Y-98587787D01*
X149689392Y-98587787D01*
X150490000Y-99388395D01*
X151290608Y-98587787D01*
X151221143Y-98345603D01*
X150697698Y-98158856D01*
X150142632Y-98186638D01*
X149758857Y-98345603D01*
X149689392Y-98587787D01*
X135634000Y-98587787D01*
X135634000Y-98433814D01*
X135644190Y-98431897D01*
X135773865Y-98348454D01*
X135860859Y-98221134D01*
X135891464Y-98070000D01*
X135891464Y-96870000D01*
X135864897Y-96728810D01*
X135781454Y-96599135D01*
X135664202Y-96519020D01*
X135773865Y-96448454D01*
X135860859Y-96321134D01*
X135891464Y-96170000D01*
X135891464Y-94970000D01*
X135864897Y-94828810D01*
X135781454Y-94699135D01*
X135654134Y-94612141D01*
X135634000Y-94608064D01*
X135634000Y-92919592D01*
X135779592Y-92774000D01*
X136396536Y-92774000D01*
X136396536Y-92868000D01*
X136423103Y-93009190D01*
X136506546Y-93138865D01*
X136623798Y-93218980D01*
X136514135Y-93289546D01*
X136427141Y-93416866D01*
X136396536Y-93568000D01*
X136396536Y-94768000D01*
X136423103Y-94909190D01*
X136506546Y-95038865D01*
X136633866Y-95125859D01*
X136785000Y-95156464D01*
X137535000Y-95156464D01*
X137676190Y-95129897D01*
X137805865Y-95046454D01*
X137892859Y-94919134D01*
X137923464Y-94768000D01*
X137923464Y-94674000D01*
X138353536Y-94674000D01*
X138353536Y-94918000D01*
X138380103Y-95059190D01*
X138463546Y-95188865D01*
X138590866Y-95275859D01*
X138742000Y-95306464D01*
X139642000Y-95306464D01*
X139783190Y-95279897D01*
X139912865Y-95196454D01*
X139997395Y-95072740D01*
X140201806Y-95072740D01*
X140201806Y-97416620D01*
X140228373Y-97557810D01*
X140311816Y-97687485D01*
X140439136Y-97774479D01*
X140590270Y-97805084D01*
X143889730Y-97805084D01*
X144030920Y-97778517D01*
X144160595Y-97695074D01*
X144247589Y-97567754D01*
X144278194Y-97416620D01*
X144278194Y-94806000D01*
X146058662Y-94806000D01*
X146065293Y-94841240D01*
X146148736Y-94970915D01*
X146276056Y-95057909D01*
X146321240Y-95067059D01*
X146321240Y-95431422D01*
X146286000Y-95438053D01*
X146156325Y-95521496D01*
X146069331Y-95648816D01*
X146038726Y-95799950D01*
X146038726Y-96600050D01*
X146065293Y-96741240D01*
X146148736Y-96870915D01*
X146276056Y-96957909D01*
X146427190Y-96988514D01*
X147227290Y-96988514D01*
X147368480Y-96961947D01*
X147498155Y-96878504D01*
X147585149Y-96751184D01*
X147615754Y-96600050D01*
X147615754Y-95799950D01*
X147589187Y-95658760D01*
X147505744Y-95529085D01*
X147378424Y-95442091D01*
X147333240Y-95432941D01*
X147333240Y-95068578D01*
X147368480Y-95061947D01*
X147498155Y-94978504D01*
X147585149Y-94851184D01*
X147585398Y-94849950D01*
X148037706Y-94849950D01*
X148037706Y-95650050D01*
X148064273Y-95791240D01*
X148147716Y-95920915D01*
X148275036Y-96007909D01*
X148426170Y-96038514D01*
X149226270Y-96038514D01*
X149367460Y-96011947D01*
X149437742Y-95966722D01*
X149450736Y-95986915D01*
X149578056Y-96073909D01*
X149623240Y-96083059D01*
X149623240Y-96447422D01*
X149588000Y-96454053D01*
X149458325Y-96537496D01*
X149371331Y-96664816D01*
X149340726Y-96815950D01*
X149340726Y-97616050D01*
X149367293Y-97757240D01*
X149450736Y-97886915D01*
X149578056Y-97973909D01*
X149729190Y-98004514D01*
X150529290Y-98004514D01*
X150670480Y-97977947D01*
X150768216Y-97915056D01*
X154096025Y-97915056D01*
X154215164Y-98171000D01*
X155575000Y-98171000D01*
X155575000Y-96810633D01*
X155319054Y-96692017D01*
X154733621Y-96960812D01*
X154295615Y-97433182D01*
X154096025Y-97915056D01*
X150768216Y-97915056D01*
X150800155Y-97894504D01*
X150887149Y-97767184D01*
X150917754Y-97616050D01*
X150917754Y-96815950D01*
X150891187Y-96674760D01*
X150807744Y-96545085D01*
X150680424Y-96458091D01*
X150635240Y-96448941D01*
X150635240Y-96084578D01*
X150670480Y-96077947D01*
X150800155Y-95994504D01*
X150887149Y-95867184D01*
X150887398Y-95865950D01*
X151339706Y-95865950D01*
X151339706Y-96666050D01*
X151366273Y-96807240D01*
X151449716Y-96936915D01*
X151577036Y-97023909D01*
X151728170Y-97054514D01*
X152528270Y-97054514D01*
X152669460Y-97027947D01*
X152799135Y-96944504D01*
X152886129Y-96817184D01*
X152916734Y-96666050D01*
X152916734Y-95865950D01*
X152890167Y-95724760D01*
X152806724Y-95595085D01*
X152679404Y-95508091D01*
X152636760Y-95499455D01*
X152636760Y-94682578D01*
X152672000Y-94675947D01*
X152801675Y-94592504D01*
X152888669Y-94465184D01*
X152919274Y-94314050D01*
X152919274Y-93513950D01*
X152892707Y-93372760D01*
X152809264Y-93243085D01*
X152681944Y-93156091D01*
X152636760Y-93146941D01*
X152636760Y-92782578D01*
X152672000Y-92775947D01*
X152801675Y-92692504D01*
X152888669Y-92565184D01*
X152919274Y-92414050D01*
X152919274Y-91613950D01*
X152892707Y-91472760D01*
X152809264Y-91343085D01*
X152681944Y-91256091D01*
X152530810Y-91225486D01*
X151730710Y-91225486D01*
X151589520Y-91252053D01*
X151459845Y-91335496D01*
X151372851Y-91462816D01*
X151342246Y-91613950D01*
X151342246Y-92414050D01*
X151368813Y-92555240D01*
X151452256Y-92684915D01*
X151579576Y-92771909D01*
X151624760Y-92781059D01*
X151624760Y-93145422D01*
X151589520Y-93152053D01*
X151459845Y-93235496D01*
X151372851Y-93362816D01*
X151342246Y-93513950D01*
X151342246Y-94314050D01*
X151368813Y-94455240D01*
X151452256Y-94584915D01*
X151579576Y-94671909D01*
X151624760Y-94681059D01*
X151624760Y-95496944D01*
X151586980Y-95504053D01*
X151457305Y-95587496D01*
X151370311Y-95714816D01*
X151339706Y-95865950D01*
X150887398Y-95865950D01*
X150917754Y-95716050D01*
X150917754Y-94915950D01*
X150891187Y-94774760D01*
X150807744Y-94645085D01*
X150680424Y-94558091D01*
X150529290Y-94527486D01*
X149729190Y-94527486D01*
X149588000Y-94554053D01*
X149517718Y-94599278D01*
X149504724Y-94579085D01*
X149377404Y-94492091D01*
X149226270Y-94461486D01*
X148426170Y-94461486D01*
X148284980Y-94488053D01*
X148155305Y-94571496D01*
X148068311Y-94698816D01*
X148037706Y-94849950D01*
X147585398Y-94849950D01*
X147615754Y-94700050D01*
X147615754Y-93899950D01*
X147589187Y-93758760D01*
X147505744Y-93629085D01*
X147378424Y-93542091D01*
X147227290Y-93511486D01*
X146427190Y-93511486D01*
X146286000Y-93538053D01*
X146156325Y-93621496D01*
X146069331Y-93748816D01*
X146060181Y-93794000D01*
X144278194Y-93794000D01*
X144278194Y-92915740D01*
X144251627Y-92774550D01*
X144168184Y-92644875D01*
X144040864Y-92557881D01*
X143889730Y-92527276D01*
X141796000Y-92527276D01*
X141796000Y-92390280D01*
X141885865Y-92332454D01*
X141972859Y-92205134D01*
X142003464Y-92054000D01*
X142003464Y-90994000D01*
X141991421Y-90930000D01*
X142489496Y-90930000D01*
X142476536Y-90994000D01*
X142476536Y-92054000D01*
X142503103Y-92195190D01*
X142586546Y-92324865D01*
X142713866Y-92411859D01*
X142865000Y-92442464D01*
X143515000Y-92442464D01*
X143656190Y-92415897D01*
X143785865Y-92332454D01*
X143872859Y-92205134D01*
X143883011Y-92155000D01*
X144322720Y-92155000D01*
X144380546Y-92244865D01*
X144507866Y-92331859D01*
X144659000Y-92362464D01*
X145409000Y-92362464D01*
X145550190Y-92335897D01*
X145679865Y-92252454D01*
X145766859Y-92125134D01*
X145791186Y-92005000D01*
X145973536Y-92005000D01*
X145973536Y-92124000D01*
X146000103Y-92265190D01*
X146083546Y-92394865D01*
X146210866Y-92481859D01*
X146362000Y-92512464D01*
X147262000Y-92512464D01*
X147403190Y-92485897D01*
X147532865Y-92402454D01*
X147619859Y-92275134D01*
X147650464Y-92124000D01*
X147650464Y-91940000D01*
X147751536Y-91940000D01*
X147751536Y-93140000D01*
X147778103Y-93281190D01*
X147861546Y-93410865D01*
X147988866Y-93497859D01*
X148140000Y-93528464D01*
X149040000Y-93528464D01*
X149181190Y-93501897D01*
X149230760Y-93470000D01*
X149363202Y-93470000D01*
X149369833Y-93505240D01*
X149453276Y-93634915D01*
X149580596Y-93721909D01*
X149731730Y-93752514D01*
X150531830Y-93752514D01*
X150673020Y-93725947D01*
X150802695Y-93642504D01*
X150889689Y-93515184D01*
X150920294Y-93364050D01*
X150920294Y-92563950D01*
X150893727Y-92422760D01*
X150810284Y-92293085D01*
X150682964Y-92206091D01*
X150531830Y-92175486D01*
X149731730Y-92175486D01*
X149590540Y-92202053D01*
X149460865Y-92285496D01*
X149428464Y-92332916D01*
X149428464Y-91940000D01*
X149401897Y-91798810D01*
X149318454Y-91669135D01*
X149191134Y-91582141D01*
X149040000Y-91551536D01*
X148140000Y-91551536D01*
X147998810Y-91578103D01*
X147869135Y-91661546D01*
X147782141Y-91788866D01*
X147751536Y-91940000D01*
X147650464Y-91940000D01*
X147650464Y-90930000D01*
X147751536Y-90930000D01*
X147751536Y-90940000D01*
X147778103Y-91081190D01*
X147861546Y-91210865D01*
X147988866Y-91297859D01*
X148140000Y-91328464D01*
X149040000Y-91328464D01*
X149181190Y-91301897D01*
X149310865Y-91218454D01*
X149397859Y-91091134D01*
X149428464Y-90940000D01*
X149428464Y-89740000D01*
X149401897Y-89598810D01*
X149318454Y-89469135D01*
X149191134Y-89382141D01*
X149040000Y-89351536D01*
X148140000Y-89351536D01*
X147998810Y-89378103D01*
X147869135Y-89461546D01*
X147782141Y-89588866D01*
X147751536Y-89740000D01*
X147751536Y-89918000D01*
X147650464Y-89918000D01*
X147650464Y-88724000D01*
X147623897Y-88582810D01*
X147540454Y-88453135D01*
X147443000Y-88386548D01*
X147443000Y-88140182D01*
X147492882Y-88020054D01*
X147493118Y-87749135D01*
X147389661Y-87498748D01*
X147198259Y-87307013D01*
X146948054Y-87203118D01*
X146677135Y-87202882D01*
X146426748Y-87306339D01*
X146235013Y-87497741D01*
X146131118Y-87747946D01*
X146130882Y-88018865D01*
X146181000Y-88140161D01*
X146181000Y-88387720D01*
X146091135Y-88445546D01*
X146004141Y-88572866D01*
X145993451Y-88625655D01*
X145947327Y-88514302D01*
X145768699Y-88335673D01*
X145535310Y-88239000D01*
X145319750Y-88239000D01*
X145161000Y-88397750D01*
X145161000Y-89347000D01*
X145181000Y-89347000D01*
X145181000Y-89601000D01*
X145161000Y-89601000D01*
X145161000Y-89621000D01*
X144907000Y-89621000D01*
X144907000Y-89601000D01*
X144182750Y-89601000D01*
X144024000Y-89759750D01*
X144024000Y-89918000D01*
X143890504Y-89918000D01*
X143903464Y-89854000D01*
X143903464Y-88794000D01*
X143894751Y-88747691D01*
X144024000Y-88747691D01*
X144024000Y-89188250D01*
X144182750Y-89347000D01*
X144907000Y-89347000D01*
X144907000Y-88397750D01*
X144748250Y-88239000D01*
X144532690Y-88239000D01*
X144299301Y-88335673D01*
X144120673Y-88514302D01*
X144024000Y-88747691D01*
X143894751Y-88747691D01*
X143876897Y-88652810D01*
X143793454Y-88523135D01*
X143666134Y-88436141D01*
X143515000Y-88405536D01*
X143074561Y-88405536D01*
X142924699Y-88255673D01*
X142691310Y-88159000D01*
X142525750Y-88159000D01*
X142367000Y-88317750D01*
X142367000Y-89197000D01*
X142387000Y-89197000D01*
X142387000Y-89451000D01*
X142367000Y-89451000D01*
X142367000Y-89471000D01*
X142113000Y-89471000D01*
X142113000Y-89451000D01*
X142093000Y-89451000D01*
X142093000Y-89197000D01*
X142113000Y-89197000D01*
X142113000Y-88317750D01*
X142014305Y-88219055D01*
X142042464Y-88080000D01*
X142042464Y-87180000D01*
X142015897Y-87038810D01*
X141932454Y-86909135D01*
X141805134Y-86822141D01*
X141654000Y-86791536D01*
X141560000Y-86791536D01*
X141560000Y-86690464D01*
X141654000Y-86690464D01*
X141795190Y-86663897D01*
X141924865Y-86580454D01*
X142011859Y-86453134D01*
X142031124Y-86358000D01*
X142104186Y-86358000D01*
X142106103Y-86368190D01*
X142189546Y-86497865D01*
X142316866Y-86584859D01*
X142468000Y-86615464D01*
X143668000Y-86615464D01*
X143809190Y-86588897D01*
X143826081Y-86578028D01*
X143829673Y-86586699D01*
X144008302Y-86765327D01*
X144241691Y-86862000D01*
X144682250Y-86862000D01*
X144841000Y-86703250D01*
X144841000Y-85979000D01*
X145095000Y-85979000D01*
X145095000Y-86703250D01*
X145253750Y-86862000D01*
X145694309Y-86862000D01*
X145927698Y-86765327D01*
X146106327Y-86586699D01*
X146203000Y-86353310D01*
X146203000Y-86137750D01*
X146044250Y-85979000D01*
X145095000Y-85979000D01*
X144841000Y-85979000D01*
X144821000Y-85979000D01*
X144821000Y-85725000D01*
X144841000Y-85725000D01*
X144841000Y-85705000D01*
X145095000Y-85705000D01*
X145095000Y-85725000D01*
X146044250Y-85725000D01*
X146203000Y-85566250D01*
X146203000Y-85350690D01*
X146118240Y-85146061D01*
X148054251Y-85531157D01*
M02*
