G04 #@! TF.FileFunction,Copper,L1,Top,Signal*
%FSLAX46Y46*%
G04 Gerber Fmt 4.6, Leading zero omitted, Abs format (unit mm)*
G04 Created by KiCad (PCBNEW 4.0.2-stable) date Saturday, September 17, 2016 'PMt' 12:44:10 PM*
%MOMM*%
G01*
G04 APERTURE LIST*
%ADD10C,0.100000*%
%ADD11R,0.750000X1.200000*%
%ADD12R,1.200000X0.750000*%
%ADD13R,3.299460X4.500880*%
%ADD14R,0.800100X0.800100*%
%ADD15R,0.900000X1.200000*%
%ADD16R,1.200000X0.900000*%
%ADD17R,0.650000X1.060000*%
%ADD18C,1.524000*%
%ADD19R,2.032000X2.032000*%
%ADD20O,2.032000X2.032000*%
%ADD21R,1.220000X0.910000*%
%ADD22C,0.250000*%
%ADD23C,0.500000*%
G04 APERTURE END LIST*
D10*
D11*
X137160000Y-92268000D03*
X137160000Y-94168000D03*
D12*
X143068000Y-85852000D03*
X144968000Y-85852000D03*
D11*
X145034000Y-89474000D03*
X145034000Y-91374000D03*
X135128000Y-97470000D03*
X135128000Y-95570000D03*
D12*
X141290000Y-112014000D03*
X143190000Y-112014000D03*
X136464000Y-107950000D03*
X138364000Y-107950000D03*
D11*
X132842000Y-101534000D03*
X132842000Y-99634000D03*
D13*
X142240000Y-95166180D03*
X142240000Y-103969820D03*
D14*
X146827240Y-94300000D03*
X146827240Y-96200000D03*
X148826220Y-95250000D03*
D15*
X139192000Y-92118000D03*
X139192000Y-94318000D03*
D16*
X138854000Y-87630000D03*
X141054000Y-87630000D03*
X141054000Y-85852000D03*
X138854000Y-85852000D03*
D15*
X146812000Y-91524000D03*
X146812000Y-89324000D03*
X148590000Y-92540000D03*
X148590000Y-90340000D03*
X132842000Y-95420000D03*
X132842000Y-97620000D03*
D16*
X144950000Y-109982000D03*
X147150000Y-109982000D03*
D15*
X136398000Y-112225000D03*
X136398000Y-110025000D03*
X138430000Y-112225000D03*
X138430000Y-110025000D03*
X135128000Y-101516000D03*
X135128000Y-103716000D03*
D17*
X143190000Y-89324000D03*
X142240000Y-89324000D03*
X141290000Y-89324000D03*
X141290000Y-91524000D03*
X143190000Y-91524000D03*
X143190000Y-107866000D03*
X142240000Y-107866000D03*
X141290000Y-107866000D03*
X141290000Y-110066000D03*
X143190000Y-110066000D03*
D18*
X150490000Y-99568000D03*
X130490000Y-99568000D03*
D19*
X155448000Y-98552000D03*
D20*
X155448000Y-101092000D03*
D14*
X150129240Y-95316000D03*
X150129240Y-97216000D03*
X152128220Y-96266000D03*
X152130760Y-93914000D03*
X152130760Y-92014000D03*
X150131780Y-92964000D03*
D21*
X137414000Y-103743000D03*
X137414000Y-100473000D03*
D16*
X149014000Y-107950000D03*
X151214000Y-107950000D03*
X149004200Y-106095800D03*
X146804200Y-106095800D03*
D22*
X137160000Y-92268000D02*
X135570000Y-92268000D01*
X135128000Y-92710000D02*
X135128000Y-95570000D01*
X135570000Y-92268000D02*
X135128000Y-92710000D01*
X143002000Y-90424000D02*
X148506000Y-90424000D01*
X148506000Y-90424000D02*
X148590000Y-90340000D01*
X143190000Y-89324000D02*
X143190000Y-89220000D01*
X137160000Y-92268000D02*
X139042000Y-92268000D01*
X139042000Y-92268000D02*
X139192000Y-92118000D01*
X139192000Y-92118000D02*
X139192000Y-90678000D01*
X139192000Y-90678000D02*
X139446000Y-90424000D01*
X139446000Y-90424000D02*
X143002000Y-90424000D01*
X143002000Y-90424000D02*
X143190000Y-90236000D01*
X143190000Y-90236000D02*
X143190000Y-89324000D01*
X143340000Y-89174000D02*
X143190000Y-89324000D01*
X146827240Y-94300000D02*
X142506740Y-94300000D01*
X142506740Y-94300000D02*
X142240000Y-94566740D01*
X146827240Y-96200000D02*
X146827240Y-94300000D01*
X137160000Y-94168000D02*
X139042000Y-94168000D01*
X139042000Y-94168000D02*
X139440740Y-94566740D01*
X139440740Y-94566740D02*
X142240000Y-94566740D01*
X142603260Y-94930000D02*
X142240000Y-94566740D01*
X141290000Y-91524000D02*
X141290000Y-93616740D01*
X141290000Y-93616740D02*
X142240000Y-94566740D01*
X141054000Y-85852000D02*
X143068000Y-85852000D01*
X141054000Y-87630000D02*
X141054000Y-89088000D01*
X141054000Y-89088000D02*
X141290000Y-89324000D01*
X141054000Y-87630000D02*
X141054000Y-85852000D01*
X141140000Y-89474000D02*
X141290000Y-89324000D01*
X138854000Y-87630000D02*
X139801600Y-87630000D01*
X144968000Y-85201800D02*
X144968000Y-85852000D01*
X144830800Y-85064600D02*
X144968000Y-85201800D01*
X140182600Y-85064600D02*
X144830800Y-85064600D01*
X139954000Y-85293200D02*
X140182600Y-85064600D01*
X139954000Y-87477600D02*
X139954000Y-85293200D01*
X139801600Y-87630000D02*
X139954000Y-87477600D01*
D23*
X138430000Y-112225000D02*
X141079000Y-112225000D01*
X141079000Y-112225000D02*
X141290000Y-112014000D01*
X133985000Y-102108000D02*
X133985000Y-106426000D01*
X138364000Y-107503000D02*
X138364000Y-107950000D01*
X137922000Y-107061000D02*
X138364000Y-107503000D01*
X134620000Y-107061000D02*
X137922000Y-107061000D01*
X133985000Y-106426000D02*
X134620000Y-107061000D01*
X138364000Y-107950000D02*
X139446000Y-107950000D01*
X139446000Y-107950000D02*
X140462000Y-108966000D01*
X140462000Y-108966000D02*
X142240000Y-108966000D01*
X142240000Y-107866000D02*
X142240000Y-108966000D01*
X142240000Y-108966000D02*
X142240000Y-111252000D01*
X142240000Y-111252000D02*
X141478000Y-112014000D01*
X141478000Y-112014000D02*
X141290000Y-112014000D01*
X137414000Y-100473000D02*
X141748000Y-100473000D01*
X142240000Y-100965000D02*
X142240000Y-104569260D01*
X141748000Y-100473000D02*
X142240000Y-100965000D01*
X132842000Y-99634000D02*
X133670000Y-99634000D01*
X137414000Y-102235000D02*
X137414000Y-100473000D01*
X137033000Y-102616000D02*
X137414000Y-102235000D01*
X134493000Y-102616000D02*
X137033000Y-102616000D01*
X133985000Y-102108000D02*
X134493000Y-102616000D01*
X133985000Y-99949000D02*
X133985000Y-102108000D01*
X133670000Y-99634000D02*
X133985000Y-99949000D01*
X132842000Y-95420000D02*
X132037000Y-95420000D01*
X132146000Y-99634000D02*
X132842000Y-99634000D01*
X131826000Y-99314000D02*
X132146000Y-99634000D01*
X131826000Y-95631000D02*
X131826000Y-99314000D01*
X132037000Y-95420000D02*
X131826000Y-95631000D01*
X132842000Y-95420000D02*
X132842000Y-92329000D01*
X132842000Y-92329000D02*
X137541000Y-87630000D01*
X137541000Y-87630000D02*
X138854000Y-87630000D01*
X142240000Y-89324000D02*
X142240000Y-88138000D01*
X142621000Y-87757000D02*
X145034000Y-87757000D01*
X142240000Y-88138000D02*
X142621000Y-87757000D01*
X145034000Y-89474000D02*
X145034000Y-87757000D01*
X145034000Y-87757000D02*
X145034000Y-85918000D01*
X145034000Y-85918000D02*
X144968000Y-85852000D01*
X132776000Y-99568000D02*
X132842000Y-99634000D01*
D22*
X132908000Y-99568000D02*
X132842000Y-99634000D01*
D23*
X145034000Y-91374000D02*
X146662000Y-91374000D01*
X146662000Y-91374000D02*
X146812000Y-91524000D01*
X143190000Y-91524000D02*
X144884000Y-91524000D01*
X144884000Y-91524000D02*
X145034000Y-91374000D01*
D22*
X143340000Y-91374000D02*
X143190000Y-91524000D01*
X135128000Y-97470000D02*
X132992000Y-97470000D01*
X132992000Y-97470000D02*
X132842000Y-97620000D01*
X135128000Y-97470000D02*
X135128000Y-101516000D01*
D23*
X143190000Y-110066000D02*
X143190000Y-112014000D01*
X144950000Y-109982000D02*
X143274000Y-109982000D01*
X143274000Y-109982000D02*
X143190000Y-110066000D01*
D22*
X138684000Y-109898000D02*
X141122000Y-109898000D01*
X141122000Y-109898000D02*
X141290000Y-110066000D01*
X136398000Y-109898000D02*
X138684000Y-109898000D01*
X136464000Y-107950000D02*
X136464000Y-109832000D01*
X136464000Y-109832000D02*
X136398000Y-109898000D01*
X146812000Y-89324000D02*
X146812000Y-86080600D01*
X138854000Y-84920000D02*
X138854000Y-85852000D01*
X139159402Y-84614598D02*
X138854000Y-84920000D01*
X145345998Y-84614598D02*
X139159402Y-84614598D01*
X146812000Y-86080600D02*
X145345998Y-84614598D01*
D23*
X136398000Y-112225000D02*
X136398000Y-113030000D01*
X147150000Y-112565000D02*
X146177000Y-113538000D01*
X147150000Y-112565000D02*
X147150000Y-109982000D01*
X136906000Y-113538000D02*
X146177000Y-113538000D01*
X136398000Y-113030000D02*
X136906000Y-113538000D01*
X130490000Y-106553000D02*
X130490000Y-107630000D01*
X135085000Y-112225000D02*
X136398000Y-112225000D01*
X130490000Y-107630000D02*
X135085000Y-112225000D01*
X132842000Y-101534000D02*
X131252000Y-101534000D01*
X131252000Y-101534000D02*
X130490000Y-100772000D01*
X138854000Y-85852000D02*
X137668000Y-85852000D01*
X130490000Y-93030000D02*
X130490000Y-99568000D01*
X137668000Y-85852000D02*
X130490000Y-93030000D01*
X130490000Y-106614000D02*
X130490000Y-106553000D01*
X130490000Y-106553000D02*
X130490000Y-100772000D01*
X130490000Y-100772000D02*
X130490000Y-99568000D01*
D22*
X130556000Y-99634000D02*
X130490000Y-99568000D01*
X150129240Y-95316000D02*
X148892220Y-95316000D01*
X148892220Y-95316000D02*
X148826220Y-95250000D01*
X150129240Y-97216000D02*
X150129240Y-95316000D01*
X151214000Y-107950000D02*
X152908000Y-107950000D01*
X153670000Y-98552000D02*
X155448000Y-98552000D01*
X153416000Y-98806000D02*
X153670000Y-98552000D01*
X153416000Y-107442000D02*
X153416000Y-98806000D01*
X152908000Y-107950000D02*
X153416000Y-107442000D01*
X152130760Y-93914000D02*
X152130760Y-96263460D01*
X152130760Y-96263460D02*
X152128220Y-96266000D01*
X152130760Y-92014000D02*
X152130760Y-93914000D01*
X150131780Y-92964000D02*
X149014000Y-92964000D01*
X149014000Y-92964000D02*
X148590000Y-92540000D01*
X137414000Y-103743000D02*
X137414000Y-104521000D01*
X139573000Y-106680000D02*
X140970000Y-106680000D01*
X137414000Y-104521000D02*
X139573000Y-106680000D01*
X146804200Y-106095800D02*
X146804200Y-106357600D01*
X146804200Y-106357600D02*
X146481800Y-106680000D01*
X146481800Y-106680000D02*
X140970000Y-106680000D01*
X146804200Y-106273600D02*
X146532600Y-106273600D01*
X146804200Y-106121200D02*
X146804200Y-106332200D01*
X141290000Y-107000000D02*
X141290000Y-107866000D01*
X140970000Y-106680000D02*
X141290000Y-107000000D01*
X135128000Y-103716000D02*
X137387000Y-103716000D01*
X137387000Y-103716000D02*
X137414000Y-103743000D01*
X149004200Y-106095800D02*
X149004200Y-107940200D01*
X149004200Y-107940200D02*
X149014000Y-107950000D01*
D23*
X149004200Y-107940200D02*
X149014000Y-107950000D01*
D22*
X149004200Y-107940200D02*
X149014000Y-107950000D01*
X143190000Y-107866000D02*
X148930000Y-107866000D01*
X148930000Y-107866000D02*
X149014000Y-107950000D01*
X143274000Y-107950000D02*
X143190000Y-107866000D01*
M02*
